<?xml version="1.0" standalone="no"?><!-- Generator: Adobe Fireworks CS6, Export SVG Extension by Aaron Beall (http://fireworks.abeall.com) . Version: 0.6.1  --><!DOCTYPE svg PUBLIC "-//W3C//DTD SVG 1.1//EN" "http://www.w3.org/Graphics/SVG/1.1/DTD/svg11.dtd"><svg id="Untitled-Page%201" viewBox="0 0 668 930" style="background-color:#ffffff00" version="1.1"	xmlns="http://www.w3.org/2000/svg" xmlns:xlink="http://www.w3.org/1999/xlink" xml:space="preserve"	x="0px" y="0px" width="668px" height="930px">	<g id="Coins">		<path id="Ellipse" d="M 0.2098 597.2043 C 0.2098 413.6284 149.5049 264.817 333.6714 264.817 C 517.8384 264.817 667.133 413.6284 667.133 597.2043 C 667.133 780.7787 517.8384 929.5913 333.6714 929.5913 C 149.5049 929.5913 0.2098 780.7787 0.2098 597.2043 Z" fill="#eaeaea"/>		<g>			<path d="M 230.1017 28.5191 C 230.1017 28.5191 222.8701 148.1767 242.5231 147.0246 C 262.184 145.8718 312.5765 19.9772 312.5765 19.9772 L 230.1017 28.5191 Z" fill="#cbcbcb"/>			<path d="M 214.1208 270.8972 C 214.1208 270.8972 101.3022 111.0691 108.2761 67.7321 C 111.9358 44.9836 161.8681 29.2148 233.5199 17.4141 C 242.264 15.9741 235.0597 148.9244 244.0431 147.685 C 250.7795 146.7545 301.9329 9.6851 308.7274 8.8727 C 360.0721 2.7329 394.4625 -0.7447 431.6937 0.6388 C 534.2734 4.4517 600.102 49.7599 602.5615 86.0308 C 605.0173 122.302 456.8044 273.3159 456.8044 273.3159 L 214.1208 270.8972 Z" fill="#eaeaea"/>		</g>		<rect x="193.8368" y="250.5253" width="286.8483" height="42.8888" fill="#bfa64d" rx="21.4444" ry="21.4444"/>		<g>			<path d="M 481.2313 266.9333 C 481.2313 266.9333 517.913 273.98 547.2623 295.8377 C 576.6918 317.7628 587.228 323.2245 581.965 339.4548 C 576.7094 355.6697 557.2637 339.3443 535.7185 324.7686 C 495.0096 297.2247 461.9904 292.2607 461.9904 292.2607 C 461.9904 292.2607 504.9619 308.8029 530.74 366.516 C 556.5605 424.324 569.3309 442.6683 551.037 450.4617 C 532.7925 458.2356 527.5513 439.4957 524.8223 431.0091 C 522.0945 422.5219 503.0737 372.1733 488.0827 352.9211 C 473.1041 333.6941 434.5118 284.2179 403.1212 288.0909 C 371.8495 291.9499 481.2313 266.9333 481.2313 266.9333 Z" fill="#bfa64d"/>		</g>		<g>			<g>				<path id="Ellipse2" d="M 143.635 597.2043 C 143.635 492.5876 228.7145 407.78 333.6714 407.78 C 438.6297 407.78 523.707 492.5876 523.707 597.2043 C 523.707 701.8223 438.6297 786.6292 333.6714 786.6292 C 228.7145 786.6292 143.635 701.8223 143.635 597.2043 Z" fill="#fdee68"/>			</g>			<g>				<path d="M 371.3492 670.2245 C 378.3762 667.1027 383.8618 663.4124 387.936 659.2258 C 392.0154 655.04 394.7556 650.4977 396.3035 645.6011 C 397.8489 640.7048 398.6226 635.9509 398.6226 631.3375 C 398.6226 621.8284 396.3035 614.0224 391.6628 607.9903 C 387.0255 602.0293 381.2595 597.1326 374.23 593.3724 C 367.1992 589.6821 359.5375 586.7723 351.3813 584.6431 C 343.1591 582.515 335.5671 580.528 328.5337 578.6114 C 321.5004 576.6964 315.6711 574.4952 311.0328 572.0829 C 306.3909 569.67 304.1423 566.3357 304.1423 562.0773 C 304.1423 553.7034 314.9667 549.518 336.618 549.518 C 350.467 549.518 367.0602 554.0587 386.463 563.142 L 389.6243 531.3493 C 385.2626 528.3707 378.871 525.5313 370.4351 522.8347 C 361.9993 520.1381 353.2793 518.4349 344.4225 517.7242 L 349.1328 485.9333 L 317.6398 485.9333 L 322.3516 517.7242 C 312.8588 518.7185 304.705 520.5641 297.8806 523.3318 C 291.0646 526.1693 285.4412 529.6474 281.0128 533.8344 C 276.5138 538.02 273.2814 542.7043 271.2468 547.8852 C 269.1353 553.0654 268.1503 558.3166 268.1503 563.6392 C 268.1503 571.728 270.4691 578.328 275.1797 583.4372 C 279.8884 588.6172 285.7182 592.8744 292.7555 596.2112 C 299.7141 599.6172 307.2354 602.4554 315.3932 604.7258 C 323.4731 606.9971 330.9971 609.2679 338.0279 611.5385 C 344.9867 613.8092 350.8198 616.3638 355.5275 619.2032 C 360.2368 622.041 362.6305 625.8022 362.6305 630.486 C 362.6305 640.1373 352.6484 644.8918 332.7547 644.8918 C 309.0614 644.8918 290.7157 638.8589 277.6379 626.7245 L 272.6454 663.0584 C 283.193 670.793 299.7811 675.3343 322.3516 676.6826 L 317.6398 708.4753 L 349.1328 708.4753 L 344.4225 676.399 C 355.3908 675.4765 364.3198 673.4188 371.3492 670.2245 L 371.3492 670.2245 Z" fill="#f2b800"/>			</g>		</g>	</g></svg>