<?xml version="1.0" standalone="no"?><!-- Generator: Adobe Fireworks CS6, Export SVG Extension by Aaron Beall (http://fireworks.abeall.com) . Version: 0.6.1  --><!DOCTYPE svg PUBLIC "-//W3C//DTD SVG 1.1//EN" "http://www.w3.org/Graphics/SVG/1.1/DTD/svg11.dtd"><svg id="Untitled-Page%201" viewBox="0 0 441 365" style="background-color:#ffffff00" version="1.1"	xmlns="http://www.w3.org/2000/svg" xmlns:xlink="http://www.w3.org/1999/xlink" xml:space="preserve"	x="0px" y="0px" width="441px" height="365px">	<g id="Coins">		<g>			<path d="M 34.0223 192.3884 C 34.0223 192.3884 32.5602 267.5877 35.5884 281.1498 C 38.6166 294.713 76.0064 364.0789 235.5382 364.0789 C 402.7628 364.0789 438.6436 295.1637 439.6127 281.9662 C 440.2314 273.5217 440.0545 193.1271 440.0545 193.1271 L 34.0223 192.3884 Z" fill="#f2b800"/>			<path id="Ellipse" d="M 32.1526 191.9108 C 32.1526 142.1295 123.3168 101.7726 235.7761 101.7726 C 348.2392 101.7726 439.4035 142.1295 439.4035 191.9108 C 439.4035 241.6957 348.2392 282.0513 235.7761 282.0513 C 123.3168 282.0513 32.1526 241.6957 32.1526 191.9108 Z" fill="#f7e455"/>			<g>				<path d="M 284.4454 211.6587 C 293.2229 210.5502 300.0695 209.2396 305.1604 207.7523 C 310.2524 206.2659 313.6748 204.6539 315.6074 202.9148 C 317.5371 201.1764 318.5042 199.4879 318.5042 197.8502 C 318.5042 194.4742 315.6074 191.702 309.8131 189.5604 C 304.0209 187.444 296.8212 185.7054 288.0437 184.3701 C 279.2655 183.0596 269.6968 182.0253 259.514 181.2703 C 249.2422 180.5149 239.7626 179.8091 230.9851 179.1287 C 222.2069 178.4482 214.9211 177.6669 209.1262 176.8107 C 203.3339 175.9528 200.5228 174.7698 200.5228 173.2576 C 200.5228 170.2836 214.0418 168.7978 241.0792 168.7978 C 258.3727 168.7978 279.0886 170.4103 303.3177 173.6349 L 307.2664 162.3475 C 301.8242 161.288 293.8361 160.2804 283.3021 159.3226 C 272.7681 158.3658 261.8821 157.761 250.8236 157.5084 L 256.7049 146.2198 L 217.3782 146.2198 L 223.2584 157.5084 C 211.4097 157.8621 201.2251 158.5175 192.711 159.4994 C 184.1966 160.5065 177.1747 161.7416 171.6429 163.2285 C 166.0259 164.7153 161.9855 166.3784 159.441 168.2177 C 156.8073 170.0577 155.5797 171.9213 155.5797 173.8117 C 155.5797 176.684 158.4767 179.0273 164.358 180.8418 C 170.2391 182.6812 177.5252 184.194 186.3032 185.3781 C 194.9926 186.587 204.3853 187.595 214.5692 188.4016 C 224.6647 189.2075 234.0574 190.0136 242.8356 190.8205 C 251.525 191.6257 258.8106 192.5338 264.6923 193.5412 C 270.5751 194.5491 273.5594 195.8853 273.5594 197.5479 C 273.5594 200.9751 261.0928 202.6635 236.2505 202.6635 C 206.6682 202.6635 183.7573 200.5213 167.4294 196.2129 L 161.1979 209.1137 C 174.3648 211.8595 195.0798 213.4729 223.2584 213.9515 L 217.3782 225.2396 L 256.7049 225.2396 L 250.8236 213.8508 C 264.5179 213.5229 275.666 212.7927 284.4454 211.6587 L 284.4454 211.6587 Z" fill="#f2b800"/>			</g>		</g>		<g>			<path d="M 2.0207 91.1443 C 2.0207 91.1443 0.5587 166.3438 3.5859 179.9061 C 6.615 193.4694 44.0011 262.8344 203.5359 262.8344 C 370.7603 262.8344 406.6429 193.9191 407.6111 180.7221 C 408.2282 172.2773 408.052 91.8838 408.052 91.8838 L 2.0207 91.1443 Z" fill="#f2b800"/>			<path id="Ellipse2" d="M 0.1492 90.6673 C 0.1492 40.8855 91.3142 0.5285 203.7745 0.5285 C 316.2366 0.5285 407.4012 40.8855 407.4012 90.6673 C 407.4012 140.4517 316.2366 180.8081 203.7745 180.8081 C 91.3142 180.8081 0.1492 140.4517 0.1492 90.6673 Z" fill="#f7e455"/>			<g>				<path d="M 252.4429 110.4152 C 261.2204 109.3063 268.0679 107.9954 273.159 106.5088 C 278.249 105.0228 281.6722 103.4096 283.6048 101.6709 C 285.5345 99.9324 286.501 98.2445 286.501 96.6065 C 286.501 93.2296 283.6048 90.4584 277.8097 88.3168 C 272.0165 86.2003 264.8187 84.4612 256.0411 83.1255 C 247.2621 81.8155 237.6934 80.782 227.5114 80.027 C 217.2399 79.2703 207.7603 78.5648 198.9828 77.8844 C 190.2043 77.2048 182.9178 76.4229 177.1237 75.5663 C 171.3313 74.7095 168.5203 73.5258 168.5203 72.0133 C 168.5203 69.0399 182.0402 67.5527 209.0748 67.5527 C 226.3702 67.5527 247.0861 69.1658 271.3152 72.3914 L 275.264 61.1032 C 269.8226 60.0443 261.8335 59.037 251.3005 58.0792 C 240.7655 57.1218 229.8798 56.5168 218.8213 56.2647 L 224.7036 44.977 L 185.3775 44.977 L 191.2559 56.2647 C 179.4064 56.6178 169.2235 57.2736 160.7084 58.2552 C 152.194 59.2632 145.1713 60.4983 139.6404 61.9851 C 134.0222 63.4716 129.9849 65.1349 127.4396 66.9744 C 124.8057 68.8142 123.5782 70.6777 123.5782 72.568 C 123.5782 75.4392 126.4733 77.7831 132.3549 79.5984 C 138.2366 81.4379 145.5215 82.95 154.3009 84.1337 C 162.9903 85.3424 172.383 86.3512 182.5676 87.1568 C 192.6603 87.9637 202.054 88.7696 210.834 89.5764 C 219.5225 90.3825 226.8083 91.2891 232.6897 92.2969 C 238.5719 93.3057 241.5559 94.6416 241.5559 96.3043 C 241.5559 99.7311 229.0905 101.4192 204.2489 101.4192 C 174.6656 101.4192 151.7559 99.2769 135.426 94.969 L 129.1944 107.8687 C 142.3622 110.616 163.0784 112.2286 191.2559 112.7081 L 185.3775 123.9963 L 224.7036 123.9963 L 218.8213 112.606 C 232.5137 112.2794 243.6628 111.5486 252.4429 110.4152 L 252.4429 110.4152 Z" fill="#f2b800"/>			</g>		</g>	</g></svg>