<?xml version="1.0" standalone="no"?><!-- Generator: Adobe Fireworks CS6, Export SVG Extension by Aaron Beall (http://fireworks.abeall.com) . Version: 0.6.1  --><!DOCTYPE svg PUBLIC "-//W3C//DTD SVG 1.1//EN" "http://www.w3.org/Graphics/SVG/1.1/DTD/svg11.dtd"><svg id="Untitled-Page%201" viewBox="0 0 694 747" style="background-color:#ffffff00" version="1.1"	xmlns="http://www.w3.org/2000/svg" xmlns:xlink="http://www.w3.org/1999/xlink" xml:space="preserve"	x="0px" y="0px" width="694px" height="747px">	<g id="Coins">		<path id="Ellipse" d="M 0.6364 634.9783 C 0.6364 573.158 155.8044 523.0451 347.2247 523.0451 C 538.6423 523.0451 693.8138 573.158 693.8138 634.9783 C 693.8138 696.796 538.6423 746.9091 347.2247 746.9091 C 155.8044 746.9091 0.6364 696.796 0.6364 634.9783 Z" fill="#f7e455"/>		<rect x="0.6398" y="120.0908" width="693.1779" height="522.3493" fill="#f7e455"/>		<path id="Ellipse2" d="M 0.6364 112.6277 C 0.6364 50.81 155.8044 0.697 347.2247 0.697 C 538.6423 0.697 693.8138 50.81 693.8138 112.6277 C 693.8138 174.4468 538.6423 224.5609 347.2247 224.5609 C 155.8044 224.5609 0.6364 174.4468 0.6364 112.6277 Z" fill="#fffe6c"/>		<path d="M 0.6364 540.6212 C 53.01 583.6419 190.1159 614.3333 351.0147 614.3333 C 504.6749 614.3333 636.6379 586.3323 693.8181 546.3409 L 693.8181 471.3978 C 636.618 511.3777 504.6481 539.3649 351.0147 539.3649 C 190.1524 539.3649 53.0378 508.6838 0.6364 465.678 L 0.6364 540.6212 Z" fill="#f2b800"/>		<path d="M 0.6364 330.7159 C 53.01 373.7371 190.1159 404.4217 351.0147 404.4217 C 504.6749 404.4217 636.6379 376.4273 693.8181 336.4356 L 693.8181 261.4924 C 636.618 301.473 504.6481 329.452 351.0147 329.452 C 190.1524 329.452 53.0378 298.7794 0.6364 255.7727 L 0.6364 330.7159 Z" fill="#f2b800"/>	</g></svg>