<?xml version="1.0" standalone="no"?><!-- Generator: Adobe Fireworks CS6, Export SVG Extension by Aaron Beall (http://fireworks.abeall.com) . Version: 0.6.1  --><!DOCTYPE svg PUBLIC "-//W3C//DTD SVG 1.1//EN" "http://www.w3.org/Graphics/SVG/1.1/DTD/svg11.dtd"><svg id="Untitled-Page%201" viewBox="0 0 619 573" style="background-color:#ffffff00" version="1.1"	xmlns="http://www.w3.org/2000/svg" xmlns:xlink="http://www.w3.org/1999/xlink" xml:space="preserve"	x="0px" y="0px" width="619px" height="573px">	<g id="Coins">		<g>			<g>				<path d="M 14.23 365.6412 C 14.23 365.6412 12.9011 434.0405 15.6528 446.3776 C 18.4019 458.714 52.3474 521.8084 197.1929 521.8084 C 349.0212 521.8084 381.6006 459.1243 382.4805 447.1204 C 383.0428 439.4384 382.8814 366.314 382.8814 366.314 L 14.23 365.6412 Z" fill="#f2b800"/>				<path id="Ellipse" d="M 12.5308 365.2076 C 12.5308 319.9272 95.3023 283.2178 197.4116 283.2178 C 299.5173 283.2178 382.2882 319.9272 382.2882 365.2076 C 382.2882 410.4909 299.5173 447.1971 197.4116 447.1971 C 95.3023 447.1971 12.5308 410.4909 12.5308 365.2076 Z" fill="#f7e455"/>				<g>					<path d="M 241.5959 383.1694 C 249.5668 382.1611 255.7831 380.9695 260.4047 379.6174 C 265.0276 378.2653 268.1374 376.7979 269.8906 375.2163 C 271.6435 373.6349 272.5218 372.0991 272.5218 370.6096 C 272.5218 367.538 269.8906 365.0179 264.6298 363.0693 C 259.3691 361.1441 252.8347 359.5629 244.8638 358.3471 C 236.8929 357.1568 228.2084 356.216 218.9613 355.5291 C 209.6371 354.8412 201.03 354.1996 193.0574 353.5811 C 185.088 352.9618 178.474 352.2508 173.2132 351.4721 C 167.9524 350.6926 165.4021 349.6157 165.4021 348.2402 C 165.4021 345.5364 177.6764 344.183 202.2236 344.183 C 217.9252 344.183 236.7346 345.6514 258.7322 348.5847 L 262.319 338.3173 C 257.3772 337.3538 250.1246 336.4373 240.5604 335.5664 C 230.9971 334.6952 221.114 334.1443 211.0712 333.9153 L 216.4101 323.648 L 180.7048 323.648 L 186.0454 333.9153 C 175.2849 334.2369 166.0381 334.8327 158.3083 335.7266 C 150.5772 336.6431 144.2018 337.7657 139.1817 339.1186 C 134.0809 340.4708 130.4132 341.9837 128.1008 343.6563 C 125.711 345.3298 124.5948 347.0256 124.5948 348.7448 C 124.5948 351.357 127.2253 353.489 132.5649 355.139 C 137.9048 356.8124 144.5207 358.1873 152.4915 359.2648 C 160.3819 360.3652 168.9088 361.2816 178.1542 362.0139 C 187.319 362.7485 195.8484 363.4819 203.8186 364.215 C 211.7081 364.9482 218.3239 365.7729 223.6645 366.6906 C 229.0042 367.6071 231.7145 368.8228 231.7145 370.3343 C 231.7145 373.4512 220.3964 374.9879 197.8411 374.9879 C 170.9824 374.9879 150.1794 373.0394 135.3552 369.1194 L 129.6965 380.8543 C 141.6513 383.3522 160.461 384.819 186.0454 385.2554 L 180.7048 395.5228 L 216.4101 395.5228 L 211.0712 385.1635 C 223.5045 384.8656 233.6265 384.2003 241.5959 383.1694 L 241.5959 383.1694 Z" fill="#f2b800"/>				</g>			</g>			<g>				<path d="M 20.0404 273.5519 C 20.0404 273.5519 18.7129 341.9514 21.4622 354.2872 C 24.2137 366.6249 58.1591 429.718 203.0041 429.718 C 354.8333 429.718 387.4119 367.0347 388.2923 355.0302 C 388.8531 347.3491 388.6937 274.2239 388.6937 274.2239 L 20.0404 273.5519 Z" fill="#f2b800"/>				<path id="Ellipse2" d="M 18.3427 273.1179 C 18.3427 227.8374 101.1133 191.128 203.2217 191.128 C 305.3286 191.128 388.0999 227.8374 388.0999 273.1179 C 388.0999 318.4008 305.3286 355.1085 203.2217 355.1085 C 101.1133 355.1085 18.3427 318.4008 18.3427 273.1179 Z" fill="#f7e455"/>				<g>					<path d="M 247.4077 291.0801 C 255.3779 290.071 261.5951 288.8799 266.2164 287.5273 C 270.8387 286.1754 273.9494 284.7083 275.7023 283.127 C 277.4554 281.5453 278.3328 280.0103 278.3328 278.5205 C 278.3328 275.449 275.7023 272.9276 270.4418 270.9801 C 265.1809 269.0541 258.6451 267.473 250.6758 266.2578 C 242.7047 265.067 234.0178 264.1274 224.7733 263.439 C 215.4472 262.7508 206.8403 262.1093 198.8692 261.4917 C 190.9 260.8719 184.2858 260.161 179.0236 259.3828 C 173.7637 258.6033 171.2138 257.5257 171.2138 256.1503 C 171.2138 253.4464 183.4874 252.0937 208.0356 252.0937 C 223.7362 252.0937 242.5466 253.5603 264.5442 256.4944 L 268.131 246.2272 C 263.1883 245.2645 255.9364 244.3474 246.3721 243.4763 C 236.8088 242.605 226.9243 242.0546 216.8822 241.8264 L 222.2212 231.5587 L 186.5165 231.5587 L 191.8571 241.8264 C 181.0962 242.147 171.8507 242.7426 164.1203 243.6365 C 156.389 244.5531 150.0129 245.6767 144.9918 247.0283 C 139.891 248.3806 136.2252 249.8941 133.9128 251.5667 C 131.5223 253.2408 130.4067 254.9369 130.4067 256.6545 C 130.4067 259.2671 133.0363 261.3992 138.376 263.0497 C 143.7159 264.7223 150.3326 266.0971 158.3035 267.1754 C 166.193 268.2742 174.7208 269.1921 183.9653 269.925 C 193.1307 270.6594 201.6602 271.3915 209.6304 272.1254 C 217.5192 272.8596 224.1357 273.6844 229.4763 274.6006 C 234.8152 275.517 237.5239 276.7324 237.5239 278.2446 C 237.5239 281.3613 226.2067 282.8979 203.6515 282.8979 C 176.7941 282.8979 155.9911 280.9492 141.1663 277.03 L 135.5076 288.7643 C 147.4624 291.263 166.2727 292.7297 191.8571 293.1661 L 186.5165 303.4337 L 222.2212 303.4337 L 216.8822 293.0736 C 229.3149 292.7761 239.4384 292.1113 247.4077 291.0801 L 247.4077 291.0801 Z" fill="#f2b800"/>				</g>			</g>			<g>				<path d="M 2.6075 176.9703 C 2.6075 176.9703 1.2804 245.3695 4.03 257.7054 C 6.7814 270.0429 40.7244 333.1369 185.5707 333.1369 C 337.3998 333.1369 369.9794 270.4528 370.8584 258.4482 C 371.4193 250.7671 371.2593 177.6419 371.2593 177.6419 L 2.6075 176.9703 Z" fill="#f2b800"/>				<path id="Ellipse3" d="M 0.9091 176.5359 C 0.9091 131.2553 83.6808 94.5467 185.7876 94.5467 C 287.8936 94.5467 370.6675 131.2553 370.6675 176.5359 C 370.6675 221.8187 287.8936 258.5259 185.7876 258.5259 C 83.6808 258.5259 0.9091 221.8187 0.9091 176.5359 Z" fill="#f7e455"/>				<g>					<path d="M 229.9738 194.4981 C 237.9447 193.4899 244.161 192.297 248.7823 190.9459 C 253.4064 189.5932 256.5137 188.127 258.2684 186.5448 C 260.023 184.9634 260.8987 183.4268 260.8987 181.9376 C 260.8987 178.8674 258.2684 176.3465 253.0077 174.3977 C 247.7487 172.4719 241.2119 170.8907 233.2424 169.6767 C 225.2715 168.4846 216.5837 167.5445 207.3392 166.8567 C 198.0131 166.1693 189.4063 165.5273 181.437 164.909 C 173.4659 164.2898 166.85 163.5787 161.5902 162.8004 C 156.3312 162.0212 153.78 160.9442 153.78 159.5685 C 153.78 156.8643 166.0543 155.5124 190.6015 155.5124 C 206.303 155.5124 225.1118 156.9788 247.1101 159.9125 L 250.6953 149.645 C 245.7535 148.6821 238.5023 147.7655 228.9374 146.895 C 219.374 146.0245 209.4919 145.4733 199.449 145.245 L 204.7889 134.9774 L 169.0824 134.9774 L 174.4216 145.245 C 163.6612 145.5654 154.4176 146.1607 146.6862 147.0552 C 138.9558 147.9717 132.5788 149.0942 127.5587 150.447 C 122.4578 151.7991 118.7911 153.3116 116.4787 154.9854 C 114.0881 156.6586 112.9727 158.3542 112.9727 160.0723 C 112.9727 162.6858 115.6039 164.8168 120.9438 166.4675 C 126.2827 168.1417 132.8986 169.5159 140.8694 170.593 C 148.7589 171.6927 157.286 172.6102 166.5321 173.3431 C 175.6976 174.0765 184.2254 174.8099 192.1965 175.5443 C 200.0851 176.2769 206.7016 177.1021 212.0405 178.0191 C 217.3814 178.9355 220.0914 180.1501 220.0914 181.6628 C 220.0914 184.7797 208.7743 186.3156 186.2174 186.3156 C 159.3587 186.3156 138.5586 184.3679 123.7321 180.4485 L 118.0744 192.1829 C 130.0292 194.6807 148.837 196.1484 174.4216 196.5834 L 169.0824 206.8514 L 204.7889 206.8514 L 199.449 196.4913 C 211.8824 196.1942 222.0027 195.53 229.9738 194.4981 L 229.9738 194.4981 Z" fill="#f2b800"/>				</g>			</g>			<g>				<path d="M 20.0404 82.6336 C 20.0404 82.6336 18.7129 151.0334 21.4622 163.3697 C 24.2137 175.7073 58.1591 238.8015 203.0041 238.8015 C 354.8333 238.8015 387.4119 176.1165 388.2923 164.1128 C 388.8531 156.4318 388.6937 83.3067 388.6937 83.3067 L 20.0404 82.6336 Z" fill="#f2b800"/>				<path id="Ellipse4" d="M 18.3427 82.1997 C 18.3427 36.9199 101.1133 0.2121 203.2217 0.2121 C 305.3286 0.2121 388.0999 36.9199 388.0999 82.1997 C 388.0999 127.484 305.3286 164.1901 203.2217 164.1901 C 101.1133 164.1901 18.3427 127.484 18.3427 82.1997 Z" fill="#f7e455"/>				<g>					<path d="M 247.4077 100.162 C 255.3779 99.1541 261.5951 97.9619 266.2164 96.6098 C 270.8387 95.2578 273.9494 93.7908 275.7023 92.2097 C 277.4554 90.6273 278.3328 89.0916 278.3328 87.6025 C 278.3328 84.5313 275.7023 82.0103 270.4418 80.0618 C 265.1809 78.1368 258.6451 76.5555 250.6758 75.3403 C 242.7047 74.1493 234.0178 73.2092 224.7733 72.5214 C 215.4472 71.8341 206.8403 71.1928 198.8692 70.5743 C 190.9 69.9552 184.2858 69.244 179.0236 68.4653 C 173.7637 67.6848 171.2138 66.6077 171.2138 65.2335 C 171.2138 62.5279 183.4874 61.177 208.0356 61.177 C 223.7362 61.177 242.5466 62.6436 264.5442 65.5771 L 268.131 55.3094 C 263.1883 54.3468 255.9364 53.4292 246.3721 52.5591 C 236.8088 51.6879 226.9243 51.1374 216.8822 50.9083 L 222.2212 40.6405 L 186.5165 40.6405 L 191.8571 50.9083 C 181.0962 51.2296 171.8507 51.8254 164.1203 52.7192 C 156.389 53.6356 150.0129 54.7589 144.9918 56.1117 C 139.891 57.4637 136.2252 58.977 133.9128 60.6483 C 131.5223 62.3225 130.4067 64.0184 130.4067 65.7371 C 130.4067 68.3496 133.0363 70.482 138.376 72.1322 C 143.7159 73.8048 150.3326 75.1796 158.3035 76.2571 C 166.193 77.3582 174.7208 78.2737 183.9653 79.0078 C 193.1307 79.7406 201.6602 80.4745 209.6304 81.2076 C 217.5192 81.9413 224.1357 82.7659 229.4763 83.6837 C 234.8152 84.6003 237.5239 85.8148 237.5239 87.3277 C 237.5239 90.4438 226.2067 91.9804 203.6515 91.9804 C 176.7941 91.9804 155.9911 90.0317 141.1663 86.1124 L 135.5076 97.8478 C 147.4624 100.3455 166.2727 101.8122 191.8571 102.2484 L 186.5165 112.516 L 222.2212 112.516 L 216.8822 102.1561 C 229.3149 101.8576 239.4384 101.1941 247.4077 100.162 L 247.4077 100.162 Z" fill="#f2b800"/>				</g>			</g>		</g>		<g>			<g>				<path d="M 249.6597 416.0148 C 249.6597 416.0148 248.3324 484.4155 251.0825 496.7505 C 253.8344 509.0874 287.7787 572.1819 432.6237 572.1819 C 584.4532 572.1819 617.0322 509.4982 617.9126 497.494 C 618.4721 489.8126 618.3121 416.6873 618.3121 416.6873 L 249.6597 416.0148 Z" fill="#f2b800"/>				<path id="Ellipse5" d="M 247.9623 415.5807 C 247.9623 370.3008 330.7336 333.592 432.8419 333.592 C 534.9486 333.592 617.7202 370.3008 617.7202 415.5807 C 617.7202 460.864 534.9486 497.5716 432.8419 497.5716 C 330.7336 497.5716 247.9623 460.864 247.9623 415.5807 Z" fill="#f7e455"/>				<g>					<path d="M 477.0281 433.5438 C 484.9974 432.5353 491.2137 431.343 495.8367 429.9905 C 500.4583 428.6379 503.5678 427.1721 505.3226 425.5897 C 507.0755 424.0086 507.9512 422.4727 507.9512 420.9833 C 507.9512 417.9122 505.3226 415.3906 500.0602 413.4429 C 494.8015 411.5178 488.2646 409.9366 480.2944 408.7213 C 472.3253 407.5302 463.6384 406.5896 454.392 405.9028 C 445.066 405.215 436.4606 404.5732 428.4895 403.955 C 420.5202 403.3354 413.9044 402.6248 408.6438 401.8462 C 403.3837 401.0662 400.8341 399.9892 400.8341 398.6144 C 400.8341 395.9091 413.1068 394.5573 437.6558 394.5573 C 453.3558 394.5573 472.1652 396.0245 494.1638 398.9572 L 497.7515 388.6905 C 492.8085 387.7267 485.556 386.8104 475.9901 385.9395 C 466.4265 385.0688 456.543 384.5189 446.5018 384.289 L 451.8414 374.0215 L 416.1368 374.0215 L 421.476 384.289 C 410.7162 384.6106 401.4708 385.2068 393.7406 386.1003 C 386.0085 387.0159 379.6332 388.1399 374.6107 389.4918 C 369.5115 390.8444 365.8455 392.3569 363.5331 394.0302 C 361.1425 395.7036 360.027 397.3987 360.027 399.118 C 360.027 401.7306 362.6566 403.8622 367.9963 405.5126 C 373.3364 407.186 379.9526 408.5613 387.9219 409.6389 C 395.8116 410.7385 404.3408 411.6553 413.5849 412.389 C 422.7513 413.1221 431.28 413.8546 439.2498 414.5887 C 447.1385 415.3218 453.7543 416.1472 459.0968 417.0642 C 464.4355 417.9807 467.1442 419.1958 467.1442 420.7087 C 467.1442 423.8253 455.8272 425.3616 433.2715 425.3616 C 406.4128 425.3616 385.6105 423.4129 370.7849 419.4933 L 365.1271 431.2283 C 377.0817 433.7259 395.8916 435.1933 421.476 435.6286 L 416.1368 445.8967 L 451.8414 445.8967 L 446.5018 435.537 C 458.9354 435.2388 469.0589 434.5747 477.0281 433.5438 L 477.0281 433.5438 Z" fill="#f2b800"/>				</g>			</g>			<g>				<path d="M 220.6061 323.9256 C 220.6061 323.9256 219.2769 392.3251 222.0256 404.6612 C 224.7766 416.9985 258.7234 480.0919 403.5673 480.0919 C 555.3973 480.0919 587.9767 417.4075 588.8548 405.4039 C 589.4165 397.7227 589.2561 324.5979 589.2561 324.5979 L 220.6061 323.9256 Z" fill="#f2b800"/>				<path id="Ellipse6" d="M 218.9061 323.4915 C 218.9061 278.2105 301.6781 241.5027 403.7859 241.5027 C 505.8936 241.5027 588.6638 278.2105 588.6638 323.4915 C 588.6638 368.7753 505.8936 405.482 403.7859 405.482 C 301.6781 405.482 218.9061 368.7753 218.9061 323.4915 Z" fill="#f7e455"/>				<g>					<path d="M 447.9717 341.4535 C 455.941 340.4449 462.1583 339.2531 466.7808 337.9009 C 471.4019 336.549 474.51 335.082 476.2666 333.5006 C 478.0177 331.9194 478.8962 330.3832 478.8962 328.8937 C 478.8962 325.8226 476.2666 323.3015 471.0042 321.3536 C 465.745 319.4285 459.2091 317.8463 451.239 316.6314 C 443.2688 315.4401 434.5819 314.5004 425.3374 313.8133 C 416.0096 313.1252 407.4042 312.483 399.4335 311.8648 C 391.4634 311.2463 384.8489 310.5353 379.5892 309.7561 C 374.3287 308.9766 371.7762 307.8996 371.7762 306.5241 C 371.7762 303.8201 384.0508 302.4667 408.5999 302.4667 C 424.2993 302.4667 443.1093 303.9348 465.1074 306.868 L 468.6937 296.6006 C 463.7526 295.6379 456.4995 294.7211 446.9346 293.85 C 437.3705 292.9787 427.4875 292.4287 417.4454 292.1995 L 422.7859 281.9324 L 387.0808 281.9324 L 392.4196 292.1995 C 381.6603 292.5201 372.4139 293.1168 364.6827 294.0102 C 356.9531 294.9267 350.5779 296.0503 345.5543 297.4027 C 340.4543 298.7548 336.7876 300.2676 334.4769 301.9409 C 332.0863 303.6137 330.9708 305.3094 330.9708 307.0287 C 330.9708 309.6407 333.6004 311.7723 338.9401 313.4233 C 344.2809 315.0967 350.8951 316.4723 358.8676 317.5491 C 366.7561 318.6487 375.2839 319.5657 384.5284 320.2981 C 393.6948 321.0328 402.2245 321.7653 410.1946 322.499 C 418.0839 323.2321 424.6984 324.0569 430.0371 324.9738 C 435.3795 325.8914 438.0882 327.106 438.0882 328.6192 C 438.0882 331.7355 426.7708 333.2712 404.2164 333.2712 C 377.3568 333.2712 356.5552 331.3229 341.7287 327.4042 L 336.0709 339.1379 C 348.0257 341.6367 366.8352 343.1033 392.4196 343.5395 L 387.0808 353.8068 L 422.7859 353.8068 L 417.4454 343.4468 C 429.879 343.1495 440.0025 342.4847 447.9717 341.4535 L 447.9717 341.4535 Z" fill="#f2b800"/>				</g>			</g>		</g>	</g></svg>