<?xml version="1.0" standalone="no"?><!-- Generator: Adobe Fireworks CS6, Export SVG Extension by Aaron Beall (http://fireworks.abeall.com) . Version: 0.6.1  --><!DOCTYPE svg PUBLIC "-//W3C//DTD SVG 1.1//EN" "http://www.w3.org/Graphics/SVG/1.1/DTD/svg11.dtd"><svg id="Untitled-Page%201" viewBox="0 0 891 842" style="background-color:#ffffff00" version="1.1"	xmlns="http://www.w3.org/2000/svg" xmlns:xlink="http://www.w3.org/1999/xlink" xml:space="preserve"	x="0px" y="0px" width="891px" height="842px">	<g id="Coins">		<g>			<path d="M 196.5336 216.0012 C 192.635 218.5394 521.47 230.1331 521.47 230.1331 C 521.47 230.1331 627.5015 103.6884 620.3125 46.8781 C 613.1204 -9.931 469.8035 39.4675 407.255 53.7109 C 344.7094 67.9549 274.1052 -32.3094 152.967 12.7169 C 31.8307 57.7418 196.5336 216.0012 196.5336 216.0012 Z" fill="#eaeaea"/>			<path d="M 248.3856 21.3136 C 234.7955 19.2535 158.0468 27.7206 159.0361 55.4756 C 160.0309 83.23 361.8557 97.9342 372.0939 89.6375 C 382.3286 81.3405 278.7919 25.9227 248.3856 21.3136 Z" fill="#cccccc"/>			<path id="Ellipse" d="M 0.8182 478.6926 C 0.8182 302.9445 164.8363 160.4758 367.1648 160.4758 C 569.4911 160.4758 733.5059 302.9445 733.5059 478.6926 C 733.5059 654.4409 569.4911 796.9093 367.1648 796.9093 C 164.8363 796.9093 0.8182 654.4409 0.8182 478.6926 Z" fill="#eaeaea"/>			<rect x="148.0918" y="183.5062" width="422.5328" height="39.8652" fill="#bfa64d" rx="19.9326" ry="19.9326"/>			<g>				<path d="M 560.4717 188.0939 C 560.4717 188.0939 593.3426 194.4318 619.6448 214.0898 C 646.0247 233.8063 655.4628 238.719 650.748 253.3162 C 646.0386 267.8989 628.6115 253.2172 609.3024 240.1078 C 572.817 215.3363 543.2233 210.8719 543.2233 210.8719 C 543.2233 210.8719 581.7404 225.7489 604.8417 277.6542 C 627.9806 329.6428 639.4258 346.141 623.0311 353.1489 C 606.6763 360.14 601.9798 343.2874 599.5347 335.6541 C 597.0896 328.0214 580.0457 282.7408 566.6088 265.4258 C 553.188 248.1352 522.6974 209.3584 494.5583 212.8421 C 466.5326 216.3137 560.4717 188.0939 560.4717 188.0939 Z" fill="#bfa64d"/>			</g>			<g>				<g>					<path id="Ellipse2" d="M 196.8469 478.6926 C 196.8469 384.6057 273.0995 308.3349 367.1648 308.3349 C 461.2277 308.3349 537.4813 384.6057 537.4813 478.6926 C 537.4813 572.7794 461.2277 649.0507 367.1648 649.0507 C 273.0995 649.0507 196.8469 572.7794 196.8469 478.6926 Z" fill="#fdee68"/>				</g>				<g>					<path d="M 400.9316 544.3638 C 407.2311 541.5559 412.144 538.2372 415.7994 534.4713 C 419.4548 530.7062 421.9129 526.6216 423.2964 522.2181 C 424.6819 517.8147 425.3755 513.5392 425.3755 509.39 C 425.3755 500.8384 423.2964 493.8181 419.1381 488.3928 C 414.9822 483.0324 409.8141 478.6281 403.5125 475.246 C 397.2126 471.9269 390.3466 469.3113 383.0361 467.3964 C 375.6652 465.4819 368.8604 463.6942 362.5597 461.9717 C 356.259 460.2484 351.0328 458.2704 346.8737 456.0989 C 342.7133 453.9305 340.6968 450.9311 340.6968 447.1006 C 340.6968 439.5707 350.4008 435.8057 369.8049 435.8057 C 382.2167 435.8057 397.0846 439.8902 414.4772 448.058 L 417.3133 419.4672 C 413.405 416.7867 407.6696 414.2335 400.1099 411.8085 C 392.5518 409.384 384.7383 407.8513 376.799 407.2131 L 381.0226 378.6215 L 352.7954 378.6215 L 357.0182 407.2131 C 348.5103 408.1068 341.2018 409.7664 335.0895 412.2551 C 328.9825 414.8076 323.9404 417.9353 319.9717 421.7004 C 315.9364 425.4659 313.0389 429.6776 311.215 434.3375 C 309.3255 438.9971 308.4395 443.7191 308.4395 448.5059 C 308.4395 455.7808 310.5228 461.7162 314.7391 466.3113 C 318.9628 470.9702 324.1913 474.7987 330.4887 477.7983 C 336.7302 480.8621 343.4714 483.4159 350.782 485.4574 C 358.026 487.4997 364.7659 489.5417 371.0656 491.584 C 377.3038 493.6261 382.5311 495.9242 386.7548 498.4777 C 390.9775 501.0302 393.1158 504.4117 393.1158 508.6243 C 393.1158 517.3035 384.1698 521.5796 366.3378 521.5796 C 345.1078 521.5796 328.666 516.1551 316.9463 505.2422 L 312.4727 537.9182 C 321.9216 544.8748 336.7927 548.9591 357.0182 550.1714 L 352.7954 578.7634 L 381.0226 578.7634 L 376.799 549.9152 C 386.6279 549.0865 394.6298 547.2361 400.9316 544.3638 L 400.9316 544.3638 Z" fill="#f2b800"/>				</g>			</g>		</g>		<g>			<g>				<path d="M 539.103 696.1826 C 539.103 696.1826 537.8347 760.0096 540.4584 771.5208 C 543.0834 783.0334 575.4818 841.9092 713.7252 841.9092 C 858.6342 841.9092 889.7256 783.4153 890.5676 772.2139 C 891.1014 765.0459 890.9497 696.8101 890.9497 696.8101 L 539.103 696.1826 Z" fill="#f2b800"/>				<path id="Ellipse3" d="M 537.4813 695.7775 C 537.4813 653.5248 616.4785 619.2693 713.9351 619.2693 C 811.3842 619.2693 890.3857 653.5248 890.3857 695.7775 C 890.3857 738.0333 811.3842 772.2871 713.9351 772.2871 C 616.4785 772.2871 537.4813 738.0333 537.4813 695.7775 Z" fill="#f7e455"/>				<g>					<path d="M 756.1033 712.5393 C 763.7112 711.5972 769.6447 710.4856 774.0557 709.2228 C 778.4701 707.9615 781.4343 706.5928 783.1095 705.1187 C 784.7829 703.6409 785.6182 702.2093 785.6182 700.818 C 785.6182 697.9514 783.1095 695.6002 778.0859 693.7821 C 773.0685 691.9866 766.8334 690.5093 759.2223 689.3776 C 751.6155 688.264 743.3251 687.3872 734.5019 686.7457 C 725.5999 686.1035 717.3848 685.5053 709.7781 684.9274 C 702.1702 684.3505 695.8576 683.6879 690.8394 682.9606 C 685.8196 682.2337 683.3834 681.2281 683.3834 679.9444 C 683.3834 677.421 695.0986 676.158 718.5283 676.158 C 733.5125 676.158 751.4672 677.5269 772.4602 680.2644 L 775.8807 670.6843 C 771.166 669.7865 764.2462 668.9299 755.1158 668.117 C 745.9867 667.3051 736.556 666.7918 726.9683 666.5787 L 732.0663 656.9958 L 697.9916 656.9958 L 703.0843 666.5787 C 692.8129 666.8774 683.9904 667.4327 676.6143 668.2678 C 669.2345 669.1223 663.1493 670.1705 658.356 671.4319 C 653.4882 672.6937 649.9879 674.1053 647.7819 675.6664 C 645.5013 677.2297 644.4408 678.8114 644.4408 680.4161 C 644.4408 682.8538 646.9484 684.842 652.0411 686.3809 C 657.1392 687.9438 663.4528 689.2264 671.0596 690.2317 C 678.5921 691.2586 686.7318 692.114 695.5541 692.7984 C 704.3043 693.4827 712.4407 694.1677 720.0475 694.8509 C 727.5788 695.5359 733.8914 696.3056 738.9894 697.1619 C 744.0842 698.0157 746.6738 699.1511 746.6738 700.5619 C 746.6738 703.4712 735.8703 704.9027 714.342 704.9027 C 688.7084 704.9027 668.8544 703.0856 654.707 699.4294 L 649.3054 710.3788 C 660.7192 712.7088 678.6675 714.0774 703.0843 714.4848 L 697.9916 724.0664 L 732.0663 724.0664 L 726.9683 714.3995 C 738.8378 714.1218 748.4954 713.5008 756.1033 712.5393 L 756.1033 712.5393 Z" fill="#f2b800"/>				</g>			</g>			<g>				<path d="M 539.103 610.2487 C 539.103 610.2487 537.8347 674.0763 540.4584 685.587 C 543.0834 697.0994 575.4818 755.9758 713.7252 755.9758 C 858.6342 755.9758 889.7256 697.4825 890.5676 686.2806 C 891.1014 679.1126 890.9497 610.8768 890.9497 610.8768 L 539.103 610.2487 Z" fill="#f2b800"/>				<path id="Ellipse4" d="M 537.4813 609.8436 C 537.4813 567.5913 616.4785 533.3356 713.9351 533.3356 C 811.3842 533.3356 890.3857 567.5913 890.3857 609.8436 C 890.3857 652.0994 811.3842 686.3534 713.9351 686.3534 C 616.4785 686.3534 537.4813 652.0994 537.4813 609.8436 Z" fill="#f7e455"/>				<g>					<path d="M 756.1033 626.6058 C 763.7112 625.6645 769.6447 624.5521 774.0557 623.29 C 778.4701 622.0276 781.4343 620.6597 783.1095 619.1827 C 784.7829 617.7079 785.6182 616.2748 785.6182 614.8856 C 785.6182 612.0193 783.1095 609.6664 778.0859 607.848 C 773.0685 606.0525 766.8334 604.576 759.2223 603.4431 C 751.6155 602.3318 743.3251 601.4542 734.5019 600.8123 C 725.5999 600.1698 717.3848 599.5721 709.7781 598.9939 C 702.1702 598.4167 695.8576 597.7537 690.8394 597.0269 C 685.8196 596.2999 683.3834 595.2939 683.3834 594.011 C 683.3834 591.4869 695.0986 590.2249 718.5283 590.2249 C 733.5125 590.2249 751.4672 591.5944 772.4602 594.3315 L 775.8807 584.751 C 771.166 583.8521 764.2462 582.9963 755.1158 582.1849 C 745.9867 581.3721 736.556 580.8584 726.9683 580.6448 L 732.0663 571.062 L 697.9916 571.062 L 703.0843 580.6448 C 692.8129 580.9443 683.9904 581.5004 676.6143 582.3341 C 669.2345 583.1892 663.1493 584.2371 658.356 585.4991 C 653.4882 586.7611 649.9879 588.1727 647.7819 589.733 C 645.5013 591.2952 644.4408 592.8774 644.4408 594.4804 C 644.4408 596.9202 646.9484 598.9093 652.0411 600.4476 C 657.1392 602.0095 663.4528 603.2932 671.0596 604.2989 C 678.5921 605.3257 686.7318 606.1811 695.5541 606.8655 C 704.3043 607.5493 712.4407 608.2342 720.0475 608.918 C 727.5788 609.6016 733.8914 610.3724 738.9894 611.2272 C 744.0842 612.0831 746.6738 613.2176 746.6738 614.6287 C 746.6738 617.538 735.8703 618.9691 714.342 618.9691 C 688.7084 618.9691 668.8544 617.1523 654.707 613.4949 L 649.3054 624.4448 C 660.7192 626.7759 678.6675 628.1449 703.0843 628.5505 L 697.9916 638.1323 L 732.0663 638.1323 L 726.9683 628.4662 C 738.8378 628.188 748.4954 627.568 756.1033 626.6058 L 756.1033 626.6058 Z" fill="#f2b800"/>				</g>			</g>		</g>	</g></svg>