<?xml version="1.0" standalone="no"?><!-- Generator: Adobe Fireworks CS6, Export SVG Extension by Aaron Beall (http://fireworks.abeall.com) . Version: 0.6.1  --><!DOCTYPE svg PUBLIC "-//W3C//DTD SVG 1.1//EN" "http://www.w3.org/Graphics/SVG/1.1/DTD/svg11.dtd"><svg id="Untitled-Page%201" viewBox="0 0 451 604" style="background-color:#ffffff00" version="1.1"	xmlns="http://www.w3.org/2000/svg" xmlns:xlink="http://www.w3.org/1999/xlink" xml:space="preserve"	x="0px" y="0px" width="451px" height="604px">	<g id="Coins">		<g>			<path d="M 15.9113 423.2744 C 15.9113 423.2744 14.3702 502.414 17.5612 516.688 C 20.749 530.9619 60.1133 603.9633 228.0818 603.9633 C 404.1468 603.9633 441.9266 531.4363 442.9469 517.5479 C 443.5988 508.6594 443.4125 424.0529 443.4125 424.0529 L 15.9113 423.2744 Z" fill="#f2b800"/>			<path id="Ellipse" d="M 13.9408 422.7727 C 13.9408 370.3824 109.9253 327.9088 228.3342 327.9088 C 346.7404 327.9088 442.7234 370.3824 442.7234 422.7727 C 442.7234 475.1666 346.7404 517.6367 228.3342 517.6367 C 109.9253 517.6367 13.9408 475.1666 13.9408 422.7727 Z" fill="#f7e455"/>			<g>				<path d="M 279.5729 443.5549 C 288.8162 442.3883 296.024 441.0097 301.3834 439.4454 C 306.7451 437.8809 310.3509 436.1829 312.3837 434.3531 C 314.4167 432.5234 315.4349 430.7463 315.4349 429.0231 C 315.4349 425.4692 312.3837 422.5533 306.2833 420.2988 C 300.1833 418.0713 292.6047 416.2418 283.3615 414.8351 C 274.1189 413.4579 264.0477 412.3693 253.3247 411.5747 C 242.5118 410.7786 232.5303 410.0363 223.2854 409.3207 C 214.0436 408.6042 206.3735 407.7815 200.273 406.8806 C 194.1729 405.9786 191.2149 404.7325 191.2149 403.1412 C 191.2149 400.0128 205.4492 398.4468 233.915 398.4468 C 252.1229 398.4468 273.9356 400.1458 299.4445 403.5398 L 303.6036 391.6601 C 297.8727 390.5453 289.463 389.485 278.3719 388.4774 C 267.2815 387.4694 255.8209 386.8319 244.1749 386.567 L 250.3661 374.6875 L 208.9613 374.6875 L 215.1536 386.567 C 202.6762 386.9391 191.953 387.6284 182.9898 388.6628 C 174.024 389.723 166.631 391.0222 160.8094 392.5873 C 154.894 394.1517 150.6418 395.9022 147.9601 397.8375 C 145.1885 399.7739 143.8945 401.7359 143.8945 403.725 C 143.8945 406.7473 146.9448 409.2141 153.1366 411.1232 C 159.3286 413.0593 167.0002 414.6502 176.2435 415.8967 C 185.3938 417.1702 195.282 418.2302 206.0038 419.0776 C 216.6314 419.9275 226.5222 420.7762 235.764 421.6244 C 244.9128 422.4728 252.5856 423.427 258.7784 424.4886 C 264.9705 425.5489 268.1135 426.9557 268.1135 428.7045 C 268.1135 432.311 254.9889 434.0888 228.8327 434.0888 C 197.6866 434.0888 173.5623 431.8345 156.3721 427.2988 L 149.8103 440.8763 C 163.6734 443.7665 185.4856 445.4637 215.1536 445.9686 L 208.9613 457.8483 L 250.3661 457.8483 L 244.1749 445.8622 C 258.5929 445.5176 270.3313 444.7479 279.5729 443.5549 L 279.5729 443.5549 Z" fill="#f2b800"/>			</g>		</g>		<g>			<path d="M 22.6494 316.7252 C 22.6494 316.7252 21.1097 395.8649 24.2983 410.1378 C 27.4887 424.4125 66.8533 497.4129 234.8201 497.4129 C 410.8863 497.4129 448.6657 424.8867 449.6859 410.9973 C 450.3367 402.1103 450.1516 317.5027 450.1516 317.5027 L 22.6494 316.7252 Z" fill="#f2b800"/>			<path id="Ellipse2" d="M 20.6806 316.223 C 20.6806 263.8326 116.6641 221.3591 235.073 221.3591 C 353.4786 221.3591 449.4634 263.8326 449.4634 316.223 C 449.4634 368.6163 353.4786 411.088 235.073 411.088 C 116.6641 411.088 20.6806 368.6163 20.6806 316.223 Z" fill="#f7e455"/>			<g>				<path d="M 286.3121 337.0058 C 295.5543 335.8381 302.7635 334.4599 308.1234 332.895 C 313.4834 331.3307 317.0906 329.6334 319.1234 327.8036 C 321.1562 325.9739 322.1732 324.1976 322.1732 322.474 C 322.1732 318.9203 319.1234 316.0029 313.0229 313.7496 C 306.9229 311.5212 299.3435 309.6918 290.1012 308.2858 C 280.8589 306.908 270.7845 305.8209 260.0645 305.0244 C 249.2498 304.2281 239.2687 303.486 230.0252 302.7712 C 220.7831 302.0543 213.113 301.2317 207.0113 300.3312 C 200.9117 299.4295 197.9547 298.1827 197.9547 296.5912 C 197.9547 293.4628 212.1878 291.8976 240.6548 291.8976 C 258.861 291.8976 280.6751 293.5945 306.1838 296.9894 L 310.3428 285.1099 C 304.6121 283.996 296.2027 282.9349 285.1116 281.9271 C 274.0211 280.919 262.559 280.2822 250.9131 280.0181 L 257.1052 268.1382 L 215.7005 268.1382 L 221.8934 280.0181 C 209.4146 280.389 198.6935 281.0782 189.7291 282.1125 C 180.7631 283.173 173.3702 284.473 167.5476 286.0368 C 161.6324 287.6014 157.3804 289.3527 154.6991 291.2879 C 151.9273 293.225 150.6333 295.1874 150.6333 297.1747 C 150.6333 300.1974 153.6828 302.6643 159.8751 304.5741 C 166.0674 306.5092 173.74 308.0999 182.9833 309.3474 C 192.1326 310.6189 202.0217 311.6808 212.7421 312.5288 C 223.3712 313.3785 233.2617 314.2255 242.5038 315.0745 C 251.6522 315.9243 259.3254 316.8787 265.5182 317.9386 C 271.7088 318.999 274.8503 320.4052 274.8503 322.1546 C 274.8503 325.7609 261.726 327.5387 235.5707 327.5387 C 204.4262 327.5387 180.3018 325.2841 163.1101 320.7495 L 156.5486 334.3264 C 170.4117 337.2175 192.2248 338.9144 221.8934 339.4192 L 215.7005 351.2991 L 257.1052 351.2991 L 250.9131 339.3123 C 265.3315 338.968 277.0698 338.1989 286.3121 337.0058 L 286.3121 337.0058 Z" fill="#f2b800"/>			</g>		</g>		<g>			<path d="M 2.4335 204.9783 C 2.4335 204.9783 0.8946 284.1177 4.0829 298.3906 C 7.2736 312.6653 46.635 385.6664 214.6042 385.6664 C 390.6699 385.6664 428.4501 313.1395 429.4693 299.25 C 430.1202 290.3626 429.9349 205.7554 429.9349 205.7554 L 2.4335 204.9783 Z" fill="#f2b800"/>			<path id="Ellipse3" d="M 0.4641 204.4757 C 0.4641 152.085 96.4487 109.6124 214.8547 109.6124 C 333.2609 109.6124 429.248 152.085 429.248 204.4757 C 429.248 256.8687 333.2609 299.3398 214.8547 299.3398 C 96.4487 299.3398 0.4641 256.8687 0.4641 204.4757 Z" fill="#f7e455"/>			<g>				<path d="M 266.0953 225.2582 C 275.3389 224.0917 282.5474 222.7117 287.9066 221.1484 C 293.2681 219.5833 296.8721 217.8868 298.9069 216.0563 C 300.941 214.2264 301.9566 212.4485 301.9566 210.7255 C 301.9566 207.1731 298.9069 204.2565 292.8063 202.0016 C 286.7072 199.7736 279.1272 197.944 269.8856 196.5394 C 260.6421 195.1601 250.5674 194.0723 239.8475 193.2766 C 229.0328 192.4812 219.0519 191.7387 209.8101 191.0229 C 200.5667 190.3066 192.8945 189.4839 186.7952 188.5834 C 180.6966 187.6818 177.7376 186.4357 177.7376 184.8441 C 177.7376 181.7153 191.9712 180.151 220.4382 180.151 C 238.6456 180.151 260.4568 181.8477 285.967 185.242 L 290.1248 173.3623 C 284.3936 172.2483 275.9847 171.1877 264.8931 170.1806 C 253.8027 169.1733 242.3436 168.5356 230.6973 168.2712 L 236.8896 156.3916 L 195.4836 156.3916 L 201.675 168.2712 C 189.1968 168.642 178.4769 169.3309 169.5125 170.366 C 160.5477 171.4261 153.1532 172.725 147.3311 174.2902 C 141.4158 175.8546 137.1637 177.6046 134.4823 179.5412 C 131.7105 181.4772 130.4165 183.4391 130.4165 185.4268 C 130.4165 188.4507 133.4677 190.9163 139.66 192.8263 C 145.8506 194.7633 153.5231 196.3534 162.7667 197.5996 C 171.9158 198.8719 181.8037 199.9335 192.5264 200.7814 C 203.1543 201.6302 213.0437 202.4788 222.2865 203.3282 C 231.4348 204.176 239.1071 205.1307 245.2997 206.1918 C 251.492 207.2521 254.6349 208.6573 254.6349 210.4077 C 254.6349 214.0138 241.5109 215.791 215.3535 215.791 C 184.2076 215.791 160.0864 213.5376 142.8938 209.0026 L 136.3327 222.5797 C 150.1959 225.4696 172.0066 227.1677 201.675 227.671 L 195.4836 239.5514 L 236.8896 239.5514 L 230.6973 227.5645 C 245.1156 227.2206 256.8521 226.4521 266.0953 225.2582 L 266.0953 225.2582 Z" fill="#f2b800"/>			</g>		</g>		<g>			<path d="M 22.6494 95.8287 C 22.6494 95.8287 21.1097 174.9688 24.2983 189.2421 C 27.4887 203.5169 66.8533 276.5182 234.8201 276.5182 C 410.8863 276.5182 448.6657 203.9905 449.6859 190.1018 C 450.3367 181.2148 450.1516 96.6075 450.1516 96.6075 L 22.6494 95.8287 Z" fill="#f2b800"/>			<path id="Ellipse4" d="M 20.6806 95.3267 C 20.6806 42.937 116.6641 0.4653 235.073 0.4653 C 353.4786 0.4653 449.4634 42.937 449.4634 95.3267 C 449.4634 147.7216 353.4786 190.1913 235.073 190.1913 C 116.6641 190.1913 20.6806 147.7216 20.6806 95.3267 Z" fill="#f7e455"/>			<g>				<path d="M 286.3121 116.1095 C 295.5543 114.9431 302.7635 113.5639 308.1234 111.9994 C 313.4834 110.4351 317.0906 108.7378 319.1234 106.9083 C 321.1562 105.0774 322.1732 103.3008 322.1732 101.5778 C 322.1732 98.0244 319.1234 95.1075 313.0229 92.8531 C 306.9229 90.6258 299.3435 88.7961 290.1012 87.39 C 280.8589 86.0122 270.7845 84.9246 260.0645 84.1287 C 249.2498 83.3335 239.2687 82.5914 230.0252 81.8759 C 220.7831 81.1595 213.113 80.3367 207.0113 79.4356 C 200.9117 78.5326 197.9547 77.2865 197.9547 75.6965 C 197.9547 72.5659 212.1878 71.0029 240.6548 71.0029 C 258.861 71.0029 280.6751 72.6997 306.1838 76.0939 L 310.3428 64.2139 C 304.6121 63.1003 296.2027 62.0386 285.1116 61.0319 C 274.0211 60.0239 262.559 59.3871 250.9131 59.1217 L 257.1052 47.2419 L 215.7005 47.2419 L 221.8934 59.1217 C 209.4146 59.4935 198.6935 60.1829 189.7291 61.2171 C 180.7631 62.2774 173.3702 63.5771 167.5476 65.1423 C 161.6324 66.7065 157.3804 68.4576 154.6991 70.3912 C 151.9273 72.3284 150.6333 74.2905 150.6333 76.2791 C 150.6333 79.3017 153.6828 81.769 159.8751 83.6785 C 166.0674 85.6136 173.74 87.2043 182.9833 88.4508 C 192.1326 89.7249 202.0217 90.7842 212.7421 91.6336 C 223.3712 92.4814 233.2617 93.3304 242.5038 94.1788 C 251.6522 95.0278 259.3254 95.9817 265.5182 97.0436 C 271.7088 98.1042 274.8503 99.5094 274.8503 101.2598 C 274.8503 104.8653 261.726 106.6431 235.5707 106.6431 C 204.4262 106.6431 180.3018 104.3885 163.1101 99.8539 L 156.5486 113.4317 C 170.4117 116.3218 192.2248 118.0186 221.8934 118.5236 L 215.7005 130.4032 L 257.1052 130.4032 L 250.9131 118.4165 C 265.3315 118.0713 277.0698 117.3036 286.3121 116.1095 L 286.3121 116.1095 Z" fill="#f2b800"/>			</g>		</g>	</g></svg>