<?xml version="1.0" standalone="no"?><!-- Generator: Adobe Fireworks CS6, Export SVG Extension by Aaron Beall (http://fireworks.abeall.com) . Version: 0.6.1  --><!DOCTYPE svg PUBLIC "-//W3C//DTD SVG 1.1//EN" "http://www.w3.org/Graphics/SVG/1.1/DTD/svg11.dtd"><svg id="Untitled-Page%201" viewBox="0 0 702 871" style="background-color:#ffffff00" version="1.1"	xmlns="http://www.w3.org/2000/svg" xmlns:xlink="http://www.w3.org/1999/xlink" xml:space="preserve"	x="0px" y="0px" width="702px" height="871px">	<g id="Coins">		<g>			<path id="Ellipse" d="M 113.7021 439.2714 C 146.8388 287.7957 296.4534 190.7516 447.8813 222.5124 C 599.311 254.2733 695.2028 402.8116 662.0676 554.2871 C 628.9325 705.7653 479.316 802.8098 327.8868 771.0493 C 176.4584 739.2878 80.5662 590.7495 113.7021 439.2714 Z" fill="#eaeaea"/>			<g>				<path d="M 405.3777 9.6697 C 405.3777 9.6697 377.8328 107.1583 394.2029 109.5963 C 410.572 112.0357 474.7311 16.8433 474.7311 16.8433 L 405.3777 9.6697 Z" fill="#cbcbcb"/>				<path d="M 348.4878 206.912 C 348.4878 206.912 284.5729 55.5736 298.1317 21.018 C 305.2488 2.8777 349.1462 -1.5235 410.1932 1.0962 C 417.6426 1.4161 387.7177 109.8775 395.3297 110.4025 C 401.0407 110.798 467.8382 6.5174 473.5719 7.0185 C 516.8976 10.8062 545.8003 13.868 576.1669 21.4313 C 659.8203 42.2663 705.7683 91.0051 701.2432 121.3579 C 696.7139 151.7109 547.5942 250.7606 547.5942 250.7606 L 348.4878 206.912 Z" fill="#eaeaea"/>			</g>			<rect x="331.0934" y="189.3102" width="236.7087" height="79.2465" fill="#bfa64d" rx="39.6233" ry="39.6233"/>			<g>				<path d="M 568.8303 249.7061 C 568.8303 249.7061 597.7162 261.847 617.9016 284.9431 C 638.1451 308.1109 645.8211 314.4329 638.5641 326.9182 C 631.316 339.3918 618.2738 322.5676 603.1904 306.8244 C 574.6906 277.0753 548.4336 267.2857 548.4336 267.2857 C 548.4336 267.2857 580.7831 288.3471 591.5618 340.4156 C 602.355 392.5676 609.5424 409.905 593.0975 413.1818 C 576.6931 416.4497 575.7628 400.0828 575.0523 392.6079 C 574.3427 385.1354 567.7925 340.3108 558.9387 321.8385 C 550.0956 303.3914 529.907 261.9475 503.3945 259.7291 C 476.9844 257.5208 568.8303 249.7061 568.8303 249.7061 Z" fill="#bfa64d"/>			</g>		</g>		<g>			<g>				<path d="M 15.4913 601.0203 C 15.4913 601.0203 14.0172 675.9858 17.0709 689.5066 C 20.1238 703.028 57.8071 772.1786 218.6079 772.1786 C 387.1603 772.1786 423.329 703.4777 424.3056 690.321 C 424.9287 681.9015 424.7515 601.757 424.7515 601.757 L 15.4913 601.0203 Z" fill="#f2b800"/>				<path id="Ellipse2" d="M 13.6051 600.5449 C 13.6051 550.9175 105.4941 510.6849 218.8496 510.6849 C 332.2036 510.6849 424.0923 550.9175 424.0923 600.5449 C 424.0923 650.1757 332.2036 690.4048 218.8496 690.4048 C 105.4941 690.4048 13.6051 650.1757 13.6051 600.5449 Z" fill="#f7e455"/>				<g>					<path d="M 267.903 620.2306 C 276.7516 619.1252 283.652 617.8196 288.783 616.338 C 293.9152 614.8563 297.3671 613.2475 299.3138 611.5148 C 301.2601 609.7813 302.2333 608.0981 302.2333 606.4658 C 302.2333 603.0995 299.3138 600.3375 293.4732 598.2015 C 287.6331 596.0915 280.3793 594.3584 271.53 593.0262 C 262.6818 591.7211 253.0386 590.6901 242.7744 589.9373 C 232.4216 589.1833 222.866 588.4797 214.0172 587.8022 C 205.1688 587.1237 197.8254 586.345 191.9877 585.4899 C 186.1479 584.6364 183.314 583.4564 183.314 581.9486 C 183.314 578.9851 196.9408 577.5026 224.1931 577.5026 C 241.6233 577.5026 262.5056 579.1115 286.926 582.326 L 290.9081 571.0722 C 285.4217 570.0169 277.3691 569.0134 266.7532 568.0582 C 256.136 567.1036 245.1635 566.4991 234.0142 566.248 L 239.9425 554.9952 L 200.3041 554.9952 L 206.2321 566.248 C 194.2863 566.6014 184.0224 567.2539 175.4412 568.2333 C 166.8578 569.2377 159.7811 570.4685 154.2061 571.9513 C 148.5435 573.4332 144.4733 575.0919 141.9055 576.925 C 139.252 578.7595 138.0128 580.6174 138.0128 582.5016 C 138.0128 585.3652 140.933 587.7012 146.8625 589.5103 C 152.7892 591.3441 160.1341 592.851 168.9818 594.0316 C 177.7422 595.2369 187.2094 596.2413 197.4719 597.0446 C 207.6475 597.8498 217.1148 598.6534 225.9635 599.4571 C 234.7209 600.2606 242.0678 601.1651 247.9947 602.1703 C 253.9232 603.1752 256.9308 604.5073 256.9308 606.1641 C 256.9308 609.58 244.3661 611.264 219.3269 611.264 C 189.5104 611.264 166.4176 609.1284 149.9585 604.8325 L 143.6768 617.6937 C 156.9487 620.4312 177.83 622.039 206.2321 622.5175 L 200.3041 633.7705 L 239.9425 633.7705 L 234.0142 622.4169 C 247.8185 622.09 259.0563 621.361 267.903 620.2306 L 267.903 620.2306 Z" fill="#f2b800"/>				</g>			</g>			<g>				<path d="M 21.9422 500.0906 C 21.9422 500.0906 20.468 575.0566 23.5222 588.5762 C 26.5751 602.0981 64.2572 671.2486 225.0592 671.2486 C 393.6133 671.2486 429.7803 602.5474 430.757 589.391 C 431.3801 580.9719 431.2021 500.8265 431.2021 500.8265 L 21.9422 500.0906 Z" fill="#f2b800"/>				<path id="Ellipse3" d="M 20.0559 499.6149 C 20.0559 449.9874 111.9449 409.7539 225.3016 409.7539 C 338.6549 409.7539 430.5452 449.9874 430.5452 499.6149 C 430.5452 549.2441 338.6549 589.4764 225.3016 589.4764 C 111.9449 589.4764 20.0559 549.2441 20.0559 499.6149 Z" fill="#f7e455"/>				<g>					<path d="M 274.3542 519.301 C 283.2029 518.1951 290.1041 516.8898 295.2341 515.4075 C 300.3666 513.925 303.8173 512.3177 305.7648 510.5843 C 307.7112 508.8511 308.6846 507.168 308.6846 505.5363 C 308.6846 502.1691 305.7648 499.4065 299.9244 497.2711 C 294.0854 495.16 286.83 493.4274 277.9819 492.0957 C 269.1331 490.7911 259.4894 489.7609 249.2257 489.0061 C 238.8729 488.2518 229.3182 487.5502 220.4685 486.8719 C 211.6216 486.1935 204.2782 485.4138 198.4376 484.5609 C 192.5992 483.7068 189.7668 482.5258 189.7668 481.0177 C 189.7668 478.0547 203.3938 476.5715 230.6449 476.5715 C 248.076 476.5715 268.9574 478.1792 293.3773 481.3955 L 297.3594 470.1425 C 291.8724 469.087 283.8219 468.0826 273.2045 467.1277 C 262.5859 466.1723 251.6151 465.5695 240.4668 465.319 L 246.3937 454.0659 L 206.7554 454.0659 L 212.6831 465.319 C 200.7376 465.6709 190.4734 466.3234 181.8919 467.3033 C 173.3105 468.3079 166.2307 469.5402 160.6562 471.0201 C 154.9948 472.5027 150.9246 474.1617 148.3575 475.995 C 145.7033 477.8292 144.4653 479.6875 144.4653 481.5712 C 144.4653 484.434 147.3843 486.7708 153.312 488.5803 C 159.2407 490.4125 166.5854 491.9196 175.4346 493.1019 C 184.1932 494.3062 193.6605 495.3119 203.9245 496.1148 C 214.0988 496.9196 223.5675 497.7225 232.4148 498.5272 C 241.1737 499.3315 248.5183 500.2352 254.4457 501.2391 C 260.3742 502.244 263.3821 503.5764 263.3821 505.2329 C 263.3821 508.6496 250.8174 510.3333 225.7785 510.3333 C 195.9603 510.3333 172.8687 508.1983 156.4098 503.9025 L 150.1296 516.7632 C 163.4 519.5009 184.2799 521.1099 212.6831 521.5869 L 206.7554 532.8398 L 246.3937 532.8398 L 240.4668 521.4859 C 254.2698 521.16 265.5062 520.4308 274.3542 519.301 L 274.3542 519.301 Z" fill="#f2b800"/>				</g>			</g>			<g>				<path d="M 2.5887 394.2376 C 2.5887 394.2376 1.1148 469.2021 4.1668 482.7231 C 7.222 496.2437 44.9033 565.3953 205.7053 565.3953 C 374.2594 565.3953 410.4269 496.6937 411.4033 483.5361 C 412.0262 475.1176 411.8489 394.9736 411.8489 394.9736 L 2.5887 394.2376 Z" fill="#f2b800"/>				<path id="Ellipse4" d="M 0.7025 393.7606 C 0.7025 344.1331 92.5915 303.9002 205.9467 303.9002 C 319.301 303.9002 411.1898 344.1331 411.1898 393.7606 C 411.1898 443.3908 319.301 483.6213 205.9467 483.6213 C 92.5915 483.6213 0.7025 443.3908 0.7025 393.7606 Z" fill="#f7e455"/>				<g>					<path d="M 254.9995 413.4473 C 263.8478 412.3417 270.7499 411.0347 275.8809 409.5547 C 281.0121 408.0718 284.4634 406.4642 286.4109 404.7308 C 288.3573 402.9976 289.3315 401.3141 289.3315 399.6809 C 289.3315 396.3159 286.4109 393.554 280.5711 391.4175 C 274.7305 389.307 267.4752 387.5745 258.6279 386.2431 C 249.7792 384.9361 240.136 383.9063 229.8718 383.1532 C 219.5187 382.3997 209.9648 381.6957 201.1149 381.0175 C 192.2666 380.3392 184.923 379.5601 179.0841 378.7064 C 173.2453 377.8525 170.4128 376.6727 170.4128 375.1647 C 170.4128 372.2007 184.0385 370.7184 211.2905 370.7184 C 228.7206 370.7184 249.6021 372.3264 274.0236 375.5411 L 278.0055 364.2877 C 272.519 363.2336 264.4666 362.2289 253.8511 361.2747 C 243.232 360.3207 232.2611 359.7158 221.1131 359.4655 L 227.0399 348.2123 L 187.4015 348.2123 L 193.3299 359.4655 C 181.3837 359.8176 171.12 360.47 162.5383 361.4503 C 153.9556 362.4543 146.8771 363.6846 141.3023 365.1677 C 135.6409 366.6494 131.571 368.3073 129.0029 370.1417 C 126.3492 371.9761 125.1102 373.8341 125.1102 375.7172 C 125.1102 378.581 128.0304 380.9165 133.9589 382.7267 C 139.8873 384.5613 147.232 386.0667 156.0792 387.2476 C 164.8396 388.4528 174.3069 389.4575 184.5691 390.2616 C 194.744 391.0653 204.2124 391.8691 213.0609 392.6743 C 221.8188 393.4771 229.1637 394.3814 235.0919 395.3862 C 241.0206 396.3912 244.0287 397.7228 244.0287 399.38 C 244.0287 402.7966 231.4637 404.4796 206.4243 404.4796 C 176.6064 404.4796 153.5136 402.3447 137.0564 398.0496 L 130.7742 410.91 C 144.0446 413.6479 164.926 415.2558 193.3299 415.7328 L 187.4015 426.9865 L 227.0399 426.9865 L 221.1131 415.6323 C 234.9157 415.3064 246.1523 414.5782 254.9995 413.4473 L 254.9995 413.4473 Z" fill="#f2b800"/>				</g>			</g>			<g>				<path d="M 21.9422 290.8443 C 21.9422 290.8443 20.468 365.8101 23.5222 379.3307 C 26.5751 392.853 64.2572 462.0033 225.0592 462.0033 C 393.6133 462.0033 429.7803 393.3018 430.757 380.145 C 431.3801 371.726 431.2021 291.5811 431.2021 291.5811 L 21.9422 290.8443 Z" fill="#f2b800"/>				<path id="Ellipse5" d="M 20.0559 290.3683 C 20.0559 240.7418 111.9449 200.5098 225.3016 200.5098 C 338.6549 200.5098 430.5452 240.7418 430.5452 290.3683 C 430.5452 340.0003 338.6549 380.2297 225.3016 380.2297 C 111.9449 380.2297 20.0559 340.0003 20.0559 290.3683 Z" fill="#f7e455"/>				<g>					<path d="M 274.3542 310.0546 C 283.2029 308.9504 290.1041 307.6436 295.2341 306.1624 C 300.3666 304.6802 303.8173 303.0721 305.7648 301.3394 C 307.7112 299.6053 308.6846 297.9219 308.6846 296.2906 C 308.6846 292.924 305.7648 290.1613 299.9244 288.0257 C 294.0854 285.9159 286.83 284.1825 277.9819 282.8508 C 269.1331 281.5447 259.4894 280.5149 249.2257 279.7614 C 238.8729 279.0084 229.3182 278.3054 220.4685 277.6273 C 211.6216 276.9486 204.2782 276.1699 198.4376 275.315 C 192.5992 274.4603 189.7668 273.2804 189.7668 271.7732 C 189.7668 268.8081 203.3938 267.3267 230.6449 267.3267 C 248.076 267.3267 268.9574 268.9349 293.3773 272.15 L 297.3594 260.8968 C 291.8724 259.8424 283.8219 258.8367 273.2045 257.8819 C 262.5859 256.9276 251.6151 256.3241 240.4668 256.0728 L 246.3937 244.8194 L 206.7554 244.8194 L 212.6831 256.0728 C 200.7376 256.4255 190.4734 257.0779 181.8919 258.0578 C 173.3105 259.0622 166.2307 260.2932 160.6562 261.7762 C 154.9948 263.2582 150.9246 264.916 148.3575 266.7491 C 145.7033 268.5829 144.4653 270.442 144.4653 272.3253 C 144.4653 275.1891 147.3843 277.526 153.312 279.3347 C 159.2407 281.1681 166.5854 282.6747 175.4346 283.8553 C 184.1932 285.0616 193.6605 286.0655 203.9245 286.8702 C 214.0988 287.6738 223.5675 288.4779 232.4148 289.2813 C 241.1737 290.0859 248.5183 290.99 254.4457 291.9955 C 260.3742 292.9997 263.3821 294.3313 263.3821 295.9882 C 263.3821 299.404 250.8174 301.088 225.7785 301.088 C 195.9603 301.088 172.8687 298.9524 156.4098 294.6576 L 150.1296 307.5184 C 163.4 310.2565 184.2799 311.8635 212.6831 312.3422 L 206.7554 323.5953 L 246.3937 323.5953 L 240.4668 312.2408 C 254.2698 311.9141 265.5062 311.1859 274.3542 310.0546 L 274.3542 310.0546 Z" fill="#f2b800"/>				</g>			</g>		</g>		<g>			<g>				<path d="M 276.8558 630.6705 C 276.8558 630.6705 275.3816 705.6376 278.4337 719.1563 C 281.4873 732.6783 319.1713 801.8287 479.972 801.8287 C 648.5262 801.8287 684.6923 733.1281 685.6683 719.9708 C 686.2929 711.5528 686.1148 631.4078 686.1148 631.4078 L 276.8558 630.6705 Z" fill="#f2b800"/>				<path id="Ellipse6" d="M 274.9693 630.1948 C 274.9693 580.5679 366.8583 540.3358 480.2137 540.3358 C 593.5678 540.3358 685.4567 580.5679 685.4567 630.1948 C 685.4567 679.8256 593.5678 720.0565 480.2137 720.0565 C 366.8583 720.0565 274.9693 679.8256 274.9693 630.1948 Z" fill="#f7e455"/>				<g>					<path d="M 529.2676 649.8815 C 538.1151 648.7764 545.0153 647.4705 550.1475 645.9876 C 555.2794 644.5052 558.7291 642.8988 560.678 641.1647 C 562.6234 639.4316 563.5985 637.7485 563.5985 636.1154 C 563.5985 632.7501 560.678 629.9865 554.8364 627.8516 C 548.999 625.7422 541.742 624.0084 532.8948 622.6772 C 524.0465 621.3712 514.4028 620.3398 504.1393 619.5875 C 493.7858 618.834 484.2302 618.1301 475.3822 617.4526 C 466.5347 616.7737 459.191 615.9947 453.3512 615.1419 C 447.5111 614.2863 444.6804 613.1061 444.6804 611.5995 C 444.6804 608.6345 458.3057 607.1542 485.5563 607.1542 C 502.9894 607.1542 523.8688 608.7607 548.2892 611.9757 L 552.2712 600.7229 C 546.7858 599.6673 538.7354 598.6624 528.1165 597.7073 C 517.4988 596.754 506.527 596.1507 495.379 595.8992 L 501.3069 584.6461 L 461.6683 584.6461 L 467.5953 595.8992 C 455.651 596.2518 445.3868 596.9056 436.8054 597.8835 C 428.2225 598.8885 421.1443 600.1192 415.5691 601.6016 C 409.9077 603.0841 405.8365 604.7422 403.2711 606.576 C 400.6152 608.4098 399.3788 610.2672 399.3788 612.1523 C 399.3788 615.0148 402.2972 617.3513 408.2257 619.1599 C 414.1551 620.994 421.4973 622.5016 430.3475 623.6824 C 439.1054 624.8882 448.5724 625.8928 458.8364 626.696 C 469.012 627.5001 478.4797 628.3032 487.3277 629.1073 C 496.0873 629.9112 503.4305 630.8158 509.3589 631.8203 C 515.2874 632.8248 518.2943 634.1573 518.2943 635.8149 C 518.2943 639.2313 505.7311 640.9146 480.6917 640.9146 C 450.874 640.9146 427.7809 638.7784 411.3217 634.4833 L 405.0415 647.3445 C 418.3119 650.0818 439.1932 651.6899 467.5953 652.1675 L 461.6683 663.4207 L 501.3069 663.4207 L 495.379 652.0668 C 509.1802 651.7399 520.4196 651.012 529.2676 649.8815 L 529.2676 649.8815 Z" fill="#f2b800"/>				</g>			</g>			<g>				<path d="M 244.5993 529.7408 C 244.5993 529.7408 243.1239 604.7065 246.1779 618.2269 C 249.2298 631.7489 286.9155 700.8987 447.7163 700.8987 C 616.2687 700.8987 652.4362 632.1968 653.4131 619.0409 C 654.0358 610.6218 653.8563 530.4775 653.8563 530.4775 L 244.5993 529.7408 Z" fill="#f2b800"/>				<path id="Ellipse7" d="M 242.713 529.265 C 242.713 479.6376 334.6003 439.4052 447.9558 439.4052 C 561.3116 439.4052 653.2003 479.6376 653.2003 529.265 C 653.2003 578.8958 561.3116 619.1263 447.9558 619.1263 C 334.6003 619.1263 242.713 578.8958 242.713 529.265 Z" fill="#f7e455"/>				<g>					<path d="M 497.0099 548.9512 C 505.8586 547.8461 512.7595 546.5395 517.8898 545.0569 C 523.0217 543.5762 526.4734 541.9679 528.4219 540.2345 C 530.3669 538.5023 531.3408 536.818 531.3408 535.186 C 531.3408 531.8192 528.4219 529.0568 522.5807 526.9222 C 516.7416 524.8118 509.4857 523.078 500.639 521.7471 C 491.7888 520.4409 482.1453 519.4103 471.8818 518.6575 C 461.5283 517.9028 451.9742 517.1996 443.1257 516.5222 C 434.2784 515.8442 426.9335 515.0651 421.0947 514.2112 C 415.2546 513.3573 412.4224 512.177 412.4224 510.6691 C 412.4224 507.7054 426.0493 506.222 453.3006 506.222 C 470.7307 506.222 491.6128 507.83 516.0332 511.046 L 520.0153 499.7925 C 514.5279 498.7372 506.4778 497.7322 495.8602 496.7781 C 485.2416 495.8229 474.2708 495.2203 463.1224 494.9686 L 469.0497 483.7161 L 429.4108 483.7161 L 435.3395 494.9686 C 423.3947 495.3201 413.1312 495.9742 404.5476 496.9533 C 395.9647 497.9585 388.8878 499.1896 383.313 500.6722 C 377.6519 502.1534 373.58 503.8116 371.0134 505.6456 C 368.3593 507.4789 367.1205 509.3381 367.1205 511.2219 C 367.1205 514.0849 370.0414 516.4208 375.9697 518.2298 C 381.8979 520.0638 389.2415 521.5711 398.0897 522.7521 C 406.8489 523.957 416.3164 524.9624 426.5801 525.7655 C 436.7549 526.5693 446.2232 527.3734 455.0719 528.1777 C 463.8293 528.9808 471.1733 529.8848 477.1014 530.8891 C 483.0309 531.8943 486.0381 533.226 486.0381 534.8848 C 486.0381 538.3001 473.4725 539.9833 448.434 539.9833 C 418.6174 539.9833 395.5232 537.848 379.0659 533.5531 L 372.7823 546.4139 C 386.056 549.1514 406.9368 550.7595 435.3395 551.2371 L 429.4108 562.491 L 469.0497 562.491 L 463.1224 551.1359 C 476.9243 550.81 488.1619 550.082 497.0099 548.9512 L 497.0099 548.9512 Z" fill="#f2b800"/>				</g>			</g>		</g>		<g>			<path id="Ellipse8" d="M 67.509 719.0272 C 49.906 627.0932 127.8554 526.3734 219.915 508.4633 C 311.9761 490.552 405.8502 575.3408 428.1662 668.7916 C 449.9052 759.8237 382.772 849.9988 290.7119 867.9091 C 198.6527 885.8196 85.1127 810.9614 67.509 719.0272 Z" fill="#f2b800"/>			<g>				<g>					<path id="Ellipse9" d="M 59.7734 701.0859 C 42.1702 609.1523 102.5268 520.1079 194.5864 502.1979 C 286.646 484.287 375.5437 544.2933 393.1476 636.2274 C 410.7512 728.1614 350.3953 817.2047 258.3358 835.116 C 166.2748 853.0267 77.3784 793.0198 59.7734 701.0859 Z" fill="#fdee68"/>				</g>				<g>					<path d="M 271.7944 726.3955 C 277.4348 722.4521 281.6234 718.2734 284.494 713.8979 C 287.368 709.5243 289.0084 705.0633 289.5393 700.4968 C 290.0731 695.9319 289.9517 691.6212 289.1754 687.5673 C 287.5746 679.2109 284.226 672.747 279.142 668.2391 C 274.0693 663.7925 268.1899 660.4728 261.3907 658.368 C 254.6047 656.3244 247.3932 655.0768 239.8826 654.5962 C 232.3094 654.1294 225.3167 653.6793 218.8264 653.1951 C 212.3394 652.7111 206.8513 651.7732 202.3743 650.4454 C 197.8971 649.1163 195.3656 646.5699 194.6502 642.8271 C 193.2406 635.4685 202.0316 629.9429 221.0238 626.248 C 233.1709 623.884 248.4852 625.0452 267.0336 629.7158 L 264.4585 601.2383 C 260.1342 599.3623 254.0441 597.9601 246.1924 597.0306 C 238.3391 596.0994 230.407 596.0908 222.5162 596.9786 L 221.2984 568.2383 L 193.6756 573.6131 L 203.1548 600.7459 C 194.9998 603.2381 188.1565 606.2523 182.6407 609.8475 C 177.1378 613.505 172.7884 617.5209 169.6111 621.9547 C 166.3697 626.4023 164.3204 631.0697 163.4044 635.9703 C 162.4261 640.8825 162.4451 645.6657 163.3414 650.341 C 164.7018 657.4504 167.8492 662.8538 172.8395 666.5397 C 177.8405 670.2903 183.6758 673.0351 190.4031 674.7665 C 197.0807 676.5719 204.1564 677.7827 211.6909 678.386 C 219.1638 679.0022 226.1436 679.7134 232.6917 680.5105 C 239.1781 681.3185 244.7266 682.5667 249.3354 684.257 C 253.9443 685.949 256.675 688.8461 257.463 692.9617 C 259.0865 701.4419 251.1295 707.3242 233.6808 710.7188 C 212.8992 714.7622 195.7911 712.5915 182.2814 704.1595 L 184.0156 736.9395 C 194.5677 741.9372 209.8846 743.0977 229.9032 740.4316 L 231.1225 769.1724 L 258.7465 763.7985 L 249.2181 736.4152 C 258.6808 733.7336 266.1666 730.4005 271.7944 726.3955 L 271.7944 726.3955 Z" fill="#f2b800"/>				</g>			</g>		</g>	</g></svg>