<?xml version="1.0" encoding="UTF-8" standalone="no"?>
<!DOCTYPE svg PUBLIC "-//W3C//DTD SVG 1.1//EN" "http://www.w3.org/Graphics/SVG/1.1/DTD/svg11.dtd">
<svg width="100%" height="100%" viewBox="0 0 1160 986" version="1.1" xmlns="http://www.w3.org/2000/svg" xmlns:xlink="http://www.w3.org/1999/xlink" xml:space="preserve" style="fill-rule:evenodd;clip-rule:evenodd;stroke-linejoin:round;stroke-miterlimit:1.41421;">
    <g id="Coins">
        <g>
            <path d="M2.366,661.391C2.366,661.391 7.241,709.794 10.35,718.355C13.46,726.916 44.191,769.564 152.228,761.323C265.472,752.685 284.395,706.54 284.021,698.009C283.781,692.549 277.391,640.892 277.391,640.892L2.366,661.391Z" style="fill:rgb(242,184,0);fill-rule:nonzero;"/>
            <path id="Ellipse" d="M1.061,661.181C-2.822,629.187 55.766,598.542 131.926,592.732C208.084,586.922 272.97,608.15 276.853,640.143C280.737,672.139 222.15,702.784 145.99,708.594C69.831,714.402 4.945,693.176 1.061,661.181Z" style="fill:rgb(247,228,85);fill-rule:nonzero;"/>
            <path d="M173.456,660.839C179.314,659.673 183.848,658.478 187.18,657.259C190.512,656.041 192.705,654.827 193.877,653.61C195.049,652.394 195.573,651.258 195.444,650.205C195.18,648.035 193.002,646.404 188.91,645.327C184.823,644.267 179.813,643.521 173.764,643.115C167.717,642.727 161.157,642.557 154.202,642.598C147.187,642.642 140.713,642.678 134.716,642.695C128.718,642.711 123.722,642.585 119.731,642.334C115.742,642.082 113.746,641.466 113.629,640.495C113.397,638.584 122.436,636.93 140.744,635.533C152.456,634.64 166.61,634.606 183.27,635.428L185.065,627.969C181.296,627.57 175.809,627.335 168.601,627.264C161.391,627.193 153.973,627.365 146.461,627.776L149.565,620.218L122.935,622.249L127.797,629.199C119.798,630.039 112.955,630.986 107.264,632.056C101.578,633.145 96.918,634.301 93.288,635.542C89.6,636.787 86.994,638.064 85.415,639.378C83.774,640.697 83.088,641.958 83.235,643.173C83.459,645.019 85.604,646.375 89.727,647.237C93.855,648.116 98.907,648.711 104.944,649.019C110.922,649.348 117.363,649.509 124.321,649.502C131.22,649.499 137.643,649.531 143.653,649.596C149.6,649.666 154.607,649.873 158.666,650.217C162.728,650.56 164.853,651.265 164.982,652.332C165.25,654.535 156.94,656.264 140.117,657.548C120.085,659.076 104.403,658.882 93.008,656.957L89.792,665.571C98.925,666.655 113.079,666.621 132.201,665.473L129.098,673.033L155.73,671.002L150.859,663.984C160.105,663.067 167.6,662.021 173.456,660.839Z" style="fill:rgb(242,184,0);fill-rule:nonzero;"/>
        </g>
        <path d="M204.745,500.788L374.635,398.428L838.998,512.161L646.458,637.267L204.745,500.788Z" style="fill:rgb(255,214,0);fill-rule:nonzero;"/>
        <path d="M363.309,364.309L510.546,0.364L1076.84,102.723C1038.6,249.284 975.086,371.852 918.279,500.788L363.309,364.309Z" style="fill:rgb(243,182,48);fill-rule:nonzero;"/>
        <path d="M540.1,65.71L437.563,328.844L877.563,448.55L988.744,151.292L540.1,65.71Z" style="fill:rgb(196,113,74);fill-rule:nonzero;"/>
        <path d="M918.036,500.573C918.036,500.573 1079.06,508.049 1133.47,398.428C1216.84,230.453 1076.84,102.723 1076.84,102.723L918.036,500.573Z" style="fill:rgb(219,141,14);fill-rule:nonzero;"/>
        <path d="M363.309,364.309L114.139,512.161L657.783,682.761L918.279,500.788L363.309,364.309Z" style="fill:rgb(255,214,0);fill-rule:nonzero;"/>
        <path d="M170.768,807.867L114.139,512.161L657.783,682.761L670.55,968.257L170.768,807.867Z" style="fill:rgb(243,182,48);fill-rule:nonzero;"/>
        <path d="M906.954,773.747L918.279,500.788L657.178,682.229L669.109,932.974L906.954,773.747Z" style="fill:rgb(219,141,14);fill-rule:nonzero;"/>
        <g transform="matrix(1,0,0,1,3.30208,1.86979)">
            <path d="M155.195,559.728L620.315,709.907L613.015,914.697L198.862,785.245L155.195,559.728Z" style="fill:rgb(196,113,74);fill-rule:nonzero;"/>
        </g>
        <path d="M692.013,699.038L891.415,559.226L884.301,751.001L698.859,864.117L692.013,699.038Z" style="fill:rgb(196,113,74);fill-rule:nonzero;"/>
        <path d="M974.909,443.922L1076.84,182.336C1076.84,182.336 1139.37,246.605 1099.49,352.936C1059.62,459.265 974.909,443.922 974.909,443.922Z" style="fill:rgb(196,113,74);fill-rule:nonzero;"/>
        <g id="Ellipse2" transform="matrix(0.824518,0.0941408,0,0.892413,71.31,54.1711)">
            <path d="M315.954,705.348C324.484,676.081 360.459,660.507 394.806,670.896C427.808,680.879 445.775,710.946 436.311,737.779C427.079,763.95 394.591,778.69 362.468,771.027C329.097,763.068 307.652,733.838 315.954,705.348Z" style="fill:rgb(243,182,48);fill-rule:nonzero;"/>
        </g>
        <g>
            <path d="M447.73,516.66C447.73,516.66 446.932,555.786 448.582,562.843C450.235,569.899 470.617,605.991 557.594,605.991C648.764,605.991 668.329,570.134 668.857,563.267C669.191,558.874 669.097,517.044 669.097,517.044L447.73,516.66Z" style="fill:rgb(242,184,0);fill-rule:nonzero;"/>
            <path id="Ellipse3" d="M446.708,516.411C446.708,490.509 496.41,469.512 557.723,469.512C619.039,469.512 668.742,490.509 668.742,516.411C668.742,542.314 619.039,563.312 557.723,563.312C496.41,563.312 446.708,542.314 446.708,516.411Z" style="fill:rgb(247,228,85);fill-rule:nonzero;"/>
            <path d="M584.258,526.687C589.043,526.109 592.776,525.427 595.553,524.653C598.328,523.88 600.194,523.041 601.248,522.136C602.301,521.233 602.828,520.354 602.828,519.501C602.828,517.745 601.248,516.303 598.088,515.188C594.93,514.087 591.004,513.182 586.221,512.487C581.434,511.807 576.218,511.267 570.665,510.874C565.066,510.481 559.898,510.113 555.111,509.761C550.327,509.407 546.354,509 543.195,508.554C540.036,508.11 538.503,507.493 538.503,506.705C538.503,505.159 545.875,504.385 560.616,504.385C570.043,504.385 581.338,505.224 594.547,506.902L596.702,501.029C593.734,500.478 589.379,499.954 583.635,499.455C577.891,498.957 571.959,498.643 565.928,498.511L569.133,492.639L547.694,492.639L550.9,498.511C544.44,498.696 538.887,499.036 534.247,499.547C529.603,500.071 525.774,500.715 522.76,501.488C519.695,502.261 517.496,503.126 516.106,504.085C514.673,505.04 514,506.011 514,506.994C514,508.488 515.58,509.708 518.786,510.652C521.994,511.609 525.966,512.396 530.753,513.013C535.49,513.642 540.611,514.165 546.162,514.585C551.665,515.005 556.787,515.424 561.574,515.844C566.309,516.263 570.283,516.735 573.49,517.259C576.696,517.784 578.323,518.48 578.323,519.345C578.323,521.127 571.527,522.006 557.982,522.006C541.854,522.006 529.364,520.892 520.461,518.649L517.063,525.362C524.243,526.791 535.537,527.629 550.9,527.879L547.694,533.753L569.133,533.753L565.928,527.827C573.393,527.657 579.472,527.276 584.258,526.687Z" style="fill:rgb(242,184,0);fill-rule:nonzero;"/>
        </g>
        <g>
            <path d="M628.945,493.913C628.945,493.913 628.147,533.039 629.797,540.096C631.449,547.153 651.832,583.245 738.809,583.245C829.979,583.245 849.542,547.387 850.072,540.521C850.407,536.128 850.312,494.298 850.312,494.298L628.945,493.913Z" style="fill:rgb(242,184,0);fill-rule:nonzero;"/>
            <path id="Ellipse4" d="M627.924,493.665C627.924,467.762 677.625,446.765 738.94,446.765C800.254,446.765 849.956,467.762 849.956,493.665C849.956,519.568 800.254,540.566 738.94,540.566C677.625,540.566 627.924,519.568 627.924,493.665Z" style="fill:rgb(247,228,85);fill-rule:nonzero;"/>
            <path d="M765.473,503.94C770.258,503.362 773.991,502.68 776.768,501.907C779.542,501.134 781.409,500.294 782.463,499.39C783.516,498.487 784.042,497.607 784.042,496.755C784.042,494.999 782.463,493.556 779.303,492.442C776.145,491.341 772.221,490.435 767.434,489.741C762.649,489.06 757.432,488.521 751.88,488.128C746.281,487.735 741.113,487.367 736.326,487.015C731.542,486.661 727.569,486.254 724.41,485.808C721.251,485.362 719.72,484.746 719.72,483.959C719.72,482.412 727.089,481.638 741.83,481.638C751.258,481.638 762.553,482.478 775.763,484.156L777.917,478.282C774.947,477.732 770.593,477.208 764.849,476.709C759.107,476.211 753.172,475.897 747.144,475.765L750.348,469.893L728.91,469.893L732.115,475.765C725.653,475.95 720.103,476.29 715.462,476.801C710.818,477.325 706.989,477.969 703.975,478.741C700.91,479.514 698.709,480.38 697.322,481.338C695.887,482.294 695.215,483.265 695.215,484.248C695.215,485.741 696.795,486.962 700.001,487.906C703.207,488.863 707.181,489.65 711.968,490.266C716.705,490.895 721.826,491.418 727.377,491.839C732.881,492.258 738.003,492.677 742.789,493.096C747.526,493.517 751.498,493.988 754.705,494.513C757.911,495.037 759.537,495.733 759.537,496.599C759.537,498.38 752.742,499.26 739.197,499.26C723.071,499.26 710.579,498.145 701.676,495.903L698.278,502.615C705.458,504.044 716.751,504.882 732.115,505.132L728.91,511.006L750.348,511.006L747.144,505.08C754.608,504.91 760.687,504.53 765.473,503.94Z" style="fill:rgb(242,184,0);fill-rule:nonzero;"/>
        </g>
        <g>
            <path d="M436.404,437.046C436.404,437.046 435.606,476.173 437.257,483.23C438.908,490.287 459.291,526.378 546.269,526.378C637.438,526.378 657.001,490.522 657.53,483.655C657.866,479.26 657.771,437.431 657.771,437.431L436.404,437.046Z" style="fill:rgb(242,184,0);fill-rule:nonzero;"/>
            <path id="Ellipse5" d="M435.382,436.799C435.382,410.896 485.085,389.898 546.398,389.898C607.713,389.898 657.416,410.896 657.416,436.799C657.416,462.702 607.713,483.7 546.398,483.7C485.085,483.7 435.382,462.702 435.382,436.799Z" style="fill:rgb(247,228,85);fill-rule:nonzero;"/>
            <path d="M572.933,447.073C577.717,446.496 581.45,445.815 584.227,445.041C587.002,444.267 588.868,443.427 589.921,442.524C590.975,441.62 591.502,440.741 591.502,439.889C591.502,438.132 589.921,436.69 586.762,435.575C583.605,434.475 579.679,433.569 574.895,432.875C570.108,432.193 564.893,431.655 559.339,431.262C553.74,430.868 548.572,430.501 543.785,430.148C539.001,429.794 535.028,429.387 531.869,428.942C528.709,428.496 527.177,427.879 527.177,427.092C527.177,425.546 534.549,424.772 549.29,424.772C558.717,424.772 570.012,425.611 583.222,427.29L585.376,421.415C582.408,420.865 578.052,420.341 572.308,419.842C566.565,419.344 560.632,419.03 554.602,418.898L557.808,413.025L536.367,413.025L539.575,418.898C533.114,419.083 527.562,419.423 522.921,419.934C518.277,420.458 514.448,421.102 511.434,421.875C508.369,422.648 506.169,423.513 504.78,424.471C503.344,425.428 502.675,426.398 502.675,427.381C502.675,428.875 504.254,430.095 507.46,431.04C510.668,431.996 514.639,432.783 519.426,433.4C524.164,434.028 529.286,434.552 534.836,434.972C540.34,435.392 545.46,435.811 550.248,436.23C554.984,436.65 558.958,437.122 562.164,437.647C565.37,438.171 566.998,438.867 566.998,439.732C566.998,441.515 560.201,442.393 546.657,442.393C530.528,442.393 518.039,441.278 509.135,439.036L505.737,445.748C512.917,447.177 524.211,448.016 539.575,448.265L536.367,454.14L557.808,454.14L554.602,448.214C562.067,448.044 568.146,447.664 572.933,447.073Z" style="fill:rgb(242,184,0);fill-rule:nonzero;"/>
        </g>
        <g>
            <path d="M255.188,391.554C255.188,391.554 254.39,430.68 256.041,437.736C257.693,444.793 278.076,480.885 365.054,480.885C456.223,480.885 475.788,445.028 476.315,438.161C476.651,433.768 476.555,391.938 476.555,391.938L255.188,391.554Z" style="fill:rgb(242,184,0);fill-rule:nonzero;"/>
            <path id="Ellipse6" d="M254.167,391.305C254.167,365.403 303.869,344.406 365.184,344.406C426.498,344.406 476.2,365.403 476.2,391.305C476.2,417.209 426.498,438.206 365.184,438.206C303.869,438.206 254.167,417.209 254.167,391.305Z" style="fill:rgb(247,228,85);fill-rule:nonzero;"/>
            <path d="M391.718,401.58C396.503,401.003 400.235,400.321 403.011,399.548C405.786,398.774 407.654,397.935 408.708,397.03C409.76,396.127 410.287,395.248 410.287,394.395C410.287,392.639 408.708,391.197 405.547,390.082C402.39,388.982 398.465,388.075 393.679,387.381C388.892,386.7 383.676,386.161 378.124,385.768C372.525,385.375 367.357,385.008 362.57,384.655C357.786,384.301 353.813,383.894 350.654,383.449C347.495,383.003 345.963,382.387 345.963,381.599C345.963,380.053 353.333,379.28 368.074,379.28C377.503,379.28 388.797,380.118 402.007,381.796L404.161,375.922C401.192,375.372 396.838,374.848 391.094,374.349C385.351,373.851 379.416,373.537 373.387,373.405L376.593,367.533L355.154,367.533L358.36,373.405C351.898,373.59 346.346,373.93 341.706,374.441C337.063,374.966 333.234,375.609 330.219,376.382C327.155,377.155 324.954,378.02 323.567,378.978C322.131,379.934 321.46,380.905 321.46,381.889C321.46,383.382 323.039,384.602 326.245,385.546C329.452,386.502 333.425,387.29 338.211,387.907C342.949,388.535 348.069,389.058 353.621,389.479C359.125,389.898 364.245,390.318 369.031,390.737C373.77,391.157 377.742,391.629 380.95,392.153C384.155,392.679 385.781,393.373 385.781,394.239C385.781,396.021 378.986,396.9 365.442,396.9C349.315,396.9 336.824,395.785 327.921,393.543L324.523,400.256C331.702,401.685 342.996,402.523 358.36,402.773L355.154,408.647L376.593,408.647L373.387,402.72C380.852,402.551 386.932,402.17 391.718,401.58Z" style="fill:rgb(242,184,0);fill-rule:nonzero;"/>
        </g>
        <g>
            <path d="M527.011,505.287C527.011,505.287 526.213,544.412 527.863,551.47C529.516,558.526 549.898,594.618 636.875,594.618C728.047,594.618 747.61,558.761 748.136,551.894C748.474,547.501 748.378,505.671 748.378,505.671L527.011,505.287Z" style="fill:rgb(242,184,0);fill-rule:nonzero;"/>
            <path id="Ellipse7" d="M525.991,505.038C525.991,479.136 575.693,458.139 637.006,458.139C698.319,458.139 748.023,479.136 748.023,505.038C748.023,530.941 698.319,551.939 637.006,551.939C575.693,551.939 525.991,530.941 525.991,505.038Z" style="fill:rgb(247,228,85);fill-rule:nonzero;"/>
            <path d="M663.539,515.313C668.324,514.736 672.059,514.053 674.834,513.28C677.609,512.507 679.475,511.667 680.529,510.763C681.583,509.86 682.109,508.981 682.109,508.128C682.109,506.372 680.529,504.93 677.37,503.815C674.213,502.714 670.287,501.808 665.502,501.114C660.715,500.432 655.5,499.894 649.946,499.501C644.347,499.108 639.179,498.74 634.393,498.388C629.608,498.034 625.635,497.627 622.478,497.182C619.317,496.736 617.786,496.119 617.786,495.332C617.786,493.786 625.156,493.012 639.897,493.012C649.324,493.012 660.621,493.851 673.83,495.529L675.983,489.656C673.015,489.105 668.659,488.581 662.916,488.082C657.174,487.584 651.239,487.27 645.21,487.138L648.415,481.266L626.976,481.266L630.181,487.138C623.721,487.323 618.169,487.663 613.528,488.174C608.885,488.698 605.057,489.342 602.041,490.115C598.977,490.888 596.776,491.753 595.388,492.711C593.952,493.667 593.283,494.638 593.283,495.621C593.283,497.115 594.862,498.336 598.068,499.279C601.275,500.236 605.246,501.023 610.033,501.64C614.771,502.268 619.892,502.792 625.443,503.212C630.947,503.631 636.068,504.051 640.854,504.47C645.592,504.89 649.564,505.362 652.771,505.886C655.977,506.411 657.604,507.106 657.604,507.972C657.604,509.754 650.807,510.633 637.265,510.633C621.137,510.633 608.646,509.519 599.742,507.276L596.346,513.989C603.525,515.418 614.819,516.255 630.181,516.506L626.976,522.379L648.415,522.379L645.21,516.453C652.674,516.283 658.753,515.903 663.539,515.313Z" style="fill:rgb(242,184,0);fill-rule:nonzero;"/>
        </g>
        <g>
            <path d="M286.077,468.324C286.077,468.324 285.281,507.45 286.931,514.507C288.583,521.563 308.966,557.655 395.943,557.655C487.114,557.655 506.675,521.798 507.204,514.931C507.541,510.538 507.445,468.708 507.445,468.708L286.077,468.324Z" style="fill:rgb(242,184,0);fill-rule:nonzero;"/>
            <path id="Ellipse8" d="M285.057,468.075C285.057,442.173 334.758,421.175 396.073,421.175C457.387,421.175 507.088,442.173 507.088,468.075C507.088,493.978 457.387,514.976 396.073,514.976C334.758,514.976 285.057,493.978 285.057,468.075Z" style="fill:rgb(247,228,85);fill-rule:nonzero;"/>
            <path d="M422.606,478.349C427.392,477.772 431.124,477.09 433.899,476.317C436.676,475.544 438.542,474.704 439.595,473.8C440.647,472.896 441.175,472.018 441.175,471.166C441.175,469.409 439.595,467.967 436.436,466.852C433.278,465.751 429.354,464.845 424.569,464.152C419.783,463.47 414.567,462.931 409.015,462.538C403.414,462.146 398.246,461.777 393.46,461.425C388.674,461.071 384.702,460.664 381.544,460.218C378.385,459.772 376.853,459.156 376.853,458.369C376.853,456.822 384.224,456.049 398.964,456.049C408.392,456.049 419.687,456.888 432.896,458.566L435.049,452.691C432.082,452.143 427.727,451.617 421.984,451.119C416.241,450.62 410.306,450.307 404.276,450.176L407.481,444.302L386.043,444.302L389.248,450.176C382.786,450.36 377.236,450.7 372.594,451.21C367.951,451.736 364.123,452.378 361.107,453.151C358.045,453.925 355.842,454.789 354.455,455.748C353.018,456.704 352.349,457.676 352.349,458.658C352.349,460.152 353.928,461.372 357.135,462.316C360.342,463.273 364.315,464.06 369.099,464.676C373.837,465.305 378.958,465.828 384.51,466.25C390.014,466.668 395.135,467.088 399.922,467.507C404.659,467.926 408.63,468.398 411.837,468.923C415.044,469.448 416.672,470.143 416.672,471.008C416.672,472.791 409.875,473.67 396.331,473.67C380.204,473.67 367.712,472.555 358.811,470.313L355.412,477.026C362.591,478.454 373.885,479.292 389.248,479.543L386.043,485.416L407.481,485.416L404.276,479.489C411.741,479.32 417.82,478.94 422.606,478.349Z" style="fill:rgb(242,184,0);fill-rule:nonzero;"/>
        </g>
        <g>
            <path d="M171.789,474.01C171.789,474.01 170.99,513.136 172.641,520.193C174.294,527.25 194.678,563.342 281.653,563.342C372.823,563.342 392.387,527.485 392.916,520.618C393.252,516.225 393.156,474.395 393.156,474.395L171.789,474.01Z" style="fill:rgb(242,184,0);fill-rule:nonzero;"/>
            <path id="Ellipse9" d="M170.768,473.761C170.768,447.859 220.472,426.862 281.785,426.862C343.097,426.862 392.799,447.859 392.799,473.761C392.799,499.665 343.097,520.663 281.785,520.663C220.472,520.663 170.768,499.665 170.768,473.761Z" style="fill:rgb(247,228,85);fill-rule:nonzero;"/>
            <path d="M308.317,484.037C313.102,483.459 316.836,482.777 319.611,482.004C322.385,481.231 324.252,480.391 325.305,479.487C326.36,478.583 326.886,477.704 326.886,476.852C326.886,475.096 325.305,473.653 322.146,472.538C318.989,471.437 315.066,470.533 310.279,469.838C305.493,469.156 300.277,468.618 294.725,468.225C289.125,467.832 283.957,467.464 279.171,467.111C274.385,466.757 270.413,466.351 267.254,465.904C264.095,465.459 262.563,464.843 262.563,464.056C262.563,462.508 269.934,461.736 284.675,461.736C294.103,461.736 305.397,462.574 318.606,464.253L320.761,458.378C317.793,457.829 313.437,457.304 307.694,456.805C301.95,456.307 296.016,455.994 289.986,455.862L293.194,449.989L271.754,449.989L274.958,455.862C268.498,456.047 262.947,456.387 258.304,456.897C253.661,457.422 249.833,458.064 246.819,458.838C243.755,459.611 241.554,460.476 240.164,461.434C238.729,462.391 238.06,463.362 238.06,464.344C238.06,465.839 239.638,467.059 242.846,468.002C246.052,468.959 250.024,469.747 254.812,470.362C259.548,470.991 264.67,471.515 270.221,471.936C275.726,472.355 280.846,472.774 285.632,473.193C290.368,473.612 294.341,474.085 297.549,474.61C300.755,475.135 302.382,475.83 302.382,476.695C302.382,478.477 295.587,479.357 282.041,479.357C265.913,479.357 253.423,478.242 244.521,476L241.122,482.712C248.301,484.141 259.597,484.979 274.958,485.229L271.754,491.103L293.194,491.103L289.986,485.176C297.451,485.007 303.531,484.627 308.317,484.037Z" style="fill:rgb(242,184,0);fill-rule:nonzero;"/>
        </g>
        <g>
            <path d="M381.833,559.309C381.833,559.309 381.035,598.435 382.687,605.492C384.338,612.55 404.721,648.641 491.698,648.641C582.867,648.641 602.431,612.785 602.958,605.918C603.296,601.523 603.2,559.694 603.2,559.694L381.833,559.309Z" style="fill:rgb(242,184,0);fill-rule:nonzero;"/>
            <path id="Ellipse10" d="M380.812,559.062C380.812,533.159 430.516,512.161 491.829,512.161C553.142,512.161 602.845,533.159 602.845,559.062C602.845,584.965 553.142,605.962 491.829,605.962C430.516,605.962 380.812,584.965 380.812,559.062Z" style="fill:rgb(247,228,85);fill-rule:nonzero;"/>
            <path d="M518.362,569.336C523.148,568.759 526.88,568.077 529.656,567.304C532.432,566.53 534.298,565.69 535.353,564.787C536.404,563.883 536.932,563.004 536.932,562.152C536.932,560.395 535.353,558.953 532.191,557.838C529.033,556.737 525.11,555.832 520.323,555.138C515.537,554.456 510.321,553.917 504.769,553.525C499.17,553.131 494.001,552.763 489.216,552.41C484.428,552.057 480.458,551.65 477.298,551.204C474.141,550.759 472.609,550.142 472.609,549.355C472.609,547.808 479.978,547.035 494.718,547.035C504.147,547.035 515.441,547.874 528.65,549.552L530.803,543.678C527.838,543.128 523.482,542.604 517.739,542.106C511.997,541.607 506.06,541.292 500.032,541.161L503.238,535.288L481.796,535.288L485.003,541.161C478.543,541.346 472.992,541.686 468.348,542.197C463.706,542.721 459.877,543.364 456.863,544.138C453.8,544.911 451.597,545.776 450.211,546.734C448.775,547.691 448.104,548.661 448.104,549.644C448.104,551.137 449.684,552.358 452.89,553.302C456.098,554.259 460.069,555.046 464.855,555.662C469.592,556.291 474.714,556.814 480.265,557.235C485.768,557.655 490.89,558.074 495.676,558.493C500.415,558.912 504.386,559.384 507.594,559.91C510.8,560.434 512.426,561.13 512.426,561.995C512.426,563.777 505.63,564.656 492.085,564.656C475.959,564.656 463.467,563.541 454.567,561.298L451.167,568.011C458.346,569.44 469.642,570.279 485.003,570.528L481.796,576.403L503.238,576.403L500.032,570.476C507.498,570.307 513.576,569.927 518.362,569.336Z" style="fill:rgb(242,184,0);fill-rule:nonzero;"/>
        </g>
        <g>
            <path d="M528.041,562.153C528.041,562.153 527.242,601.279 528.895,608.336C530.546,615.393 550.928,651.484 637.906,651.484C729.076,651.484 748.638,615.628 749.167,608.761C749.504,604.367 749.408,562.537 749.408,562.537L528.041,562.153Z" style="fill:rgb(242,184,0);fill-rule:nonzero;"/>
            <path id="Ellipse11" d="M527.02,561.905C527.02,536.002 576.723,515.005 638.036,515.005C699.349,515.005 749.052,536.002 749.052,561.905C749.052,587.808 699.349,608.806 638.036,608.806C576.723,608.806 527.02,587.808 527.02,561.905Z" style="fill:rgb(247,228,85);fill-rule:nonzero;"/>
            <path d="M664.569,572.179C669.356,571.602 673.088,570.92 675.863,570.147C678.639,569.373 680.505,568.534 681.559,567.63C682.612,566.726 683.14,565.847 683.14,564.995C683.14,563.239 681.559,561.796 678.4,560.682C675.241,559.58 671.317,558.675 666.531,557.981C661.747,557.299 656.529,556.761 650.977,556.368C645.377,555.975 640.209,555.607 635.423,555.254C630.636,554.9 626.665,554.493 623.508,554.048C620.347,553.602 618.816,552.985 618.816,552.198C618.816,550.652 626.186,549.878 640.927,549.878C650.354,549.878 661.648,550.717 674.857,552.396L677.011,546.521C674.045,545.971 669.689,545.447 663.946,544.949C658.203,544.451 652.268,544.137 646.237,544.004L649.444,538.131L628.006,538.131L631.211,544.004C624.751,544.189 619.199,544.529 614.556,545.04C609.915,545.564 606.084,546.208 603.069,546.981C600.006,547.754 597.805,548.619 596.418,549.577C594.983,550.534 594.313,551.504 594.313,552.487C594.313,553.981 595.892,555.201 599.098,556.146C602.305,557.102 606.277,557.89 611.064,558.506C615.801,559.135 620.92,559.659 626.473,560.078C631.976,560.498 637.098,560.918 641.883,561.336C646.622,561.756 650.593,562.228 653.801,562.754C657.007,563.278 658.634,563.973 658.634,564.838C658.634,566.621 651.838,567.499 638.295,567.499C622.165,567.499 609.675,566.384 600.773,564.142L597.374,570.854C604.555,572.283 615.849,573.122 631.211,573.372L628.006,579.246L649.444,579.246L646.237,573.319C653.705,573.15 659.782,572.77 664.569,572.179Z" style="fill:rgb(242,184,0);fill-rule:nonzero;"/>
        </g>
        <g>
            <path d="M414.783,471.167C414.783,471.167 413.982,510.293 415.635,517.35C417.287,524.406 437.669,560.498 524.647,560.498C615.817,560.498 635.378,524.641 635.908,517.774C636.245,513.381 636.148,471.551 636.148,471.551L414.783,471.167Z" style="fill:rgb(242,184,0);fill-rule:nonzero;"/>
            <path id="Ellipse12" d="M413.761,470.919C413.761,445.016 463.463,424.018 524.776,424.018C586.09,424.018 635.792,445.016 635.792,470.919C635.792,496.822 586.09,517.819 524.776,517.819C463.463,517.819 413.761,496.822 413.761,470.919Z" style="fill:rgb(247,228,85);fill-rule:nonzero;"/>
            <path d="M551.309,481.193C556.096,480.616 559.829,479.934 562.603,479.161C565.379,478.388 567.246,477.548 568.3,476.644C569.351,475.739 569.879,474.861 569.879,474.009C569.879,472.252 568.3,470.81 565.141,469.695C561.982,468.594 558.057,467.688 553.272,466.994C548.487,466.313 543.27,465.774 537.718,465.381C532.117,464.989 526.951,464.62 522.163,464.268C517.378,463.914 513.406,463.508 510.247,463.061C507.088,462.616 505.556,462 505.556,461.213C505.556,459.665 512.927,458.892 527.667,458.892C537.096,458.892 548.39,459.731 561.598,461.41L563.753,455.535C560.785,454.986 556.431,454.461 550.687,453.962C544.944,453.464 539.009,453.151 532.979,453.019L536.184,447.146L514.746,447.146L517.952,453.019C511.491,453.203 505.939,453.543 501.297,454.054C496.656,454.579 492.826,455.221 489.81,455.994C486.748,456.768 484.545,457.633 483.158,458.591C481.723,459.548 481.053,460.519 481.053,461.501C481.053,462.995 482.633,464.216 485.838,465.159C489.045,466.116 493.018,466.903 497.804,467.519C502.542,468.148 507.662,468.672 513.213,469.093C518.717,469.512 523.839,469.931 528.624,470.35C533.362,470.77 537.335,471.242 540.542,471.766C543.749,472.291 545.376,472.987 545.376,473.852C545.376,475.634 538.578,476.514 525.035,476.514C508.906,476.514 496.416,475.399 487.513,473.156L484.116,479.869C491.295,481.298 502.589,482.136 517.952,482.386L514.746,488.26L536.184,488.26L532.979,482.333C540.446,482.164 546.523,481.783 551.309,481.193Z" style="fill:rgb(242,184,0);fill-rule:nonzero;"/>
        </g>
        <g>
            <path id="Ellipse13" d="M656.048,777.695C696.845,728.279 785.898,725.553 836.869,766.359C887.495,806.889 884.111,892.147 844.641,943.528C806.411,993.292 729.331,997.282 678.71,957.82C627.75,918.092 615.469,826.84 656.048,777.695Z" style="fill:rgb(242,184,0);fill-rule:nonzero;"/>
            <g>
                <path id="Ellipse14" d="M662.029,765.804C702.874,716.321 777.792,709.378 828.849,750.286C879.56,790.918 887.148,863.15 846.306,911.636C805.681,959.862 732.048,966.824 681.335,927.179C630.28,887.268 621.407,815.016 662.029,765.804Z" style="fill:rgb(253,238,104);fill-rule:nonzero;"/>
                <path d="M744.597,887.565C749.208,888.794 753.29,889.17 756.884,888.779C760.479,888.389 763.565,887.326 766.215,885.641C768.864,883.957 771.084,882.046 772.877,879.902C776.574,875.485 778.489,870.971 778.596,866.395C778.676,861.848 777.795,857.364 775.861,852.921C773.899,848.51 771.323,844.216 768.205,840.097C765.05,835.947 762.145,832.102 759.484,828.507C756.82,824.91 754.847,821.636 753.534,818.722C752.221,815.805 752.43,813.379 754.091,811.383C757.358,807.46 764.249,809.67 774.751,818.007C781.46,823.333 787.719,831.83 793.555,843.513L807.494,829.886C806.555,826.82 804.57,823.036 801.545,818.532C798.519,814.024 794.964,809.869 790.953,806.124L805.673,793.035L790.403,780.862L780.25,797.611C775.255,794.415 770.575,792.131 766.18,790.795C761.755,789.493 757.664,788.952 753.872,789.208C750.048,789.434 746.645,790.384 743.631,792.031C740.584,793.649 738.054,795.734 735.977,798.231C732.822,802.028 731.38,806.021 731.682,810.231C731.954,814.474 733.134,818.714 735.254,822.981C737.31,827.251 739.857,831.47 742.934,835.662C745.974,839.826 748.738,843.771 751.264,847.525C753.751,851.25 755.586,854.676 756.762,857.801C757.936,860.925 757.632,863.588 755.81,865.769C752.061,870.26 745.38,868.658 735.741,861.053C724.247,851.984 717.673,842.135 716.031,831.444L699.489,846.503C701.62,854.154 707.924,862.623 718.357,871.876L703.754,884.859L719.023,896.857L729.169,880.17C734.838,883.925 739.958,886.37 744.597,887.565Z" style="fill:rgb(242,184,0);fill-rule:nonzero;"/>
            </g>
        </g>
        <g>
            <path id="Ellipse15" d="M519.544,882.755C507.447,820.602 561.012,752.508 624.27,740.401C687.532,728.291 752.037,785.612 767.373,848.791C782.311,910.336 736.18,971.301 672.92,983.41C609.659,995.519 531.641,944.908 519.544,882.755Z" style="fill:rgb(242,184,0);fill-rule:nonzero;"/>
            <g>
                <path id="Ellipse16" d="M514.228,870.627C502.13,808.474 543.607,748.274 606.867,736.165C670.127,724.055 731.213,764.624 743.31,826.777C755.407,888.931 713.932,949.13 650.671,961.239C587.412,973.347 526.324,932.78 514.228,870.627Z" style="fill:rgb(253,238,104);fill-rule:nonzero;"/>
                <path d="M659.92,887.737C663.796,885.07 666.676,882.245 668.648,879.289C670.62,876.329 671.749,873.316 672.114,870.228C672.481,867.14 672.397,864.226 671.864,861.486C670.763,855.836 668.463,851.467 664.97,848.419C661.484,845.413 657.444,843.167 652.771,841.745C648.108,840.363 643.152,839.521 637.99,839.195C632.787,838.881 627.982,838.575 623.525,838.248C619.066,837.922 615.294,837.287 612.219,836.389C609.143,835.49 607.401,833.769 606.909,831.24C605.943,826.265 611.983,822.528 625.032,820.03C633.379,818.434 643.904,819.218 656.648,822.374L654.88,803.121C651.909,801.854 647.723,800.905 642.328,800.278C636.93,799.648 631.481,799.642 626.059,800.242L625.221,780.812L606.239,784.445L612.754,802.789C607.151,804.474 602.449,806.512 598.657,808.943C594.877,811.415 591.889,814.13 589.704,817.129C587.477,820.136 586.068,823.289 585.439,826.604C584.766,829.923 584.78,833.158 585.396,836.319C586.33,841.126 588.493,844.778 591.922,847.27C595.36,849.806 599.37,851.661 603.991,852.832C608.58,854.052 613.442,854.872 618.621,855.279C623.755,855.694 628.552,856.176 633.051,856.715C637.508,857.262 641.32,858.105 644.487,859.249C647.655,860.391 649.529,862.35 650.072,865.133C651.188,870.867 645.72,874.842 633.73,877.138C619.45,879.872 607.694,878.404 598.41,872.704L599.603,894.866C606.854,898.244 617.378,899.028 631.134,897.226L631.971,916.657L650.954,913.023L644.407,894.512C650.91,892.697 656.053,890.444 659.92,887.737Z" style="fill:rgb(242,184,0);fill-rule:nonzero;"/>
            </g>
        </g>
        <g>
            <g>
                <path d="M264.235,428.134C264.235,428.134 263.339,474.179 265.194,482.483C267.05,490.788 289.959,533.261 387.709,533.261C490.171,533.261 512.156,491.064 512.752,482.983C513.13,477.812 513.021,428.587 513.021,428.587L264.235,428.134Z" style="fill:rgb(242,184,0);fill-rule:nonzero;"/>
                <path id="Ellipse17" d="M263.088,427.842C263.088,397.361 318.946,372.649 387.855,372.649C456.762,372.649 512.621,397.361 512.621,427.842C512.621,458.325 456.762,483.036 387.855,483.036C318.946,483.036 263.088,458.325 263.088,427.842Z" style="fill:rgb(247,228,85);fill-rule:nonzero;"/>
                <path d="M417.675,439.934C423.054,439.255 427.249,438.452 430.368,437.542C433.488,436.632 435.585,435.645 436.768,434.58C437.952,433.515 438.544,432.481 438.544,431.479C438.544,429.412 436.768,427.714 433.218,426.402C429.669,425.107 425.257,424.042 419.88,423.225C414.5,422.423 408.638,421.789 402.399,421.327C396.106,420.864 390.297,420.432 384.918,420.016C379.539,419.599 375.076,419.121 371.525,418.596C367.974,418.071 366.255,417.346 366.255,416.421C366.255,414.6 374.539,413.69 391.104,413.69C401.7,413.69 414.393,414.677 429.238,416.651L431.659,409.741C428.324,409.092 423.429,408.475 416.975,407.889C410.52,407.302 403.85,406.932 397.075,406.777L400.677,399.866L376.582,399.866L380.185,406.777C372.924,406.994 366.683,407.396 361.467,407.997C356.25,408.613 351.947,409.37 348.559,410.28C345.116,411.19 342.641,412.208 341.082,413.335C339.467,414.462 338.717,415.602 338.717,416.76C338.717,418.519 340.49,419.954 344.094,421.065C347.698,422.191 352.162,423.117 357.541,423.842C362.866,424.582 368.621,425.2 374.86,425.693C381.046,426.187 386.802,426.68 392.179,427.174C397.503,427.668 401.968,428.224 405.573,428.841C409.177,429.458 411.005,430.276 411.005,431.294C411.005,433.392 403.366,434.426 388.145,434.426C370.02,434.426 355.981,433.114 345.976,430.476L342.158,438.375C350.226,440.057 362.919,441.045 380.185,441.338L376.582,448.249L400.677,448.249L397.075,441.276C405.463,441.075 412.296,440.628 417.675,439.934Z" style="fill:rgb(242,184,0);fill-rule:nonzero;"/>
            </g>
            <g>
                <path d="M244.625,366.143C244.625,366.143 243.729,412.187 245.586,420.492C247.441,428.796 270.35,471.268 368.1,471.268C470.563,471.268 492.548,429.072 493.142,420.991C493.521,415.821 493.413,366.596 493.413,366.596L244.625,366.143Z" style="fill:rgb(242,184,0);fill-rule:nonzero;"/>
                <path id="Ellipse18" d="M243.479,365.851C243.479,335.369 299.338,310.658 368.246,310.658C437.154,310.658 493.013,335.369 493.013,365.851C493.013,396.334 437.154,421.044 368.246,421.044C299.338,421.044 243.479,396.334 243.479,365.851Z" style="fill:rgb(247,228,85);fill-rule:nonzero;"/>
                <path d="M398.066,377.942C403.445,377.263 407.641,376.46 410.759,375.55C413.878,374.64 415.976,373.653 417.16,372.588C418.343,371.524 418.935,370.49 418.935,369.487C418.935,367.419 417.16,365.722 413.61,364.412C410.06,363.115 405.649,362.05 400.271,361.233C394.891,360.431 389.03,359.798 382.791,359.335C376.497,358.872 370.688,358.44 365.31,358.024C359.931,357.607 355.467,357.128 351.916,356.604C348.366,356.08 346.645,355.354 346.645,354.429C346.645,352.608 354.929,351.698 371.494,351.698C382.092,351.698 394.784,352.685 409.629,354.66L412.049,347.748C408.716,347.1 403.82,346.483 397.366,345.897C390.912,345.31 384.242,344.94 377.465,344.786L381.068,337.874L356.972,337.874L360.577,344.786C353.314,345.002 347.075,345.403 341.858,346.004C336.641,346.622 332.339,347.377 328.95,348.288C325.507,349.199 323.032,350.217 321.473,351.343C319.859,352.47 319.108,353.611 319.108,354.768C319.108,356.527 320.882,357.961 324.486,359.073C328.088,360.199 332.553,361.125 337.932,361.85C343.256,362.59 349.012,363.208 355.252,363.701C361.436,364.195 367.192,364.688 372.572,365.183C377.895,365.676 382.359,366.231 385.964,366.848C389.567,367.466 391.396,368.284 391.396,369.302C391.396,371.4 383.758,372.434 368.536,372.434C350.412,372.434 336.373,371.122 326.368,368.485L322.549,376.383C330.617,378.065 343.309,379.053 360.577,379.346L356.972,386.258L381.068,386.258L377.465,379.284C385.856,379.084 392.687,378.636 398.066,377.942Z" style="fill:rgb(242,184,0);fill-rule:nonzero;"/>
            </g>
        </g>
        <g>
            <g>
                <path d="M567.486,461.862C567.486,461.862 566.589,507.907 568.445,516.211C570.3,524.516 593.209,566.989 690.958,566.989C793.422,566.989 815.408,524.791 816.001,516.711C816.38,511.54 816.272,462.315 816.272,462.315L567.486,461.862Z" style="fill:rgb(242,184,0);fill-rule:nonzero;"/>
                <path id="Ellipse19" d="M566.339,461.57C566.339,431.089 622.197,406.377 691.105,406.377C760.013,406.377 815.872,431.089 815.872,461.57C815.872,492.053 760.013,516.763 691.105,516.763C622.197,516.763 566.339,492.053 566.339,461.57Z" style="fill:rgb(247,228,85);fill-rule:nonzero;"/>
                <path d="M720.926,473.661C726.304,472.983 730.5,472.18 733.618,471.27C736.739,470.359 738.836,469.372 740.019,468.308C741.202,467.243 741.795,466.209 741.795,465.207C741.795,463.139 740.019,461.442 736.469,460.13C732.92,458.835 728.508,457.77 723.131,456.952C717.751,456.151 711.889,455.517 705.648,455.055C699.356,454.592 693.548,454.16 688.169,453.744C682.789,453.326 678.327,452.848 674.776,452.324C671.226,451.799 669.505,451.074 669.505,450.149C669.505,448.327 677.788,447.418 694.355,447.418C704.951,447.418 717.644,448.405 732.489,450.38L734.91,443.468C731.575,442.819 726.68,442.203 720.225,441.616C713.771,441.03 707.101,440.659 700.325,440.505L703.928,433.593L679.833,433.593L683.436,440.505C676.175,440.722 669.934,441.123 664.718,441.724C659.5,442.341 655.198,443.097 651.808,444.007C648.367,444.918 645.892,445.936 644.333,447.063C642.718,448.189 641.966,449.33 641.966,450.487C641.966,452.246 643.741,453.681 647.345,454.792C650.949,455.918 655.413,456.844 660.791,457.57C666.117,458.31 671.871,458.927 678.111,459.421C684.296,459.914 690.051,460.408 695.43,460.902C700.754,461.396 705.219,461.951 708.824,462.568C712.427,463.185 714.255,464.004 714.255,465.021C714.255,467.12 706.617,468.153 691.396,468.153C673.271,468.153 659.232,466.842 649.227,464.204L645.408,472.104C653.476,473.784 666.17,474.772 683.436,475.065L679.833,481.977L703.928,481.977L700.325,475.004C708.714,474.803 715.547,474.356 720.926,473.661Z" style="fill:rgb(242,184,0);fill-rule:nonzero;"/>
            </g>
            <g>
                <path d="M547.876,399.87C547.876,399.87 546.979,445.915 548.837,454.219C550.692,462.524 573.6,504.996 671.35,504.996C773.814,504.996 795.799,462.799 796.393,454.719C796.772,449.548 796.663,400.323 796.663,400.323L547.876,399.87Z" style="fill:rgb(242,184,0);fill-rule:nonzero;"/>
                <path id="Ellipse20" d="M546.73,399.578C546.73,369.096 602.589,344.386 671.497,344.386C740.405,344.386 796.263,369.096 796.263,399.578C796.263,430.062 740.405,454.772 671.497,454.772C602.589,454.772 546.73,430.062 546.73,399.578Z" style="fill:rgb(247,228,85);fill-rule:nonzero;"/>
                <path d="M701.317,411.669C706.694,410.991 710.891,410.188 714.01,409.278C717.129,408.368 719.228,407.38 720.41,406.316C721.594,405.252 722.186,404.217 722.186,403.215C722.186,401.147 720.41,399.45 716.86,398.139C713.311,396.843 708.899,395.778 703.522,394.96C698.142,394.158 692.28,393.525 686.041,393.063C679.747,392.6 673.939,392.167 668.561,391.751C663.182,391.335 658.717,390.856 655.167,390.332C651.617,389.807 649.896,389.082 649.896,388.156C649.896,386.335 658.18,385.425 674.745,385.425C685.341,385.425 698.034,386.413 712.88,388.388L715.3,381.476C711.966,380.827 707.071,380.211 700.617,379.624C694.162,379.038 687.493,378.667 680.716,378.514L684.319,371.601L660.223,371.601L663.826,378.514C656.565,378.729 650.326,379.131 645.109,379.732C639.891,380.349 635.589,381.106 632.201,382.016C628.758,382.926 626.284,383.945 624.723,385.071C623.11,386.197 622.357,387.339 622.357,388.496C622.357,390.254 624.133,391.689 627.736,392.8C631.339,393.927 635.804,394.853 641.182,395.577C646.507,396.318 652.262,396.935 658.502,397.428C664.686,397.923 670.443,398.417 675.823,398.91C681.146,399.404 685.61,399.959 689.215,400.576C692.818,401.193 694.645,402.011 694.645,403.03C694.645,405.128 687.008,406.162 671.788,406.162C653.661,406.162 639.623,404.85 629.619,402.212L625.8,410.11C633.868,411.793 646.56,412.78 663.826,413.074L660.223,419.985L684.319,419.985L680.716,413.012C689.105,412.811 695.937,412.364 701.317,411.669Z" style="fill:rgb(242,184,0);fill-rule:nonzero;"/>
            </g>
        </g>
        <g>
            <g>
                <path d="M533.792,266.241C533.792,266.241 532.895,312.286 534.751,320.591C536.607,328.896 559.514,371.368 657.264,371.368C759.726,371.368 781.713,329.171 782.307,321.091C782.686,315.919 782.578,266.694 782.578,266.694L533.792,266.241Z" style="fill:rgb(242,184,0);fill-rule:nonzero;"/>
                <path id="Ellipse21" d="M532.645,265.95C532.645,235.468 588.503,210.757 657.411,210.757C726.319,210.757 782.178,235.468 782.178,265.95C782.178,296.433 726.319,321.142 657.411,321.142C588.503,321.142 532.645,296.433 532.645,265.95Z" style="fill:rgb(247,228,85);fill-rule:nonzero;"/>
                <path d="M687.231,278.041C692.608,277.362 696.804,276.56 699.924,275.649C703.045,274.739 705.141,273.752 706.325,272.687C707.508,271.623 708.1,270.588 708.1,269.586C708.1,267.519 706.325,265.821 702.775,264.51C699.225,263.214 694.814,262.15 689.435,261.332C684.056,260.53 678.195,259.896 671.955,259.434C665.662,258.971 659.854,258.539 654.475,258.124C649.095,257.706 644.631,257.228 641.081,256.703C637.531,256.178 635.809,255.454 635.809,254.528C635.809,252.707 644.094,251.797 660.661,251.797C671.255,251.797 683.949,252.784 698.795,254.759L701.214,247.848C697.881,247.199 692.986,246.582 686.531,245.996C680.077,245.41 673.406,245.039 666.63,244.884L670.234,237.973L646.139,237.973L649.74,244.884C642.479,245.101 636.24,245.503 631.023,246.104C625.806,246.72 621.503,247.477 618.115,248.387C614.672,249.297 612.198,250.316 610.638,251.442C609.024,252.569 608.271,253.709 608.271,254.867C608.271,256.626 610.046,258.061 613.65,259.172C617.255,260.298 621.718,261.224 627.097,261.949C632.421,262.689 638.177,263.307 644.416,263.8C650.602,264.294 656.357,264.788 661.736,265.282C667.06,265.775 671.525,266.331 675.129,266.948C678.732,267.565 680.561,268.383 680.561,269.401C680.561,271.499 672.923,272.533 657.702,272.533C639.575,272.533 625.537,271.222 615.533,268.583L611.713,276.482C619.783,278.164 632.476,279.152 649.74,279.445L646.139,286.357L670.234,286.357L666.63,279.383C675.02,279.182 681.853,278.735 687.231,278.041Z" style="fill:rgb(242,184,0);fill-rule:nonzero;"/>
            </g>
            <g>
                <path d="M514.182,204.25C514.182,204.25 513.285,250.294 515.141,258.599C516.998,266.903 539.906,309.376 637.656,309.376C740.118,309.376 762.105,267.18 762.698,259.098C763.077,253.928 762.969,204.703 762.969,204.703L514.182,204.25Z" style="fill:rgb(242,184,0);fill-rule:nonzero;"/>
                <path id="Ellipse22" d="M513.036,203.958C513.036,173.476 568.894,148.765 637.803,148.765C706.71,148.765 762.569,173.476 762.569,203.958C762.569,234.44 706.71,259.151 637.803,259.151C568.894,259.151 513.036,234.44 513.036,203.958Z" style="fill:rgb(247,228,85);fill-rule:nonzero;"/>
                <path d="M667.622,216.049C673,215.37 677.196,214.568 680.316,213.658C683.435,212.748 685.532,211.76 686.716,210.695C687.899,209.631 688.492,208.597 688.492,207.595C688.492,205.526 686.716,203.829 683.165,202.518C679.616,201.222 675.205,200.157 669.827,199.34C664.448,198.538 658.586,197.905 652.347,197.442C646.054,196.98 640.245,196.547 634.865,196.131C629.487,195.714 625.023,195.236 621.473,194.711C617.923,194.187 616.201,193.462 616.201,192.536C616.201,190.715 624.485,189.805 641.051,189.805C651.647,189.805 664.34,190.792 679.186,192.767L681.607,185.856C678.271,185.207 673.377,184.59 666.922,184.004C660.469,183.417 653.797,183.047 647.022,182.893L650.625,175.981L626.529,175.981L630.132,182.893C622.871,183.109 616.632,183.51 611.415,184.112C606.197,184.729 601.894,185.485 598.505,186.395C595.064,187.306 592.589,188.324 591.03,189.45C589.415,190.577 588.663,191.718 588.663,192.876C588.663,194.634 590.437,196.069 594.042,197.18C597.645,198.306 602.11,199.232 607.488,199.957C612.813,200.697 618.567,201.315 624.808,201.808C630.992,202.302 636.749,202.795 642.127,203.29C647.451,203.784 651.917,204.338 655.519,204.956C659.124,205.573 660.952,206.391 660.952,207.409C660.952,209.508 653.314,210.541 638.093,210.541C619.967,210.541 605.928,209.23 595.924,206.592L592.105,214.49C600.173,216.173 612.866,217.16 630.132,217.453L626.529,224.365L650.625,224.365L647.022,217.391C655.412,217.191 662.243,216.743 667.622,216.049Z" style="fill:rgb(242,184,0);fill-rule:nonzero;"/>
            </g>
        </g>
        <g>
            <g>
                <path d="M641.614,380.916C641.614,380.916 640.717,426.96 642.573,435.265C644.429,443.569 667.337,486.042 765.088,486.042C867.55,486.042 889.536,443.845 890.129,435.764C890.508,430.594 890.4,381.368 890.4,381.368L641.614,380.916Z" style="fill:rgb(242,184,0);fill-rule:nonzero;"/>
                <path id="Ellipse23" d="M640.467,380.623C640.467,350.142 696.325,325.431 765.233,325.431C834.141,325.431 890,350.142 890,380.623C890,411.107 834.141,435.817 765.233,435.817C696.325,435.817 640.467,411.107 640.467,380.623Z" style="fill:rgb(247,228,85);fill-rule:nonzero;"/>
                <path d="M795.053,392.715C800.432,392.037 804.627,391.234 807.747,390.323C810.867,389.413 812.963,388.426 814.147,387.361C815.33,386.297 815.923,385.263 815.923,384.26C815.923,382.193 814.147,380.496 810.597,379.184C807.047,377.888 802.636,376.824 797.259,376.006C791.88,375.204 786.017,374.571 779.778,374.108C773.485,373.646 767.676,373.214 762.297,372.797C756.919,372.38 752.455,371.902 748.904,371.378C745.354,370.853 743.633,370.127 743.633,369.202C743.633,367.381 751.917,366.471 768.483,366.471C779.078,366.471 791.771,367.458 806.616,369.433L809.038,362.521C805.703,361.874 800.808,361.256 794.355,360.67C787.899,360.084 781.228,359.713 774.452,359.559L778.055,352.648L753.961,352.648L757.562,359.559C750.302,359.775 744.063,360.176 738.845,360.778C733.628,361.394 729.326,362.151 725.937,363.061C722.494,363.972 720.019,364.99 718.46,366.116C716.846,367.243 716.094,368.384 716.094,369.541C716.094,371.3 717.868,372.734 721.472,373.846C725.077,374.972 729.541,375.898 734.919,376.623C740.245,377.364 746,377.981 752.239,378.474C758.424,378.968 764.179,379.462 769.558,379.955C774.882,380.449 779.347,381.005 782.951,381.622C786.556,382.239 788.383,383.057 788.383,384.075C788.383,386.174 780.745,387.207 765.524,387.207C747.399,387.207 733.36,385.895 723.355,383.257L719.535,391.157C727.605,392.838 740.298,393.826 757.562,394.119L753.961,401.031L778.055,401.031L774.452,394.057C782.842,393.857 789.675,393.41 795.053,392.715Z" style="fill:rgb(242,184,0);fill-rule:nonzero;"/>
            </g>
            <g>
                <path d="M622.005,318.924C622.005,318.924 621.107,364.968 622.964,373.273C624.82,381.578 647.729,424.05 745.48,424.05C847.941,424.05 869.927,381.853 870.52,373.773C870.899,368.602 870.791,319.377 870.791,319.377L622.005,318.924Z" style="fill:rgb(242,184,0);fill-rule:nonzero;"/>
                <path id="Ellipse24" d="M620.858,318.632C620.858,288.15 676.717,263.439 745.625,263.439C814.533,263.439 870.393,288.15 870.393,318.632C870.393,349.115 814.533,373.825 745.625,373.825C676.717,373.825 620.858,349.115 620.858,318.632Z" style="fill:rgb(247,228,85);fill-rule:nonzero;"/>
                <path d="M775.445,330.723C780.824,330.045 785.019,329.242 788.138,328.331C791.257,327.421 793.354,326.434 794.538,325.37C795.721,324.305 796.314,323.271 796.314,322.268C796.314,320.201 794.538,318.504 790.987,317.192C787.439,315.897 783.028,314.832 777.65,314.014C772.27,313.212 766.409,312.579 760.169,312.117C753.875,311.653 748.067,311.221 742.688,310.805C737.31,310.389 732.845,309.91 729.295,309.386C725.745,308.861 724.023,308.136 724.023,307.21C724.023,305.389 732.307,304.479 748.873,304.479C759.47,304.479 772.162,305.467 787.008,307.441L789.43,300.53C786.094,299.881 781.198,299.264 774.744,298.678C768.29,298.092 761.62,297.721 754.844,297.567L758.447,290.655L734.351,290.655L737.956,297.567C730.693,297.783 724.454,298.185 719.237,298.786C714.019,299.403 709.717,300.16 706.329,301.07C702.886,301.979 700.411,302.998 698.852,304.125C697.238,305.251 696.485,306.392 696.485,307.55C696.485,309.308 698.259,310.743 701.864,311.854C705.467,312.981 709.932,313.906 715.311,314.631C720.635,315.372 726.39,315.989 732.63,316.482C738.815,316.977 744.57,317.47 749.951,317.964C755.273,318.457 759.739,319.013 763.341,319.63C766.946,320.247 768.774,321.065 768.774,322.084C768.774,324.181 761.136,325.216 745.916,325.216C727.79,325.216 713.751,323.904 703.746,321.265L699.927,329.164C707.996,330.846 720.688,331.834 737.956,332.127L734.351,339.039L758.447,339.039L754.844,332.065C763.235,331.865 770.066,331.417 775.445,330.723Z" style="fill:rgb(242,184,0);fill-rule:nonzero;"/>
            </g>
        </g>
        <g>
            <g>
                <path d="M425.968,495.589C425.968,495.589 425.072,541.634 426.927,549.939C428.784,558.244 451.691,600.716 549.442,600.716C651.904,600.716 673.891,558.519 674.485,550.438C674.862,545.268 674.756,496.042 674.756,496.042L425.968,495.589Z" style="fill:rgb(242,184,0);fill-rule:nonzero;"/>
                <path id="Ellipse25" d="M424.822,495.298C424.822,464.816 480.681,440.105 549.589,440.105C618.497,440.105 674.356,464.816 674.356,495.298C674.356,525.781 618.497,550.491 549.589,550.491C480.681,550.491 424.822,525.781 424.822,495.298Z" style="fill:rgb(247,228,85);fill-rule:nonzero;"/>
                <path d="M579.409,507.389C584.787,506.711 588.982,505.908 592.102,504.997C595.221,504.087 597.319,503.1 598.503,502.035C599.686,500.97 600.279,499.937 600.279,498.935C600.279,496.867 598.503,495.17 594.953,493.858C591.402,492.562 586.992,491.498 581.613,490.68C576.234,489.878 570.373,489.244 564.132,488.782C557.84,488.319 552.031,487.888 546.651,487.471C541.273,487.054 536.809,486.576 533.258,486.051C529.71,485.526 527.987,484.802 527.987,483.876C527.987,482.055 536.271,481.145 552.837,481.145C563.433,481.145 576.126,482.133 590.972,484.107L593.392,477.196C590.057,476.547 585.163,475.93 578.709,475.344C572.255,474.758 565.583,474.388 558.806,474.233L562.411,467.321L538.315,467.321L541.919,474.233C534.657,474.449 528.418,474.851 523.201,475.452C517.984,476.068 513.68,476.825 510.292,477.735C506.849,478.645 504.376,479.664 502.815,480.79C501.202,481.916 500.45,483.058 500.45,484.216C500.45,485.974 502.224,487.409 505.828,488.52C509.432,489.646 513.896,490.572 519.275,491.297C524.599,492.038 530.354,492.655 536.595,493.149C542.778,493.642 548.535,494.135 553.914,494.629C559.238,495.123 563.702,495.679 567.306,496.296C570.91,496.913 572.738,497.731 572.738,498.749C572.738,500.848 565.101,501.881 549.88,501.881C531.753,501.881 517.714,500.569 507.709,497.931L503.891,505.831C511.96,507.512 524.653,508.5 541.919,508.793L538.315,515.704L562.411,515.704L558.806,508.731C567.198,508.531 574.03,508.084 579.409,507.389Z" style="fill:rgb(242,184,0);fill-rule:nonzero;"/>
            </g>
            <g>
                <path d="M406.36,433.598C406.36,433.598 405.463,479.643 407.319,487.947C409.174,496.251 432.083,538.724 529.834,538.724C632.296,538.724 654.281,496.527 654.877,488.447C655.254,483.276 655.146,434.051 655.146,434.051L406.36,433.598Z" style="fill:rgb(242,184,0);fill-rule:nonzero;"/>
                <path id="Ellipse26" d="M405.212,433.306C405.212,402.825 461.071,378.114 529.979,378.114C598.887,378.114 654.747,402.825 654.747,433.306C654.747,463.789 598.887,488.5 529.979,488.5C461.071,488.5 405.212,463.789 405.212,433.306Z" style="fill:rgb(247,228,85);fill-rule:nonzero;"/>
                <path d="M559.799,445.397C565.178,444.718 569.373,443.916 572.494,443.006C575.613,442.095 577.709,441.108 578.894,440.043C580.076,438.979 580.668,437.945 580.668,436.943C580.668,434.874 578.894,433.178 575.343,431.867C571.793,430.57 567.382,429.506 562.004,428.688C556.626,427.886 550.764,427.253 544.524,426.791C538.231,426.328 532.423,425.895 527.043,425.479C521.665,425.063 517.201,424.584 513.651,424.059C510.1,423.535 508.379,422.81 508.379,421.884C508.379,420.063 516.663,419.153 533.228,419.153C543.824,419.153 556.517,420.141 571.364,422.115L573.784,415.203C570.449,414.555 565.554,413.938 559.101,413.352C552.646,412.765 545.975,412.395 539.2,412.241L542.802,405.329L518.707,405.329L522.31,412.241C515.049,412.457 508.808,412.859 503.592,413.46C498.376,414.077 494.072,414.833 490.683,415.743C487.24,416.654 484.766,417.673 483.206,418.798C481.592,419.925 480.841,421.066 480.841,422.223C480.841,423.982 482.615,425.417 486.219,426.528C489.823,427.655 494.288,428.581 499.666,429.306C504.99,430.046 510.745,430.663 516.984,431.156C523.17,431.651 528.927,432.143 534.305,432.638C539.629,433.132 544.094,433.687 547.697,434.304C551.302,434.921 553.129,435.739 553.129,436.757C553.129,438.855 545.491,439.889 530.27,439.889C512.144,439.889 498.106,438.578 488.102,435.94L484.282,443.838C492.351,445.52 505.044,446.508 522.31,446.801L518.707,453.713L542.802,453.713L539.2,446.739C547.59,446.539 554.42,446.091 559.799,445.397Z" style="fill:rgb(242,184,0);fill-rule:nonzero;"/>
            </g>
        </g>
        <g>
            <g>
                <path d="M412.491,340.442C412.491,340.442 411.595,386.487 413.45,394.792C415.306,403.096 438.215,445.569 535.965,445.569C638.427,445.569 660.413,403.372 661.008,395.291C661.385,390.121 661.277,340.895 661.277,340.895L412.491,340.442Z" style="fill:rgb(242,184,0);fill-rule:nonzero;"/>
                <path id="Ellipse27" d="M411.344,340.15C411.344,309.669 467.202,284.958 536.11,284.958C605.018,284.958 660.878,309.669 660.878,340.15C660.878,370.634 605.018,395.343 536.11,395.343C467.202,395.343 411.344,370.634 411.344,340.15Z" style="fill:rgb(247,228,85);fill-rule:nonzero;"/>
                <path d="M565.93,352.242C571.309,351.564 575.504,350.761 578.624,349.85C581.743,348.94 583.841,347.952 585.025,346.888C586.207,345.823 586.8,344.789 586.8,343.787C586.8,341.72 585.025,340.022 581.474,338.711C577.924,337.414 573.514,336.35 568.136,335.533C562.756,334.731 556.894,334.097 550.655,333.635C544.362,333.172 538.554,332.74 533.174,332.324C527.795,331.907 523.332,331.428 519.782,330.904C516.231,330.38 514.51,329.654 514.51,328.729C514.51,326.908 522.794,325.998 539.36,325.998C549.956,325.998 562.649,326.985 577.495,328.96L579.915,322.048C576.58,321.4 571.685,320.783 565.231,320.197C558.776,319.611 552.106,319.24 545.331,319.085L548.933,312.174L524.838,312.174L528.441,319.085C521.18,319.302 514.94,319.703 509.723,320.305C504.505,320.921 500.203,321.678 496.815,322.588C493.371,323.498 490.898,324.517 489.337,325.643C487.723,326.77 486.972,327.91 486.972,329.068C486.972,330.826 488.746,332.261 492.349,333.373C495.954,334.499 500.418,335.425 505.796,336.15C511.122,336.89 516.876,337.507 523.116,338.002C529.301,338.495 535.057,338.988 540.435,339.482C545.759,339.976 550.225,340.532 553.828,341.149C557.433,341.766 559.26,342.584 559.26,343.602C559.26,345.7 551.622,346.734 536.401,346.734C518.276,346.734 504.237,345.422 494.232,342.784L490.414,350.684C498.482,352.365 511.175,353.353 528.441,353.646L524.838,360.557L548.933,360.557L545.331,353.584C553.72,353.384 560.552,352.937 565.93,352.242Z" style="fill:rgb(242,184,0);fill-rule:nonzero;"/>
            </g>
            <g>
                <path d="M392.882,278.45C392.882,278.45 391.986,324.496 393.842,332.8C395.697,341.104 418.606,383.577 516.357,383.577C618.818,383.577 640.804,341.38 641.398,333.299C641.776,328.129 641.669,278.904 641.669,278.904L392.882,278.45Z" style="fill:rgb(242,184,0);fill-rule:nonzero;"/>
                <path id="Ellipse28" d="M391.735,278.158C391.735,247.677 447.594,222.966 516.503,222.966C585.41,222.966 641.269,247.677 641.269,278.158C641.269,308.642 585.41,333.352 516.503,333.352C447.594,333.352 391.735,308.642 391.735,278.158Z" style="fill:rgb(247,228,85);fill-rule:nonzero;"/>
                <path d="M546.322,290.25C551.701,289.571 555.896,288.769 559.015,287.858C562.134,286.948 564.232,285.961 565.416,284.896C566.598,283.832 567.191,282.798 567.191,281.795C567.191,279.727 565.416,278.031 561.866,276.719C558.316,275.424 553.906,274.358 548.527,273.541C543.148,272.739 537.286,272.106 531.046,271.644C524.752,271.18 518.944,270.748 513.565,270.332C508.187,269.915 503.723,269.436 500.172,268.912C496.624,268.387 494.9,267.663 494.9,266.737C494.9,264.916 503.184,264.005 519.75,264.005C530.347,264.005 543.04,264.993 557.887,266.968L560.307,260.057C556.971,259.408 552.075,258.791 545.622,258.205C539.168,257.619 532.498,257.248 525.721,257.094L529.324,250.182L505.229,250.182L508.833,257.094C501.57,257.31 495.331,257.711 490.114,258.312C484.898,258.93 480.594,259.686 477.206,260.596C473.763,261.507 471.288,262.525 469.729,263.652C468.115,264.778 467.362,265.919 467.362,267.076C467.362,268.835 469.138,270.27 472.741,271.381C476.345,272.507 480.809,273.433 486.188,274.158C491.512,274.898 497.268,275.516 503.507,276.009C509.693,276.503 515.449,276.997 520.828,277.49C526.15,277.984 530.615,278.539 534.22,279.156C537.823,279.774 539.652,280.591 539.652,281.61C539.652,283.708 532.013,284.742 516.792,284.742C498.667,284.742 484.628,283.431 474.623,280.792L470.805,288.691C478.873,290.373 491.566,291.361 508.833,291.654L505.229,298.566L529.324,298.566L525.721,291.592C534.112,291.391 540.944,290.944 546.322,290.25Z" style="fill:rgb(242,184,0);fill-rule:nonzero;"/>
            </g>
        </g>
    </g>
</svg>
