<?xml version="1.0" standalone="no"?><!-- Generator: Adobe Fireworks CS6, Export SVG Extension by Aaron Beall (http://fireworks.abeall.com) . Version: 0.6.1  --><!DOCTYPE svg PUBLIC "-//W3C//DTD SVG 1.1//EN" "http://www.w3.org/Graphics/SVG/1.1/DTD/svg11.dtd"><svg id="Untitled-Page%201" viewBox="0 0 464 495" style="background-color:#ffffff00" version="1.1"	xmlns="http://www.w3.org/2000/svg" xmlns:xlink="http://www.w3.org/1999/xlink" xml:space="preserve"	x="0px" y="0px" width="464px" height="495px">	<g id="Coins">		<g>			<path d="M 36.1549 313.7681 C 36.1549 313.7681 34.6156 392.909 37.8039 407.1813 C 40.9941 421.4554 80.356 494.4568 248.3257 494.4568 C 424.3896 494.4568 462.1718 421.9299 463.191 408.0414 C 463.8417 399.1543 463.6554 314.5463 463.6554 314.5463 L 36.1549 313.7681 Z" fill="#f2b800"/>			<path id="Ellipse" d="M 34.1843 313.2666 C 34.1843 260.8762 130.1707 218.4035 248.5781 218.4035 C 366.9855 218.4035 462.9697 260.8762 462.9697 313.2666 C 462.9697 365.66 366.9855 408.1306 248.5781 408.1306 C 130.1707 408.1306 34.1843 365.66 34.1843 313.2666 Z" fill="#f7e455"/>			<g>				<path d="M 299.8185 334.0491 C 309.0599 332.8825 316.2686 331.5032 321.629 329.9383 C 326.989 328.3733 330.5933 326.677 332.6281 324.8466 C 334.6601 323.0172 335.6782 321.2402 335.6782 319.5168 C 335.6782 315.9638 332.6281 313.046 326.5266 310.7925 C 320.4272 308.5648 312.8489 306.7355 303.6063 305.33 C 294.3637 303.9511 284.2903 302.8627 273.569 302.0681 C 262.7542 301.2725 252.7734 300.5302 243.5318 299.8146 C 234.2894 299.0981 226.6174 298.2753 220.5169 297.3748 C 214.4183 296.472 211.4598 295.2263 211.4598 293.6353 C 211.4598 290.5057 225.6927 288.9418 254.1584 288.9418 C 272.3673 288.9418 294.1776 290.639 319.6877 294.0323 L 323.8482 282.154 C 318.1162 281.0383 309.7059 279.9778 298.615 278.9699 C 287.5242 277.9633 276.0624 277.3264 264.4192 277.061 L 270.6105 265.1813 L 229.2061 265.1813 L 235.3965 277.061 C 222.9194 277.4326 212.1984 278.1227 203.2338 279.156 C 194.2694 280.2161 186.8763 281.5163 181.0521 283.0812 C 175.1367 284.6454 170.8854 286.3954 168.2052 288.3318 C 165.4316 290.2674 164.1393 292.2289 164.1393 294.2185 C 164.1393 297.2416 167.1887 299.7074 173.3817 301.6171 C 179.574 303.553 187.2441 305.1442 196.4874 306.3917 C 205.6372 307.6633 215.5254 308.7241 226.2477 309.5731 C 236.8762 310.4213 246.7656 311.2692 256.0099 312.1184 C 265.1578 312.9664 272.8289 313.9213 279.0228 314.9824 C 285.2131 316.0421 288.3569 317.4487 288.3569 319.1987 C 288.3569 322.8053 275.2311 324.5825 249.0754 324.5825 C 217.9289 324.5825 193.8079 322.3276 176.6155 317.7935 L 170.0527 331.3706 C 183.9168 334.2602 205.728 335.9579 235.3965 336.4619 L 229.2061 348.3418 L 270.6105 348.3418 L 264.4192 336.356 C 278.8356 336.0111 290.5732 335.2429 299.8185 334.0491 L 299.8185 334.0491 Z" fill="#f2b800"/>			</g>		</g>		<g>			<path d="M 2.461 207.2186 C 2.461 207.2186 0.9193 286.3587 4.1093 300.6321 C 7.2975 314.9064 46.6614 387.9063 214.631 387.9063 C 390.6951 387.9063 428.4755 315.3795 429.4966 301.4912 C 430.1473 292.6038 429.9608 207.9972 429.9608 207.9972 L 2.461 207.2186 Z" fill="#f2b800"/>			<path id="Ellipse2" d="M 0.4908 206.717 C 0.4908 154.3263 96.4751 111.8545 214.8835 111.8545 C 333.2901 111.8545 429.2734 154.3263 429.2734 206.717 C 429.2734 259.1111 333.2901 301.5814 214.8835 301.5814 C 96.4751 301.5814 0.4908 259.1111 0.4908 206.717 Z" fill="#f7e455"/>			<g>				<path d="M 266.1238 227.4993 C 275.3655 226.3328 282.5731 224.9531 287.9331 223.3887 C 293.2934 221.8243 296.8987 220.1271 298.9317 218.2975 C 300.9655 216.4681 301.9849 214.6909 301.9849 212.967 C 301.9849 209.4132 298.9317 206.4969 292.8304 204.2431 C 286.7326 202.0154 279.1543 200.185 269.9128 198.7795 C 260.6694 197.4011 250.5958 196.3134 239.8737 195.519 C 229.0596 194.7228 219.0788 193.9801 209.8372 193.2641 C 200.5929 192.5483 192.9229 191.7261 186.8232 190.8246 C 180.7237 189.9229 177.7644 188.6772 177.7644 187.0854 C 177.7644 183.9564 191.9983 182.3906 220.4648 182.3906 C 238.6726 182.3906 260.4839 184.0888 285.9943 187.4833 L 290.1517 175.6034 C 284.4225 174.4893 276.0115 173.4289 264.9205 172.4214 C 253.8295 171.413 242.3677 170.7761 230.7246 170.5117 L 236.916 158.632 L 195.5098 158.632 L 201.7021 170.5117 C 189.225 170.8832 178.5037 171.5728 169.5394 172.606 C 160.5748 173.6665 153.1817 174.9672 147.3574 176.5315 C 141.4431 178.0959 137.1901 179.8464 134.5116 181.7822 C 131.7366 183.7183 130.444 185.6797 130.444 187.6694 C 130.444 190.6911 133.4933 193.1575 139.6871 195.0673 C 145.8794 197.0037 153.5495 198.5953 162.7938 199.8412 C 171.9419 201.1136 181.8307 202.1745 192.552 203.0219 C 203.1799 203.8715 213.072 204.7196 222.3152 205.569 C 231.4631 206.4171 239.1342 207.3716 245.3265 208.4318 C 251.5186 209.4937 254.6624 210.8989 254.6624 212.6496 C 254.6624 216.2552 241.5367 218.0322 215.3807 218.0322 C 184.2345 218.0322 160.1133 215.7773 142.9209 211.2441 L 136.3581 224.8201 C 150.2232 227.7106 172.0344 229.4075 201.7021 229.9128 L 195.5098 241.7924 L 236.916 241.7924 L 230.7246 229.806 C 245.141 229.4617 256.8796 228.6929 266.1238 227.4993 L 266.1238 227.4993 Z" fill="#f2b800"/>			</g>		</g>		<g>			<path d="M 36.1549 95.4725 C 36.1549 95.4725 34.6156 174.6119 37.8039 188.8848 C 40.9941 203.1594 80.356 276.1598 248.3257 276.1598 C 424.3896 276.1598 462.1718 203.6326 463.191 189.744 C 463.8417 180.856 463.6554 96.2499 463.6554 96.2499 L 36.1549 95.4725 Z" fill="#f2b800"/>			<path id="Ellipse3" d="M 34.1843 94.9693 C 34.1843 42.5784 130.1707 0.1069 248.5781 0.1069 C 366.9855 0.1069 462.9697 42.5784 462.9697 94.9693 C 462.9697 147.3631 366.9855 189.8337 248.5781 189.8337 C 130.1707 189.8337 34.1843 147.3631 34.1843 94.9693 Z" fill="#f7e455"/>			<g>				<path d="M 299.8185 115.7517 C 309.0599 114.5848 316.2686 113.2067 321.629 111.6421 C 326.989 110.0768 330.5933 108.3798 332.6281 106.5498 C 334.6601 104.7212 335.6782 102.9431 335.6782 101.2207 C 335.6782 97.6667 332.6281 94.7495 326.5266 92.4955 C 320.4272 90.2679 312.8489 88.4386 303.6063 87.0319 C 294.3637 85.6546 284.2903 84.5662 273.569 83.7703 C 262.7542 82.9755 252.7734 82.2324 243.5318 81.5168 C 234.2894 80.801 226.6174 79.9789 220.5169 79.0772 C 214.4183 78.1754 211.4598 76.9292 211.4598 75.3386 C 211.4598 72.2101 225.6927 70.6443 254.1584 70.6443 C 272.3673 70.6443 294.1776 72.3414 319.6877 75.7368 L 323.8482 63.8549 C 318.1162 62.7427 309.7059 61.6819 298.615 60.6743 C 287.5242 59.6661 276.0624 59.03 264.4192 58.7645 L 270.6105 46.8848 L 229.2061 46.8848 L 235.3965 58.7645 C 222.9194 59.1359 212.1984 59.8253 203.2338 60.8592 C 194.2694 61.9199 186.8763 63.2194 181.0521 64.7841 C 175.1367 66.3492 170.8854 68.0979 168.2052 70.035 C 165.4316 71.9701 164.1393 73.9329 164.1393 75.9213 C 164.1393 78.9442 167.1887 81.4113 173.3817 83.32 C 179.574 85.2568 187.2441 86.8478 196.4874 88.0936 C 205.6372 89.3668 215.5254 90.4262 226.2477 91.2751 C 236.8762 92.124 246.7656 92.9721 256.0099 93.8212 C 265.1578 94.6693 272.8289 95.6246 279.0228 96.6852 C 285.2131 97.7456 288.3569 99.1523 288.3569 100.902 C 288.3569 104.5082 275.2311 106.2856 249.0754 106.2856 C 217.9289 106.2856 193.8079 104.03 176.6155 99.4962 L 170.0527 113.0734 C 183.9168 115.9633 205.728 117.6602 235.3965 118.1653 L 229.2061 130.0453 L 270.6105 130.0453 L 264.4192 118.0589 C 278.8356 117.7139 290.5732 116.946 299.8185 115.7517 L 299.8185 115.7517 Z" fill="#f2b800"/>			</g>		</g>	</g></svg>