<?xml version="1.0" standalone="no"?><!-- Generator: Adobe Fireworks CS6, Export SVG Extension by Aaron Beall (http://fireworks.abeall.com) . Version: 0.6.1  --><!DOCTYPE svg PUBLIC "-//W3C//DTD SVG 1.1//EN" "http://www.w3.org/Graphics/SVG/1.1/DTD/svg11.dtd"><svg id="Untitled-Page%201" viewBox="0 0 430 277" style="background-color:#ffffff00" version="1.1"	xmlns="http://www.w3.org/2000/svg" xmlns:xlink="http://www.w3.org/1999/xlink" xml:space="preserve"	x="0px" y="0px" width="430px" height="277px">	<g id="Coins">		<path d="M 2.0529 95.8264 C 2.0529 95.8264 0.5145 174.9663 3.7018 189.2394 C 6.8918 203.5132 46.2561 276.514 214.2236 276.514 C 390.2908 276.514 428.07 203.9873 429.0889 190.0986 C 429.7405 181.2118 429.5533 96.6042 429.5533 96.6042 L 2.0529 95.8264 Z" fill="#f2b800"/>		<path id="Ellipse" d="M 0.0844 95.3236 C 0.0844 42.934 96.0676 0.4616 214.476 0.4616 C 332.8834 0.4616 428.8669 42.934 428.8669 95.3236 C 428.8669 147.7179 332.8834 190.1885 214.476 190.1885 C 96.0676 190.1885 0.0844 147.7179 0.0844 95.3236 Z" fill="#f7e455"/>		<g>			<path d="M 265.7156 116.1071 C 274.959 114.9407 282.1678 113.5613 287.5269 111.9957 C 292.887 110.4309 296.4915 108.7348 298.5262 106.9046 C 300.5599 105.0752 301.5762 103.2977 301.5762 101.5741 C 301.5762 98.0214 298.5262 95.1038 292.4257 92.8503 C 286.3271 90.6224 278.7458 88.7932 269.5052 87.3873 C 260.2626 86.0087 250.188 84.9203 239.468 84.1257 C 228.6541 83.3303 218.6742 82.5876 209.4287 81.8722 C 200.1874 81.1556 192.5173 80.3335 186.415 79.432 C 180.3156 78.53 177.3558 77.2838 177.3558 75.6932 C 177.3558 72.5634 191.5935 70.9996 220.0566 70.9996 C 238.2681 70.9996 260.0767 72.6967 285.5876 76.0902 L 289.7432 64.2113 C 284.0134 63.0963 275.6077 62.0356 264.5129 61.0277 C 253.4219 60.0208 241.9595 59.384 230.3164 59.1179 L 236.5087 47.2388 L 195.105 47.2388 L 201.2944 59.1179 C 188.8185 59.4906 178.0989 60.1806 169.1346 61.2139 C 160.1663 62.2738 152.7742 63.5741 146.9509 65.1387 C 141.0347 66.7028 136.7806 68.4538 134.1031 70.3896 C 131.3279 72.3248 130.0375 74.2865 130.0375 76.2764 C 130.0375 79.299 133.0868 81.765 139.2789 83.6749 C 145.4739 85.6102 153.143 87.2024 162.3837 88.4492 C 171.5344 89.7211 181.4237 90.7817 192.1468 91.6306 C 202.7725 92.4787 212.6655 93.3267 221.9068 94.176 C 231.0557 95.0239 238.7258 95.9794 244.9208 97.0394 C 251.1104 98.1005 254.2542 99.5071 254.2542 101.2568 C 254.2542 104.8629 241.1276 106.6404 214.9733 106.6404 C 183.829 106.6404 159.7061 104.3859 142.5128 99.851 L 135.9524 113.4282 C 149.8186 116.3177 171.627 118.0154 201.2944 118.5199 L 195.105 130.399 L 236.5087 130.399 L 230.3164 118.4136 C 244.7355 118.0685 256.4751 117.3002 265.7156 116.1071 L 265.7156 116.1071 Z" fill="#f2b800"/>		</g>	</g></svg>