<?xml version="1.0" standalone="no"?><!-- Generator: Adobe Fireworks CS6, Export SVG Extension by Aaron Beall (http://fireworks.abeall.com) . Version: 0.6.1  --><!DOCTYPE svg PUBLIC "-//W3C//DTD SVG 1.1//EN" "http://www.w3.org/Graphics/SVG/1.1/DTD/svg11.dtd"><svg id="Untitled-Page%201" viewBox="0 0 268 247" style="background-color:#ffffff00" version="1.1"	xmlns="http://www.w3.org/2000/svg" xmlns:xlink="http://www.w3.org/1999/xlink" xml:space="preserve"	x="0px" y="0px" width="268px" height="247px">	<g>		<g>			<g>				<g>					<path d="M 5.7605 157.8072 C 5.7605 157.8072 5.1858 187.3449 6.3759 192.6725 C 7.5646 198.0001 22.244 225.2466 84.8815 225.2466 C 150.5383 225.2466 164.6268 198.1771 165.0073 192.9935 C 165.2504 189.6759 165.1809 158.0979 165.1809 158.0979 L 5.7605 157.8072 Z" fill="#f2b800"/>					<path id="Ellipse" d="M 5.0257 157.6201 C 5.0257 138.066 40.8195 122.2135 84.9756 122.2135 C 129.1307 122.2135 164.9242 138.066 164.9242 157.6201 C 164.9242 177.1752 129.1307 193.0267 84.9756 193.0267 C 40.8195 193.0267 5.0257 177.1752 5.0257 157.6201 Z" fill="#f7e455"/>					<g>						<path d="M 104.0831 165.3766 C 107.5301 164.9412 110.2179 164.4267 112.2167 163.8428 C 114.2161 163.2589 115.5607 162.6252 116.3188 161.9422 C 117.0768 161.2593 117.4565 160.596 117.4565 159.9529 C 117.4565 158.6263 116.3188 157.5381 114.0438 156.6967 C 111.769 155.8652 108.943 155.1824 105.496 154.6574 C 102.0494 154.1434 98.2937 153.7371 94.2949 153.4404 C 90.2626 153.1434 86.5404 152.8663 83.0929 152.5992 C 79.6465 152.3317 76.7862 152.0247 74.5112 151.6885 C 72.2365 151.3519 71.1334 150.8867 71.1334 150.2928 C 71.1334 149.1252 76.4415 148.5407 87.0568 148.5407 C 93.8468 148.5407 101.981 149.1747 111.4935 150.4417 L 113.0446 146.0077 C 110.9075 145.5916 107.7712 145.1959 103.6354 144.8197 C 99.4995 144.4435 95.2257 144.2057 90.8829 144.1068 L 93.1917 139.673 L 77.7513 139.673 L 80.0604 144.1068 C 75.4075 144.2457 71.4086 144.5029 68.0662 144.889 C 64.7227 145.2848 61.9657 145.7695 59.7948 146.3537 C 57.589 146.9376 56.0032 147.5909 55.0032 148.3133 C 53.9695 149.0359 53.4871 149.7683 53.4871 150.5107 C 53.4871 151.6387 54.6245 152.5594 56.9335 153.272 C 59.2426 153.9946 62.1034 154.5884 65.5504 155.0536 C 68.9626 155.5289 72.6501 155.9246 76.6483 156.2408 C 80.6116 156.5581 84.2999 156.8749 87.7463 157.1915 C 91.1581 157.5081 94.0193 157.8642 96.3287 158.2605 C 98.6378 158.6563 99.8098 159.1812 99.8098 159.8339 C 99.8098 161.18 94.9155 161.8435 85.1616 161.8435 C 73.5468 161.8435 64.5504 161.0021 58.1401 159.3093 L 55.693 164.377 C 60.8628 165.4556 68.9969 166.0891 80.0604 166.2775 L 77.7513 170.7114 L 93.1917 170.7114 L 90.8829 166.2379 C 96.2595 166.1091 100.6368 165.822 104.0831 165.3766 L 104.0831 165.3766 Z" fill="#f2b800"/>					</g>				</g>				<g>					<path d="M 8.2732 118.0393 C 8.2732 118.0393 7.6991 147.5771 8.8881 152.9042 C 10.0779 158.2321 24.7573 185.4783 87.3942 185.4783 C 153.0516 185.4783 167.14 158.4091 167.5204 153.225 C 167.7633 149.908 167.6941 118.3295 167.6941 118.3295 L 8.2732 118.0393 Z" fill="#f2b800"/>					<path id="Ellipse2" d="M 7.5391 117.8519 C 7.5391 98.298 43.3325 82.4453 87.4885 82.4453 C 131.6436 82.4453 167.4374 98.298 167.4374 117.8519 C 167.4374 137.4069 131.6436 153.2588 87.4885 153.2588 C 43.3325 153.2588 7.5391 137.4069 7.5391 117.8519 Z" fill="#f7e455"/>					<g>						<path d="M 106.5963 125.6087 C 110.0429 125.173 112.7312 124.6586 114.73 124.0744 C 116.7288 123.4907 118.074 122.8571 118.832 122.1743 C 119.5901 121.4913 119.9694 120.8283 119.9694 120.185 C 119.9694 118.8586 118.832 117.7697 116.5571 116.9288 C 114.2823 116.097 111.4559 115.4142 108.0093 114.8894 C 104.5627 114.3753 100.806 113.9695 96.8082 113.6722 C 92.7754 113.375 89.0532 113.0979 85.6062 112.8312 C 82.1598 112.5636 79.2996 112.2566 77.024 111.9205 C 74.7494 111.5839 73.6467 111.1186 73.6467 110.5247 C 73.6467 109.357 78.9545 108.7727 89.5701 108.7727 C 96.3595 108.7727 104.4943 109.4061 114.0068 110.6732 L 115.5576 106.2394 C 113.4205 105.8237 110.2846 105.4276 106.1486 105.0515 C 102.0129 104.6753 97.7385 104.4375 93.3956 104.3389 L 95.7048 99.905 L 80.2644 99.905 L 82.5737 104.3389 C 77.9203 104.4774 73.9222 104.7346 70.5793 105.1206 C 67.2358 105.5165 64.4789 106.0016 62.3076 106.5854 C 60.1017 107.1693 58.5161 107.823 57.5162 108.5452 C 56.4825 109.2682 56 110.0006 56 110.7425 C 56 111.8706 57.1373 112.7914 59.4464 113.5041 C 61.7556 114.2263 64.6168 114.8201 68.0637 115.2857 C 71.4756 115.7603 75.1635 116.1566 79.1611 116.4731 C 83.1249 116.7902 86.8131 117.1064 90.2596 117.4233 C 93.6711 117.7404 96.5326 118.0966 98.842 118.4922 C 101.1506 118.888 102.322 119.4128 102.322 120.0658 C 102.322 121.4118 97.4279 122.0753 87.6743 122.0753 C 76.0601 122.0753 67.0637 121.2338 60.6528 119.5413 L 58.2058 124.6087 C 63.3756 125.6877 71.51 126.3211 82.5737 126.5095 L 80.2644 130.9436 L 95.7048 130.9436 L 93.3956 126.4696 C 98.7723 126.3411 103.1498 126.054 106.5963 125.6087 L 106.5963 125.6087 Z" fill="#f2b800"/>					</g>				</g>				<g>					<path d="M 0.7345 76.3315 C 0.7345 76.3315 0.1606 105.869 1.3495 111.1963 C 2.5394 116.524 17.2178 143.7706 79.8556 143.7706 C 145.5126 143.7706 159.6014 116.701 159.9815 111.5169 C 160.2242 108.1999 160.155 76.6215 160.155 76.6215 L 0.7345 76.3315 Z" fill="#f2b800"/>					<path id="Ellipse3" d="M 0 76.1439 C 0 56.5898 35.7939 40.7375 79.949 40.7375 C 124.1041 40.7375 159.8989 56.5898 159.8989 76.1439 C 159.8989 95.6988 124.1041 111.5506 79.949 111.5506 C 35.7939 111.5506 0 95.6988 0 76.1439 Z" fill="#f7e455"/>					<g>						<path d="M 99.0573 83.9007 C 102.5043 83.4653 105.1924 82.9502 107.1909 82.3667 C 109.1903 81.7825 110.5343 81.1494 111.293 80.4661 C 112.0516 79.7832 112.4303 79.1197 112.4303 78.4765 C 112.4303 77.1507 111.293 76.0621 109.0181 75.2205 C 106.7437 74.3889 103.9169 73.706 100.4707 73.1817 C 97.0237 72.667 93.2667 72.261 89.2692 71.964 C 85.2362 71.6671 81.5142 71.3899 78.0677 71.1229 C 74.6207 70.8554 71.7598 70.5484 69.4852 70.2123 C 67.2109 69.8758 66.1075 69.4107 66.1075 68.8167 C 66.1075 67.6488 71.4155 67.065 82.0311 67.065 C 88.8209 67.065 96.9545 67.6983 106.4675 68.9652 L 108.0182 64.5312 C 105.8809 64.1154 102.745 63.7196 98.6089 63.3437 C 94.4731 62.9678 90.1998 62.7297 85.8569 62.6311 L 88.1661 58.1971 L 72.7252 58.1971 L 75.0342 62.6311 C 70.3809 62.7695 66.3833 63.0266 63.0403 63.4129 C 59.6971 63.8086 56.9396 64.2934 54.7686 64.8775 C 52.5627 65.4615 50.9771 66.1147 49.9772 66.8374 C 48.9435 67.56 48.4609 68.2922 48.4609 69.0342 C 48.4609 70.1628 49.5988 71.083 51.908 71.7959 C 54.2166 72.5189 57.0778 73.1123 60.5247 73.5775 C 63.9366 74.0524 67.6238 74.4486 71.6224 74.765 C 75.5858 75.0818 79.2737 75.3985 82.7205 75.7156 C 86.132 76.032 88.9931 76.3884 91.3022 76.7844 C 93.6115 77.1801 94.7836 77.7046 94.7836 78.3578 C 94.7836 79.7038 89.8894 80.3671 80.135 80.3671 C 68.5203 80.3671 59.5253 79.5261 53.1138 77.8335 L 50.6672 82.9009 C 55.8369 83.9795 63.9704 84.6133 75.0342 84.8011 L 72.7252 89.2353 L 88.1661 89.2353 L 85.8569 84.7614 C 91.2337 84.633 95.6102 84.3463 99.0573 83.9007 L 99.0573 83.9007 Z" fill="#f2b800"/>					</g>				</g>				<g>					<path d="M 8.2732 35.593 C 8.2732 35.593 7.6991 65.1309 8.8881 70.4581 C 10.0779 75.786 24.7573 103.0327 87.3942 103.0327 C 153.0516 103.0327 167.14 75.9627 167.5204 70.7791 C 167.7633 67.4621 167.6941 35.8836 167.6941 35.8836 L 8.2732 35.593 Z" fill="#f2b800"/>					<path id="Ellipse4" d="M 7.5391 35.4056 C 7.5391 15.8519 43.3325 0 87.4885 0 C 131.6436 0 167.4374 15.8519 167.4374 35.4056 C 167.4374 54.9612 131.6436 70.8124 87.4885 70.8124 C 43.3325 70.8124 7.5391 54.9612 7.5391 35.4056 Z" fill="#f7e455"/>				</g>			</g>			<g>				<g>					<path d="M 107.5703 179.5607 C 107.5703 179.5607 106.9962 209.0988 108.1854 214.4257 C 109.3752 219.7532 124.0543 247 186.6915 247 C 252.3489 247 266.4371 219.9306 266.8179 214.7466 C 267.0601 211.4296 266.991 179.8511 266.991 179.8511 L 107.5703 179.5607 Z" fill="#f2b800"/>					<path id="Ellipse5" d="M 106.8361 179.3732 C 106.8361 159.8195 142.6298 143.9672 186.7858 143.9672 C 230.941 143.9672 266.7347 159.8195 266.7347 179.3732 C 266.7347 198.9283 230.941 214.7802 186.7858 214.7802 C 142.6298 214.7802 106.8361 198.9283 106.8361 179.3732 Z" fill="#f7e455"/>					<g>						<path d="M 205.8937 187.1304 C 209.34 186.6949 212.0284 186.1801 214.0271 185.5959 C 216.0258 185.0119 217.3705 184.3788 218.1294 183.6955 C 218.8875 183.0128 219.2664 182.3494 219.2664 181.7062 C 219.2664 180.38 218.1294 179.2912 215.854 178.4501 C 213.5795 177.6187 210.7527 176.9359 207.3063 176.4111 C 203.86 175.8967 200.1032 175.4905 196.105 175.1938 C 192.0718 174.8969 188.3505 174.6196 184.9037 174.3528 C 181.4572 174.0853 178.5964 173.7783 176.3216 173.442 C 174.0469 173.1052 172.944 172.6401 172.944 172.0465 C 172.944 170.8782 178.2513 170.2944 188.8674 170.2944 C 195.6567 170.2944 203.7906 170.9281 213.3039 172.1945 L 214.855 167.7609 C 212.7177 167.3447 209.5815 166.9489 205.4448 166.5729 C 201.3094 166.1969 197.0352 165.9594 192.6927 165.8602 L 195.0021 161.4262 L 179.5615 161.4262 L 181.8705 165.8602 C 177.2177 165.9991 173.2197 166.2565 169.8766 166.6424 C 166.533 167.0378 163.776 167.5231 161.6041 168.1069 C 159.3987 168.691 157.8134 169.3443 156.8135 170.0668 C 155.7798 170.7894 155.2973 171.5214 155.2973 172.2639 C 155.2973 173.3922 156.4346 174.3127 158.7438 175.0254 C 161.0529 175.748 163.9141 176.342 167.3608 176.8074 C 170.7723 177.2822 174.4607 177.6781 178.4583 177.9949 C 182.4222 178.3115 186.1102 178.6279 189.5568 178.9448 C 192.9683 179.2614 195.8293 179.6179 198.1392 180.0137 C 200.4483 180.4095 201.6195 180.9344 201.6195 181.5878 C 201.6195 182.9336 196.7253 183.597 186.9716 183.597 C 175.3565 183.597 166.3609 182.7555 159.9497 181.0629 L 157.5031 186.1304 C 162.6727 187.209 170.8068 187.8428 181.8705 188.0307 L 179.5615 192.4648 L 195.0021 192.4648 L 192.6927 187.9912 C 198.0693 187.8624 202.4471 187.5756 205.8937 187.1304 L 205.8937 187.1304 Z" fill="#f2b800"/>					</g>				</g>				<g>					<path d="M 95.0061 139.7928 C 95.0061 139.7928 94.4314 169.3306 95.6201 174.6577 C 96.8096 179.9855 111.4894 207.2319 174.1263 207.2319 C 239.7841 207.2319 253.8723 180.1621 254.2524 174.9785 C 254.495 171.6614 254.4258 140.0831 254.4258 140.0831 L 95.0061 139.7928 Z" fill="#f2b800"/>					<path id="Ellipse6" d="M 94.2711 139.6053 C 94.2711 120.0511 130.0649 104.1992 174.2204 104.1992 C 218.376 104.1992 254.1697 120.0511 254.1697 139.6053 C 254.1697 159.1607 218.376 175.0122 174.2204 175.0122 C 130.0649 175.0122 94.2711 159.1607 94.2711 139.6053 Z" fill="#f7e455"/>				</g>			</g>		</g>		<path d="M 89.6248 12.3033 C 101.6654 12.1726 110.4747 25.7018 110.4747 25.7018 C 110.4747 25.7018 138.4211 25.496 140.0179 29.7659 C 141.9329 34.8863 117.9066 41.0268 117.9066 41.0268 C 117.9066 41.0268 128.7324 52.5526 121.162 55.0909 C 113.9035 57.524 90.535 50.3523 90.535 50.3523 C 90.535 50.3523 68.2904 56.6765 61.6169 55.0426 C 54.9059 53.3995 63.2181 40.1621 63.2181 40.1621 C 63.2181 40.1621 37.7688 33.0078 40.5125 28.8787 C 42.9946 25.142 71.3784 25.8252 71.3784 25.8252 C 71.3784 25.8252 77.3177 12.4367 89.6248 12.3033 Z" fill="#f2b800"/>		<path d="M 174.6248 117.3033 C 186.6654 117.1726 195.4747 130.7018 195.4747 130.7018 C 195.4747 130.7018 223.4211 130.496 225.0179 134.7659 C 226.9329 139.8863 202.9066 146.0268 202.9066 146.0268 C 202.9066 146.0268 213.7324 157.5526 206.162 160.0909 C 198.9035 162.524 175.535 155.3523 175.535 155.3523 C 175.535 155.3523 153.2904 161.6765 146.6169 160.0426 C 139.9059 158.3995 148.2181 145.1621 148.2181 145.1621 C 148.2181 145.1621 122.7688 138.0078 125.5125 133.8787 C 127.9946 130.142 156.3784 130.8252 156.3784 130.8252 C 156.3784 130.8252 162.3177 117.4367 174.6248 117.3033 Z" fill="#f2b800"/>	</g></svg>