<?xml version="1.0" standalone="no"?><!-- Generator: Adobe Fireworks CS6, Export SVG Extension by Aaron Beall (http://fireworks.abeall.com) . Version: 0.6.1  --><!DOCTYPE svg PUBLIC "-//W3C//DTD SVG 1.1//EN" "http://www.w3.org/Graphics/SVG/1.1/DTD/svg11.dtd"><svg id="Untitled-Page%201" viewBox="0 0 278 348" style="background-color:#ffffff00" version="1.1"	xmlns="http://www.w3.org/2000/svg" xmlns:xlink="http://www.w3.org/1999/xlink" xml:space="preserve"	x="0px" y="0px" width="278px" height="348px">	<g>		<g>			<g>				<path id="Ellipse" d="M 44.8228 175.513 C 57.9669 114.9347 117.3135 76.1248 177.3795 88.8265 C 237.4461 101.5285 275.4828 160.9319 262.3394 221.5101 C 249.1959 282.0894 189.8485 320.8994 129.782 308.1977 C 69.7159 295.4955 31.679 236.0922 44.8228 175.513 Z" fill="#eaeaea"/>				<g>					<path d="M 160.5198 3.7065 C 160.5198 3.7065 149.5938 42.694 156.0872 43.669 C 162.5803 44.6447 188.0298 6.5754 188.0298 6.5754 L 160.5198 3.7065 Z" fill="#cbcbcb"/>					<path d="M 137.9537 82.5876 C 137.9537 82.5876 112.601 22.0645 117.9793 8.2449 C 120.8024 0.9902 138.2149 -0.7699 162.43 0.2777 C 165.3848 0.4058 153.5147 43.7816 156.5342 43.9916 C 158.7995 44.1498 185.2957 2.4458 187.5699 2.6462 C 204.7557 4.1609 216.2203 5.3854 228.2657 8.4103 C 261.4479 16.7426 279.6738 36.2342 277.8788 48.3729 C 276.0823 60.5117 216.9319 100.1237 216.9319 100.1237 L 137.9537 82.5876 Z" fill="#eaeaea"/>				</g>				<rect x="131.0541" y="75.5484" width="93.895" height="31.6944" fill="#bfa64d" rx="15.8472" ry="15.8472"/>				<g>					<path d="M 225.3555 99.702 C 225.3555 99.702 236.8135 104.5573 244.8203 113.7939 C 252.8502 123.0592 255.8949 125.5875 253.0164 130.5806 C 250.1414 135.569 244.9679 128.8407 238.9849 122.5447 C 227.6801 110.6475 217.2649 106.7324 217.2649 106.7324 C 217.2649 106.7324 230.0967 115.1552 234.3723 135.9786 C 238.6535 156.8351 241.5045 163.7688 234.9814 165.0792 C 228.4744 166.386 228.1053 159.8406 227.8236 156.8512 C 227.5421 153.8629 224.9439 135.9365 221.4319 128.5491 C 217.9242 121.1718 209.9161 104.5975 199.3995 103.7103 C 188.9236 102.8271 225.3555 99.702 225.3555 99.702 Z" fill="#bfa64d"/>				</g>			</g>			<g>				<g>					<path d="M 5.8662 240.1996 C 5.8662 240.1996 5.2815 270.1799 6.4927 275.587 C 7.7037 280.9946 22.6513 308.6493 86.4351 308.6493 C 153.2937 308.6493 167.6405 281.1745 168.0279 275.9128 C 168.2751 272.5457 168.2047 240.4943 168.2047 240.4943 L 5.8662 240.1996 Z" fill="#f2b800"/>					<path id="Ellipse2" d="M 5.118 240.0095 C 5.118 220.1625 41.567 204.0728 86.5309 204.0728 C 131.4944 204.0728 167.9433 220.1625 167.9433 240.0095 C 167.9433 259.8579 131.4944 275.9462 86.5309 275.9462 C 41.567 275.9462 5.118 259.8579 5.118 240.0095 Z" fill="#f7e455"/>					<g>						<path d="M 105.9886 247.8822 C 109.4986 247.4401 112.2357 246.918 114.271 246.3254 C 116.3068 245.7328 117.676 245.0895 118.4482 244.3965 C 119.2202 243.7033 119.6063 243.0301 119.6063 242.3774 C 119.6063 241.031 118.4482 239.9265 116.1314 239.0724 C 113.8149 238.2285 110.9376 237.5353 107.4274 237.0026 C 103.9176 236.4807 100.0925 236.0684 96.0211 235.7673 C 91.9145 235.4658 88.1241 235.1844 84.6142 234.9135 C 81.1043 234.6421 78.1914 234.3307 75.8759 233.9887 C 73.5594 233.6474 72.4353 233.1755 72.4353 232.5724 C 72.4353 231.3872 77.8405 230.7944 88.6505 230.7944 C 95.5645 230.7944 103.8477 231.4379 113.5344 232.7234 L 115.1139 228.2227 C 112.9377 227.8008 109.7435 227.3994 105.5326 227.0173 C 101.3212 226.6357 96.9688 226.3939 92.5462 226.2935 L 94.8978 221.7933 L 79.1747 221.7933 L 81.5261 226.2935 C 76.7876 226.4349 72.7163 226.6958 69.3124 227.0873 C 65.9077 227.489 63.1006 227.9814 60.8893 228.5743 C 58.6431 229.1669 57.0286 229.8304 56.0101 230.5635 C 54.9575 231.2971 54.4659 232.0402 54.4659 232.7937 C 54.4659 233.9388 55.6243 234.8731 57.9763 235.5966 C 60.3272 236.3299 63.2407 236.9326 66.7502 237.4048 C 70.2252 237.8867 73.9805 238.2885 78.0512 238.6096 C 82.0875 238.9317 85.8428 239.2531 89.3528 239.5745 C 92.8265 239.8958 95.7408 240.2576 98.0918 240.6596 C 100.4434 241.0614 101.6364 241.5941 101.6364 242.2567 C 101.6364 243.6228 96.6524 244.2962 86.7203 244.2962 C 74.8932 244.2962 65.7332 243.4422 59.2044 241.7242 L 56.7127 246.8676 C 61.9772 247.9624 70.26 248.6055 81.5261 248.7968 L 79.1747 253.2971 L 94.8978 253.2971 L 92.5462 248.7565 C 98.0219 248.6258 102.4795 248.3344 105.9886 247.8822 L 105.9886 247.8822 Z" fill="#f2b800"/>					</g>				</g>				<g>					<path d="M 8.425 199.8358 C 8.425 199.8358 7.8403 229.8162 9.0518 235.223 C 10.2627 240.6307 25.2098 268.2853 88.9941 268.2853 C 155.8533 268.2853 170.1995 240.8104 170.5869 235.5488 C 170.8341 232.1819 170.7634 200.1301 170.7634 200.1301 L 8.425 199.8358 Z" fill="#f2b800"/>					<path id="Ellipse3" d="M 7.6768 199.6455 C 7.6768 179.7985 44.1258 163.7082 89.0903 163.7082 C 134.0534 163.7082 170.5029 179.7985 170.5029 199.6455 C 170.5029 219.4933 134.0534 235.583 89.0903 235.583 C 44.1258 235.583 7.6768 219.4933 7.6768 199.6455 Z" fill="#f7e455"/>					<g>						<path d="M 108.5476 207.5184 C 112.0576 207.0761 114.795 206.5542 116.8299 205.9613 C 118.8658 205.3684 120.2345 204.7256 121.0071 204.0324 C 121.7791 203.3393 122.1652 202.6661 122.1652 202.0136 C 122.1652 200.6671 121.0071 199.5623 118.6904 198.7081 C 116.3743 197.8639 113.4963 197.1711 109.9866 196.6385 C 106.4766 196.1167 102.6513 195.7047 98.58 195.4028 C 94.4735 195.1012 90.6835 194.8207 87.1732 194.5493 C 83.6639 194.2781 80.751 193.9662 78.4343 193.6251 C 76.1184 193.2835 74.9949 192.8113 74.9949 192.2082 C 74.9949 191.0232 80.4002 190.43 91.2097 190.43 C 98.124 190.43 106.4069 191.073 116.0934 192.3593 L 117.6729 187.8589 C 115.4965 187.4367 112.3031 187.0351 108.0916 186.6533 C 103.8796 186.2712 99.5278 186.03 95.1057 185.9299 L 97.4567 181.4295 L 81.7336 181.4295 L 84.085 185.9299 C 79.3466 186.0706 75.2752 186.3315 71.8712 186.7235 C 68.4673 187.1252 65.659 187.618 63.4478 188.2098 C 61.2021 188.8029 59.5876 189.4664 58.5693 190.1993 C 57.5165 190.9329 57.0254 191.6761 57.0254 192.4294 C 57.0254 193.5743 58.1833 194.509 60.5346 195.2326 C 62.8863 195.9653 65.7997 196.568 69.3098 197.0409 C 72.7841 197.5225 76.5394 197.9246 80.6107 198.2457 C 84.6465 198.5675 88.4024 198.8887 91.9118 199.2106 C 95.3861 199.5323 98.2995 199.8936 100.6507 200.2951 C 103.0023 200.697 104.1954 201.2299 104.1954 201.8923 C 104.1954 203.2587 99.2114 203.9319 89.2794 203.9319 C 77.4516 203.9319 68.2921 203.0782 61.7634 201.3603 L 59.2723 206.5035 C 64.5361 207.5983 72.8184 208.2418 84.085 208.4326 L 81.7336 212.9328 L 97.4567 212.9328 L 95.1057 208.3923 C 100.5809 208.2618 105.038 207.9703 108.5476 207.5184 L 108.5476 207.5184 Z" fill="#f2b800"/>					</g>				</g>				<g>					<path d="M 0.7482 157.503 C 0.7482 157.503 0.1636 187.4828 1.3742 192.8901 C 2.586 198.2973 17.5328 225.9524 81.3171 225.9524 C 148.1763 225.9524 162.5227 198.4773 162.9099 193.2153 C 163.157 189.8484 163.0867 157.7974 163.0867 157.7974 L 0.7482 157.503 Z" fill="#f2b800"/>					<path id="Ellipse4" d="M 0 157.3123 C 0 137.4652 36.449 121.3752 81.4129 121.3752 C 126.3764 121.3752 162.8253 137.4652 162.8253 157.3123 C 162.8253 177.1604 126.3764 193.2493 81.4129 193.2493 C 36.449 193.2493 0 177.1604 0 157.3123 Z" fill="#f7e455"/>					<g>						<path d="M 100.8703 165.1853 C 104.3801 164.7431 107.1179 164.2205 109.1532 163.6287 C 111.1886 163.0355 112.5576 162.3927 113.3301 161.6994 C 114.1021 161.0063 114.4886 160.3329 114.4886 159.6799 C 114.4886 158.3341 113.3301 157.2296 111.0136 156.3752 C 108.6969 155.5311 105.819 154.8384 102.3096 154.3058 C 98.7996 153.7831 94.9745 153.3712 90.9031 153.0701 C 86.7964 152.7688 83.0067 152.4872 79.4963 152.2161 C 75.9865 151.9447 73.0735 151.6331 70.7575 151.2917 C 68.4414 150.9503 67.3179 150.4783 67.3179 149.8754 C 67.3179 148.6901 72.7227 148.0972 83.5326 148.0972 C 90.4465 148.0972 98.7293 148.7403 108.4165 150.0258 L 109.9959 145.5255 C 107.8197 145.1038 104.6255 144.7021 100.4148 144.3205 C 96.2026 143.9388 91.8508 143.697 87.4288 143.597 L 89.7798 139.0967 L 74.0566 139.0967 L 76.4083 143.597 C 71.6696 143.7377 67.5984 143.9987 64.1943 144.3907 C 60.7899 144.7922 57.9821 145.2842 55.7708 145.8773 C 53.5251 146.47 51.9107 147.1329 50.8921 147.8666 C 49.8394 148.6002 49.348 149.3432 49.348 150.0964 C 49.348 151.2416 50.5063 152.1756 52.8579 152.8995 C 55.2095 153.6332 58.1229 154.2353 61.6323 154.7076 C 65.1072 155.1896 68.8625 155.5913 72.9332 155.913 C 76.9691 156.2343 80.7249 156.5558 84.2348 156.8778 C 87.7087 157.1988 90.6222 157.5605 92.9737 157.9625 C 95.3254 158.3643 96.5186 158.8969 96.5186 159.5596 C 96.5186 160.9259 91.5345 161.599 81.6023 161.599 C 69.7746 161.599 60.6146 160.7451 54.0866 159.0275 L 51.5947 164.1707 C 56.8586 165.2656 65.1414 165.9086 76.4083 166.0994 L 74.0566 170.6 L 89.7798 170.6 L 87.4288 166.0591 C 92.9038 165.9288 97.361 165.6375 100.8703 165.1853 L 100.8703 165.1853 Z" fill="#f2b800"/>					</g>				</g>				<g>					<path d="M 8.425 116.1539 C 8.425 116.1539 7.8403 146.1343 9.0518 151.5415 C 10.2627 156.9493 25.2098 184.6038 88.9941 184.6038 C 155.8533 184.6038 170.1995 157.1288 170.5869 151.8671 C 170.8341 148.5001 170.7634 116.4486 170.7634 116.4486 L 8.425 116.1539 Z" fill="#f2b800"/>					<path id="Ellipse5" d="M 7.6768 115.9636 C 7.6768 96.117 44.1258 80.0273 89.0903 80.0273 C 134.0534 80.0273 170.5029 96.117 170.5029 115.9636 C 170.5029 135.8124 134.0534 151.9009 89.0903 151.9009 C 44.1258 151.9009 7.6768 135.8124 7.6768 115.9636 Z" fill="#f7e455"/>				</g>			</g>			<g>				<g>					<path d="M 109.5399 252.0573 C 109.5399 252.0573 108.9551 282.0383 110.1658 287.4446 C 111.3771 292.8524 126.3249 320.507 190.1087 320.507 C 256.968 320.507 271.3137 293.0322 271.7009 287.7703 C 271.9486 284.4037 271.8779 252.3522 271.8779 252.3522 L 109.5399 252.0573 Z" fill="#f2b800"/>					<path id="Ellipse6" d="M 108.7916 251.8671 C 108.7916 232.0203 145.2406 215.9306 190.2046 215.9306 C 235.168 215.9306 271.6169 232.0203 271.6169 251.8671 C 271.6169 271.7155 235.168 287.8046 190.2046 287.8046 C 145.2406 287.8046 108.7916 271.7155 108.7916 251.8671 Z" fill="#f7e455"/>					<g>						<path d="M 209.6624 259.7403 C 213.1719 259.2982 215.9089 258.7759 217.9447 258.183 C 219.9803 257.5901 221.3488 256.9476 222.1218 256.2542 C 222.8934 255.5611 223.2803 254.888 223.2803 254.2349 C 223.2803 252.889 222.1218 251.7839 219.8047 250.93 C 217.4892 250.0864 214.6106 249.3931 211.1012 248.8606 C 207.5914 248.3383 203.7661 247.9259 199.6949 247.625 C 195.5881 247.3237 191.7977 247.0422 188.2881 246.7713 C 184.7786 246.4997 181.8656 246.1883 179.5492 245.8471 C 177.2326 245.5049 176.1098 245.033 176.1098 244.4305 C 176.1098 243.2447 181.5144 242.6527 192.3238 242.6527 C 199.2389 242.6527 207.5209 243.2952 217.2076 244.5809 L 218.7872 240.0806 C 216.6113 239.6586 213.418 239.2567 209.2058 238.8746 C 204.9942 238.4933 200.6421 238.2521 196.2201 238.1516 L 198.5715 233.6512 L 182.8483 233.6512 L 185.1993 238.1516 C 180.4614 238.2925 176.39 238.5541 172.986 238.9451 C 169.5815 239.347 166.7739 239.8393 164.5624 240.432 C 162.3167 241.0249 160.7018 241.688 159.6842 242.4214 C 158.6307 243.1549 158.1404 243.8977 158.1404 244.6516 C 158.1404 245.7963 159.2979 246.7307 161.6495 247.454 C 164.0015 248.1874 166.9139 248.7903 170.4244 249.2627 C 173.8984 249.7449 177.6536 250.1466 181.725 250.4679 C 185.7612 250.7894 189.5167 251.1106 193.0264 251.4322 C 196.5011 251.7536 199.4138 252.1154 201.7654 252.5172 C 204.117 252.9189 205.3097 253.4519 205.3097 254.1146 C 205.3097 255.481 200.3263 256.1542 190.3941 256.1542 C 178.5665 256.1542 169.4064 255.2999 162.8776 253.5822 L 160.3865 258.7255 C 165.6504 259.8203 173.9333 260.4634 185.1993 260.6544 L 182.8483 265.1548 L 198.5715 265.1548 L 196.2201 260.6143 C 201.6945 260.4834 206.1528 260.1923 209.6624 259.7403 L 209.6624 259.7403 Z" fill="#f2b800"/>					</g>				</g>				<g>					<path d="M 96.7449 211.6935 C 96.7449 211.6935 96.1597 241.6739 97.3711 247.0809 C 98.5817 252.4886 113.5302 280.143 177.314 280.143 C 244.1726 280.143 258.5189 252.6677 258.9064 247.4064 C 259.1534 244.0395 259.0823 211.9881 259.0823 211.9881 L 96.7449 211.6935 Z" fill="#f2b800"/>					<path id="Ellipse7" d="M 95.9968 211.5032 C 95.9968 191.6563 132.4451 175.5665 177.4091 175.5665 C 222.3731 175.5665 258.822 191.6563 258.822 211.5032 C 258.822 231.3516 222.3731 247.4406 177.4091 247.4406 C 132.4451 247.4406 95.9968 231.3516 95.9968 211.5032 Z" fill="#f7e455"/>				</g>			</g>			<g>				<path id="Ellipse8" d="M 14.4997 287.393 C 7.5172 250.6266 38.4369 210.3469 74.9536 203.1841 C 111.4708 196.0211 148.7073 229.9298 157.5592 267.3027 C 166.1823 303.7083 139.553 339.7711 103.0361 346.9338 C 66.5197 354.0966 21.4825 324.1593 14.4997 287.393 Z" fill="#f2b800"/>				<g>					<g>						<path id="Ellipse9" d="M 11.4313 280.218 C 4.4487 243.4517 28.39 207.8411 64.9067 200.6785 C 101.4234 193.5156 136.6858 217.5134 143.6686 254.2797 C 150.6513 291.0459 126.7103 326.6562 90.1937 333.8192 C 53.6765 340.9821 18.4145 316.9841 11.4313 280.218 Z" fill="#fdee68"/>					</g>				</g>			</g>		</g>		<path d="M 90.6248 92.3032 C 102.6654 92.1726 111.4747 105.7018 111.4747 105.7018 C 111.4747 105.7018 139.4211 105.496 141.0179 109.7659 C 142.9329 114.8862 118.9066 121.0267 118.9066 121.0267 C 118.9066 121.0267 129.7324 132.5526 122.162 135.0908 C 114.9035 137.524 91.535 130.3523 91.535 130.3523 C 91.535 130.3523 69.2904 136.6765 62.6169 135.0426 C 55.9059 133.3995 64.2181 120.1621 64.2181 120.1621 C 64.2181 120.1621 38.7688 113.0078 41.5125 108.8787 C 43.9946 105.142 72.3784 105.8252 72.3784 105.8252 C 72.3784 105.8252 78.3177 92.4368 90.6248 92.3032 Z" fill="#f2b800"/>		<g id="icon-star">			<g>				<path d="M 94.9284 226.7583 C 104.1969 230.4589 101.1104 256.6364 101.1104 256.6364 C 101.1104 256.6364 122.7648 265.5923 120.8969 273.5536 C 118.6506 283.1274 95.6206 285.7196 95.6206 285.7196 C 95.6206 285.7196 95.4986 309.5734 87.7849 311.4352 C 80.3967 313.2175 67.7816 292.715 67.7816 292.715 C 67.7816 292.715 46.1636 296.1984 42.3165 291.1068 C 38.4585 286.0007 54.5333 265.903 54.5333 265.903 C 54.5333 265.903 40.6241 245.2328 45.7198 239.0756 C 50.3253 233.5098 71.2341 243.948 71.2341 243.948 C 71.2341 243.948 85.4885 222.989 94.9284 226.7583 Z" fill="#f2b800"/>			</g>		</g>		<path d="M 177.6248 189.3032 C 189.6654 189.1726 198.4747 202.7018 198.4747 202.7018 C 198.4747 202.7018 226.4211 202.496 228.0179 206.7659 C 229.9329 211.8862 205.9066 218.0267 205.9066 218.0267 C 205.9066 218.0267 216.7324 229.5526 209.162 232.0908 C 201.9035 234.524 178.535 227.3523 178.535 227.3523 C 178.535 227.3523 156.2904 233.6765 149.6169 232.0426 C 142.9059 230.3995 151.2181 217.1621 151.2181 217.1621 C 151.2181 217.1621 125.7688 210.0078 128.5125 205.8787 C 130.9946 202.142 159.3784 202.8252 159.3784 202.8252 C 159.3784 202.8252 165.3177 189.4368 177.6248 189.3032 Z" fill="#f2b800"/>	</g></svg>