<?xml version="1.0" encoding="UTF-8" standalone="no"?>
<!DOCTYPE svg PUBLIC "-//W3C//DTD SVG 1.1//EN" "http://www.w3.org/Graphics/SVG/1.1/DTD/svg11.dtd">
<svg width="100%" height="100%" viewBox="0 0 303 303" version="1.1" xmlns="http://www.w3.org/2000/svg" xmlns:xlink="http://www.w3.org/1999/xlink" xml:space="preserve" style="fill-rule:evenodd;clip-rule:evenodd;stroke-linejoin:round;stroke-miterlimit:1.41421;">
    <g>
        <path id="Ellipse" d="M0,151.5C0,67.828 67.828,0 151.5,0C235.172,0 303,67.828 303,151.5C303,235.172 235.172,303 151.5,303C67.828,303 0,235.172 0,151.5Z" style="fill:rgb(253,238,104);fill-rule:nonzero;"/>
        <g transform="matrix(1.06291,0,0,1.06291,-20.7874,-8.10823)">
            <path d="M162.067,60.765C178.601,60.014 197.055,113.385 197.055,113.385C197.055,113.385 252.139,112.286 255.291,128.496C258.443,144.706 216.661,176.259 216.661,176.259C216.661,176.259 232.606,228.997 219.682,238.087C206.759,247.178 162.067,211.359 162.067,211.359C162.067,211.359 117.775,246.027 104.452,238.087C91.128,230.147 107.601,177.452 107.601,177.452C107.601,177.452 66.166,145.089 68.843,128.496C71.521,111.903 124.017,113.511 124.017,113.511C124.017,113.511 145.533,61.516 162.067,60.765Z" style="fill:rgb(242,184,0);"/>
        </g>
    </g>
</svg>
