<?xml version="1.0" standalone="no"?><!-- Generator: Adobe Fireworks CS6, Export SVG Extension by Aaron Beall (http://fireworks.abeall.com) . Version: 0.6.1  --><!DOCTYPE svg PUBLIC "-//W3C//DTD SVG 1.1//EN" "http://www.w3.org/Graphics/SVG/1.1/DTD/svg11.dtd"><svg id="Untitled-Page%201" viewBox="0 0 174 144" style="background-color:#ffffff00" version="1.1"	xmlns="http://www.w3.org/2000/svg" xmlns:xlink="http://www.w3.org/1999/xlink" xml:space="preserve"	x="0px" y="0px" width="174px" height="144px">	<g>		<g>			<g>				<path d="M 13.397 75.9944 C 13.397 75.9944 12.8188 105.7804 14.0166 111.1521 C 15.2152 116.5244 30.0024 144 93.1003 144 C 159.2412 144 173.433 116.7032 173.8165 111.4758 C 174.0604 108.1309 173.9908 76.2872 173.9908 76.2872 L 13.397 75.9944 Z" fill="#f2b800"/>				<path id="Ellipse" d="M 12.6573 75.8053 C 12.6573 56.0874 48.7145 40.1019 93.1956 40.1019 C 137.6756 40.1019 173.7328 56.0874 173.7328 75.8053 C 173.7328 95.5246 137.6756 111.5095 93.1956 111.5095 C 48.7145 111.5095 12.6573 95.5246 12.6573 75.8053 Z" fill="#f7e455"/>				<g>					<path d="M 112.4438 83.6276 C 115.9158 83.1885 118.6237 82.6693 120.6373 82.0802 C 122.6507 81.4912 124.0055 80.853 124.7698 80.1639 C 125.5334 79.4754 125.915 78.8065 125.915 78.1579 C 125.915 76.8206 124.7698 75.7226 122.4776 74.8745 C 120.1863 74.0361 117.3389 73.3474 113.867 72.8182 C 110.3954 72.2996 106.6108 71.89 102.5833 71.5909 C 98.5204 71.2913 94.7715 71.0118 91.2994 70.7428 C 87.8276 70.4729 84.9459 70.1635 82.6542 69.8243 C 80.3627 69.4846 79.2519 69.0157 79.2519 68.4171 C 79.2519 67.239 84.5982 66.6503 95.2925 66.6503 C 102.1317 66.6503 110.3256 67.2891 119.9086 68.5662 L 121.4713 64.0956 C 119.3182 63.6758 116.1589 63.2767 111.9918 62.8976 C 107.826 62.5183 103.5203 62.2789 99.1459 62.1788 L 101.4723 57.7076 L 85.9181 57.7076 L 88.244 62.1788 C 83.5569 62.3188 79.5294 62.5785 76.1617 62.9676 C 72.7936 63.3663 70.0164 63.8557 67.8285 64.4445 C 65.6069 65.0335 64.0099 65.6921 63.0027 66.4207 C 61.9613 67.1494 61.4753 67.8877 61.4753 68.6364 C 61.4753 69.7741 62.621 70.7023 64.9471 71.421 C 67.2733 72.1497 70.1555 72.7486 73.6274 73.2178 C 77.0643 73.6966 80.7797 74.0959 84.8067 74.4155 C 88.7997 74.7347 92.5148 75.0536 95.9869 75.3734 C 99.4235 75.6926 102.3055 76.052 104.6324 76.4514 C 106.9586 76.8504 108.1383 77.3795 108.1383 78.0384 C 108.1383 79.3956 103.208 80.0646 93.3826 80.0646 C 81.6821 80.0646 72.6203 79.2159 66.1619 77.5091 L 63.6971 82.6192 C 68.905 83.707 77.0989 84.3459 88.244 84.5355 L 85.9181 89.0069 L 101.4723 89.0069 L 99.1459 84.4956 C 104.5621 84.3657 108.9721 84.0765 112.4438 83.6276 L 112.4438 83.6276 Z" fill="#f2b800"/>				</g>			</g>			<g>				<path d="M 0.7404 35.8925 C 0.7404 35.8925 0.1614 65.6783 1.3589 71.0503 C 2.5571 76.4228 17.345 103.8978 80.4428 103.8978 C 146.5837 103.8978 160.7758 76.6008 161.1586 71.3737 C 161.4031 68.0287 161.3333 36.1853 161.3333 36.1853 L 0.7404 35.8925 Z" fill="#f2b800"/>				<path id="Ellipse2" d="M 0 35.7036 C 0 15.985 36.0571 0 80.5377 0 C 125.0182 0 161.0752 15.985 161.0752 35.7036 C 161.0752 55.423 125.0182 71.4076 80.5377 71.4076 C 36.0571 71.4076 0 55.423 0 35.7036 Z" fill="#f7e455"/>			</g>		</g>		<path d="M 82.6248 12.3033 C 94.6654 12.1726 103.4747 25.7018 103.4747 25.7018 C 103.4747 25.7018 131.4211 25.496 133.0179 29.7659 C 134.9329 34.8863 110.9066 41.0268 110.9066 41.0268 C 110.9066 41.0268 121.7324 52.5526 114.162 55.0909 C 106.9035 57.524 83.535 50.3523 83.535 50.3523 C 83.535 50.3523 61.2904 56.6765 54.6169 55.0426 C 47.9059 53.3995 56.2181 40.1621 56.2181 40.1621 C 56.2181 40.1621 30.7688 33.0078 33.5125 28.8787 C 35.9946 25.142 64.3784 25.8252 64.3784 25.8252 C 64.3784 25.8252 70.3177 12.4367 82.6248 12.3033 Z" fill="#f2b800"/>	</g></svg>