<?xml version="1.0" standalone="no"?><!-- Generator: Adobe Fireworks CS6, Export SVG Extension by Aaron Beall (http://fireworks.abeall.com) . Version: 0.6.1  --><!DOCTYPE svg PUBLIC "-//W3C//DTD SVG 1.1//EN" "http://www.w3.org/Graphics/SVG/1.1/DTD/svg11.dtd"><svg id="Untitled-Page%201" viewBox="0 0 168 108" style="background-color:#ffffff00" version="1.1"	xmlns="http://www.w3.org/2000/svg" xmlns:xlink="http://www.w3.org/1999/xlink" xml:space="preserve"	x="0px" y="0px" width="168px" height="108px">	<g>		<g>			<path d="M 0.77 37.3096 C 0.77 37.3096 0.1682 68.2715 1.415 73.8557 C 2.6628 79.4399 18.0604 108 83.7623 108 C 152.6324 108 167.41 79.6254 167.8086 74.1917 C 168.0635 70.715 167.9902 37.614 167.9902 37.614 L 0.77 37.3096 Z" fill="#f2b800"/>			<path id="Ellipse" d="M 0 37.1129 C 0 16.6166 37.5446 0 83.861 0 C 130.177 0 167.7218 16.6166 167.7218 37.1129 C 167.7218 57.6111 130.177 74.2269 83.861 74.2269 C 37.5446 74.2269 0 57.6111 0 37.1129 Z" fill="#f7e455"/>		</g>		<path d="M 84.6248 11.3033 C 96.6654 11.1726 105.4747 24.7018 105.4747 24.7018 C 105.4747 24.7018 133.4211 24.496 135.0179 28.7659 C 136.9329 33.8863 112.9066 40.0268 112.9066 40.0268 C 112.9066 40.0268 123.7324 51.5526 116.162 54.0909 C 108.9035 56.524 85.535 49.3523 85.535 49.3523 C 85.535 49.3523 63.2904 55.6765 56.6169 54.0426 C 49.9059 52.3995 58.2181 39.1621 58.2181 39.1621 C 58.2181 39.1621 32.7688 32.0078 35.5125 27.8787 C 37.9946 24.142 66.3784 24.8252 66.3784 24.8252 C 66.3784 24.8252 72.3177 11.4367 84.6248 11.3033 Z" fill="#f2b800"/>	</g></svg>