<?xml version="1.0" standalone="no"?><!-- Generator: Adobe Fireworks CS6, Export SVG Extension by Aaron Beall (http://fireworks.abeall.com) . Version: 0.6.1  --><!DOCTYPE svg PUBLIC "-//W3C//DTD SVG 1.1//EN" "http://www.w3.org/Graphics/SVG/1.1/DTD/svg11.dtd"><svg id="Untitled-Page%201" viewBox="0 0 168 226" style="background-color:#ffffff00" version="1.1"	xmlns="http://www.w3.org/2000/svg" xmlns:xlink="http://www.w3.org/1999/xlink" xml:space="preserve"	x="0px" y="0px" width="168px" height="226px">	<g>		<g>			<g>				<path d="M 5.7707 158.335 C 5.7707 158.335 5.195 187.9715 6.387 193.3169 C 7.5779 198.6622 22.2833 226 85.0317 226 C 150.8048 226 164.9183 198.8398 165.2994 193.6389 C 165.543 190.3103 165.4734 158.6266 165.4734 158.6266 L 5.7707 158.335 Z" fill="#f2b800"/>				<path id="Ellipse" d="M 5.0345 158.1472 C 5.0345 138.5279 40.8917 122.6222 85.126 122.6222 C 129.3593 122.6222 165.2159 138.5279 165.2159 158.1472 C 165.2159 177.7678 129.3593 193.6721 85.126 193.6721 C 40.8917 193.6721 5.0345 177.7678 5.0345 158.1472 Z" fill="#f7e455"/>				<g>					<path d="M 104.2674 165.9297 C 107.7205 165.4929 110.4131 164.9766 112.4152 164.3908 C 114.4182 163.8049 115.7652 163.1691 116.5246 162.4838 C 117.2841 161.7986 117.6645 161.1332 117.6645 160.4878 C 117.6645 159.157 116.5246 158.065 114.2457 157.2207 C 111.9669 156.3865 109.1357 155.7014 105.6827 155.1747 C 102.2299 154.6589 98.4677 154.2512 94.4618 153.9536 C 90.4224 153.6555 86.6935 153.3776 83.24 153.1096 C 79.7875 152.8413 76.9221 152.5332 74.6431 152.1958 C 72.3643 151.858 71.2593 151.3914 71.2593 150.7955 C 71.2593 149.6239 76.5768 149.0375 87.2109 149.0375 C 94.0129 149.0375 102.1614 149.6737 111.6909 150.9448 L 113.2446 146.496 C 111.1038 146.0785 107.9621 145.6815 103.8187 145.3041 C 99.6757 144.9266 95.3943 144.6879 91.0437 144.5887 L 93.3566 140.14 L 77.8889 140.14 L 80.2021 144.5887 C 75.541 144.7281 71.535 144.9862 68.1866 145.3735 C 64.8373 145.7706 62.0754 146.2571 59.9006 146.8432 C 57.6909 147.4291 56.1023 148.0846 55.1005 148.8093 C 54.0651 149.5344 53.5817 150.2692 53.5817 151.0141 C 53.5817 152.1459 54.7212 153.0696 57.0343 153.7846 C 59.3475 154.5096 62.2134 155.1054 65.6664 155.5721 C 69.0847 156.0491 72.7786 156.446 76.784 156.7634 C 80.7542 157.0817 84.4491 157.3995 87.9016 157.7172 C 91.3194 158.0348 94.1857 158.3922 96.4992 158.7897 C 98.8124 159.1868 99.9865 159.7136 99.9865 160.3685 C 99.9865 161.7191 95.0835 162.3849 85.3123 162.3849 C 73.6769 162.3849 64.6647 161.5406 58.243 159.8421 L 55.7917 164.9266 C 60.9706 166.009 69.119 166.6445 80.2021 166.8336 L 77.8889 171.2823 L 93.3566 171.2823 L 91.0437 166.7938 C 96.4299 166.6647 100.815 166.3765 104.2674 165.9297 L 104.2674 165.9297 Z" fill="#f2b800"/>				</g>			</g>			<g>				<path d="M 8.2878 118.4341 C 8.2878 118.4341 7.7126 148.0706 8.9038 153.4156 C 10.0957 158.7612 24.8012 186.0986 87.549 186.0986 C 153.3225 186.0986 167.4359 158.9388 167.817 153.7374 C 168.0601 150.4094 167.9909 118.7253 167.9909 118.7253 L 8.2878 118.4341 Z" fill="#f2b800"/>				<path id="Ellipse2" d="M 7.5524 118.246 C 7.5524 98.6267 43.4092 82.7211 87.6434 82.7211 C 131.8766 82.7211 167.7338 98.6267 167.7338 118.246 C 167.7338 137.8665 131.8766 153.7714 87.6434 153.7714 C 43.4092 153.7714 7.5524 137.8665 7.5524 118.246 Z" fill="#f7e455"/>				<g>					<path d="M 106.785 126.0289 C 110.2376 125.5916 112.9308 125.0755 114.9331 124.4894 C 116.9354 123.9036 118.283 123.268 119.0424 122.5828 C 119.8018 121.8976 120.1817 121.2324 120.1817 120.5869 C 120.1817 119.2561 119.0424 118.1636 116.7634 117.3198 C 114.4846 116.4853 111.6532 115.8002 108.2005 115.2737 C 104.7478 114.7577 100.9843 114.3506 96.9796 114.0524 C 92.9396 113.7542 89.2109 113.4762 85.7578 113.2086 C 82.3052 112.9401 79.4398 112.632 77.1604 112.2948 C 74.8818 111.9572 73.7771 111.4902 73.7771 110.8943 C 73.7771 109.7227 79.0942 109.1366 89.7287 109.1366 C 96.53 109.1366 104.6791 109.772 114.2085 111.0434 L 115.7622 106.5947 C 113.6213 106.1776 110.4799 105.7802 106.3365 105.4028 C 102.1934 105.0253 97.9115 104.7868 93.5609 104.6879 L 95.8741 100.2391 L 80.4064 100.2391 L 82.7199 104.6879 C 78.0582 104.8268 74.0531 105.0849 70.7042 105.4722 C 67.3548 105.8694 64.593 106.3562 62.4178 106.9418 C 60.2081 107.5277 58.6196 108.1836 57.618 108.9083 C 56.5825 109.6337 56.0991 110.3686 56.0991 111.1128 C 56.0991 112.2447 57.2383 113.1685 59.5516 113.8837 C 61.8649 114.6084 64.7311 115.2041 68.1842 115.6713 C 71.6021 116.1474 75.2964 116.545 79.3013 116.8626 C 83.272 117.1808 86.9668 117.498 90.4194 117.816 C 93.837 118.1342 96.7035 118.4915 99.017 118.8885 C 101.3296 119.2856 102.5032 119.8122 102.5032 120.4673 C 102.5032 121.8178 97.6003 122.4836 87.8294 122.4836 C 76.1946 122.4836 67.1824 121.6393 60.7601 119.9411 L 58.3089 125.0255 C 63.4878 126.1081 71.6366 126.7436 82.7199 126.9326 L 80.4064 131.3814 L 95.8741 131.3814 L 93.5609 126.8926 C 98.9472 126.7636 103.3323 126.4756 106.785 126.0289 L 106.785 126.0289 Z" fill="#f2b800"/>				</g>			</g>			<g>				<path d="M 0.7358 76.5867 C 0.7358 76.5867 0.1609 106.2231 1.3519 111.5681 C 2.5439 116.9138 17.2482 144.2515 79.9969 144.2515 C 145.7702 144.2515 159.8839 117.0913 160.2646 111.8899 C 160.5078 108.5617 160.4385 76.8777 160.4385 76.8777 L 0.7358 76.5867 Z" fill="#f2b800"/>				<path id="Ellipse3" d="M 0 76.3985 C 0 56.7791 35.8572 40.8738 80.0905 40.8738 C 124.3238 40.8738 160.1819 56.7791 160.1819 76.3985 C 160.1819 96.0188 124.3238 111.9236 80.0905 111.9236 C 35.8572 111.9236 0 96.0188 0 76.3985 Z" fill="#f7e455"/>				<g>					<path d="M 99.2325 84.1812 C 102.6857 83.7444 105.3786 83.2276 107.3806 82.6422 C 109.3835 82.0561 110.7299 81.4207 111.4901 80.7353 C 112.25 80.05 112.6293 79.3842 112.6293 78.739 C 112.6293 77.4087 111.4901 76.3164 109.2111 75.472 C 106.9326 74.6377 104.1009 73.9525 100.6485 73.4265 C 97.1954 72.91 93.4318 72.5027 89.4271 72.2047 C 85.387 71.9068 81.6584 71.6287 78.2059 71.3607 C 74.7529 71.0924 71.8867 70.7843 69.6082 70.4471 C 67.33 70.1095 66.2245 69.6429 66.2245 69.0468 C 66.2245 67.8751 71.5418 67.2893 82.1763 67.2893 C 88.9781 67.2893 97.1262 67.9247 106.6561 69.1958 L 108.2093 64.7471 C 106.0683 64.3299 102.9269 63.9327 98.7834 63.5556 C 94.6404 63.1784 90.3596 62.9395 86.0089 62.8405 L 88.3221 58.3918 L 72.8539 58.3918 L 75.1669 62.8405 C 70.5054 62.9794 66.5007 63.2374 63.1519 63.625 C 59.8029 64.022 57.0405 64.5084 54.8655 65.0945 C 52.6557 65.6804 51.0673 66.3358 50.0656 67.0609 C 49.0301 67.7859 48.5467 68.5207 48.5467 69.265 C 48.5467 70.3974 49.6865 71.3207 51.9998 72.036 C 54.3124 72.7614 57.1787 73.3568 60.6318 73.8235 C 64.0497 74.3 67.7435 74.6975 71.7493 75.0151 C 75.7195 75.3329 79.4139 75.6507 82.8668 75.9688 C 86.2844 76.2863 89.1505 76.6438 91.4639 77.0412 C 93.7772 77.4382 94.9513 77.9645 94.9513 78.62 C 94.9513 79.9704 90.0485 80.6359 80.2768 80.6359 C 68.6416 80.6359 59.6306 79.792 53.2079 78.0938 L 50.7568 83.1782 C 55.9357 84.2604 64.0836 84.8963 75.1669 85.0848 L 72.8539 89.5338 L 88.3221 89.5338 L 86.0089 85.0449 C 91.3951 84.9161 95.7795 84.6284 99.2325 84.1812 L 99.2325 84.1812 Z" fill="#f2b800"/>				</g>			</g>			<g>				<path d="M 8.2878 35.712 C 8.2878 35.712 7.7126 65.3487 8.9038 70.6938 C 10.0957 76.0395 24.8012 103.3773 87.549 103.3773 C 153.3225 103.3773 167.4359 76.2168 167.817 71.0157 C 168.0601 67.6877 167.9909 36.0037 167.9909 36.0037 L 8.2878 35.712 Z" fill="#f2b800"/>				<path id="Ellipse4" d="M 7.5524 35.524 C 7.5524 15.9049 43.4092 0 87.6434 0 C 131.8766 0 167.7338 15.9049 167.7338 35.524 C 167.7338 55.1451 131.8766 71.0493 87.6434 71.0493 C 43.4092 71.0493 7.5524 55.1451 7.5524 35.524 Z" fill="#f7e455"/>			</g>		</g>		<g id="icon-star">			<g>				<path d="M 87.6248 11.3033 C 99.6654 11.1726 108.4747 24.7018 108.4747 24.7018 C 108.4747 24.7018 136.4211 24.496 138.0179 28.7659 C 139.9329 33.8863 115.9066 40.0268 115.9066 40.0268 C 115.9066 40.0268 126.7324 51.5526 119.162 54.0909 C 111.9035 56.524 88.535 49.3523 88.535 49.3523 C 88.535 49.3523 66.2904 55.6765 59.6169 54.0426 C 52.9059 52.3995 61.2181 39.1621 61.2181 39.1621 C 61.2181 39.1621 35.7688 32.0078 38.5125 27.8787 C 40.9946 24.142 69.3784 24.8252 69.3784 24.8252 C 69.3784 24.8252 75.3177 11.4367 87.6248 11.3033 Z" fill="#f2b800"/>			</g>		</g>	</g></svg>