<?xml version="1.0" standalone="no"?><!-- Generator: Adobe Fireworks CS6, Export SVG Extension by Aaron Beall (http://fireworks.abeall.com) . Version: 0.6.1  --><!DOCTYPE svg PUBLIC "-//W3C//DTD SVG 1.1//EN" "http://www.w3.org/Graphics/SVG/1.1/DTD/svg11.dtd"><svg id="Untitled-Page%201" viewBox="0 0 168 180" style="background-color:#ffffff00" version="1.1"	xmlns="http://www.w3.org/2000/svg" xmlns:xlink="http://www.w3.org/1999/xlink" xml:space="preserve"	x="0px" y="0px" width="168px" height="180px">	<g>		<g>			<g>				<path d="M 12.9355 114.2086 C 12.9355 114.2086 12.3771 143.025 13.5336 148.2217 C 14.6907 153.4191 28.9673 180 89.8904 180 C 153.7493 180 167.4529 153.5919 167.8225 148.5349 C 168.0586 145.299 167.991 114.4919 167.991 114.4919 L 12.9355 114.2086 Z" fill="#f2b800"/>				<path id="Ellipse" d="M 12.2207 114.0259 C 12.2207 94.9498 47.0352 79.485 89.9819 79.485 C 132.9286 79.485 167.7423 94.9498 167.7423 114.0259 C 167.7423 133.1032 132.9286 148.5673 89.9819 148.5673 C 47.0352 148.5673 12.2207 133.1032 12.2207 114.0259 Z" fill="#f7e455"/>				<g>					<path d="M 108.5669 121.5932 C 111.9188 121.1685 114.5334 120.6663 116.4777 120.0964 C 118.4218 119.5266 119.729 118.9089 120.467 118.2424 C 121.2041 117.5764 121.5734 116.9293 121.5734 116.3018 C 121.5734 115.0081 120.467 113.9457 118.254 113.1252 C 116.0417 112.314 113.2931 111.6479 109.9408 111.1362 C 106.5885 110.6341 102.9348 110.2377 99.0461 109.9485 C 95.1237 109.6588 91.5035 109.3885 88.1516 109.1279 C 84.7994 108.8671 82.0167 108.5674 79.804 108.2396 C 77.592 107.9108 76.519 107.4573 76.519 106.8779 C 76.519 105.7385 81.6813 105.169 92.0059 105.169 C 98.6104 105.169 106.521 105.787 115.7736 107.0225 L 117.2826 102.6974 C 115.2036 102.2911 112.1531 101.9051 108.1304 101.5381 C 104.1078 101.1715 99.9506 100.9397 95.7275 100.843 L 97.9731 96.5174 L 82.9557 96.5174 L 85.2009 100.843 C 80.6754 100.9784 76.7869 101.2297 73.5354 101.6058 C 70.284 101.9919 67.6025 102.4653 65.4901 103.0351 C 63.3445 103.6046 61.8026 104.2418 60.8304 104.9469 C 59.8245 105.6517 59.3558 106.3659 59.3558 107.0903 C 59.3558 108.1911 60.4617 109.0889 62.708 109.7843 C 64.954 110.4892 67.7359 111.0685 71.0885 111.5228 C 74.4072 111.9858 77.9936 112.372 81.8826 112.6812 C 85.7376 112.99 89.3245 113.2988 92.6774 113.608 C 95.9954 113.9167 98.7777 114.2645 101.0243 114.6507 C 103.2695 115.0366 104.4098 115.5488 104.4098 116.186 C 104.4098 117.4991 99.649 118.1463 90.1623 118.1463 C 78.8654 118.1463 70.1166 117.3253 63.8809 115.6743 L 61.5005 120.618 C 66.5291 121.6701 74.4401 122.2883 85.2009 122.4717 L 82.9557 126.7975 L 97.9731 126.7975 L 95.7275 122.4332 C 100.9564 122.3076 105.2136 122.0278 108.5669 121.5932 L 108.5669 121.5932 Z" fill="#f2b800"/>				</g>			</g>			<g>				<path d="M 0.7146 75.4124 C 0.7146 75.4124 0.1554 104.2285 1.3124 109.4256 C 2.4688 114.6231 16.7462 141.2034 77.6692 141.2034 C 141.5281 141.2034 155.2312 114.7953 155.6016 109.7385 C 155.8375 106.5023 155.7699 75.6958 155.7699 75.6958 L 0.7146 75.4124 Z" fill="#f2b800"/>				<path id="Ellipse2" d="M 0 75.2297 C 0 56.1536 34.8137 40.689 77.7607 40.689 C 120.7072 40.689 155.5206 56.1536 155.5206 75.2297 C 155.5206 94.3072 120.7072 109.7712 77.7607 109.7712 C 34.8137 109.7712 0 94.3072 0 75.2297 Z" fill="#f7e455"/>				<g>					<path d="M 96.3458 82.7969 C 99.6978 82.3722 102.312 81.8699 104.2561 81.3002 C 106.2003 80.7306 107.5079 80.1125 108.2454 79.4464 C 108.9829 78.7803 109.3527 78.1332 109.3527 77.5054 C 109.3527 76.2114 108.2454 75.1495 106.0323 74.329 C 103.8207 73.5179 101.072 72.8513 97.7201 72.3396 C 94.3674 71.8377 90.7137 71.4417 86.8248 71.1525 C 82.9025 70.8625 79.2824 70.592 75.9305 70.3314 C 72.5775 70.0707 69.7956 69.7713 67.5833 69.4431 C 65.3709 69.1148 64.2976 68.6613 64.2976 68.0817 C 64.2976 66.9423 69.4603 66.3722 79.7852 66.3722 C 86.3892 66.3722 94.3002 66.9905 103.5529 68.2265 L 105.0608 63.9008 C 102.9828 63.4952 99.9321 63.1091 95.9093 62.7422 C 91.8866 62.3751 87.7294 62.1431 83.5064 62.0469 L 85.752 57.7213 L 70.7339 57.7213 L 72.9799 62.0469 C 68.4544 62.1821 64.5657 62.4332 61.3143 62.8095 C 58.0629 63.1956 55.3813 63.6692 53.2689 64.2388 C 51.1238 64.8084 49.5812 65.4459 48.6097 66.1507 C 47.6031 66.8555 47.1344 67.5698 47.1344 68.2943 C 47.1344 69.3945 48.2404 70.2926 50.4868 70.9879 C 52.7328 71.6931 55.5148 72.2725 58.8677 72.7262 C 62.1858 73.1895 65.7725 73.5758 69.6611 73.8843 C 73.5159 74.1937 77.1038 74.5025 80.4563 74.8118 C 83.7743 75.1205 86.5566 75.4681 88.8026 75.8541 C 91.0485 76.2408 92.1887 76.7524 92.1887 77.3899 C 92.1887 78.7029 87.428 79.3497 77.9412 79.3497 C 66.6443 79.3497 57.8955 78.5287 51.6598 76.8782 L 49.2794 81.8213 C 54.3083 82.8738 62.2193 83.4917 72.9799 83.6757 L 70.7339 88.0012 L 85.752 88.0012 L 83.5064 83.6367 C 88.7353 83.5115 92.9929 83.2316 96.3458 82.7969 L 96.3458 82.7969 Z" fill="#f2b800"/>				</g>			</g>			<g>				<path d="M 12.9355 34.7241 C 12.9355 34.7241 12.3771 63.5399 13.5336 68.7368 C 14.6907 73.9344 28.9673 100.5149 89.8904 100.5149 C 153.7493 100.5149 167.4529 74.1067 167.8225 69.0496 C 168.0586 65.8134 167.991 35.0071 167.991 35.0071 L 12.9355 34.7241 Z" fill="#f2b800"/>				<path id="Ellipse3" d="M 12.2207 34.5408 C 12.2207 15.4645 47.0352 0 89.9819 0 C 132.9286 0 167.7423 15.4645 167.7423 34.5408 C 167.7423 53.6182 132.9286 69.0823 89.9819 69.0823 C 47.0352 69.0823 12.2207 53.6182 12.2207 34.5408 Z" fill="#f7e455"/>			</g>		</g>		<path d="M 90.6248 10.3032 C 102.6654 10.1726 111.4746 23.7018 111.4746 23.7018 C 111.4746 23.7018 139.4211 23.496 141.0178 27.7659 C 142.9329 32.8862 118.9066 39.0267 118.9066 39.0267 C 118.9066 39.0267 129.7324 50.5526 122.162 53.0908 C 114.9036 55.524 91.535 48.3523 91.535 48.3523 C 91.535 48.3523 69.2904 54.6765 62.6169 53.0426 C 55.9059 51.3995 64.2181 38.1621 64.2181 38.1621 C 64.2181 38.1621 38.7688 31.0078 41.5125 26.8787 C 43.9946 23.142 72.3784 23.8252 72.3784 23.8252 C 72.3784 23.8252 78.3177 10.4368 90.6248 10.3032 Z" fill="#f2b800"/>	</g></svg>