<?xml version="1.0" standalone="no"?><!-- Generator: Adobe Fireworks CS6, Export SVG Extension by Aaron Beall (http://fireworks.abeall.com) . Version: 0.6.1  --><!DOCTYPE svg PUBLIC "-//W3C//DTD SVG 1.1//EN" "http://www.w3.org/Graphics/SVG/1.1/DTD/svg11.dtd"><svg id="Untitled-Page%201" viewBox="0 0 382 325" style="background-color:#ffffff00" version="1.1"	xmlns="http://www.w3.org/2000/svg" xmlns:xlink="http://www.w3.org/1999/xlink" xml:space="preserve"	x="0px" y="0px" width="382px" height="325px">	<g>		<g>			<path d="M 0.4902 218.1392 C 0.4902 218.1392 2.0966 234.112 3.1214 236.9371 C 4.1462 239.7623 14.2743 253.836 49.8799 251.1165 C 87.2016 248.266 93.4379 233.0381 93.3148 230.2229 C 93.2357 228.421 91.1298 211.3745 91.1298 211.3745 L 0.4902 218.1392 Z" fill="#f2b800"/>			<path id="Ellipse" d="M 0.0601 218.0697 C -1.2195 207.5118 18.0891 197.3987 43.189 195.4816 C 68.2883 193.5643 89.6726 200.5695 90.9525 211.1271 C 92.2323 221.6858 72.924 231.7987 47.8242 233.7159 C 22.7244 235.6328 1.3401 228.6282 0.0601 218.0697 Z" fill="#f7e455"/>		</g>		<path d="M 67.1879 165.1401 L 123.1782 131.3614 L 276.2178 168.8932 L 212.7625 210.1782 L 67.1879 165.1401 Z" fill="#ffd600"/>		<path d="M 119.4455 120.1019 L 167.9701 0 L 354.604 33.7787 L 302.3464 165.1401 L 119.4455 120.1019 Z" fill="#f3b630"/>		<path d="M 177.7104 21.5644 L 143.9175 108.3985 L 288.9275 147.9014 L 326.2544 52.5445 L 177.7104 21.5644 Z" fill="#c4714a"/>		<path d="M 302 164.6667 C 302 164.6667 355.3359 167.5363 373.2671 131.3614 C 400.7434 75.9294 354.604 33.7787 354.604 33.7787 L 302 164.6667 Z" fill="#db8d0e"/>		<path d="M 119.4455 120.1019 L 37.3269 168.8932 L 216.4951 225.1912 L 302.3464 165.1401 L 119.4455 120.1019 Z" fill="#f7e455"/>		<path d="M 55.99 266.4762 L 37.3269 168.8932 L 217.3333 221.3333 L 219.6667 317 L 55.99 266.4762 Z" fill="#f3b630"/>		<path d="M 298.6139 255.2164 L 302.3464 165.1401 L 216.4951 221.4377 L 220.2277 307.7612 L 298.6139 255.2164 Z" fill="#db8d0e"/>		<path d="M 55.99 183.9062 L 197.8317 225.1912 C 197.8317 225.1912 203.6401 297.3455 201.5641 296.5015 C 199.4882 295.6577 70.9203 258.9696 70.9203 258.9696 L 55.99 183.9062 Z" fill="#c4714a"/>		<path d="M 227.6928 228.9442 L 291.1482 187.6593 L 291.1482 247.7102 L 227.6928 288.9951 L 227.6928 228.9442 Z" fill="#c4714a"/>		<path d="M 321.0098 146.3744 L 354.604 60.0508 C 354.604 60.0508 375.2109 81.2598 362.0691 116.3488 C 348.9272 151.4376 321.0098 146.3744 321.0098 146.3744 Z" fill="#c4714a"/>		<path id="Ellipse2" d="M 104.457 230.4684 C 108.483 221.2012 121.2117 217.4276 132.3045 222.2072 C 142.9503 226.794 147.5066 237.3615 143.023 245.6806 C 138.7052 253.6913 127.317 257.0769 117.1 253.3838 C 106.4836 249.5467 100.5917 239.367 104.457 230.4684 Z" fill="#f3b630"/>		<g>			<path d="M 147.2681 170.3778 C 147.2681 170.3778 147.005 183.2894 147.549 185.618 C 148.0936 187.9467 154.811 199.857 183.4758 199.857 C 213.5226 199.857 219.9705 188.0242 220.1445 185.7582 C 220.2548 184.3083 220.2236 170.5045 220.2236 170.5045 L 147.2681 170.3778 Z" fill="#f2b800"/>			<path id="Ellipse3" d="M 146.9312 170.2957 C 146.9312 161.748 163.3116 154.8188 183.5185 154.8188 C 203.726 154.8188 220.1068 161.748 220.1068 170.2957 C 220.1068 178.8438 203.726 185.7729 183.5185 185.7729 C 163.3116 185.7729 146.9312 178.8438 146.9312 170.2957 Z" fill="#f7e455"/>			<g>				<path d="M 192.2636 173.6866 C 193.8405 173.496 195.0707 173.2709 195.986 173.0156 C 196.9006 172.7604 197.5156 172.4834 197.8629 172.1851 C 198.2098 171.887 198.3834 171.597 198.3834 171.3154 C 198.3834 170.7358 197.8629 170.26 196.8213 169.8921 C 195.7806 169.5288 194.4868 169.23 192.9103 169.0009 C 191.3328 168.7761 189.6138 168.5981 187.7836 168.4684 C 185.9384 168.3387 184.2351 168.2174 182.6574 168.1011 C 181.0807 167.9843 179.7714 167.8501 178.7304 167.7029 C 177.6893 167.5563 177.1842 167.3526 177.1842 167.0928 C 177.1842 166.5825 179.6136 166.3271 184.4717 166.3271 C 187.5787 166.3271 191.3011 166.6038 195.6544 167.1578 L 196.3645 165.2194 C 195.3863 165.0378 193.951 164.8649 192.0582 164.7001 C 190.1651 164.5358 188.21 164.432 186.2224 164.3888 L 187.2789 162.4508 L 180.2133 162.4508 L 181.2698 164.3888 C 179.1407 164.4496 177.3107 164.5618 175.7813 164.7305 C 174.2507 164.9035 172.9891 165.1159 171.9955 165.371 C 170.9855 165.6262 170.2606 165.9115 169.8026 166.2279 C 169.3304 166.5433 169.1087 166.8636 169.1087 167.1881 C 169.1087 167.681 169.6293 168.0837 170.6858 168.3951 C 171.743 168.7109 173.0523 168.9707 174.6299 169.1742 C 176.1909 169.382 177.8787 169.5544 179.7083 169.6932 C 181.522 169.8315 183.2098 169.9698 184.7874 170.1085 C 186.3481 170.2467 187.6578 170.4025 188.7148 170.5754 C 189.7711 170.7488 190.3074 170.9783 190.3074 171.2638 C 190.3074 171.8521 188.0675 172.142 183.6039 172.142 C 178.2885 172.142 174.1721 171.7742 171.238 171.0342 L 170.1182 173.2495 C 172.4843 173.7209 176.2065 173.9975 181.2698 174.0801 L 180.2133 176.0186 L 187.2789 176.0186 L 186.2224 174.0627 C 188.6825 174.0067 190.6861 173.8812 192.2636 173.6866 L 192.2636 173.6866 Z" fill="#f2b800"/>			</g>		</g>		<g>			<path d="M 206.9908 162.8714 C 206.9908 162.8714 206.7279 175.783 207.2718 178.1117 C 207.8162 180.4406 214.5337 192.3508 243.1987 192.3508 C 273.2452 192.3508 279.6929 180.5178 279.8673 178.2519 C 279.9777 176.8021 279.9463 162.9982 279.9463 162.9982 L 206.9908 162.8714 Z" fill="#f2b800"/>			<path id="Ellipse4" d="M 206.6544 162.7894 C 206.6544 154.2415 223.0344 147.3126 243.2417 147.3126 C 263.4487 147.3126 279.8291 154.2415 279.8291 162.7894 C 279.8291 171.3375 263.4487 178.2667 243.2417 178.2667 C 223.0344 178.2667 206.6544 171.3375 206.6544 162.7894 Z" fill="#f7e455"/>			<g>				<path d="M 251.9863 166.1801 C 253.5632 165.9896 254.7933 165.7645 255.7087 165.5093 C 256.6228 165.2542 257.2383 164.9771 257.5856 164.6785 C 257.9326 164.3806 258.1061 164.0905 258.1061 163.8091 C 258.1061 163.2296 257.5856 162.7535 256.5441 162.3859 C 255.5034 162.0226 254.2101 161.7236 252.6326 161.4945 C 251.0557 161.2697 249.3362 161.0918 247.5063 160.9622 C 245.6611 160.8326 243.9579 160.7111 242.3801 160.5948 C 240.8035 160.478 239.4941 160.3438 238.4531 160.1967 C 237.4121 160.0496 236.9073 159.8463 236.9073 159.5865 C 236.9073 159.076 239.3359 158.8206 244.1941 158.8206 C 247.3013 158.8206 251.0238 159.0977 255.3773 159.6515 L 256.0874 157.7131 C 255.1086 157.5316 253.6736 157.3586 251.7805 157.194 C 249.8883 157.0295 247.9324 156.9259 245.9456 156.8826 L 247.0017 154.9445 L 239.9362 154.9445 L 240.9924 156.8826 C 238.863 156.9433 237.0336 157.0555 235.504 157.2242 C 233.9735 157.3973 232.7119 157.6096 231.7183 157.8647 C 230.7084 158.1198 229.9829 158.4054 229.5256 158.7216 C 229.0527 159.037 228.8315 159.3573 228.8315 159.6818 C 228.8315 160.1747 229.3521 160.5776 230.4086 160.8888 C 231.4654 161.2047 232.7748 161.4645 234.3526 161.6679 C 235.9137 161.8752 237.6016 162.048 239.431 162.1868 C 241.2449 162.3252 242.9329 162.4635 244.5101 162.6018 C 246.0713 162.7405 247.3806 162.8961 248.4375 163.0693 C 249.4939 163.2423 250.0299 163.4719 250.0299 163.7576 C 250.0299 164.3455 247.7903 164.6357 243.3264 164.6357 C 238.0117 164.6357 233.8948 164.2678 230.9607 163.528 L 229.8409 165.743 C 232.207 166.2144 235.9291 166.491 240.9924 166.5736 L 239.9362 168.512 L 247.0017 168.512 L 245.9456 166.5564 C 248.4053 166.5004 250.4089 166.3748 251.9863 166.1801 L 251.9863 166.1801 Z" fill="#f2b800"/>			</g>		</g>		<g>			<path d="M 143.5355 144.1052 C 143.5355 144.1052 143.2725 157.017 143.8165 159.346 C 144.3607 161.6746 151.0784 173.5847 179.7433 173.5847 C 209.79 173.5847 216.2372 161.7521 216.4114 159.4861 C 216.5223 158.036 216.491 144.2322 216.491 144.2322 L 143.5355 144.1052 Z" fill="#f2b800"/>			<path id="Ellipse5" d="M 143.1987 144.0236 C 143.1987 135.4755 159.579 128.5465 179.7859 128.5465 C 199.9934 128.5465 216.3741 135.4755 216.3741 144.0236 C 216.3741 152.5717 199.9934 159.5009 179.7859 159.5009 C 159.579 159.5009 143.1987 152.5717 143.1987 144.0236 Z" fill="#f7e455"/>			<g>				<path d="M 188.531 147.4142 C 190.1078 147.2238 191.3381 146.9988 192.2531 146.7435 C 193.1678 146.4882 193.7826 146.211 194.1299 145.9128 C 194.4772 145.6145 194.6508 145.3246 194.6508 145.0432 C 194.6508 144.4637 194.1299 143.9877 193.0887 143.6196 C 192.0481 143.2566 190.7542 142.9578 189.1777 142.7288 C 187.6002 142.5037 185.8813 142.326 184.051 142.1963 C 182.2057 142.0665 180.5025 141.9453 178.9247 141.8289 C 177.3481 141.712 176.0388 141.5776 174.9977 141.4307 C 173.9561 141.2836 173.4515 141.0801 173.4515 140.8204 C 173.4515 140.3102 175.881 140.0549 180.7391 140.0549 C 183.8459 140.0549 187.5685 140.3314 191.922 140.8856 L 192.632 138.947 C 191.6537 138.7656 190.2181 138.5927 188.3251 138.428 C 186.4325 138.2637 184.477 138.1598 182.4899 138.1164 L 183.5463 136.1783 L 176.4802 136.1783 L 177.5372 138.1164 C 175.408 138.1775 173.5782 138.2897 172.0486 138.4583 C 170.5181 138.6312 169.2564 138.8435 168.2628 139.0986 C 167.2529 139.3538 166.5276 139.6394 166.0699 139.9554 C 165.5968 140.2713 165.3762 140.5913 165.3762 140.9158 C 165.3762 141.4087 165.8967 141.8114 166.9531 142.1231 C 168.0104 142.4385 169.3192 142.6984 170.8967 142.9018 C 172.4583 143.1093 174.1462 143.282 175.9755 143.4208 C 177.7895 143.5594 179.4769 143.6978 181.0547 143.836 C 182.6156 143.9745 183.9253 144.1301 184.9821 144.3036 C 186.0386 144.4765 186.575 144.7061 186.575 144.9915 C 186.575 145.5798 184.3349 145.8697 179.8712 145.8697 C 174.5558 145.8697 170.4396 145.5017 167.5053 144.762 L 166.3854 146.9769 C 168.7517 147.4485 172.4738 147.7253 177.5372 147.8075 L 176.4802 149.7462 L 183.5463 149.7462 L 182.4899 147.7905 C 184.9501 147.7346 186.9534 147.6092 188.531 147.4142 L 188.531 147.4142 Z" fill="#f2b800"/>			</g>		</g>		<g>			<path d="M 83.8123 129.0928 C 83.8123 129.0928 83.5493 142.0044 84.0935 144.333 C 84.6379 146.6618 91.3556 158.572 120.0206 158.572 C 150.0673 158.572 156.515 146.7392 156.6887 144.4732 C 156.7995 143.0233 156.7679 129.2196 156.7679 129.2196 L 83.8123 129.0928 Z" fill="#f2b800"/>			<path id="Ellipse6" d="M 83.4759 129.0107 C 83.4759 120.4631 99.8562 113.5339 120.0637 113.5339 C 140.2706 113.5339 156.6508 120.4631 156.6508 129.0107 C 156.6508 137.559 140.2706 144.4879 120.0637 144.4879 C 99.8562 144.4879 83.4759 137.559 83.4759 129.0107 Z" fill="#f7e455"/>			<g>				<path d="M 128.8082 132.4016 C 130.3851 132.2109 131.6154 131.9859 132.5302 131.7308 C 133.4447 131.4755 134.0602 131.1984 134.4076 130.9 C 134.7544 130.6017 134.9281 130.312 134.9281 130.0305 C 134.9281 129.4508 134.4076 128.9751 133.366 128.6071 C 132.3253 128.2439 131.0318 127.9448 129.4545 127.7159 C 127.877 127.4911 126.158 127.3132 124.3282 127.1835 C 122.483 127.0538 120.7797 126.9325 119.2019 126.8161 C 117.6253 126.6993 116.316 126.5651 115.2749 126.4182 C 114.2339 126.2709 113.7289 126.0676 113.7289 125.8078 C 113.7289 125.2975 116.1578 125.0422 121.016 125.0422 C 124.1234 125.0422 127.8458 125.3189 132.1992 125.8727 L 132.9092 123.9343 C 131.9305 123.7528 130.4956 123.5798 128.6026 123.4152 C 126.7098 123.2507 124.7541 123.1472 122.767 123.1037 L 123.8236 121.1658 L 116.7579 121.1658 L 117.8145 123.1037 C 115.6849 123.1647 113.855 123.2769 112.3259 123.4457 C 110.7956 123.6187 109.5337 123.831 108.5402 124.0861 C 107.5303 124.3412 106.8049 124.6264 106.3477 124.9428 C 105.8746 125.2582 105.6534 125.5786 105.6534 125.9033 C 105.6534 126.396 106.174 126.7988 107.2306 127.1102 C 108.2874 127.4258 109.5966 127.6856 111.174 127.8893 C 112.7355 128.0966 114.4229 128.2693 116.2529 128.4082 C 118.0667 128.5465 119.7541 128.6848 121.3315 128.8232 C 122.8931 128.9619 124.2024 129.1174 125.2594 129.2905 C 126.3159 129.4639 126.8517 129.6932 126.8517 129.9789 C 126.8517 130.5671 124.6121 130.8571 120.1485 130.8571 C 114.8336 130.8571 110.7169 130.4891 107.7827 129.7493 L 106.6628 131.9644 C 109.0289 132.4359 112.751 132.7126 117.8145 132.795 L 116.7579 134.7335 L 123.8236 134.7335 L 122.767 132.7777 C 125.2273 132.7217 127.2308 132.5961 128.8082 132.4016 L 128.8082 132.4016 Z" fill="#f2b800"/>			</g>		</g>		<g>			<path d="M 173.3965 166.6246 C 173.3965 166.6246 173.1337 179.5361 173.6776 181.8649 C 174.2221 184.1936 180.9396 196.1038 209.6044 196.1038 C 239.6516 196.1038 246.099 184.2711 246.2726 182.0051 C 246.3839 180.5553 246.3523 166.7513 246.3523 166.7513 L 173.3965 166.6246 Z" fill="#f2b800"/>			<path id="Ellipse7" d="M 173.0603 166.5424 C 173.0603 157.9949 189.4406 151.0657 209.6476 151.0657 C 229.8544 151.0657 246.2354 157.9949 246.2354 166.5424 C 246.2354 175.0906 229.8544 182.0199 209.6476 182.0199 C 189.4406 182.0199 173.0603 175.0906 173.0603 166.5424 Z" fill="#f7e455"/>			<g>				<path d="M 218.3921 169.9335 C 219.9691 169.7427 221.1997 169.5176 222.1145 169.2624 C 223.0291 169.0074 223.644 168.7302 223.9915 168.4318 C 224.3387 168.1337 224.5119 167.8436 224.5119 167.5623 C 224.5119 166.9827 223.9915 166.5068 222.9504 166.1389 C 221.9098 165.7757 220.616 165.4768 219.0388 165.2476 C 217.4614 165.0226 215.7424 164.845 213.9121 164.7153 C 212.0668 164.5858 210.3636 164.4643 208.7863 164.348 C 207.2093 164.2311 205.9 164.0969 204.8594 163.9499 C 203.8177 163.8029 203.3132 163.5994 203.3132 163.3396 C 203.3132 162.8293 205.7421 162.5741 210.6002 162.5741 C 213.7072 162.5741 217.4301 162.8508 221.7835 163.4047 L 222.4932 161.4664 C 221.515 161.2848 220.0795 161.1116 218.1868 160.947 C 216.2942 160.7827 214.3382 160.679 212.3514 160.6357 L 213.4075 158.6976 L 206.3418 158.6976 L 207.3984 160.6357 C 205.2692 160.6965 203.4393 160.8087 201.9097 160.9774 C 200.3798 161.1505 199.118 161.3628 198.124 161.6179 C 197.1145 161.8731 196.3888 162.1583 195.9315 162.4747 C 195.4584 162.79 195.2379 163.1106 195.2379 163.4349 C 195.2379 163.9279 195.7582 164.3307 196.8147 164.6421 C 197.8716 164.9578 199.1803 165.2177 200.7579 165.421 C 202.3195 165.6284 204.0074 165.8013 205.8367 165.9401 C 207.6506 166.0784 209.3384 166.2168 210.9158 166.3549 C 212.4772 166.4936 213.7864 166.6494 214.8433 166.8224 C 215.8998 166.9957 216.4361 167.2251 216.4361 167.5107 C 216.4361 168.0989 214.196 168.3889 209.7328 168.3889 C 204.4174 168.3889 200.3008 168.0211 197.3666 167.2811 L 196.2471 169.4963 C 198.6133 169.9678 202.3354 170.2443 207.3984 170.3268 L 206.3418 172.2652 L 213.4075 172.2652 L 212.3514 170.3096 C 214.8112 170.2535 216.8146 170.1281 218.3921 169.9335 L 218.3921 169.9335 Z" fill="#f2b800"/>			</g>		</g>		<g>			<path d="M 93.9922 154.4268 C 93.9922 154.4268 93.7299 167.3385 94.2736 169.6672 C 94.8184 171.9958 101.5358 183.9062 130.2006 183.9062 C 160.2477 183.9062 166.6946 172.0734 166.8689 169.8073 C 166.9799 168.3574 166.9482 154.5538 166.9482 154.5538 L 93.9922 154.4268 Z" fill="#f2b800"/>			<path id="Ellipse8" d="M 93.6563 154.3448 C 93.6563 145.7969 110.0362 138.8677 130.2437 138.8677 C 150.4507 138.8677 166.8306 145.7969 166.8306 154.3448 C 166.8306 162.8928 150.4507 169.8221 130.2437 169.8221 C 110.0362 169.8221 93.6563 162.8928 93.6563 154.3448 Z" fill="#f7e455"/>			<g>				<path d="M 138.9881 157.7354 C 140.5652 157.5449 141.7953 157.3198 142.7098 157.0648 C 143.6251 156.8097 144.2402 156.5323 144.587 156.2341 C 144.9339 155.9357 145.1077 155.6459 145.1077 155.3646 C 145.1077 154.785 144.587 154.309 143.546 153.941 C 142.5053 153.5776 141.2118 153.2789 139.6348 153.05 C 138.0575 152.8251 136.3386 152.6471 134.5088 152.5175 C 132.663 152.388 130.9597 152.2665 129.3824 152.1503 C 127.805 152.0333 126.4962 151.8992 125.4551 151.7518 C 124.414 151.6047 123.9093 151.4015 123.9093 151.1417 C 123.9093 150.6312 126.3384 150.3761 131.1964 150.3761 C 134.3034 150.3761 138.0259 150.6531 142.3792 151.2067 L 143.0888 149.2681 C 142.111 149.0871 140.6756 148.9137 138.7829 148.7493 C 136.8902 148.5847 134.9342 148.4813 132.9471 148.4379 L 134.0034 146.4998 L 126.9379 146.4998 L 127.9944 148.4379 C 125.8647 148.4987 124.0353 148.611 122.5055 148.7794 C 120.9755 148.9528 119.7137 149.1647 118.72 149.4198 C 117.7106 149.6754 116.9848 149.9604 116.5275 150.2767 C 116.0541 150.5924 115.8334 150.913 115.8334 151.2371 C 115.8334 151.7302 116.3539 152.1328 117.4109 152.4442 C 118.4678 152.7601 119.777 153.0198 121.354 153.223 C 122.9153 153.4305 124.6029 153.6034 126.4327 153.7423 C 128.2468 153.8804 129.9345 154.0189 131.5121 154.1571 C 133.0731 154.2955 134.382 154.4514 135.4388 154.6246 C 136.4958 154.7977 137.0323 155.0272 137.0323 155.3127 C 137.0323 155.9009 134.7924 156.1912 130.3286 156.1912 C 125.0137 156.1912 120.8966 155.8232 117.9631 155.0833 L 116.8429 157.2985 C 119.209 157.7699 122.931 158.0465 127.9944 158.1292 L 126.9379 160.0674 L 134.0034 160.0674 L 132.9471 158.1115 C 135.4072 158.0557 137.4108 157.9301 138.9881 157.7354 L 138.9881 157.7354 Z" fill="#f2b800"/>			</g>		</g>		<g>			<path d="M 56.3266 156.3034 C 56.3266 156.3034 56.0632 169.2149 56.6073 171.5438 C 57.1522 173.8724 63.87 185.7827 92.5343 185.7827 C 122.5812 185.7827 129.0288 173.95 129.203 171.684 C 129.3138 170.2341 129.2822 156.4303 129.2822 156.4303 L 56.3266 156.3034 Z" fill="#f2b800"/>			<path id="Ellipse9" d="M 55.99 156.2213 C 55.99 147.6733 72.371 140.7444 92.5778 140.7444 C 112.7844 140.7444 129.1647 147.6733 129.1647 156.2213 C 129.1647 164.7694 112.7844 171.6987 92.5778 171.6987 C 72.371 171.6987 55.99 164.7694 55.99 156.2213 Z" fill="#f7e455"/>		</g>		<g>			<path d="M 125.5504 184.4521 C 125.5504 184.4521 125.2875 197.3636 125.8318 199.6925 C 126.376 202.0214 133.0938 213.9315 161.7586 213.9315 C 191.8051 213.9315 198.2528 202.099 198.4264 199.8329 C 198.5377 198.3827 198.506 184.5789 198.506 184.5789 L 125.5504 184.4521 Z" fill="#f2b800"/>			<path id="Ellipse10" d="M 125.2141 184.3704 C 125.2141 175.8224 141.5948 168.8932 161.8018 168.8932 C 182.0087 168.8932 198.3892 175.8224 198.3892 184.3704 C 198.3892 192.9184 182.0087 199.8475 161.8018 199.8475 C 141.5948 199.8475 125.2141 192.9184 125.2141 184.3704 Z" fill="#f7e455"/>			<g>				<path d="M 170.5461 187.7609 C 172.1234 187.5703 173.3535 187.3453 174.2684 187.0903 C 175.1833 186.835 175.7983 186.5577 176.1458 186.2596 C 176.4922 185.9614 176.6663 185.6713 176.6663 185.3901 C 176.6663 184.8105 176.1458 184.3344 175.1037 183.9666 C 174.0631 183.6031 172.7701 183.3045 171.1927 183.0754 C 169.6152 182.8505 167.8962 182.6727 166.0664 182.5431 C 164.2212 182.4132 162.5176 182.2919 160.9405 182.1754 C 159.3627 182.0587 158.0543 181.9244 157.0128 181.7774 C 155.9722 181.6304 155.4674 181.4269 155.4674 181.1671 C 155.4674 180.6567 157.8959 180.4016 162.754 180.4016 C 165.8615 180.4016 169.5835 180.6782 173.9368 181.2322 L 174.6464 179.2938 C 173.6691 179.1121 172.2337 178.9391 170.341 178.7749 C 168.4484 178.6104 166.4919 178.5065 164.5051 178.4631 L 165.5618 176.5249 L 158.4952 176.5249 L 159.5521 178.4631 C 157.423 178.5242 155.5936 178.6364 154.0632 178.8049 C 152.5332 178.978 151.2715 179.1902 150.2779 179.4454 C 149.2685 179.7006 148.5425 179.9862 148.0858 180.3022 C 147.6124 180.618 147.3912 180.9381 147.3912 181.2624 C 147.3912 181.7553 147.9122 182.1582 148.9687 182.4697 C 150.0259 182.7854 151.3347 183.045 152.9119 183.2485 C 154.4733 183.4561 156.1611 183.6288 157.9907 183.7676 C 159.8044 183.9062 161.4922 184.0445 163.0698 184.1827 C 164.6314 184.321 165.9402 184.4767 166.9973 184.6503 C 168.054 184.8232 168.5898 185.053 168.5898 185.3382 C 168.5898 185.9265 166.3502 186.2165 161.8861 186.2165 C 156.5714 186.2165 152.4545 185.8485 149.5214 185.1084 L 148.4009 187.3237 C 150.7667 187.7952 154.4896 188.072 159.5521 188.1544 L 158.4952 190.0931 L 165.5618 190.0931 L 164.5051 188.137 C 166.9659 188.0814 168.9689 187.9557 170.5461 187.7609 L 170.5461 187.7609 Z" fill="#f2b800"/>			</g>		</g>		<g>			<path d="M 173.736 185.3904 C 173.736 185.3904 173.4727 198.3022 174.0174 200.6309 C 174.5617 202.9597 181.2789 214.8698 209.944 214.8698 C 239.991 214.8698 246.438 203.0371 246.6124 200.7712 C 246.7233 199.321 246.6917 185.5172 246.6917 185.5172 L 173.736 185.3904 Z" fill="#f2b800"/>			<path id="Ellipse11" d="M 173.3996 185.3085 C 173.3996 176.7607 189.78 169.8315 209.987 169.8315 C 230.1938 169.8315 246.5742 176.7607 246.5742 185.3085 C 246.5742 193.8568 230.1938 200.7858 209.987 200.7858 C 189.78 200.7858 173.3996 193.8568 173.3996 185.3085 Z" fill="#f7e455"/>			<g>				<path d="M 218.7316 188.6992 C 220.309 188.5087 221.5391 188.2837 222.4536 188.0286 C 223.3685 187.7731 223.9835 187.4961 224.3308 187.1979 C 224.6778 186.8995 224.8518 186.6096 224.8518 186.3285 C 224.8518 185.7488 224.3308 185.2727 223.2898 184.9049 C 222.2487 184.5414 220.9552 184.2429 219.3782 184.0137 C 217.8013 183.7888 216.0817 183.6111 214.252 183.4816 C 212.4064 183.3516 210.7032 183.2302 209.1258 183.1136 C 207.5482 182.9971 206.2394 182.8628 205.1989 182.7158 C 204.1573 182.5686 203.6526 182.3652 203.6526 182.1053 C 203.6526 181.595 206.0815 181.3398 210.9397 181.3398 C 214.0466 181.3398 217.7687 181.6165 222.1221 182.1706 L 222.8321 180.2319 C 221.8544 180.0505 220.4188 179.8774 218.5261 179.7131 C 216.6335 179.5487 214.6776 179.4452 212.6899 179.4014 L 213.7469 177.4634 L 206.6812 177.4634 L 207.7377 179.4014 C 205.6085 179.4625 203.7789 179.5746 202.2488 179.7433 C 200.7192 179.9162 199.4565 180.1285 198.463 180.3836 C 197.4536 180.6388 196.7281 180.9244 196.2709 181.2404 C 195.798 181.5563 195.5772 181.8763 195.5772 182.2008 C 195.5772 182.6936 196.0977 183.0964 197.1541 183.4081 C 198.2111 183.7238 199.5203 183.9835 201.0979 184.1868 C 202.6589 184.3944 204.3463 184.5673 206.1762 184.7058 C 207.9897 184.8444 209.678 184.9828 211.2549 185.121 C 212.8165 185.2594 214.1254 185.4151 215.1828 185.5886 C 216.2393 185.7616 216.7755 185.9912 216.7755 186.2765 C 216.7755 186.8649 214.5355 187.1548 210.0722 187.1548 C 204.7565 187.1548 200.6401 186.7867 197.7064 186.0468 L 196.586 188.262 C 198.9526 188.7335 202.6747 189.0104 207.7377 189.0927 L 206.6812 191.0313 L 213.7469 191.0313 L 212.6899 189.0753 C 215.151 189.0197 217.1536 188.894 218.7316 188.6992 L 218.7316 188.6992 Z" fill="#f2b800"/>			</g>		</g>		<g>			<path d="M 136.4097 155.3652 C 136.4097 155.3652 136.1459 168.2766 136.6906 170.6055 C 137.2349 172.9341 143.9523 184.8444 172.6175 184.8444 C 202.6642 184.8444 209.1111 173.0117 209.2858 170.7454 C 209.3966 169.2958 209.3647 155.4919 209.3647 155.4919 L 136.4097 155.3652 Z" fill="#f2b800"/>			<path id="Ellipse12" d="M 136.073 155.2831 C 136.073 146.7352 152.4533 139.806 172.6602 139.806 C 192.8672 139.806 209.2475 146.7352 209.2475 155.2831 C 209.2475 163.8311 192.8672 170.7604 172.6602 170.7604 C 152.4533 170.7604 136.073 163.8311 136.073 155.2831 Z" fill="#f7e455"/>			<g>				<path d="M 181.4046 158.6737 C 182.9822 158.4833 184.2123 158.2582 185.1267 158.003 C 186.0416 157.7479 186.6567 157.4707 187.004 157.1724 C 187.3506 156.8739 187.5246 156.584 187.5246 156.3029 C 187.5246 155.7233 187.004 155.2473 185.963 154.8793 C 184.922 154.5161 183.6283 154.2172 182.0514 153.9881 C 180.4745 153.7632 178.755 153.5856 176.9252 153.4559 C 175.0795 153.3264 173.3767 153.2047 171.7989 153.0885 C 170.222 152.9717 168.9127 152.8375 167.8717 152.6901 C 166.8306 152.5431 166.3257 152.3398 166.3257 152.0802 C 166.3257 151.5695 168.7549 151.3144 173.6129 151.3144 C 176.7203 151.3144 180.4424 151.5914 184.7953 152.1451 L 185.5058 150.2065 C 184.5275 150.0253 183.0925 149.8521 181.1995 149.6874 C 179.3067 149.5231 177.3507 149.4197 175.3636 149.3763 L 176.4199 147.4382 L 169.3546 147.4382 L 170.4109 149.3763 C 168.2817 149.437 166.4519 149.5493 164.9221 149.7178 C 163.3925 149.8911 162.1303 150.1029 161.1362 150.358 C 160.1272 150.6135 159.4012 150.8988 158.9442 151.215 C 158.471 151.5308 158.2503 151.8512 158.2503 152.1752 C 158.2503 152.6685 158.7709 153.0712 159.8273 153.3825 C 160.8843 153.6984 162.1936 153.9581 163.7709 154.1613 C 165.3323 154.3688 167.02 154.5417 168.8492 154.6807 C 170.6633 154.8188 172.3511 154.9573 173.9281 155.0955 C 175.4898 155.2339 176.799 155.3899 177.8559 155.5629 C 178.9128 155.736 179.4491 155.9657 179.4491 156.251 C 179.4491 156.8393 177.2088 157.1295 172.7455 157.1295 C 167.4297 157.1295 163.3134 156.7616 160.3794 156.0216 L 159.2598 158.2368 C 161.6259 158.7083 165.348 158.9848 170.4109 159.0674 L 169.3546 161.0057 L 176.4199 161.0057 L 175.3636 159.0499 C 177.8243 158.994 179.8273 158.8684 181.4046 158.6737 L 181.4046 158.6737 Z" fill="#f2b800"/>			</g>		</g>		<g>			<path id="Ellipse13" d="M 215.9231 256.5195 C 229.3687 240.2122 258.7178 239.3124 275.5161 252.7783 C 292.2007 266.1534 291.0857 294.2884 278.0774 311.2443 C 265.4781 327.6664 240.075 328.983 223.3918 315.9604 C 206.5969 302.8505 202.5495 272.7373 215.9231 256.5195 Z" fill="#f2b800"/>			<g>				<g>					<path id="Ellipse14" d="M 217.8945 252.5952 C 231.3555 236.2658 256.046 233.9746 272.8728 247.4745 C 289.5857 260.8828 292.0863 284.7195 278.6262 300.72 C 265.2375 316.6344 240.9705 318.9321 224.257 305.849 C 207.4308 292.6783 204.5067 268.8354 217.8945 252.5952 Z" fill="#fdee68"/>				</g>			</g>		</g>		<path d="M 260.2239 249.2927 C 266.1853 251.6804 264.2001 268.5711 264.2001 268.5711 C 264.2001 268.5711 278.1279 274.3498 276.9265 279.4866 C 275.4818 285.664 260.6692 287.3365 260.6692 287.3365 C 260.6692 287.3365 260.5907 302.7278 255.6292 303.9291 C 250.8773 305.0792 242.7634 291.8502 242.7634 291.8502 C 242.7634 291.8502 228.859 294.0978 226.3845 290.8125 C 223.9031 287.5179 234.2422 274.5502 234.2422 274.5502 C 234.2422 274.5502 225.296 261.2131 228.5734 257.2402 C 231.5358 253.649 244.984 260.3841 244.984 260.3841 C 244.984 260.3841 254.1522 246.8606 260.2239 249.2927 Z" fill="#f2b800"/>		<g>			<path id="Ellipse15" d="M 170.9358 291.189 C 166.9488 270.6785 184.6023 248.2076 205.4503 244.2122 C 226.2992 240.2159 247.5581 259.1321 252.6124 279.9812 C 257.5356 300.2907 242.332 320.4092 221.4838 324.4053 C 200.6348 328.4011 174.9226 311.6997 170.9358 291.189 Z" fill="#f2b800"/>			<g>				<g>					<path id="Ellipse16" d="M 169.1838 287.1869 C 165.1967 266.6763 178.8663 246.8103 199.7146 242.8145 C 220.5631 238.8182 240.6953 252.2059 244.682 272.7163 C 248.6687 293.2272 234.9998 313.0928 214.1512 317.0889 C 193.3029 321.0846 173.1702 307.6974 169.1838 287.1869 Z" fill="#fdee68"/>				</g>			</g>		</g>		<g>			<g>				<path d="M 86.794 141.1642 C 86.794 141.1642 86.4986 156.359 87.1099 159.0994 C 87.7217 161.8401 95.2718 175.8561 127.4871 175.8561 C 161.2554 175.8561 168.501 161.9311 168.6973 159.2644 C 168.8218 157.5581 168.7859 141.3137 168.7859 141.3137 L 86.794 141.1642 Z" fill="#f2b800"/>				<path id="Ellipse17" d="M 86.4158 141.068 C 86.4158 131.009 104.825 122.8542 127.5352 122.8542 C 150.2449 122.8542 168.6541 131.009 168.6541 141.068 C 168.6541 151.1274 150.2449 159.2818 127.5352 159.2818 C 104.825 159.2818 86.4158 151.1274 86.4158 141.068 Z" fill="#f7e455"/>				<g>					<path d="M 137.3629 145.0582 C 139.1356 144.8343 140.5181 144.5692 141.546 144.2687 C 142.5743 143.9686 143.2655 143.6427 143.6553 143.2913 C 144.0455 142.94 144.2407 142.5988 144.2407 142.2682 C 144.2407 141.5858 143.6553 141.0255 142.4855 140.5928 C 141.3157 140.1653 139.8618 139.814 138.0896 139.5443 C 136.3165 139.2796 134.3846 139.0703 132.3286 138.9179 C 130.2545 138.7651 128.34 138.6226 126.5673 138.4853 C 124.7946 138.3477 123.3237 138.1899 122.1533 138.0167 C 120.9832 137.8434 120.4163 137.6043 120.4163 137.2989 C 120.4163 136.698 123.1465 136.3977 128.606 136.3977 C 132.0981 136.3977 136.2813 136.7235 141.1736 137.3749 L 141.9717 135.0944 C 140.8724 134.8803 139.2594 134.6767 137.1324 134.4832 C 135.0049 134.2898 132.8066 134.1676 130.5739 134.1164 L 131.7609 131.8356 L 123.8199 131.8356 L 125.0075 134.1164 C 122.6144 134.188 120.5577 134.3206 118.8384 134.5188 C 117.1193 134.7223 115.701 134.972 114.5843 135.2725 C 113.4497 135.5726 112.6341 135.9087 112.1202 136.2805 C 111.5881 136.6523 111.3407 137.0287 111.3407 137.4109 C 111.3407 137.9912 111.9253 138.4647 113.1129 138.8314 C 114.3007 139.2029 115.7719 139.5085 117.5446 139.7477 C 119.2996 139.9921 121.1961 140.1959 123.2524 140.3588 C 125.2911 140.5217 127.1881 140.6843 128.9603 140.8474 C 130.715 141.0103 132.1864 141.1938 133.3744 141.3973 C 134.5623 141.601 135.1647 141.8709 135.1647 142.2068 C 135.1647 142.8995 132.6471 143.2406 127.6308 143.2406 C 121.6573 143.2406 117.0305 142.8077 113.7333 141.937 L 112.4749 144.5438 C 115.134 145.0986 119.3171 145.4248 125.0075 145.5216 L 123.8199 147.8022 L 131.7609 147.8022 L 130.5739 145.5011 C 133.3383 145.4347 135.5901 145.2874 137.3629 145.0582 L 137.3629 145.0582 Z" fill="#f2b800"/>				</g>			</g>			<g>				<path d="M 80.3311 120.7071 C 80.3311 120.7071 80.0358 135.9017 80.6477 138.6422 C 81.2591 141.3828 88.8092 155.3986 121.0247 155.3986 C 154.793 155.3986 162.0388 141.4738 162.2345 138.8071 C 162.3593 137.1008 162.3236 120.8566 162.3236 120.8566 L 80.3311 120.7071 Z" fill="#f2b800"/>				<path id="Ellipse18" d="M 79.9534 120.6108 C 79.9534 110.5519 98.3627 102.3973 121.0727 102.3973 C 143.7824 102.3973 162.1918 110.5519 162.1918 120.6108 C 162.1918 130.6702 143.7824 138.8245 121.0727 138.8245 C 98.3627 138.8245 79.9534 130.6702 79.9534 120.6108 Z" fill="#f7e455"/>			</g>		</g>		<g>			<g>				<path d="M 186.7358 152.2944 C 186.7358 152.2944 186.4404 167.4893 187.052 170.2296 C 187.6635 172.9702 195.2134 186.9863 227.4285 186.9863 C 261.1974 186.9863 268.4431 173.061 268.6387 170.3945 C 268.7637 168.6883 268.728 152.4438 268.728 152.4438 L 186.7358 152.2944 Z" fill="#f2b800"/>				<path id="Ellipse19" d="M 186.3577 152.198 C 186.3577 142.1393 204.767 133.9845 227.4769 133.9845 C 250.1868 133.9845 268.5962 142.1393 268.5962 152.198 C 268.5962 162.2576 250.1868 170.4119 227.4769 170.4119 C 204.767 170.4119 186.3577 162.2576 186.3577 152.198 Z" fill="#f7e455"/>				<g>					<path d="M 237.3049 156.1882 C 239.0774 155.9645 240.4601 155.6995 241.4879 155.399 C 242.5162 155.0986 243.2074 154.7729 243.5974 154.4215 C 243.9873 154.0701 244.1826 153.729 244.1826 153.3982 C 244.1826 152.7159 243.5974 152.1558 242.4275 151.723 C 241.2577 151.2955 239.8037 150.9442 238.0315 150.6743 C 236.2584 150.4097 234.3266 150.2007 232.2699 150.048 C 230.1962 149.8952 228.2819 149.7527 226.5091 149.6155 C 224.7361 149.4777 223.2656 149.3198 222.0952 149.147 C 220.9254 148.9735 220.3582 148.7343 220.3582 148.4291 C 220.3582 147.8279 223.088 147.5278 228.5479 147.5278 C 232.04 147.5278 236.2234 147.8537 241.1157 148.5052 L 241.9136 146.2244 C 240.8145 146.0104 239.2014 145.8069 237.074 145.6133 C 234.947 145.4199 232.7488 145.2976 230.5154 145.2466 L 231.7028 142.9658 L 223.7618 142.9658 L 224.9493 145.2466 C 222.5564 145.3181 220.4997 145.4504 218.7804 145.649 C 217.0608 145.8524 215.6431 146.1022 214.5259 146.4023 C 213.3917 146.7029 212.576 147.039 212.0622 147.4108 C 211.5301 147.7824 211.2822 148.159 211.2822 148.5408 C 211.2822 149.1212 211.8672 149.5947 213.0548 149.9613 C 214.2427 150.3329 215.7137 150.6386 217.4864 150.8781 C 219.2416 151.1224 221.1381 151.3258 223.1944 151.489 C 225.2329 151.6518 227.1296 151.8147 228.9022 151.9775 C 230.6569 152.1405 232.1285 152.3238 233.3163 152.5276 C 234.5039 152.7311 235.1065 153.0013 235.1065 153.3369 C 235.1065 154.0295 232.5891 154.3706 227.5727 154.3706 C 221.5993 154.3706 216.9724 153.9379 213.6752 153.0673 L 212.4164 155.6741 C 215.0754 156.2286 219.259 156.5549 224.9493 156.6516 L 223.7618 158.9324 L 231.7028 158.9324 L 230.5154 156.6312 C 233.2802 156.5649 235.532 156.4175 237.3049 156.1882 L 237.3049 156.1882 Z" fill="#f2b800"/>				</g>			</g>			<g>				<path d="M 180.273 131.8372 C 180.273 131.8372 179.9776 147.032 180.5897 149.7722 C 181.2012 152.5129 188.7509 166.5287 220.9662 166.5287 C 254.735 166.5287 261.9807 152.6038 262.1765 149.9373 C 262.3013 148.2309 262.2656 131.9867 262.2656 131.9867 L 180.273 131.8372 Z" fill="#f2b800"/>				<path id="Ellipse20" d="M 179.8954 131.7407 C 179.8954 121.6818 198.3047 113.5273 221.0146 113.5273 C 243.7245 113.5273 262.1338 121.6818 262.1338 131.7407 C 262.1338 141.8004 243.7245 149.9546 221.0146 149.9546 C 198.3047 149.9546 179.8954 141.8004 179.8954 131.7407 Z" fill="#f7e455"/>				<g>					<path d="M 230.8424 135.7309 C 232.6146 135.5069 233.9977 135.2422 235.0256 134.9418 C 236.0537 134.6413 236.7452 134.3154 237.135 133.9642 C 237.525 133.613 237.7202 133.2717 237.7202 132.9408 C 237.7202 132.2585 237.135 131.6985 235.9648 131.2659 C 234.7952 130.8382 233.3413 130.4867 231.5692 130.2169 C 229.7961 129.9521 227.8643 129.7432 225.808 129.5908 C 223.7337 129.438 221.8195 129.2952 220.0469 129.1579 C 218.2744 129.0206 216.8029 128.8625 215.6329 128.6895 C 214.463 128.5164 213.8955 128.2771 213.8955 127.9716 C 213.8955 127.3706 216.6257 127.0702 222.0851 127.0702 C 225.5771 127.0702 229.7606 127.3962 234.6532 128.0479 L 235.4507 125.767 C 234.3521 125.553 232.7386 125.3495 230.6116 125.156 C 228.4844 124.9626 226.2863 124.8401 224.053 124.7894 L 225.2405 122.5084 L 217.2991 122.5084 L 218.4867 124.7894 C 216.0936 124.8607 214.0374 124.9932 212.3179 125.1917 C 210.5984 125.3953 209.1807 125.6449 208.064 125.9452 C 206.9293 126.2455 206.1138 126.5818 205.5993 126.9534 C 205.0679 127.3251 204.8198 127.7017 204.8198 128.0836 C 204.8198 128.6639 205.405 129.1375 206.5924 129.5042 C 207.78 129.8757 209.2514 130.1813 211.0239 130.4205 C 212.7787 130.665 214.6753 130.8687 216.7319 131.0314 C 218.7701 131.1946 220.6674 131.3575 222.4404 131.5204 C 224.1945 131.6832 225.666 131.8663 226.8539 132.0701 C 228.0414 132.2738 228.6437 132.5437 228.6437 132.8799 C 228.6437 133.5721 226.1268 133.9135 221.1104 133.9135 C 215.1365 133.9135 210.5101 133.4805 207.2129 132.61 L 205.9545 135.2164 C 208.6135 135.7716 212.7963 136.0974 218.4867 136.1943 L 217.2991 138.4751 L 225.2405 138.4751 L 224.053 136.1738 C 226.8178 136.1077 229.0693 135.96 230.8424 135.7309 L 230.8424 135.7309 Z" fill="#f2b800"/>				</g>			</g>		</g>		<g>			<g>				<path d="M 175.6314 87.7396 C 175.6314 87.7396 175.3359 102.9343 175.9474 105.6749 C 176.5591 108.4155 184.1085 122.4314 216.3239 122.4314 C 250.0923 122.4314 257.3384 108.5065 257.5342 105.8399 C 257.6589 104.1334 257.6235 87.8891 257.6235 87.8891 L 175.6314 87.7396 Z" fill="#f2b800"/>				<path id="Ellipse21" d="M 175.2533 87.6433 C 175.2533 77.5844 193.6626 69.4297 216.3723 69.4297 C 239.0823 69.4297 257.4915 77.5844 257.4915 87.6433 C 257.4915 97.7029 239.0823 105.8569 216.3723 105.8569 C 193.6626 105.8569 175.2533 97.7029 175.2533 87.6433 Z" fill="#f7e455"/>				<g>					<path d="M 226.2002 91.6335 C 227.9723 91.4095 229.3551 91.1447 230.3835 90.8441 C 231.4118 90.5439 232.1028 90.218 232.4929 89.8667 C 232.8829 89.5154 233.078 89.1741 233.078 88.8435 C 233.078 88.1611 232.4929 87.601 231.323 87.1683 C 230.1531 86.7407 228.6991 86.3893 226.9263 86.1196 C 225.1538 85.8549 223.222 85.6458 221.1657 85.4933 C 219.0916 85.3405 217.1774 85.1979 215.4048 85.0608 C 213.6316 84.923 212.1606 84.7652 210.9907 84.5921 C 209.8207 84.4187 209.2531 84.1798 209.2531 83.8742 C 209.2531 83.2733 211.9835 82.9729 217.4434 82.9729 C 220.9351 82.9729 225.1183 83.2988 230.0111 83.9505 L 230.8085 81.6697 C 229.7099 81.4556 228.0968 81.2521 225.9695 81.0586 C 223.8423 80.8652 221.6439 80.7429 219.4108 80.6918 L 220.5983 78.4109 L 212.6573 78.4109 L 213.8444 80.6918 C 211.4514 80.7634 209.3952 80.8959 207.6757 81.0944 C 205.9564 81.2976 204.5381 81.5475 203.4217 81.8478 C 202.2869 82.1481 201.4715 82.4843 200.9575 82.856 C 200.4255 83.2278 200.1775 83.604 200.1775 83.9862 C 200.1775 84.5665 200.7624 85.04 201.9503 85.4067 C 203.1381 85.7782 204.6093 86.0839 206.382 86.3232 C 208.1364 86.5675 210.0335 86.7713 212.0897 86.9341 C 214.1285 87.097 216.0251 87.2599 217.7977 87.4229 C 219.5524 87.5857 221.0238 87.7691 222.2117 87.9728 C 223.3992 88.1763 224.0019 88.4462 224.0019 88.7822 C 224.0019 89.4748 221.4845 89.816 216.4682 89.816 C 210.4943 89.816 205.8676 89.3833 202.5706 88.5124 L 201.3118 91.1191 C 203.9713 91.674 208.1545 92.0001 213.8444 92.0969 L 212.6573 94.3777 L 220.5983 94.3777 L 219.4108 92.0764 C 222.1757 92.01 224.4277 91.8627 226.2002 91.6335 L 226.2002 91.6335 Z" fill="#f2b800"/>				</g>			</g>			<g>				<path d="M 169.1686 67.2825 C 169.1686 67.2825 168.8731 82.4771 169.4847 85.2175 C 170.0966 87.9581 177.6462 101.9741 209.8617 101.9741 C 243.6299 101.9741 250.8762 88.0493 251.0718 85.3824 C 251.1967 83.6761 251.1611 67.4319 251.1611 67.4319 L 169.1686 67.2825 Z" fill="#f2b800"/>				<path id="Ellipse22" d="M 168.7909 67.1862 C 168.7909 57.1272 187.2 48.9726 209.91 48.9726 C 232.6199 48.9726 251.0293 57.1272 251.0293 67.1862 C 251.0293 77.2454 232.6199 85.4 209.91 85.4 C 187.2 85.4 168.7909 77.2454 168.7909 67.1862 Z" fill="#f7e455"/>			</g>		</g>		<g>			<g>				<path d="M 211.1661 125.5821 C 211.1661 125.5821 210.8705 140.777 211.4822 143.5173 C 212.0938 146.2578 219.6438 160.2738 251.8591 160.2738 C 285.6276 160.2738 292.8734 146.3488 293.0691 143.6823 C 293.1938 141.976 293.1583 125.7314 293.1583 125.7314 L 211.1661 125.5821 Z" fill="#f2b800"/>				<path id="Ellipse23" d="M 210.7881 125.4856 C 210.7881 115.427 229.1973 107.2723 251.907 107.2723 C 274.6169 107.2723 293.0264 115.427 293.0264 125.4856 C 293.0264 135.5453 274.6169 143.6995 251.907 143.6995 C 229.1973 143.6995 210.7881 135.5453 210.7881 125.4856 Z" fill="#f7e455"/>				<g>					<path d="M 261.7349 129.476 C 263.5076 129.2521 264.8904 128.9871 265.9183 128.6866 C 266.9465 128.3862 267.6377 128.0605 268.0276 127.7092 C 268.4176 127.3579 268.6128 127.0167 268.6128 126.6858 C 268.6128 126.0038 268.0276 125.4435 266.8577 125.0108 C 265.6877 124.5829 264.234 124.2319 262.4618 123.9619 C 260.6891 123.6974 258.7568 123.4883 256.7006 123.3356 C 254.6268 123.183 252.7122 123.0405 250.9395 122.9031 C 249.167 122.7653 247.6958 122.6075 246.5255 122.4346 C 245.3555 122.2614 244.7885 122.022 244.7885 121.7167 C 244.7885 121.1157 247.5187 120.8155 252.978 120.8155 C 256.4698 120.8155 260.6533 121.1412 265.5458 121.7929 L 266.3439 119.512 C 265.2446 119.2983 263.6316 119.0944 261.5046 118.9009 C 259.3772 118.7076 257.1785 118.5854 254.9456 118.5344 L 256.1331 116.2537 L 248.1921 116.2537 L 249.379 118.5344 C 246.9863 118.6057 244.9301 118.7381 243.2106 118.9368 C 241.491 119.14 240.0732 119.3898 238.9564 119.69 C 237.8218 119.9906 237.0061 120.3266 236.4923 120.6984 C 235.9601 121.0701 235.7123 121.4466 235.7123 121.8286 C 235.7123 122.4088 236.2971 122.8823 237.485 123.2491 C 238.673 123.6207 240.144 123.9265 241.9167 124.1657 C 243.6718 124.41 245.5684 124.6136 247.6245 124.7766 C 249.6631 124.9395 251.5598 125.1024 253.3324 125.2653 C 255.0872 125.4281 256.5586 125.6117 257.7463 125.8152 C 258.9343 126.0187 259.5369 126.2888 259.5369 126.6248 C 259.5369 127.3173 257.0194 127.6583 252.0031 127.6583 C 246.0295 127.6583 241.4027 127.2255 238.1055 126.3549 L 236.8467 128.9619 C 239.5061 129.5165 243.6893 129.8425 249.379 129.9392 L 248.1921 132.2201 L 256.1331 132.2201 L 254.9456 129.9189 C 257.7106 129.8527 259.9623 129.7052 261.7349 129.476 L 261.7349 129.476 Z" fill="#f2b800"/>				</g>			</g>			<g>				<path d="M 204.7037 105.1249 C 204.7037 105.1249 204.4078 120.3196 205.0198 123.06 C 205.6313 125.8007 213.1815 139.8164 245.397 139.8164 C 279.1652 139.8164 286.4109 125.8915 286.6064 123.225 C 286.7314 121.5185 286.6958 105.2744 286.6958 105.2744 L 204.7037 105.1249 Z" fill="#f2b800"/>				<path id="Ellipse24" d="M 204.3256 105.0284 C 204.3256 94.9695 222.7349 86.8149 245.4448 86.8149 C 268.1548 86.8149 286.5645 94.9695 286.5645 105.0284 C 286.5645 115.0881 268.1548 123.2422 245.4448 123.2422 C 222.7349 123.2422 204.3256 115.0881 204.3256 105.0284 Z" fill="#f7e455"/>			</g>		</g>		<g>			<g>				<path d="M 140.0961 163.4245 C 140.0961 163.4245 139.8007 178.6193 140.4122 181.3597 C 141.0242 184.1003 148.5737 198.1164 180.7892 198.1164 C 214.5575 198.1164 221.8038 184.1913 221.9993 181.5247 C 222.1238 179.8184 222.0886 163.574 222.0886 163.574 L 140.0961 163.4245 Z" fill="#f2b800"/>				<path id="Ellipse25" d="M 139.7184 163.3282 C 139.7184 153.2693 158.1277 145.1146 180.8375 145.1146 C 203.5475 145.1146 221.9568 153.2693 221.9568 163.3282 C 221.9568 173.3876 203.5475 181.542 180.8375 181.542 C 158.1277 181.542 139.7184 173.3876 139.7184 163.3282 Z" fill="#f7e455"/>				<g>					<path d="M 190.6654 167.3184 C 192.4377 167.0945 193.8204 166.8295 194.8486 166.5291 C 195.8764 166.2289 196.5681 165.9031 196.9581 165.5515 C 197.348 165.2002 197.5433 164.859 197.5433 164.5284 C 197.5433 163.8461 196.9581 163.2859 195.7881 162.8531 C 194.6179 162.4255 193.1643 162.0742 191.3917 161.8046 C 189.619 161.5397 187.6873 161.3306 185.6306 161.1782 C 183.5568 161.0253 181.6426 160.883 179.8695 160.7455 C 178.0969 160.6079 176.6259 160.45 175.4554 160.277 C 174.2861 160.1036 173.7184 159.8647 173.7184 159.5591 C 173.7184 158.9582 176.4486 158.658 181.9082 158.658 C 185.4002 158.658 189.5834 158.9838 194.4763 159.6353 L 195.2738 157.3547 C 194.1747 157.1406 192.5617 156.937 190.4346 156.7435 C 188.3076 156.55 186.1089 156.4279 183.8754 156.3767 L 185.0634 154.0959 L 177.1222 154.0959 L 178.3097 156.3767 C 175.9167 156.4482 173.8603 156.5808 172.1411 156.7791 C 170.4216 156.9826 169.0032 157.2323 167.8865 157.5325 C 166.7518 157.8329 165.9368 158.1689 165.4224 158.5406 C 164.8908 158.9124 164.6429 159.2891 164.6429 159.6711 C 164.6429 160.2515 165.2275 160.7249 166.4154 161.0916 C 167.603 161.4631 169.0745 161.7689 170.847 162.0081 C 172.6017 162.2524 174.4984 162.4561 176.5551 162.6191 C 178.5931 162.7819 180.4902 162.9447 182.263 163.1075 C 184.0175 163.2706 185.489 163.454 186.6765 163.6577 C 187.8644 163.8612 188.4667 164.1313 188.4667 164.467 C 188.4667 165.1597 185.9499 165.5007 180.9335 165.5007 C 174.9595 165.5007 170.3328 165.0679 167.0355 164.1973 L 165.7772 166.8041 C 168.4361 167.3589 172.6193 167.685 178.3097 167.7817 L 177.1222 170.0624 L 185.0634 170.0624 L 183.8754 167.7614 C 186.6409 167.6951 188.8925 167.5475 190.6654 167.3184 L 190.6654 167.3184 Z" fill="#f2b800"/>				</g>			</g>			<g>				<path d="M 133.6339 142.9673 C 133.6339 142.9673 133.3383 158.1621 133.9498 160.9025 C 134.5614 163.6429 142.1115 177.6589 174.3269 177.6589 C 208.0952 177.6589 215.341 163.734 215.5371 161.0673 C 215.6614 159.361 215.6259 143.1167 215.6259 143.1167 L 133.6339 142.9673 Z" fill="#f2b800"/>				<path id="Ellipse26" d="M 133.2557 142.871 C 133.2557 132.8121 151.6649 124.6575 174.3749 124.6575 C 197.0847 124.6575 215.4944 132.8121 215.4944 142.871 C 215.4944 152.9304 197.0847 161.0848 174.3749 161.0848 C 151.6649 161.0848 133.2557 152.9304 133.2557 142.871 Z" fill="#f7e455"/>			</g>		</g>		<g>			<g>				<path d="M 135.6544 112.2259 C 135.6544 112.2259 135.3589 127.4208 135.9704 130.1613 C 136.582 132.9017 144.1321 146.9177 176.3475 146.9177 C 210.1158 146.9177 217.3616 132.9929 217.5578 130.326 C 217.6821 128.6198 217.6466 112.3752 217.6466 112.3752 L 135.6544 112.2259 Z" fill="#f2b800"/>				<path id="Ellipse27" d="M 135.2764 112.1295 C 135.2764 102.0709 153.6855 93.916 176.3953 93.916 C 199.1052 93.916 217.5151 102.0709 217.5151 112.1295 C 217.5151 122.1891 199.1052 130.3433 176.3953 130.3433 C 153.6855 130.3433 135.2764 122.1891 135.2764 112.1295 Z" fill="#f7e455"/>				<g>					<path d="M 186.2231 116.1199 C 187.9959 115.8961 189.3785 115.631 190.4065 115.3304 C 191.4348 115.0303 192.1259 114.7043 192.5164 114.353 C 192.9059 114.0017 193.101 113.6605 193.101 113.3296 C 193.101 112.6475 192.5164 112.0873 191.3459 111.6545 C 190.1761 111.2268 188.7225 110.8755 186.95 110.6059 C 185.1769 110.3412 183.2451 110.1321 181.1889 109.9795 C 179.1151 109.8269 177.2009 109.6841 175.4278 109.547 C 173.6551 109.4092 172.184 109.2514 171.0142 109.0785 C 169.8438 108.9053 169.2767 108.6658 169.2767 108.3605 C 169.2767 107.7595 172.0068 107.4594 177.4663 107.4594 C 180.9584 107.4594 185.1417 107.785 190.0345 108.4368 L 190.832 106.1559 C 189.733 105.9421 188.1199 105.7383 185.9929 105.5449 C 183.8655 105.3515 181.6672 105.2292 179.4342 105.1782 L 180.6213 102.8975 L 172.6805 102.8975 L 173.8678 105.1782 C 171.4749 105.2496 169.4183 105.3821 167.6991 105.5806 C 165.9793 105.7839 164.5615 106.0336 163.4448 106.3339 C 162.3101 106.6345 161.4951 106.9705 160.9806 107.3423 C 160.4485 107.7141 160.2011 108.0905 160.2011 108.4726 C 160.2011 109.0527 160.7858 109.5262 161.9733 109.893 C 163.1613 110.2646 164.6323 110.5702 166.405 110.8096 C 168.16 111.0538 170.0566 111.2574 172.1128 111.4205 C 174.1514 111.5833 176.0482 111.7462 177.8207 111.9091 C 179.5754 112.072 181.0472 112.2555 182.2348 112.459 C 183.4227 112.6627 184.025 112.9327 184.025 113.2686 C 184.025 113.9611 181.5076 114.3023 176.4913 114.3023 C 170.5178 114.3023 165.891 113.8694 162.5936 112.9988 L 161.3353 115.6056 C 163.9943 116.1603 168.1777 116.4865 173.8678 116.583 L 172.6805 118.8639 L 180.6213 118.8639 L 179.4342 116.5628 C 182.1992 116.4966 184.4505 116.3492 186.2231 116.1199 L 186.2231 116.1199 Z" fill="#f2b800"/>				</g>			</g>			<g>				<path d="M 129.192 91.7686 C 129.192 91.7686 128.8966 106.9635 129.5082 109.7039 C 130.1196 112.4443 137.6697 126.4603 169.8853 126.4603 C 203.6534 126.4603 210.8994 112.5354 211.0949 109.8688 C 211.2197 108.1624 211.1842 91.9182 211.1842 91.9182 L 129.192 91.7686 Z" fill="#f2b800"/>				<path id="Ellipse28" d="M 128.8138 91.6722 C 128.8138 81.6134 147.2232 73.4588 169.9335 73.4588 C 192.6431 73.4588 211.0526 81.6134 211.0526 91.6722 C 211.0526 101.7319 192.6431 109.8861 169.9335 109.8861 C 147.2232 109.8861 128.8138 101.7319 128.8138 91.6722 Z" fill="#f7e455"/>			</g>		</g>		<path d="M 217.2239 254.2927 C 223.1853 256.6804 221.2001 273.5711 221.2001 273.5711 C 221.2001 273.5711 235.1279 279.3498 233.9265 284.4866 C 232.4818 290.664 217.6691 292.3365 217.6691 292.3365 C 217.6691 292.3365 217.5907 307.7278 212.6292 308.9291 C 207.8773 310.0792 199.7634 296.8502 199.7634 296.8502 C 199.7634 296.8502 185.859 299.0978 183.3845 295.8125 C 180.9031 292.5179 191.2422 279.5502 191.2422 279.5502 C 191.2422 279.5502 182.296 266.2131 185.5734 262.2402 C 188.5358 258.649 201.984 265.3841 201.984 265.3841 C 201.984 265.3841 211.1522 251.8606 217.2239 254.2927 Z" fill="#f2b800"/>		<path d="M 169.6802 78.0005 C 176.1937 77.928 180.9592 85.4282 180.9592 85.4282 C 180.9592 85.4282 196.0773 85.3141 196.9412 87.6813 C 197.9772 90.5198 184.9797 93.924 184.9797 93.924 C 184.9797 93.924 190.8361 100.3137 186.7408 101.7208 C 182.8142 103.0696 170.1725 99.0938 170.1725 99.0938 C 170.1725 99.0938 158.1389 102.5998 154.5288 101.694 C 150.8983 100.7831 155.395 93.4446 155.395 93.4446 C 155.395 93.4446 141.6277 89.4785 143.1119 87.1894 C 144.4547 85.1179 159.8094 85.4966 159.8094 85.4966 C 159.8094 85.4966 163.0224 78.0745 169.6802 78.0005 Z" fill="#f2b800"/>		<path d="M 210.6802 53.0005 C 217.1937 52.928 221.9592 60.4282 221.9592 60.4282 C 221.9592 60.4282 237.0774 60.3141 237.9412 62.6813 C 238.9772 65.5198 225.9797 68.924 225.9797 68.924 C 225.9797 68.924 231.8361 75.3137 227.7408 76.7208 C 223.8142 78.0696 211.1725 74.0938 211.1725 74.0938 C 211.1725 74.0938 199.1389 77.5998 195.5288 76.694 C 191.8983 75.7831 196.395 68.4446 196.395 68.4446 C 196.395 68.4446 182.6277 64.4785 184.1119 62.1894 C 185.4547 60.1179 200.8094 60.4966 200.8094 60.4966 C 200.8094 60.4966 204.0224 53.0745 210.6802 53.0005 Z" fill="#f2b800"/>		<path d="M 246.6802 92.0005 C 253.1937 91.928 257.9592 99.4282 257.9592 99.4282 C 257.9592 99.4282 273.0774 99.3141 273.9412 101.6813 C 274.9772 104.5198 261.9797 107.924 261.9797 107.924 C 261.9797 107.924 267.8361 114.3137 263.7407 115.7208 C 259.8142 117.0696 247.1725 113.0938 247.1725 113.0938 C 247.1725 113.0938 235.1389 116.5998 231.5288 115.694 C 227.8983 114.7831 232.395 107.4446 232.395 107.4446 C 232.395 107.4446 218.6277 103.4785 220.1119 101.1894 C 221.4547 99.1179 236.8094 99.4966 236.8094 99.4966 C 236.8094 99.4966 240.0225 92.0745 246.6802 92.0005 Z" fill="#f2b800"/>		<path d="M 115.6802 107.0005 C 122.1937 106.928 126.9592 114.4282 126.9592 114.4282 C 126.9592 114.4282 142.0773 114.3141 142.9412 116.6813 C 143.9772 119.5198 130.9797 122.924 130.9797 122.924 C 130.9797 122.924 136.8361 129.3137 132.7408 130.7208 C 128.8142 132.0696 116.1725 128.0938 116.1725 128.0938 C 116.1725 128.0938 104.1389 131.5998 100.5288 130.694 C 96.8983 129.7831 101.395 122.4446 101.395 122.4446 C 101.395 122.4446 87.6277 118.4785 89.1119 116.1894 C 90.4547 114.1179 105.8094 114.4966 105.8094 114.4966 C 105.8094 114.4966 109.0224 107.0745 115.6802 107.0005 Z" fill="#f2b800"/>		<path d="M 39.6802 201.0005 C 33.0224 201.0745 29.8094 208.4966 29.8094 208.4966 C 29.8094 208.4966 14.4547 208.1179 13.1119 210.1894 C 11.6277 212.4785 25.395 216.4446 25.395 216.4446 C 25.395 216.4446 20.8983 223.7831 24.5288 224.694 C 28.1389 225.5998 40.1725 222.0938 40.1725 222.0938 C 40.1725 222.0938 43.8729 223.2554 47.89 224.11 L 43.635 201.865 C 42.4192 201.3237 41.0905 200.9848 39.6802 201.0005 Z" fill="#f2b800"/>		<path d="M 86.74 145.115 C 83.5125 146.9868 81.9417 150.5596 81.9417 150.5596 C 81.9417 150.5596 68.293 150.2282 67.0995 152.0408 C 65.7802 154.0437 78.0178 157.5141 78.0178 157.5141 C 78.0178 157.5141 74.0208 163.9352 77.2478 164.7322 C 79.6035 165.3141 85.9929 163.8181 89.225 162.98 C 87.872 161.2335 87.266 159.7985 87.1099 159.0994 C 86.6997 157.2606 86.6968 149.8157 86.74 145.115 Z" fill="#f2b800"/>	</g></svg>