<?xml version="1.0" encoding="UTF-8" standalone="no"?>
<!DOCTYPE svg PUBLIC "-//W3C//DTD SVG 1.1//EN" "http://www.w3.org/Graphics/SVG/1.1/DTD/svg11.dtd">
<svg width="100%" height="100%" viewBox="0 0 678 678" version="1.1" xmlns="http://www.w3.org/2000/svg" xmlns:xlink="http://www.w3.org/1999/xlink" xml:space="preserve" style="fill-rule:evenodd;clip-rule:evenodd;stroke-linejoin:round;stroke-miterlimit:1.41421;">
    <g transform="matrix(1,0,0,1,-61,-63)">
        <g id="PlayIcon" transform="matrix(21.3335,0,0,21.3335,-82.9962,-83.3917)">
            <g transform="matrix(1.06376,0,0,1.06376,-347.131,-145.893)">
                <path d="M362.512,151.082C362.512,146.969 359.173,143.63 355.061,143.63L340.157,143.63C336.044,143.63 332.705,146.969 332.705,151.082L332.705,165.985C332.705,170.098 336.044,173.437 340.157,173.437L355.061,173.437C359.173,173.437 362.512,170.098 362.512,165.985L362.512,151.082Z" style="fill:rgb(254,206,108);"/>
            </g>
            <g transform="matrix(8.52806e-17,1.39274,-1.1154,6.82987e-17,199.97,-790.851)">
                <path d="M582.996,153.028C583.259,152.504 583.719,152.185 584.214,152.185C584.71,152.185 585.17,152.504 585.433,153.028C586.574,155.311 588.277,158.718 589.466,161.095C589.742,161.648 589.757,162.344 589.503,162.914C589.25,163.484 588.77,163.837 588.248,163.837C585.917,163.837 582.511,163.837 580.181,163.837C579.659,163.837 579.179,163.484 578.925,162.914C578.672,162.344 578.687,161.648 578.963,161.095C580.152,158.718 581.855,155.311 582.996,153.028Z" style="fill:white;"/>
            </g>
        </g>
    </g>
</svg>
