<?xml version="1.0" encoding="UTF-8" standalone="no"?>
<!DOCTYPE svg PUBLIC "-//W3C//DTD SVG 1.1//EN" "http://www.w3.org/Graphics/SVG/1.1/DTD/svg11.dtd">
<svg width="100%" height="100%" viewBox="0 0 698 782" version="1.1" xmlns="http://www.w3.org/2000/svg" xmlns:xlink="http://www.w3.org/1999/xlink" xml:space="preserve" style="fill-rule:evenodd;clip-rule:evenodd;stroke-linejoin:round;stroke-miterlimit:1.41421;">
    <g transform="matrix(1,0,0,1,-51,-11)">
        <g id="TV" transform="matrix(18.0247,0,0,18.0247,-8733.58,-2441.72)">
            <g transform="matrix(1,0,0,1,-1.21934,4.06445)">
                <ellipse cx="507.944" cy="144.286" rx="6.608" ry="6.176" style="fill:white;"/>
            </g>
            <g transform="matrix(1,0,0,1,-0.595287,4.06445)">
                <g transform="matrix(0.707107,0.707107,-0.707107,0.707107,249.462,-317.757)">
                    <path d="M508.104,129.55C508.104,129.195 507.816,128.907 507.461,128.907C507.107,128.907 506.818,129.195 506.818,129.55L506.818,145.927C506.818,146.282 507.107,146.57 507.461,146.57C507.816,146.57 508.104,146.282 508.104,145.927L508.104,129.55Z" style="fill:white;"/>
                </g>
                <g transform="matrix(-0.707107,0.707107,0.707107,0.707107,765.179,-317.757)">
                    <path d="M508.104,129.55C508.104,129.195 507.816,128.907 507.461,128.907C507.107,128.907 506.818,129.195 506.818,129.55L506.818,145.927C506.818,146.282 507.107,146.57 507.461,146.57C507.816,146.57 508.104,146.282 508.104,145.927L508.104,129.55Z" style="fill:white;"/>
                </g>
            </g>
            <g transform="matrix(1,0,0,1,-1.25862,4.06445)">
                <g transform="matrix(1,0,0,1,-4.26156,0)">
                    <path d="M502.603,167.719C502.603,167.135 502.128,166.661 501.544,166.661L499.427,166.661C498.843,166.661 498.369,167.135 498.369,167.719L498.369,174.302C498.369,174.886 498.843,175.36 499.427,175.36L501.544,175.36C502.128,175.36 502.603,174.886 502.603,174.302L502.603,167.719Z" style="fill:white;"/>
                </g>
                <g transform="matrix(1,0,0,1,19.2577,0)">
                    <path d="M502.603,167.719C502.603,167.135 502.128,166.661 501.544,166.661L499.427,166.661C498.843,166.661 498.369,167.135 498.369,167.719L498.369,174.302C498.369,174.886 498.843,175.36 499.427,175.36L501.544,175.36C502.128,175.36 502.603,174.886 502.603,174.302L502.603,167.719Z" style="fill:white;"/>
                </g>
            </g>
            <g transform="matrix(0.444035,0,0,0.373216,269.603,65.5676)">
                <path d="M577.611,218.992C577.611,214.882 574.806,211.545 571.351,211.545L496.684,211.545C493.23,211.545 490.425,214.882 490.425,218.992L490.425,291.284C490.425,295.394 493.23,298.731 496.684,298.731L571.351,298.731C574.806,298.731 577.611,295.394 577.611,291.284L577.611,218.992Z" style="fill:white;"/>
            </g>
            <g transform="matrix(0.359364,0,0,0.287312,314.818,87.4851)">
                <path d="M577.611,218.992C577.611,214.882 574.943,211.545 571.657,211.545L496.379,211.545C493.093,211.545 490.425,214.882 490.425,218.992L490.425,291.284C490.425,295.394 493.093,298.731 496.379,298.731L571.657,298.731C574.943,298.731 577.611,295.394 577.611,291.284L577.611,218.992Z" style="fill:rgb(100,112,131);"/>
            </g>
            <g transform="matrix(7.46688e-17,1.21943,-0.976609,5.98001e-17,661.849,-551.622)">
                <path d="M583.043,152.936C583.295,152.431 583.738,152.124 584.214,152.124C584.691,152.124 585.134,152.431 585.386,152.936C586.544,155.251 588.312,158.786 589.518,161.199C589.784,161.731 589.798,162.401 589.554,162.949C589.311,163.497 588.848,163.837 588.346,163.837C585.982,163.837 582.447,163.837 580.083,163.837C579.581,163.837 579.118,163.497 578.875,162.949C578.631,162.401 578.645,161.731 578.911,161.199C580.117,158.786 581.885,155.251 583.043,152.936Z" style="fill:rgb(138,231,214);fill-opacity:0.862745;"/>
            </g>
        </g>
    </g>
</svg>
