<?xml version="1.0" encoding="UTF-8" standalone="no"?>
<!DOCTYPE svg PUBLIC "-//W3C//DTD SVG 1.1//EN" "http://www.w3.org/Graphics/SVG/1.1/DTD/svg11.dtd">
<svg width="100%" height="100%" viewBox="0 0 764 550" version="1.1" xmlns="http://www.w3.org/2000/svg" xmlns:xlink="http://www.w3.org/1999/xlink" xml:space="preserve" style="fill-rule:evenodd;clip-rule:evenodd;stroke-linejoin:round;stroke-miterlimit:1.41421;">
    <g transform="matrix(1,0,0,1,-18,-127)">
        <g id="VideoCamera-Colors" transform="matrix(31.3656,0,0,31.3656,-15577.6,-4533.09)">
            <g transform="matrix(1,0,0,1,1.64453,-0.665365)">
                <g transform="matrix(-7.43346e-17,1.21398,0.859655,5.26387e-17,379.062,-550.472)">
                    <path d="M583.93,151.16C583.996,151.03 584.101,150.952 584.214,150.952C584.327,150.952 584.433,151.03 584.499,151.16C585.465,153.094 588.648,159.459 590.101,162.366C590.244,162.651 590.262,163.024 590.148,163.334C590.035,163.643 589.808,163.837 589.562,163.837C587.03,163.837 581.399,163.837 578.867,163.837C578.62,163.837 578.394,163.643 578.281,163.334C578.167,163.024 578.185,162.651 578.327,162.366C579.781,159.459 582.964,153.094 583.93,151.16Z" style="fill:white;"/>
                </g>
                <g transform="matrix(0.729534,0,0,0.729534,139.105,43.6095)">
                    <path d="M502.45,146.089C502.45,145.386 501.88,144.816 501.178,144.816C500.475,144.816 499.905,145.386 499.905,146.089L499.905,151.646C499.905,152.348 500.475,152.919 501.178,152.919C501.88,152.919 502.45,152.348 502.45,151.646L502.45,146.089Z" style="fill:rgb(100,112,131);"/>
                </g>
                <g transform="matrix(0.2111,0,0,0.2111,394.503,119.352)">
                    <path d="M554.189,167.571C554.189,157.184 545.756,148.75 535.368,148.75L497.725,148.75C487.337,148.75 478.903,157.184 478.903,167.571L478.903,205.7C478.903,216.088 487.337,224.522 497.725,224.522L535.368,224.522C545.756,224.522 554.189,216.088 554.189,205.7L554.189,167.571Z" style="fill:rgb(94,204,207);"/>
                </g>
                <g transform="matrix(0.729534,0,0,0.706702,137.661,43.2839)">
                    <path d="M507.351,169.217C507.351,168.511 506.796,167.938 506.112,167.938L498.651,167.938C497.967,167.938 497.412,168.511 497.412,169.217L497.412,169.28C497.412,169.986 497.967,170.559 498.651,170.559L506.112,170.559C506.796,170.559 507.351,169.986 507.351,169.28L507.351,169.217Z" style="fill:rgb(100,112,131);"/>
                </g>
                <g transform="matrix(0.729534,0,0,0.729534,139.786,43.3129)">
                    <path d="M521.044,158.372L521.044,167.133C521.044,167.543 520.815,167.92 520.45,168.109C520.085,168.298 519.646,168.268 519.31,168.031C515.885,165.612 508.384,160.316 506.106,158.707C505.99,158.626 505.91,158.506 505.877,158.372L521.044,158.372Z" style="fill:rgb(228,228,228);"/>
                </g>
            </g>
            <g transform="matrix(0.729534,0,0,0.729534,139.331,43.4583)">
                <rect x="508.539" y="152.279" width="6.587" height="9.688" style="fill:rgb(94,204,207);"/>
            </g>
            <g transform="matrix(0.827606,0,0,0.827606,91.3123,27.0565)">
                <circle cx="505.231" cy="153.301" r="1.811" style="fill:rgb(255,108,139);"/>
            </g>
        </g>
    </g>
</svg>
