<?xml version="1.0" encoding="UTF-8" standalone="no"?>
<!DOCTYPE svg PUBLIC "-//W3C//DTD SVG 1.1//EN" "http://www.w3.org/Graphics/SVG/1.1/DTD/svg11.dtd">
<svg width="100%" height="100%" viewBox="0 0 730 514" version="1.1" xmlns="http://www.w3.org/2000/svg" xmlns:xlink="http://www.w3.org/1999/xlink" xml:space="preserve" style="fill-rule:evenodd;clip-rule:evenodd;stroke-linejoin:round;stroke-miterlimit:1.41421;">
    <g transform="matrix(1,0,0,1,-35,-145)">
        <g id="VideoCamera-White" transform="matrix(23.399,0,0,23.399,-9609.07,-3317.14)">
            <g transform="matrix(-1.01893e-16,1.66404,1.17836,7.21538e-17,250.271,-813.217)">
                <g>
                    <g>
                        <path d="M583.93,151.16C583.996,151.03 584.101,150.952 584.214,150.952C584.327,150.952 584.433,151.03 584.499,151.16C585.465,153.094 588.648,159.459 590.101,162.366C590.244,162.651 590.262,163.024 590.148,163.334C590.035,163.643 589.808,163.837 589.562,163.837C587.03,163.837 581.399,163.837 578.867,163.837C578.62,163.837 578.394,163.643 578.281,163.334C578.167,163.024 578.185,162.651 578.327,162.366C579.781,159.459 582.964,153.094 583.93,151.16Z" style="fill:white;"/>
                    </g>
                </g>
            </g>
            <path d="M428.52,147.977C431.526,147.978 433.966,150.418 433.966,153.424L433.966,164.457C433.966,167.463 431.526,169.903 428.52,169.903L417.627,169.903C414.621,169.903 412.181,167.463 412.181,164.457L412.181,153.424C412.181,150.418 414.621,147.978 417.627,147.977L428.52,147.977ZM426.707,151.694C427.616,151.694 428.353,152.432 428.353,153.34C428.353,154.249 427.616,154.987 426.707,154.987C425.798,154.987 425.061,154.249 425.061,153.34C425.061,152.432 425.798,151.694 426.707,151.694Z" style="fill:white;"/>
        </g>
    </g>
</svg>
