<?xml version="1.0" encoding="UTF-8" standalone="no"?>
<!DOCTYPE svg PUBLIC "-//W3C//DTD SVG 1.1//EN" "http://www.w3.org/Graphics/SVG/1.1/DTD/svg11.dtd">
<svg width="100%" height="100%" viewBox="0 0 800 804" version="1.1" xmlns="http://www.w3.org/2000/svg" xmlns:xlink="http://www.w3.org/1999/xlink" xml:space="preserve" style="fill-rule:evenodd;clip-rule:evenodd;stroke-linejoin:round;stroke-miterlimit:1.41421;">
    <g id="WatchVideoCoins-Dark" transform="matrix(17.6676,0,0,17.6676,3.76608e-13,5.02144e-13)">
        <g transform="matrix(6.12323e-17,1,-1,6.12323e-17,175.676,-640.148)">
            <g transform="matrix(0.231948,0,0,0.231948,539.828,-95.5817)">
                <path d="M628.66,1034.93C628.66,1021.82 618.021,1011.18 604.916,1011.18L492.839,1011.18C479.734,1011.18 469.095,1021.82 469.095,1034.93L469.095,1145.73C469.095,1158.84 479.734,1169.48 492.839,1169.48L604.916,1169.48C618.021,1169.48 628.66,1158.84 628.66,1145.73L628.66,1034.93Z" style="fill:white;"/>
            </g>
            <g transform="matrix(0.231948,0,0,0.231948,539.964,-95.5817)">
                <path d="M489.22,1033.85C489.22,1032.22 487.896,1030.89 486.266,1030.89L480.357,1030.89C478.727,1030.89 477.403,1032.22 477.403,1033.85L477.403,1040.22C477.403,1041.85 478.727,1043.17 480.357,1043.17L486.266,1043.17C487.896,1043.17 489.22,1041.85 489.22,1040.22L489.22,1033.85Z" style="fill:rgb(100,112,131);"/>
                <g transform="matrix(1,0,0,1,0,27.1083)">
                    <path d="M489.22,1033.85C489.22,1032.22 487.896,1030.89 486.266,1030.89L480.357,1030.89C478.727,1030.89 477.403,1032.22 477.403,1033.85L477.403,1040.22C477.403,1041.85 478.727,1043.17 480.357,1043.17L486.266,1043.17C487.896,1043.17 489.22,1041.85 489.22,1040.22L489.22,1033.85Z" style="fill:rgb(100,112,131);"/>
                </g>
                <g transform="matrix(1,0,0,1,0,54.2165)">
                    <path d="M489.22,1033.85C489.22,1032.22 487.896,1030.89 486.266,1030.89L480.357,1030.89C478.727,1030.89 477.403,1032.22 477.403,1033.85L477.403,1040.22C477.403,1041.85 478.727,1043.17 480.357,1043.17L486.266,1043.17C487.896,1043.17 489.22,1041.85 489.22,1040.22L489.22,1033.85Z" style="fill:rgb(100,112,131);"/>
                </g>
                <g transform="matrix(1,0,0,1,0,81.3248)">
                    <path d="M489.22,1033.85C489.22,1032.22 487.896,1030.89 486.266,1030.89L480.357,1030.89C478.727,1030.89 477.403,1032.22 477.403,1033.85L477.403,1040.22C477.403,1041.85 478.727,1043.17 480.357,1043.17L486.266,1043.17C487.896,1043.17 489.22,1041.85 489.22,1040.22L489.22,1033.85Z" style="fill:rgb(100,112,131);"/>
                </g>
                <g transform="matrix(1,0,0,1,0,108.433)">
                    <path d="M489.22,1033.85C489.22,1032.22 487.896,1030.89 486.266,1030.89L480.357,1030.89C478.727,1030.89 477.403,1032.22 477.403,1033.85L477.403,1040.22C477.403,1041.85 478.727,1043.17 480.357,1043.17L486.266,1043.17C487.896,1043.17 489.22,1041.85 489.22,1040.22L489.22,1033.85Z" style="fill:rgb(100,112,131);"/>
                </g>
            </g>
            <g transform="matrix(0.231948,0,0,0.231948,570.084,-95.5817)">
                <path d="M489.22,1033.85C489.22,1032.22 487.896,1030.89 486.266,1030.89L480.357,1030.89C478.727,1030.89 477.403,1032.22 477.403,1033.85L477.403,1040.22C477.403,1041.85 478.727,1043.17 480.357,1043.17L486.266,1043.17C487.896,1043.17 489.22,1041.85 489.22,1040.22L489.22,1033.85Z" style="fill:rgb(100,112,131);"/>
                <g transform="matrix(1,0,0,1,0,27.1083)">
                    <path d="M489.22,1033.85C489.22,1032.22 487.896,1030.89 486.266,1030.89L480.357,1030.89C478.727,1030.89 477.403,1032.22 477.403,1033.85L477.403,1040.22C477.403,1041.85 478.727,1043.17 480.357,1043.17L486.266,1043.17C487.896,1043.17 489.22,1041.85 489.22,1040.22L489.22,1033.85Z" style="fill:rgb(100,112,131);"/>
                </g>
                <g transform="matrix(1,0,0,1,0,54.2165)">
                    <path d="M489.22,1033.85C489.22,1032.22 487.896,1030.89 486.266,1030.89L480.357,1030.89C478.727,1030.89 477.403,1032.22 477.403,1033.85L477.403,1040.22C477.403,1041.85 478.727,1043.17 480.357,1043.17L486.266,1043.17C487.896,1043.17 489.22,1041.85 489.22,1040.22L489.22,1033.85Z" style="fill:rgb(100,112,131);"/>
                </g>
                <g transform="matrix(1,0,0,1,0,81.3248)">
                    <path d="M489.22,1033.85C489.22,1032.22 487.896,1030.89 486.266,1030.89L480.357,1030.89C478.727,1030.89 477.403,1032.22 477.403,1033.85L477.403,1040.22C477.403,1041.85 478.727,1043.17 480.357,1043.17L486.266,1043.17C487.896,1043.17 489.22,1041.85 489.22,1040.22L489.22,1033.85Z" style="fill:rgb(100,112,131);"/>
                </g>
                <g transform="matrix(1,0,0,1,0,108.433)">
                    <path d="M489.22,1033.85C489.22,1032.22 487.896,1030.89 486.266,1030.89L480.357,1030.89C478.727,1030.89 477.403,1032.22 477.403,1033.85L477.403,1040.22C477.403,1041.85 478.727,1043.17 480.357,1043.17L486.266,1043.17C487.896,1043.17 489.22,1041.85 489.22,1040.22L489.22,1033.85Z" style="fill:rgb(100,112,131);"/>
                </g>
            </g>
            <g transform="matrix(0.216597,2.66976e-33,-2.27963e-33,0.179286,548.01,-40.1553)">
                <rect x="497.739" y="1006.73" width="104.527" height="189.42" style="fill:rgb(100,112,131);"/>
            </g>
            <g id="PlayIcon" transform="matrix(1.23246,-2.46519e-32,-1.2326e-32,0.987042,-52.8829,0.503406)">
                <path d="M583.043,152.936C583.295,152.431 583.738,152.124 584.214,152.124C584.691,152.124 585.134,152.431 585.386,152.936C586.544,155.251 588.312,158.786 589.518,161.199C589.784,161.731 589.798,162.401 589.554,162.949C589.311,163.497 588.848,163.837 588.346,163.837C585.982,163.837 582.447,163.837 580.083,163.837C579.581,163.837 579.118,163.497 578.875,162.949C578.631,162.401 578.645,161.731 578.911,161.199C580.117,158.786 581.885,155.251 583.043,152.936Z" style="fill:rgb(138,231,214);"/>
            </g>
        </g>
        <g id="Coin" transform="matrix(0.0767037,0,0,0.0767037,-13.1197,0)">
            <g id="Ellipse" transform="matrix(1,0,0,1,458.374,0)">
                <path d="M0,151.5C0,67.828 67.828,0 151.5,0C235.172,0 303,67.828 303,151.5C303,235.172 235.172,303 151.5,303C67.828,303 0,235.172 0,151.5Z" style="fill:rgb(253,238,104);fill-rule:nonzero;"/>
            </g>
            <g transform="matrix(0.924721,0,0,0.924721,459.997,5.26162)">
                <path d="M162.067,60.765C178.601,60.014 197.055,113.385 197.055,113.385C197.055,113.385 252.139,112.286 255.291,128.496C258.443,144.706 216.661,176.259 216.661,176.259C216.661,176.259 232.606,228.997 219.682,238.087C206.759,247.178 162.067,211.359 162.067,211.359C162.067,211.359 117.775,246.027 104.452,238.087C91.128,230.147 107.601,177.452 107.601,177.452C107.601,177.452 66.166,145.089 68.843,128.496C71.521,111.903 124.017,113.511 124.017,113.511C124.017,113.511 145.533,61.516 162.067,60.765Z" style="fill:rgb(242,184,0);"/>
            </g>
        </g>
    </g>
</svg>
