<?xml version="1.0" standalone="no"?><!-- Generator: Adobe Fireworks CS6, Export SVG Extension by Aaron Beall (http://fireworks.abeall.com) . Version: 0.6.1  --><!DOCTYPE svg PUBLIC "-//W3C//DTD SVG 1.1//EN" "http://www.w3.org/Graphics/SVG/1.1/DTD/svg11.dtd"><svg id="Untitled-Page%201" viewBox="0 0 749 1083" style="background-color:#ffffff00" version="1.1"	xmlns="http://www.w3.org/2000/svg" xmlns:xlink="http://www.w3.org/1999/xlink" xml:space="preserve"	x="0px" y="0px" width="749px" height="1083px">	<g id="Bomb">		<path id="Ellipse" d="M 0.7719 720.5685 C 0.7719 520.4615 161.7852 358.2457 360.4069 358.2457 C 559.0279 358.2457 720.0413 520.4615 720.0413 720.5685 C 720.0413 920.6773 559.0279 1082.894 360.4069 1082.894 C 161.7852 1082.894 0.7719 920.6773 0.7719 720.5685 Z" fill="#434343"/>		<path opacity="0.3804" d="M 2.4032 755.4006 C 19.8016 939.1675 173.4452 1082.894 360.4069 1082.894 C 559.0279 1082.894 720.0413 920.6773 720.0413 720.5685 C 720.0413 677.8412 712.7084 636.8415 699.2299 598.7794 C 700.315 610.2433 700.8598 621.8629 700.8598 633.6133 C 700.8598 833.7202 539.8488 995.9349 341.2236 995.9349 C 185.0131 995.9349 52.0545 895.5984 2.4032 755.4006 Z" fill="#2c2c2c"/>		<path d="M 522.9697 359.0606 C 522.9697 359.0606 500.2424 281.7879 547.951 229.606 C 576.3829 198.5083 619.3586 215.7865 629.9705 203.5106 C 640.5887 191.2216 636.5461 129.7508 578.3487 149.2529 C 518.1511 169.4259 454.0753 217.4103 454.0811 312.4726 C 454.0889 400.6942 522.9697 359.0606 522.9697 359.0606 Z" fill="#d88d40"/>		<path id="Ellipse2" d="M 163.8058 570.8085 C 163.8058 528.1192 198.1552 493.5132 240.5271 493.5132 C 282.9027 493.5132 317.2499 528.1192 317.2499 570.8085 C 317.2499 613.4984 282.9027 648.1042 240.5271 648.1042 C 198.1552 648.1042 163.8058 613.4984 163.8058 570.8085 Z" fill="#5d5d5d"/>		<rect x="324.1748" y="283.0325" width="287.6617" height="172.1215" fill="#434343" rx="86.0608" ry="86.0608"/>		<path id="Line" d="M 748.8105 165.0074 L 692.7441 179.8705 " fill="none"/>		<path id="Line2" d="M 703.5346 223.35 L 710.7271 252.3353 " fill="none"/>		<path id="Line3" d="M 654.6591 267.1997 L 679.4655 306.9631 " fill="none"/>		<path id="Line4" d="M 650.3267 129.3307 L 671.1664 92.9128 " fill="none"/>		<path id="Line5" d="M 618.6946 122.2715 L 607.9084 78.7913 " fill="none"/>		<path id="Line6" d="M 580.2443 147.9121 L 545.0195 126.3577 " fill="none"/>		<g>			<path d="M 655.7288 41.5336 L 676.2422 51.6611 L 636.6913 111.2847 L 625.0743 101.3505 L 655.7288 41.5336 Z" fill="#ffcc33"/>			<path d="M 734.7984 108.2426 L 739.7516 126.0069 L 669.7512 156.2948 L 664.5741 138.8633 L 734.7984 108.2426 Z" fill="#ffcc33"/>			<path d="M 679.9801 190.739 L 729.2674 227.1299 L 716.9736 250.9716 L 667.9529 214.9774 L 679.9801 190.739 Z" fill="#ffcc33"/>			<path d="M 639.5896 247.4657 L 659.9813 313.1446 L 643.3958 319.8713 L 622.8019 254.4874 L 639.5896 247.4657 Z" fill="#ffcc33"/>			<path d="M 560.3265 0.2661 L 542.8677 8.4411 L 571.4292 98.9572 L 588.6219 91.2204 L 560.3265 0.2661 Z" fill="#ffcc33"/>			<path d="M 521.0594 123.1429 L 459.1105 110.9189 L 448.54 135.8567 L 510.049 148.0201 L 521.0594 123.1429 Z" fill="#ffcc33"/>		</g>	</g></svg>