<?xml version="1.0" standalone="no"?><!-- Generator: Adobe Fireworks CS6, Export SVG Extension by Aaron Beall (http://fireworks.abeall.com) . Version: 0.6.1  --><!DOCTYPE svg PUBLIC "-//W3C//DTD SVG 1.1//EN" "http://www.w3.org/Graphics/SVG/1.1/DTD/svg11.dtd"><svg id="Untitled-Page%201" viewBox="0 0 830 714" style="background-color:#ffffff00" version="1.1"	xmlns="http://www.w3.org/2000/svg" xmlns:xlink="http://www.w3.org/1999/xlink" xml:space="preserve"	x="0px" y="0px" width="830px" height="714px">	<g id="Crown">		<g>			<path d="M 76.9595 496.2431 L 429.0868 0.7914 L 717.6934 490.4127 L 76.9595 496.2431 Z" fill="#da8633"/>			<path d="M 40.1971 14.4052 L 419.8925 394.3591 L 419.8925 652.7297 L 40.1971 652.7297 L 40.1971 14.4052 Z" fill="#f8ec59"/>			<path d="M 799.5865 14.4052 L 419.8925 394.3591 L 419.8925 652.7297 L 799.5865 652.7297 L 799.5865 14.4052 Z" fill="#f2dd2c"/>			<rect x="40.2234" y="515.9678" width="759.3899" height="197.5768" fill="#f8ec59" rx="98.7884" ry="98.7884"/>			<path d="M 419.8925 713.5201 L 700.8663 713.5201 C 755.3874 713.5201 799.5865 669.2908 799.5865 614.7338 C 799.5865 560.1728 755.3874 515.9435 700.8663 515.9435 L 419.8925 515.9435 L 419.8925 713.5201 Z" fill="#f2dd2c"/>			<path id="Ellipse" d="M 693.2714 438.5315 C 693.2714 400.759 723.8705 370.1396 761.618 370.1396 C 799.3651 370.1396 829.9617 400.759 829.9617 438.5315 C 829.9617 476.304 799.3651 506.922 761.618 506.922 C 723.8705 506.922 693.2714 476.304 693.2714 438.5315 Z" fill="#50a7b8"/>			<path id="Ellipse2" d="M 361.9782 547.7656 C 361.9782 509.9907 392.5775 479.3725 430.3248 479.3725 C 468.0684 479.3725 498.6672 509.9907 498.6672 547.7656 C 498.6672 585.5367 468.0684 616.1562 430.3248 616.1562 C 392.5775 616.1562 361.9782 585.5367 361.9782 547.7656 Z" fill="#50a7b8"/>			<path id="Ellipse3" d="M 0.8099 432.355 C 0.8099 394.5827 31.4088 363.9631 69.1549 363.9631 C 106.8998 363.9631 137.4999 394.5827 137.4999 432.355 C 137.4999 470.1275 106.8998 500.7468 69.1549 500.7468 C 31.4088 500.7468 0.8099 470.1275 0.8099 432.355 Z" fill="#50a7b8"/>		</g>	</g></svg>