<?xml version="1.0" standalone="no"?><!-- Generator: Adobe Fireworks CS6, Export SVG Extension by Aaron Beall (http://fireworks.abeall.com) . Version: 0.6.1  --><!DOCTYPE svg PUBLIC "-//W3C//DTD SVG 1.1//EN" "http://www.w3.org/Graphics/SVG/1.1/DTD/svg11.dtd"><svg id="Untitled-Page%201" viewBox="0 0 1077 1131" style="background-color:#ffffff00" version="1.1"	xmlns="http://www.w3.org/2000/svg" xmlns:xlink="http://www.w3.org/1999/xlink" xml:space="preserve"	x="0px" y="0px" width="1077px" height="1131px">	<g id="Cup">		<g>			<g>				<path d="M 194.3397 932.0984 L 194.3397 1031.4558 C 194.3397 1086.3306 239.1662 1130.8181 294.4648 1130.8181 L 795.1202 1130.8181 C 850.4167 1130.8181 895.2559 1086.3306 895.2559 1031.4558 L 895.2559 932.0984 L 194.3397 932.0984 Z" fill="#88dabc"/>			</g>			<g>				<path id="Ellipse" d="M 935.1879 157.3847 C 940.1815 151.2149 965.7095 147.233 994.9452 148.9603 C 1028.0726 150.9236 1050.021 159.0822 1040.3405 166.4762 C 1031.2588 173.4232 998.7889 175.8793 970.5552 172.7022 C 945.3256 169.8677 930.442 163.2405 935.1879 157.3847 Z" fill="#ffffff"/>				<path d="M 265.512 162.0614 C 265.512 162.0614 58.7716 108.3319 21.0271 139.2122 C -37.2186 186.8793 31.8917 370.4692 173.1357 458.6548 C 314.3764 546.839 514.4207 506.1654 514.4207 506.1654 L 400.7069 402.6646 C 400.7069 402.6646 289.4807 413.5008 217.2656 372.4317 C 145.0587 331.3655 96.6044 236.3866 115.0156 226.2181 C 134.0607 215.7024 294.056 248.7563 294.056 248.7563 L 265.512 162.0614 Z" fill="#ffc675"/>				<g>					<path d="M 811.5549 162.0614 C 811.5549 162.0614 1018.2937 108.3319 1056.0427 139.2122 C 1114.2917 186.8793 1045.177 370.4692 903.9295 458.6548 C 762.6877 546.839 562.6523 506.1654 562.6523 506.1654 L 676.36 402.6646 C 676.36 402.6646 787.5941 413.5008 859.8059 372.4317 C 932.0111 331.3655 980.4594 236.3866 962.0596 226.2181 C 943.0059 215.7024 783.0142 248.7563 783.0142 248.7563 L 811.5549 162.0614 Z" fill="#f8a56f"/>				</g>				<path d="M 838.8895 0.6086 C 838.8895 0.6086 847.4884 531.3864 604.3394 639.9053 C 604.3394 639.9053 532.8748 658.0408 458.5438 633.9009 C 458.5438 633.9009 232.599 513.3015 238.2425 6.6202 L 238.2425 6.6202 " fill="#f8a56f"/>				<path d="M 544.7949 621.5992 L 543.5483 621.5992 L 494.7281 621.5992 C 494.7281 621.5992 524.5936 773.1215 444.7415 833.3803 C 364.8926 893.6405 303.0984 877.2033 242.0201 889.7852 C 180.9319 902.3559 194.3397 969.3613 194.3397 969.3613 L 543.5483 969.3613 L 544.7949 969.3613 L 894.0064 969.3613 C 894.0064 969.3613 907.4114 902.3559 846.3231 889.7852 C 785.2415 877.2033 723.4556 893.6405 643.5964 833.3803 C 563.7476 773.1215 593.6148 621.5992 593.6148 621.5992 L 544.7949 621.5992 Z" fill="#f8a56f"/>				<path d="M 544.7949 3.5214 L 238.2425 6.6202 C 232.599 513.3015 458.5438 633.9009 458.5438 633.9009 C 489.4263 643.9269 519.8228 646.6728 544.7949 646.4416 L 544.7949 3.5214 Z" fill="#ffc675"/>				<path d="M 544.7949 621.5992 L 543.5483 621.5992 L 494.7281 621.5992 C 494.7281 621.5992 524.5936 773.1215 444.7415 833.3803 C 364.8926 893.6405 303.0984 877.2033 242.0201 889.7852 C 180.9319 902.3559 194.3397 969.3613 194.3397 969.3613 L 543.5483 969.3613 L 544.7949 969.3613 L 544.7949 621.5992 Z" fill="#ffc675"/>				<g>					<path d="M 543.202 395.5206 L 544.7949 396.9861 L 544.7949 137.283 C 525.6095 138.4136 505.8026 164.0634 489.762 217.8752 L 489.4821 218.8508 L 486.6793 218.5257 C 384.3499 217.0442 358.977 257.9196 453.2151 326.3376 L 454.0418 326.9248 L 452.8824 329.5692 C 415.9286 427.5055 450.4824 466.848 542.4039 396.1473 L 543.202 395.5206 Z" fill="#ffffff"/>				</g>			</g>		</g>		<path opacity="0.8196" d="M 486.6793 218.5257 C 384.3499 217.0442 358.977 257.9196 453.2151 326.3376 L 454.0418 326.9248 C 453.6538 327.8031 453.2245 328.6578 452.8824 329.5692 C 415.9286 427.5055 450.4824 466.848 542.4039 396.1473 L 543.202 395.5206 C 543.8933 396.1726 544.5563 396.8626 545.2922 397.4861 C 624.7118 464.2684 671.5085 442.9315 634.082 330.8178 L 633.7452 329.8511 C 634.5605 329.3794 635.3971 328.9519 636.1997 328.4171 C 722.107 271.7068 716.6096 219.2291 601.5444 220.6378 L 600.5442 220.6575 C 600.355 219.7183 600.2089 218.7639 599.9658 217.8206 C 573.7429 115.9538 523.4379 104.8851 489.762 217.8752 L 489.4821 218.8508 C 488.5555 218.736 487.6207 218.6319 486.6793 218.5257 L 486.6793 218.5257 Z" fill="#bf7342"/>	</g></svg>