<?xml version="1.0" standalone="no"?><!-- Generator: Adobe Fireworks CS6, Export SVG Extension by Aaron Beall (http://fireworks.abeall.com) . Version: 0.6.1  --><!DOCTYPE svg PUBLIC "-//W3C//DTD SVG 1.1//EN" "http://www.w3.org/Graphics/SVG/1.1/DTD/svg11.dtd"><svg id="Untitled-Page%201" viewBox="0 0 997 1113" style="background-color:#ffffff00" version="1.1"	xmlns="http://www.w3.org/2000/svg" xmlns:xlink="http://www.w3.org/1999/xlink" xml:space="preserve"	x="0px" y="0px" width="997px" height="1113px">	<defs>			<clipPath id="mask1">				<path d="M 104.9705 592.3502 C 104.9705 592.3502 198.3579 973.0328 245.7701 1052.3105 C 293.1863 1131.5923 727.5869 1134.1283 775.5477 1052.3105 C 823.5082 970.4958 902.2347 610.6937 902.2347 610.6937 L 104.9705 592.3502 Z" fill="#fece6c"/>			</clipPath>	</defs>	<g id="Cupcake">		<g>				<path d="M 104.9705 592.3502 C 104.9705 592.3502 198.3579 973.0328 245.7701 1052.3105 C 293.1863 1131.5923 727.5869 1134.1283 775.5477 1052.3105 C 823.5082 970.4958 902.2347 610.6937 902.2347 610.6937 L 104.9705 592.3502 Z" fill="#fece6c"/>			<path clip-path="url(#mask1)" d="M 245.7701 692.043 C 216.0934 684.3725 67.6968 790.8574 49.9842 657.1799 C 32.271 523.4999 222.7362 552.587 222.7362 552.587 C 222.7362 552.587 101.8098 314.3447 337.9044 262.0469 C 546.6219 215.8151 591.2784 413.1281 591.2784 413.1281 C 591.2784 413.1281 716.8687 346.4926 787.0662 401.506 C 857.262 456.5189 833.1319 540.965 833.1319 540.965 C 833.1319 540.965 995.1718 535.3334 971.3352 657.1799 C 933.2068 852.0869 745.0069 693.4467 718.9404 697.2302 C 692.8718 701.015 695.7753 787.8069 495.9869 802.416 C 334.16 814.2496 275.4504 699.7153 245.7701 692.043 Z" fill="#d39b59"/>			<path d="M 245.7701 622.3143 C 220.6628 620.688 29.4676 695.1478 2.6492 560.4957 C -23.6829 428.2881 159.5553 451.1517 159.5553 451.1517 C 159.5553 451.1517 68.5889 257.7167 312.9384 179.042 C 516.5712 113.4786 591.2784 343.3981 591.2784 343.3981 C 591.2784 343.3981 716.8687 276.764 787.0662 331.7781 C 857.262 386.7902 845.6336 463.6462 845.6336 463.6462 C 845.6336 463.6462 1020.9973 473.0187 993.3076 597.9841 C 957.3691 760.1754 754.8821 625.1096 718.9404 627.5018 C 682.9963 629.8935 694.3554 738.8726 490.2401 740.3519 C 281.6507 741.8649 270.881 623.9421 245.7701 622.3143 Z" fill="#ffffff"/>			<path d="M 671.8966 250.4255 C 671.8966 250.4255 717.2758 143.4835 805.5736 104.7459 C 893.8676 66.0077 990.8662 92.2823 990.8662 92.2823 L 984.6897 119.7029 C 984.6897 119.7029 873.7032 89.0185 796.9266 147.1269 C 720.1461 205.2353 698.1039 265.5463 698.1039 265.5463 L 671.8966 250.4255 Z" fill="#00cc99"/>			<path id="Ellipse" d="M 545.2117 279.4798 C 545.2117 205.6675 604.5087 145.8325 677.6542 145.8325 C 750.8034 145.8325 810.0983 205.6675 810.0983 279.4798 C 810.0983 353.2931 750.8034 413.1281 677.6542 413.1281 C 604.5087 413.1281 545.2117 353.2931 545.2117 279.4798 Z" fill="#d2514b"/>			<path id="Ellipse2" d="M 395.4892 434.2208 C 395.4892 376.4519 488.3031 329.6259 602.7955 329.6259 C 717.2872 329.6259 810.0983 376.4519 810.0983 434.2208 C 810.0983 491.9859 717.2872 538.8136 602.7955 538.8136 C 488.3031 538.8136 395.4892 491.9859 395.4892 434.2208 Z" fill="#ffffff"/>		</g>		<g>			<g>				<rect x="381.0299" y="0.243" width="230.4238" height="403.8165" fill="#ddc7af" rx="115.2119" ry="115.2119"/>				<path id="Ellipse3" d="M 311.5739 409.686 C 311.5739 359.8575 384.2034 319.4649 473.7975 319.4649 C 563.394 319.4649 636.0235 359.8575 636.0235 409.686 C 636.0235 459.5139 563.394 499.9039 473.7975 499.9039 C 384.2034 499.9039 311.5739 459.5139 311.5739 409.686 Z" fill="#ffffff"/>			</g>		</g>	</g></svg>