<?xml version="1.0" standalone="no"?><!-- Generator: Adobe Fireworks CS6, Export SVG Extension by Aaron Beall (http://fireworks.abeall.com) . Version: 0.6.1  --><!DOCTYPE svg PUBLIC "-//W3C//DTD SVG 1.1//EN" "http://www.w3.org/Graphics/SVG/1.1/DTD/svg11.dtd"><svg id="Untitled-Page%201" viewBox="0 0 1077 1131" style="background-color:#ffffff00" version="1.1"	xmlns="http://www.w3.org/2000/svg" xmlns:xlink="http://www.w3.org/1999/xlink" xml:space="preserve"	x="0px" y="0px" width="1077px" height="1131px">	<g id="Cup">		<g>			<g>				<path d="M 194.4809 931.9452 L 194.4809 1031.3042 C 194.4809 1086.1787 239.3127 1130.6616 294.6171 1130.6616 L 795.2679 1130.6616 C 850.5681 1130.6616 895.3942 1086.1787 895.3942 1031.3042 L 895.3942 931.9452 L 194.4809 931.9452 Z" fill="#c96f41"/>			</g>			<g>				<path id="Ellipse" d="M 935.3319 157.233 C 940.3209 151.0663 965.8522 147.0822 995.0867 148.8135 C 1028.2186 150.7728 1050.1737 158.9289 1040.4836 166.3245 C 1031.3934 173.2724 998.9323 175.7261 970.6993 172.5498 C 945.4733 169.7177 930.5933 163.0895 935.3319 157.233 Z" fill="#ffffff"/>				<path d="M 265.6532 161.9138 C 265.6532 161.9138 58.9173 108.1803 21.172 139.0628 C -37.0721 186.7271 32.0329 370.3206 173.2797 458.5015 C 314.5241 546.6871 514.5701 506.009 514.5701 506.009 L 400.8592 402.5128 C 400.8592 402.5128 289.6252 413.3508 217.4138 372.2815 C 145.2032 331.2139 96.7521 236.2356 115.1617 226.0695 C 134.2068 215.5475 294.2021 248.6045 294.2021 248.6045 L 265.6532 161.9138 Z" fill="#f8ec59"/>				<g>					<path d="M 811.701 161.9138 C 811.701 161.9138 1018.4387 108.1803 1056.1812 139.0628 C 1114.4362 186.7271 1045.3164 370.3206 904.0745 458.5015 C 762.8354 546.6871 562.7939 506.009 562.7939 506.009 L 676.5078 402.5128 C 676.5078 402.5128 787.7355 413.3508 859.9459 372.2815 C 932.156 331.2139 980.6071 236.2356 962.2057 226.0695 C 943.1525 215.5475 783.1571 248.6045 783.1571 248.6045 L 811.701 161.9138 Z" fill="#f2dd2c"/>				</g>				<path d="M 839.0323 0.4545 C 839.0323 0.4545 847.6365 531.2361 604.4822 639.7506 C 604.4822 639.7506 533.0271 657.8859 458.6899 633.7462 C 458.6899 633.7462 232.7451 513.1513 238.3923 6.4741 L 238.3923 6.4741 " fill="#f2dd2c"/>				<path d="M 544.9345 621.4476 L 543.6899 621.4476 L 494.8746 621.4476 C 494.8746 621.4476 524.7348 772.9698 444.8892 833.2303 C 365.0338 893.4872 303.2445 877.0531 242.1613 889.6271 C 181.0776 902.2059 194.4809 969.2034 194.4809 969.2034 L 543.6899 969.2034 L 544.9345 969.2034 L 894.148 969.2034 C 894.148 969.2034 907.5508 902.2059 846.466 889.6271 C 785.3844 877.0531 723.5995 893.4872 643.7446 833.2303 C 563.8941 772.9698 593.7543 621.4476 593.7543 621.4476 L 544.9345 621.4476 Z" fill="#f2dd2c"/>				<path d="M 544.9345 3.3724 L 238.3923 6.4741 C 232.7451 513.1513 458.6899 633.7462 458.6899 633.7462 C 489.5696 643.777 519.9688 646.5228 544.9345 646.2885 L 544.9345 3.3724 Z" fill="#f8ec59"/>				<path d="M 544.9345 621.4476 L 543.6899 621.4476 L 494.8746 621.4476 C 494.8746 621.4476 524.7348 772.9698 444.8892 833.2303 C 365.0338 893.4872 303.2445 877.0531 242.1613 889.6271 C 181.0776 902.2059 194.4809 969.2034 194.4809 969.2034 L 543.6899 969.2034 L 544.9345 969.2034 L 544.9345 621.4476 Z" fill="#f8ec59"/>			</g>		</g>		<path opacity="0.8196" d="M 483.6793 224.5257 C 381.3499 223.0442 355.977 263.9196 450.2151 332.3376 L 451.0418 332.9248 C 450.6538 333.8031 450.2245 334.6578 449.8824 335.5692 C 412.9286 433.5055 447.4824 472.848 539.4039 402.1473 L 540.202 401.5206 C 540.8933 402.1726 541.5563 402.8626 542.2922 403.4861 C 621.7118 470.2684 668.5085 448.9315 631.082 336.8178 L 630.7452 335.8511 C 631.5605 335.3794 632.3971 334.9519 633.1997 334.4171 C 719.107 277.7068 713.6096 225.2291 598.5444 226.6378 L 597.5442 226.6575 C 597.355 225.7183 597.2089 224.7639 596.9658 223.8206 C 570.7429 121.9538 520.4379 110.8851 486.762 223.8752 L 486.4821 224.8508 C 485.5555 224.736 484.6207 224.6319 483.6793 224.5257 L 483.6793 224.5257 Z" fill="#ffffff"/>	</g></svg>