<?xml version="1.0" standalone="no"?><!-- Generator: Adobe Fireworks CS6, Export SVG Extension by Aaron Beall (http://fireworks.abeall.com) . Version: 0.6.1  --><!DOCTYPE svg PUBLIC "-//W3C//DTD SVG 1.1//EN" "http://www.w3.org/Graphics/SVG/1.1/DTD/svg11.dtd"><svg id="Untitled-Page%201" viewBox="0 0 1078 1131" style="background-color:#ffffff00" version="1.1"	xmlns="http://www.w3.org/2000/svg" xmlns:xlink="http://www.w3.org/1999/xlink" xml:space="preserve"	x="0px" y="0px" width="1078px" height="1131px">	<g id="Cup">		<g>			<g>				<path d="M 194.842 932.0084 L 194.842 1031.3657 C 194.842 1086.2373 239.6653 1130.7264 294.9667 1130.7264 L 795.6192 1130.7264 C 850.9222 1130.7264 895.7533 1086.2373 895.7533 1031.3657 L 895.7533 932.0084 L 194.842 932.0084 Z" fill="#999999"/>			</g>			<g>				<path id="Ellipse" d="M 935.6914 157.294 C 940.6833 151.1226 966.2118 147.1407 995.4425 148.8696 C 1028.5752 150.8313 1050.5262 158.9929 1040.8433 166.3845 C 1031.7561 173.3325 999.2963 175.787 971.0526 172.6099 C 945.823 169.777 930.9491 163.1496 935.6914 157.294 Z" fill="#ffffff"/>				<path d="M 266.0172 161.969 C 266.0172 161.969 59.2751 108.241 21.5294 139.1207 C -36.7192 186.7886 32.3924 370.3775 173.6425 458.5633 C 314.8771 546.7474 514.925 506.0722 514.925 506.0722 L 401.2125 402.5732 C 401.2125 402.5732 289.9879 413.4093 217.7712 372.3386 C 145.561 331.2732 97.1149 236.2949 115.513 226.1273 C 134.5663 215.61 294.5583 248.6654 294.5583 248.6654 L 266.0172 161.969 Z" fill="#ffffff"/>				<g>					<path d="M 812.0555 161.969 C 812.0555 161.969 1018.7964 108.241 1056.54 139.1207 C 1114.7908 186.7886 1045.6808 370.3775 904.4368 458.5633 C 763.1868 546.7474 563.1518 506.0722 563.1518 506.0722 L 676.8611 402.5732 C 676.8611 402.5732 788.0919 413.4093 860.302 372.3386 C 932.5105 331.2732 980.9666 236.2949 962.5569 226.1273 C 943.5082 215.61 783.5165 248.6654 783.5165 248.6654 L 812.0555 161.969 Z" fill="#eeeeee"/>				</g>				<path d="M 839.3918 0.5179 C 839.3918 0.5179 847.9861 531.2946 604.8445 639.8138 C 604.8445 639.8138 533.3817 657.9508 459.0494 633.8093 C 459.0494 633.8093 233.103 513.2117 238.7514 6.5295 L 238.7514 6.5295 " fill="#eeeeee"/>				<path d="M 545.2972 621.511 L 544.0507 621.511 L 495.2304 621.511 C 495.2304 621.511 525.0927 773.0302 445.2438 833.2904 C 365.3949 893.5508 303.5991 877.1135 242.5171 889.6935 C 181.4338 902.2658 194.842 969.2685 194.842 969.2685 L 544.0507 969.2685 L 545.2972 969.2685 L 894.5058 969.2685 C 894.5058 969.2685 907.9088 902.2658 846.8303 889.6935 C 785.7418 877.1135 723.9525 893.5508 644.0992 833.2904 C 564.2454 773.0302 594.1138 621.511 594.1138 621.511 L 545.2972 621.511 Z" fill="#eeeeee"/>				<path d="M 545.2972 3.4323 L 238.7514 6.5295 C 233.103 513.2117 459.0494 633.8093 459.0494 633.8093 C 489.9336 643.8338 520.325 646.5813 545.2972 646.3484 L 545.2972 3.4323 Z" fill="#ffffff"/>				<path d="M 545.2972 621.511 L 544.0507 621.511 L 495.2304 621.511 C 495.2304 621.511 525.0927 773.0302 445.2438 833.2904 C 365.3949 893.5508 303.5991 877.1135 242.5171 889.6935 C 181.4338 902.2658 194.842 969.2685 194.842 969.2685 L 544.0507 969.2685 L 545.2972 969.2685 L 545.2972 621.511 Z" fill="#ffffff"/>				<g>					<path d="M 543.7023 395.4291 L 545.2972 396.8946 L 545.2972 137.1906 C 526.1117 138.3229 506.3066 163.9719 490.2639 217.7845 L 489.988 218.76 L 487.1804 218.4333 C 384.8518 216.9535 359.4744 257.8273 453.712 326.2461 L 454.5388 326.8315 L 453.3912 329.4785 C 416.4326 427.4156 450.983 466.7565 542.9063 396.0575 L 543.7023 395.4291 Z" fill="#ffffff"/>				</g>			</g>		</g>		<path opacity="0.8" d="M 487.1804 218.4333 C 384.8518 216.9535 359.4744 257.8273 453.712 326.2461 L 454.5388 326.8315 C 454.1541 327.7108 453.7268 328.5669 453.3912 329.4785 C 416.4326 427.4156 450.983 466.7565 542.9063 396.0575 L 543.7023 395.4291 C 544.4001 396.0811 545.0566 396.7727 545.7929 397.3962 C 625.219 464.1768 672.0104 442.8432 634.5844 330.7273 L 634.2491 329.7593 C 635.0645 329.2869 635.8994 328.8596 636.702 328.3256 C 722.6125 271.6161 717.1074 219.1353 602.0451 220.5452 L 601.0452 220.5668 C 600.8607 219.6274 600.7178 218.67 600.4698 217.7291 C 574.2448 115.8631 523.9406 104.795 490.2639 217.7845 L 489.988 218.76 C 489.0623 218.6439 488.1213 218.5393 487.1804 218.4333 L 487.1804 218.4333 Z" fill="#bbbbbb"/>	</g></svg>