<?xml version="1.0" standalone="no"?><!-- Generator: Adobe Fireworks CS6, Export SVG Extension by Aaron Beall (http://fireworks.abeall.com) . Version: 0.6.1  --><!DOCTYPE svg PUBLIC "-//W3C//DTD SVG 1.1//EN" "http://www.w3.org/Graphics/SVG/1.1/DTD/svg11.dtd"><svg id="Untitled-Page%201" viewBox="0 0 854 905" style="background-color:#ffffff00" version="1.1"	xmlns="http://www.w3.org/2000/svg" xmlns:xlink="http://www.w3.org/1999/xlink" xml:space="preserve"	x="0px" y="0px" width="854px" height="905px">	<g id="Cup">		<g>			<g>				<path d="M 154.3743 746.0245 L 154.3743 825.5441 C 154.3743 869.4624 189.9007 905.0667 233.7249 905.0667 L 630.488 905.0667 C 674.3122 905.0667 709.8367 869.4624 709.8367 825.5441 L 709.8367 746.0245 L 154.3743 746.0245 Z" fill="#c96f41"/>			</g>			<g>				<path id="Ellipse" d="M 741.4894 125.9973 C 745.4427 121.0579 765.6795 117.872 788.8445 119.2537 C 815.1002 120.8248 832.4943 127.3557 824.8202 133.2719 C 817.6193 138.8319 791.8946 140.7971 769.5164 138.2542 C 749.5237 135.9868 737.7301 130.6823 741.4894 125.9973 Z" fill="#ffffff"/>				<path d="M 210.777 129.7395 C 210.777 129.7395 46.9404 86.738 17.0318 111.4537 C -29.1335 149.6021 25.6377 296.5368 137.5732 367.1126 C 249.5047 437.6884 408.0375 405.1367 408.0375 405.1367 L 317.9203 322.3031 C 317.9203 322.3031 229.7756 330.9742 172.5472 298.1041 C 115.3189 265.2388 76.9227 189.2226 91.5106 181.0857 C 106.6064 172.6691 233.3993 199.1228 233.3993 199.1228 L 210.777 129.7395 Z" fill="#ffffff"/>				<g>					<path d="M 643.5103 129.7395 C 643.5103 129.7395 807.3487 86.738 837.2651 111.4537 C 883.4244 149.6021 828.6534 296.5368 716.7198 367.1126 C 604.7844 437.6884 446.2595 405.1367 446.2595 405.1367 L 536.373 322.3031 C 536.373 322.3031 624.5214 330.9742 681.7458 298.1041 C 738.9662 265.2388 777.3666 189.2226 762.7803 181.0857 C 747.6866 172.6691 620.8918 199.1228 620.8918 199.1228 L 643.5103 129.7395 Z" fill="#ffffff"/>				</g>				<path d="M 665.1733 0.5235 C 665.1733 0.5235 671.9869 425.3227 479.2938 512.1743 C 479.2938 512.1743 422.6642 526.6896 363.7559 507.3668 C 363.7559 507.3668 184.6977 410.8481 189.1701 5.3356 L 189.1701 5.3356 " fill="#ffffff"/>				<path d="M 432.1074 497.5229 L 431.1172 497.5229 L 392.4301 497.5229 C 392.4301 497.5229 416.0969 618.7885 352.8169 667.0176 C 289.5348 715.2469 240.5674 702.0919 192.1562 712.1602 C 143.7509 722.2206 154.3743 775.8467 154.3743 775.8467 L 431.1172 775.8467 L 432.1074 775.8467 L 708.8483 775.8467 C 708.8483 775.8467 719.4717 722.2206 671.0645 712.1602 C 622.6591 702.0919 573.6918 715.2469 510.4078 667.0176 C 447.1257 618.7885 470.7965 497.5229 470.7965 497.5229 L 432.1074 497.5229 Z" fill="#ffffff"/>				<path d="M 432.1074 2.8557 L 189.1701 5.3356 C 184.6977 410.8481 363.7559 507.3668 363.7559 507.3668 C 388.231 515.3901 412.3163 517.5895 432.1074 517.4031 L 432.1074 2.8557 Z" fill="#ffffff"/>				<path d="M 432.1074 497.5229 L 431.1172 497.5229 L 392.4301 497.5229 C 392.4301 497.5229 416.0969 618.7885 352.8169 667.0176 C 289.5348 715.2469 240.5674 702.0919 192.1562 712.1602 C 143.7509 722.2206 154.3743 775.8467 154.3743 775.8467 L 431.1172 775.8467 L 432.1074 775.8467 L 432.1074 497.5229 Z" fill="#ffffff"/>				<g>					<path d="M 430.842 316.585 L 432.1074 317.755 L 432.1074 109.9078 C 416.9031 110.8138 401.2067 131.3387 388.4943 174.4072 L 388.2774 175.1878 L 386.0468 174.9305 C 304.9561 173.7449 284.8471 206.4577 359.5294 261.214 L 360.1825 261.684 L 359.2679 263.8007 C 329.9812 342.1813 357.3649 373.6687 430.2141 317.0869 L 430.842 316.585 Z" fill="#ffffff"/>				</g>			</g>		</g>		<path d="M 386.0468 174.9305 C 304.9561 173.7449 284.8471 206.4577 359.5294 261.214 L 360.1825 261.684 C 359.8783 262.386 359.5391 263.0706 359.2679 263.8007 C 329.9812 342.1813 357.3649 373.6687 430.2141 317.0869 L 430.842 316.585 C 431.3962 317.1044 431.9155 317.6599 432.5009 318.157 C 495.4417 371.6044 532.5243 354.5295 502.8656 264.8009 L 502.6021 264.028 C 503.2455 263.6493 503.9062 263.3056 504.5438 262.8784 C 572.626 217.4921 568.2659 175.4917 477.0826 176.619 L 476.2883 176.6366 C 476.1371 175.883 476.0228 175.1179 475.831 174.3644 C 455.0457 92.8377 415.1842 83.9795 388.4943 174.4072 L 388.2774 175.1878 C 387.539 175.0965 386.795 175.013 386.0468 174.9305 L 386.0468 174.9305 Z" fill="#fece6c"/>	</g></svg>