<?xml version="1.0" encoding="UTF-8" standalone="no"?>
<!DOCTYPE svg PUBLIC "-//W3C//DTD SVG 1.1//EN" "http://www.w3.org/Graphics/SVG/1.1/DTD/svg11.dtd">
<svg width="100%" height="100%" viewBox="0 0 303 303" version="1.1" xmlns="http://www.w3.org/2000/svg" xmlns:xlink="http://www.w3.org/1999/xlink" xml:space="preserve" style="fill-rule:evenodd;clip-rule:evenodd;stroke-linejoin:round;stroke-miterlimit:1.41421;">
    <g>
        <path id="Ellipse" d="M0,151.5C0,67.828 67.828,0 151.5,0C235.172,0 303,67.828 303,151.5C303,235.172 235.172,303 151.5,303C67.828,303 0,235.172 0,151.5Z" style="fill:rgb(253,238,104);fill-rule:nonzero;"/>
        <g transform="matrix(8.03749,0,0,8.03749,-2.26165,4.84349)">
            <path d="M22.764,25.258C23.437,24.958 23.962,24.604 24.352,24.202C24.742,23.8 25.005,23.363 25.153,22.893C25.301,22.423 25.375,21.967 25.375,21.524C25.375,20.611 25.153,19.861 24.709,19.282C24.265,18.71 23.713,18.24 23.04,17.879C22.367,17.524 21.634,17.245 20.853,17.041C20.066,16.836 19.339,16.645 18.666,16.461C17.993,16.277 17.435,16.066 16.991,15.835C16.547,15.603 16.332,15.283 16.332,14.874C16.332,14.07 17.368,13.668 19.44,13.668C20.766,13.668 22.354,14.104 24.211,14.976L24.514,11.924C24.096,11.637 23.484,11.365 22.677,11.106C21.869,10.847 21.035,10.684 20.187,10.615L20.638,7.563L17.623,7.563L18.074,10.615C17.166,10.711 16.385,10.888 15.733,11.154C15.08,11.426 14.542,11.76 14.118,12.162C13.687,12.564 13.378,13.014 13.183,13.511C12.981,14.009 12.886,14.513 12.886,15.024C12.886,15.8 13.109,16.434 13.559,16.925C14.01,17.422 14.569,17.831 15.241,18.151C15.908,18.478 16.628,18.751 17.408,18.969C18.182,19.187 18.902,19.405 19.575,19.623C20.241,19.841 20.799,20.086 21.25,20.359C21.701,20.631 21.93,20.992 21.93,21.442C21.93,22.369 20.974,22.825 19.07,22.825C16.802,22.825 15.046,22.246 13.795,21.081L13.317,24.57C14.326,25.312 15.914,25.748 18.074,25.878L17.623,28.93L20.638,28.93L20.187,25.85C21.237,25.762 22.091,25.564 22.764,25.258Z" style="fill:rgb(242,184,0);fill-rule:nonzero;"/>
        </g>
    </g>
</svg>
