<?xml version="1.0" encoding="UTF-8" standalone="no"?>
<!DOCTYPE svg PUBLIC "-//W3C//DTD SVG 1.1//EN" "http://www.w3.org/Graphics/SVG/1.1/DTD/svg11.dtd">
<svg width="100%" height="100%" viewBox="0 0 986 1103" version="1.1" xmlns="http://www.w3.org/2000/svg" xmlns:xlink="http://www.w3.org/1999/xlink" xml:space="preserve" style="fill-rule:evenodd;clip-rule:evenodd;stroke-linejoin:round;stroke-miterlimit:1.41421;">
    <g id="Gift">
        <g>
            <path d="M0.317,332.262L74.909,888.842L517.131,1102.91C558.363,909.576 585.453,716.494 527.787,524.924C371.383,442.72 210.015,365.114 0.317,332.262Z" style="fill:rgb(237,237,237);fill-rule:nonzero;"/>
            <path d="M985.993,289.448C838.469,403.793 691.758,523.738 527.787,524.924L0.317,332.262L447.866,144.951L985.993,289.448Z" style="fill:white;fill-rule:nonzero;"/>
            <path d="M922.058,835.324L517.131,1102.91L527.787,524.924L985.993,289.448L922.058,835.324Z" style="fill:rgb(204,204,204);fill-rule:nonzero;"/>
            <path d="M175.563,396.837L213.438,958.415L346.636,1022.63L328.8,448.684C277.14,423.581 226.251,395.996 175.563,396.837Z" style="fill:rgb(220,103,181);fill-rule:nonzero;"/>
            <path d="M175.563,396.837L629.02,187.765L788.856,230.579L328.8,451.458L175.563,396.837Z" style="fill:rgb(245,129,194);fill-rule:nonzero;"/>
            <path d="M204.415,244.223L722.896,424.704L852.266,358.169L346.636,182.413L204.415,244.223Z" style="fill:rgb(250,138,201);fill-rule:nonzero;"/>
            <path d="M719.595,969.117L722.784,424.676L852.231,358.191L831.482,899.544L719.595,969.117Z" style="fill:rgb(164,45,159);fill-rule:nonzero;"/>
        </g>
        <g>
            <path d="M505.812,271.646C505.812,271.646 648.237,-21.318 747.832,1.749C807.694,15.613 874.404,164.224 874.105,187.47C873.806,210.715 810.99,323.831 659.705,333.108C494.336,343.246 499.232,333.108 499.232,333.108C499.232,333.108 319.789,335.867 242.741,286.342C165.693,236.819 187.744,199.942 196.704,182.125C205.667,164.309 276.949,27.611 316.4,39.16C416.959,68.595 505.812,271.646 505.812,271.646Z" style="fill:rgb(245,129,194);fill-rule:nonzero;"/>
            <path d="M303.248,95.277C339.093,1.321 491.34,301.041 491.34,301.041C491.34,301.041 237.074,268.723 303.248,95.277Z" style="fill:rgb(208,97,170);fill-rule:nonzero;"/>
            <path d="M533.431,298.368C533.431,298.368 672.869,-12.566 733.363,33.814C793.857,80.196 758.406,287.406 533.431,298.368Z" style="fill:rgb(208,97,170);fill-rule:nonzero;"/>
        </g>
    </g>
</svg>
