<?xml version="1.0" encoding="UTF-8" standalone="no"?>
<!DOCTYPE svg PUBLIC "-//W3C//DTD SVG 1.1//EN" "http://www.w3.org/Graphics/SVG/1.1/DTD/svg11.dtd">
<svg width="100%" height="100%" viewBox="0 0 683 899" version="1.1" xmlns="http://www.w3.org/2000/svg" xmlns:xlink="http://www.w3.org/1999/xlink" xml:space="preserve" style="fill-rule:evenodd;clip-rule:evenodd;stroke-linejoin:round;stroke-miterlimit:1.41421;">
    <g id="Key">
        <path d="M436.457,461.318L391.9,411.888L377.984,436.831C373.497,413.854 359.191,392.519 336.862,379.565C296.685,356.254 246.059,368.83 223.776,407.484L10.955,776.675C-10.506,813.904 3.657,862.845 42.597,886.145C76.423,906.387 117.963,900.665 142.621,874.552C159.167,875.872 197.136,875.29 222.571,846.28C256.041,808.107 200.929,770.447 222.694,743.144C244.524,715.758 281.077,741.646 300.783,709.51C332.407,657.938 278.512,648.685 300.91,611.067C320.978,577.359 359.614,592.242 359.614,592.242L436.457,461.318Z" style="fill:rgb(221,221,221);fill-rule:nonzero;"/>
        <path d="M337.187,380.125C296.998,356.795 246.37,369.374 224.1,408.054L11.381,777.482C-10.072,814.737 4.111,863.712 43.064,887.032C49.159,890.683 55.494,893.507 61.943,895.507L345.189,408.278L375.168,425.7C368.681,407.293 355.67,390.855 337.187,380.125Z" style="fill:white;fill-rule:nonzero;"/>
        <g>
            <path id="Ellipse" d="M364.576,174.849C364.576,118.364 412.061,72.576 470.637,72.576C529.212,72.576 576.697,118.364 576.697,174.849C576.697,231.333 529.212,277.121 470.637,277.121C412.061,277.121 364.576,231.333 364.576,174.849Z" style="fill:rgb(113,102,32);fill-rule:nonzero;"/>
            <path d="M391.492,130.282C414.433,90.498 466.251,77.025 507.238,100.365C548.315,123.756 562.732,175.114 539.434,214.903C516.221,254.548 464.391,267.581 423.67,244.185C383.037,220.842 368.634,169.923 391.492,130.282ZM177.721,132.447C106.955,257.242 152.716,417.197 279.998,491.444C408.148,566.197 572.303,527.028 646.621,402.212C721.793,275.96 675.891,111.58 544.142,36.854C413.307,-37.357 249.292,6.234 177.721,132.447Z" style="fill:rgb(254,206,108);fill-rule:nonzero;"/>
            <path d="M177.721,132.447C106.955,257.242 152.716,417.197 279.998,491.444L284.558,494.044L428.351,246.697C426.776,245.912 425.216,245.074 423.67,244.185C383.037,220.842 368.634,169.923 391.492,130.282C414.433,90.498 466.251,77.025 507.238,100.365C508.798,101.254 510.321,102.18 511.803,103.147L548.778,39.545L544.142,36.854C413.307,-37.357 249.292,6.234 177.721,132.447Z" style="fill:rgb(246,230,145);fill-rule:nonzero;"/>
        </g>
    </g>
</svg>
