<?xml version="1.0" encoding="UTF-8" standalone="no"?>
<!DOCTYPE svg PUBLIC "-//W3C//DTD SVG 1.1//EN" "http://www.w3.org/Graphics/SVG/1.1/DTD/svg11.dtd">
<svg width="100%" height="100%" viewBox="0 0 634 918" version="1.1" xmlns="http://www.w3.org/2000/svg" xmlns:xlink="http://www.w3.org/1999/xlink" xml:space="preserve" style="fill-rule:evenodd;clip-rule:evenodd;stroke-linejoin:round;stroke-miterlimit:1.41421;">
    <g id="Leaf">
        <g transform="matrix(1,0,0,1.67692,0,-620.998)">
            <path d="M273.228,749.084C273.228,735.105 254.197,723.756 230.756,723.756C207.315,723.756 188.284,735.105 188.284,749.084L188.284,892.067C188.284,906.045 207.315,917.394 230.756,917.394C254.197,917.394 273.228,906.045 273.228,892.067L273.228,749.084Z" style="fill:rgb(118,77,51);"/>
        </g>
        <g>
            <path id="Ellipse" d="M9.61,367.384C50.987,197.815 250.459,-41.11 423.273,7.124C594.252,54.848 665.729,363.848 619.764,528.802C574.592,690.906 405.709,786.423 240.33,744.281C73.244,701.705 -31.039,533.968 9.61,367.384Z" style="fill:rgb(58,173,115);fill-rule:nonzero;"/>
            <path d="M2.279,410.454C-12.549,562.03 87.607,705.365 240.33,744.281C382.808,780.587 527.582,714.812 593.881,592.72C505.233,634.184 395.837,645.609 285.563,617.038C160,584.503 58.975,506.833 2.279,410.454Z" style="fill:rgb(50,148,98);fill-rule:nonzero;"/>
            <g id="Ellipse2" transform="matrix(1,0,0,1,-28.6548,7.53178)">
                <path d="M227.476,600.122C261.055,470.723 362.407,247.298 381.3,252.415C400.168,257.527 350.691,501.827 316.718,630.832C283.203,758.089 194.353,727.765 227.476,600.122Z" style="fill:rgb(50,148,98);fill-rule:nonzero;"/>
            </g>
        </g>
    </g>
</svg>
