<?xml version="1.0" standalone="no"?><!-- Generator: Adobe Fireworks CS6, Export SVG Extension by Aaron Beall (http://fireworks.abeall.com) . Version: 0.6.1  --><!DOCTYPE svg PUBLIC "-//W3C//DTD SVG 1.1//EN" "http://www.w3.org/Graphics/SVG/1.1/DTD/svg11.dtd"><svg id="Untitled-Page%201" viewBox="0 0 640 961" style="background-color:#ffffff00" version="1.1"	xmlns="http://www.w3.org/2000/svg" xmlns:xlink="http://www.w3.org/1999/xlink" xml:space="preserve"	x="0px" y="0px" width="640px" height="961px">	<g id="Location">		<path id="Ellipse" d="M 0.0537 331.0943 C 0.0537 148.533 143.0856 0.544 319.5319 0.544 C 495.9755 0.544 639.0078 148.533 639.0078 331.0943 C 639.0078 513.6581 495.9755 661.6473 319.5319 661.6473 C 143.0856 661.6473 0.0537 513.6581 0.0537 331.0943 Z" fill="#e86e8a"/>		<path d="M 39 492 L 334.7453 960.7179 L 599 488 L 39 492 Z" fill="#e86e8a"/>		<path id="Ellipse2" d="M 197.8244 291.7461 C 197.8244 217.8522 255.7192 157.9504 327.1399 157.9504 C 398.5524 157.9504 456.4503 217.8522 456.4503 291.7461 C 456.4503 365.6383 398.5524 425.5388 327.1399 425.5388 C 255.7192 425.5388 197.8244 365.6383 197.8244 291.7461 Z" fill="#77434d"/>	</g></svg>