<?xml version="1.0" encoding="UTF-8" standalone="no"?>
<!DOCTYPE svg PUBLIC "-//W3C//DTD SVG 1.1//EN" "http://www.w3.org/Graphics/SVG/1.1/DTD/svg11.dtd">
<svg width="100%" height="100%" viewBox="0 0 671 804" version="1.1" xmlns="http://www.w3.org/2000/svg" xmlns:xlink="http://www.w3.org/1999/xlink" xml:space="preserve" style="fill-rule:evenodd;clip-rule:evenodd;stroke-linejoin:round;stroke-miterlimit:1.41421;">
    <g id="Lock">
        <g>
            <path d="M311.409,0.121C182.188,0.121 77.436,108.172 77.436,241.463L77.436,371.416L183.883,371.416C183.619,367.772 183.497,364.091 183.497,360.376L183.497,253.036C183.497,173.7 244.383,87.061 319.493,87.061L346.393,87.061C421.502,87.061 482.389,173.7 482.389,253.036L482.389,360.376C482.389,364.091 482.266,367.772 482.003,371.416L591.662,371.416L591.662,241.463C591.662,108.172 486.91,0.121 357.69,0.121L311.409,0.121Z" style="fill:white;fill-rule:nonzero;"/>
            <clipPath id="_clip1">
                <path d="M311.409,0.121C182.188,0.121 77.436,108.172 77.436,241.463L77.436,371.416L183.883,371.416C183.619,367.772 183.497,364.091 183.497,360.376L183.497,253.036C183.497,173.7 244.383,87.061 319.493,87.061L346.393,87.061C421.502,87.061 482.389,173.7 482.389,253.036L482.389,360.376C482.389,364.091 482.266,367.772 482.003,371.416L591.662,371.416L591.662,241.463C591.662,108.172 486.91,0.121 357.69,0.121L311.409,0.121Z" clip-rule="nonzero"/>
            </clipPath>
            <g clip-path="url(#_clip1)">
                <g transform="matrix(2.0211,0,0,1.0184,-117.456,-6.95039)">
                    <rect x="77.25" y="334.25" width="105.5" height="39.171" style="fill-opacity:0.149;"/>
                </g>
                <g transform="matrix(1.56191,0,0,1.0184,-308.709,-6.69579)">
                    <rect x="482" y="334" width="110" height="39.25" style="fill-opacity:0.149;"/>
                </g>
            </g>
        </g>
        <g transform="matrix(1,0,0,1,-0.03035,0)">
            <path d="M670.758,472.537C670.758,410.08 620.051,359.373 557.594,359.373L113.472,359.373C51.015,359.373 0.308,410.08 0.308,472.537L0.308,689.988C0.308,752.445 51.015,803.151 113.472,803.151L557.594,803.151C620.051,803.151 670.758,752.445 670.758,689.988L670.758,472.537Z" style="fill:rgb(254,206,108);"/>
            <path d="M108.44,359.581C48.056,363.443 0.303,412.556 0.303,472.534L0.303,689.986C0.303,749.963 48.056,799.077 108.44,802.937L108.44,359.581Z" style="fill:rgb(246,230,145);fill-rule:nonzero;"/>
            <path d="M562.615,359.581C622.999,363.443 670.752,412.556 670.752,472.534L670.752,689.986C670.752,749.963 622.999,799.077 562.615,802.937L562.615,359.581Z" style="fill:rgb(239,192,101);fill-rule:nonzero;"/>
            <g transform="matrix(1,0,0,1,-7.8217,0)">
                <g>
                    <g>
                        <g id="Ellipse" transform="matrix(1,0,0,0.922206,0,48.2844)">
                            <path d="M279.044,554.37C279.044,517.752 307.82,488.067 343.321,488.067C378.821,488.067 407.599,517.752 407.599,554.37C407.599,590.987 378.821,620.673 343.321,620.673C307.82,620.673 279.044,590.987 279.044,554.37Z" style="fill:rgb(113,76,32);fill-rule:nonzero;"/>
                        </g>
                        <g transform="matrix(1,0,0,1,-1.96465,0)">
                            <rect x="326.003" y="596.157" width="38.567" height="79.563" style="fill:rgb(113,76,32);"/>
                        </g>
                    </g>
                </g>
            </g>
        </g>
    </g>
</svg>
