<?xml version="1.0" encoding="UTF-8" standalone="no"?>
<!DOCTYPE svg PUBLIC "-//W3C//DTD SVG 1.1//EN" "http://www.w3.org/Graphics/SVG/1.1/DTD/svg11.dtd">
<svg width="100%" height="100%" viewBox="0 0 731 1078" version="1.1" xmlns="http://www.w3.org/2000/svg" xmlns:xlink="http://www.w3.org/1999/xlink" xml:space="preserve" style="fill-rule:evenodd;clip-rule:evenodd;stroke-linejoin:round;stroke-miterlimit:1.41421;">
    <g id="Lollipop">
        <g transform="matrix(0.897977,0,0,1,139.769,0)">
            <path d="M327.148,632.254C327.148,594.701 293.196,564.213 251.378,564.213C209.559,564.213 175.607,594.701 175.607,632.254L175.607,1009.9C175.607,1047.46 209.559,1077.94 251.378,1077.94C293.196,1077.94 327.148,1047.46 327.148,1009.9L327.148,632.254Z" style="fill:rgb(221,221,221);"/>
            <clipPath id="_clip1">
                <path d="M327.148,632.254C327.148,594.701 293.196,564.213 251.378,564.213C209.559,564.213 175.607,594.701 175.607,632.254L175.607,1009.9C175.607,1047.46 209.559,1077.94 251.378,1077.94C293.196,1077.94 327.148,1047.46 327.148,1009.9L327.148,632.254Z"/>
            </clipPath>
            <g clip-path="url(#_clip1)">
                <g transform="matrix(1.97382,0,0,1,-334.843,0)">
                    <rect x="238.178" y="506.973" width="105.665" height="266.77" style="fill:rgb(187,187,187);"/>
                </g>
            </g>
        </g>
        <g transform="matrix(1,0,0,1,2.66848,0)">
            <path id="Ellipse" d="M166.146,62.699C333.978,-44.191 557.847,4.122 666.634,170.279C775.398,336.399 728.434,558.171 561.28,665.958C393.605,774.082 168.594,726.615 59.148,559.594C-50.317,392.538 -2.21,169.924 166.146,62.699Z" style="fill:rgb(255,98,142);fill-rule:nonzero;"/>
            <path d="M353.006,5.949C392.995,54.467 418.11,114.674 421.231,180.196C424.513,249.046 402.936,312.743 364.091,363.613C374.794,364.511 385.627,364.887 396.575,364.731C524.393,362.898 630.914,287.836 674.004,182.013C736.813,286.356 740.314,410.49 692.928,514.223C633.354,528.926 569.304,526.024 508.836,501.969C443.216,475.868 392.485,429.039 360.764,371.792C355.591,381.255 350.844,391.062 346.549,401.201C298.72,514.093 320.607,637.761 393.071,722.801C264.601,732.893 134.491,674.572 59.148,559.594C56.25,555.171 53.463,550.709 50.785,546.211C73.195,492.581 111.2,445.388 163.343,412.012C222.761,373.979 291.096,359.914 357.426,367.229C352.397,357.589 346.835,348.101 340.733,338.791C272.949,235.302 156.773,182.363 44.385,192.349C72.379,141.298 113.349,96.324 166.146,62.699C224.1,25.789 288.735,7.385 353.006,5.949Z" style="fill:white;"/>
        </g>
    </g>
</svg>
