<?xml version="1.0" encoding="UTF-8" standalone="no"?>
<!DOCTYPE svg PUBLIC "-//W3C//DTD SVG 1.1//EN" "http://www.w3.org/Graphics/SVG/1.1/DTD/svg11.dtd">
<svg width="100%" height="100%" viewBox="0 0 901 1048" version="1.1" xmlns="http://www.w3.org/2000/svg" xmlns:xlink="http://www.w3.org/1999/xlink" xml:space="preserve" style="fill-rule:evenodd;clip-rule:evenodd;stroke-linejoin:round;stroke-miterlimit:1.41421;">
    <g id="Magic">
        <g>
            <path d="M447.728,464.826L169.107,927.908C144.992,968.106 159.221,1018.24 200.89,1039.08C242.152,1059.71 293.794,1043.27 316.26,1003.14L577.135,537.925C541.572,514.524 486.694,490.853 447.728,464.826Z" style="fill:rgb(68,68,68);fill-rule:nonzero;"/>
            <clipPath id="_clip1">
                <path d="M447.728,464.826L169.107,927.908C144.992,968.106 159.221,1018.24 200.89,1039.08C242.152,1059.71 293.794,1043.27 316.26,1003.14L577.135,537.925C541.572,514.524 486.694,490.853 447.728,464.826Z" clip-rule="nonzero"/>
            </clipPath>
            <g clip-path="url(#_clip1)">
                <path d="M541.632,451.203C506.519,430.356 445.101,427.21 425.725,459.506L157.476,925.943C133.36,966.141 159.221,1018.24 200.89,1039.08L541.632,451.203Z" style="fill:rgb(85,85,85);fill-rule:nonzero;"/>
            </g>
            <path d="M563.61,413.284C528.907,392.461 485.34,400.808 466.315,432.521L431.126,491.175L560.772,566.481L593.67,507.73C611.462,475.954 598.018,433.931 563.61,413.284Z" style="fill:white;fill-rule:nonzero;"/>
        </g>
        <path d="M828.055,525.634C846.256,526.278 856.816,573.211 856.816,573.211C856.816,573.211 899.379,575.248 900.933,590.023C902.798,607.743 864.937,626.208 864.937,626.208C864.937,626.208 879.011,666.698 866.984,674.502C855.481,681.966 821.679,654.98 821.679,654.98C821.679,654.98 787.054,673.937 777.425,667.671C767.759,661.382 782.809,617.55 782.809,617.55C782.809,617.55 746.393,590.816 751.285,577.165C755.717,564.798 797.903,569.834 797.903,569.834C797.903,569.834 809.519,524.979 828.055,525.634Z" style="fill:white;fill-rule:nonzero;"/>
        <path d="M454.776,0.014C491.177,1.301 512.298,95.167 512.298,95.167C512.298,95.167 597.425,99.24 600.534,128.789C604.262,164.23 528.539,201.16 528.539,201.16C528.539,201.16 556.687,282.14 532.634,297.749C509.627,312.675 442.023,258.704 442.023,258.704C442.023,258.704 372.775,296.618 353.516,284.086C334.186,271.51 364.285,183.846 364.285,183.846C364.285,183.846 291.452,130.377 301.238,103.075C310.1,78.341 394.472,88.412 394.472,88.412C394.472,88.412 417.705,-1.298 454.776,0.014Z" style="fill:white;fill-rule:nonzero;"/>
        <path d="M102.962,375.458C127.23,376.315 141.31,438.893 141.31,438.893C141.31,438.893 198.06,441.608 200.133,461.308C202.619,484.936 152.138,509.556 152.138,509.556C152.138,509.556 170.903,563.542 154.867,573.949C139.529,583.898 94.46,547.918 94.46,547.918C94.46,547.918 48.294,573.194 35.455,564.838C22.569,556.455 42.634,498.012 42.634,498.012C42.634,498.012 -5.922,462.368 0.603,444.165C6.511,427.675 62.759,434.39 62.759,434.39C62.759,434.39 78.247,374.584 102.962,375.458Z" style="fill:white;fill-rule:nonzero;"/>
    </g>
</svg>
