<?xml version="1.0" standalone="no"?><!-- Generator: Adobe Fireworks CS6, Export SVG Extension by Aaron Beall (http://fireworks.abeall.com) . Version: 0.6.1  --><!DOCTYPE svg PUBLIC "-//W3C//DTD SVG 1.1//EN" "http://www.w3.org/Graphics/SVG/1.1/DTD/svg11.dtd"><svg id="Untitled-Page%201" viewBox="0 0 857 876" style="background-color:#ffffff00" version="1.1"	xmlns="http://www.w3.org/2000/svg" xmlns:xlink="http://www.w3.org/1999/xlink" xml:space="preserve"	x="0px" y="0px" width="857px" height="876px">	<g id="Magnet">		<path d="M 702.3964 85.7878 C 592.0958 -26.9548 411.8767 -28.523 298.2854 83.8384 L 33.1748 345.7136 L 196 467 L 431.2856 233.9513 C 472.2598 192.633 537.9756 192.7053 578.2866 233.9022 L 612.5236 268.8993 C 652.8298 310.0975 652.8663 377.2382 612.402 419.0746 L 416 623 L 554 801 L 774.7896 570.8822 C 884.7149 454.7802 883.1796 270.5742 772.8799 157.8329 L 702.3964 85.7878 Z" fill="#d2524c"/>		<path d="M 433.4918 604.0499 L 327.8547 713.2612 L 486.4798 875.3939 L 590.9782 765.0211 L 433.4918 604.0499 ZM 108.348 271.715 L 0.3636 378.5248 L 143.1888 524.5097 L 250.1509 416.6511 L 108.348 271.715 Z" fill="#ffffff"/>	</g></svg>