<?xml version="1.0" encoding="UTF-8" standalone="no"?>
<!DOCTYPE svg PUBLIC "-//W3C//DTD SVG 1.1//EN" "http://www.w3.org/Graphics/SVG/1.1/DTD/svg11.dtd">
<svg width="100%" height="100%" viewBox="0 0 893 892" version="1.1" xmlns="http://www.w3.org/2000/svg" xmlns:xlink="http://www.w3.org/1999/xlink" xml:space="preserve" style="fill-rule:evenodd;clip-rule:evenodd;stroke-linejoin:round;stroke-miterlimit:1.41421;">
    <g id="Magnet">
        <g transform="matrix(0.99089,0,0,1,0.00721667,0)">
            <path d="M834.246,197.871L892.636,313.769C892.636,313.769 793.319,939.543 348.748,888.959C-53.829,843.155 -33.106,470.513 49.126,339.154C176.868,135.102 533.286,96.148 533.286,96.148L542.879,200.424C542.879,200.424 251.334,402.426 396.145,532.804C540.957,663.182 834.246,197.871 834.246,197.871Z" style="fill:rgb(170,65,67);fill-rule:nonzero;"/>
        </g>
        <g transform="matrix(0.99089,0,0,1,0.00721667,0)">
            <path d="M433.809,298.201C487.708,241.551 551.298,204.252 551.298,204.252L535.782,94.735C535.782,94.735 428.093,108.036 308.56,151.921L380.628,204.252L433.809,298.201ZM830.42,188.627C830.42,188.627 795.182,267.771 725.069,352.569L770.905,347.629L835.181,516.411C879.697,405.192 892.636,313.769 892.636,313.769L830.42,188.627Z" style="fill:rgb(153,153,153);fill-rule:nonzero;"/>
        </g>
        <g transform="matrix(0.99089,0,0,1,0.00721667,0)">
            <path d="M428.602,3.842L522.069,105.565C522.069,105.565 106.523,339.844 303.052,485.869C499.58,631.891 647.312,162.079 647.312,162.079L823.03,194.103C823.03,194.103 628.62,973.984 153.81,666.931C-292.634,378.22 428.602,3.842 428.602,3.842Z" style="fill:rgb(230,109,116);fill-rule:nonzero;"/>
        </g>
        <g transform="matrix(0.99089,0,0,1,0.00721667,0)">
            <path d="M770.971,347.896C811.308,254.945 830.577,188.606 830.577,188.606L646.493,159.41C646.493,159.41 614.849,243.081 584.682,313.378C584.682,313.378 681.103,323.852 770.971,347.896ZM427.979,2.973C427.979,2.973 357.167,37.1 272.33,100.524L380.628,204.252C471.598,141.356 536.062,94.863 536.062,94.863L427.979,2.973Z" style="fill:white;fill-rule:nonzero;"/>
        </g>
    </g>
</svg>
