<?xml version="1.0" encoding="UTF-8" standalone="no"?>
<!DOCTYPE svg PUBLIC "-//W3C//DTD SVG 1.1//EN" "http://www.w3.org/Graphics/SVG/1.1/DTD/svg11.dtd">
<svg width="100%" height="100%" viewBox="0 0 954 665" version="1.1" xmlns="http://www.w3.org/2000/svg" xmlns:xlink="http://www.w3.org/1999/xlink" xml:space="preserve" style="fill-rule:evenodd;clip-rule:evenodd;stroke-linejoin:round;stroke-miterlimit:1.41421;">
    <g transform="matrix(0.937897,0,0,0.981463,29.6961,3.66082)">
        <g id="Mail">
            <path d="M953.485,78.713C953.485,35.774 917.004,0.913 872.071,0.913L81.774,0.913C36.84,0.913 0.359,35.774 0.359,78.713L0.359,587.098C0.359,630.037 36.84,664.898 81.774,664.898L872.071,664.898C917.004,664.898 953.485,630.037 953.485,587.098L953.485,78.713Z" style="fill:rgb(230,230,230);"/>
            <clipPath id="_clip1">
                <path d="M953.485,78.713C953.485,35.774 917.004,0.913 872.071,0.913L81.774,0.913C36.84,0.913 0.359,35.774 0.359,78.713L0.359,587.098C0.359,630.037 36.84,664.898 81.774,664.898L872.071,664.898C917.004,664.898 953.485,630.037 953.485,587.098L953.485,78.713Z"/>
            </clipPath>
            <g clip-path="url(#_clip1)">
                <path d="M16.247,48.334C16.247,48.334 407.545,459.372 476.924,459.372C546.302,459.372 946.862,62.028 946.862,62.028L16.247,48.334Z" style="fill:rgb(192,192,192);fill-rule:nonzero;"/>
                <g transform="matrix(0.996488,0,0,1.00093,3.34543,-0.333802)">
                    <path d="M77.089,0.906C44.413,0.906 16.508,21.196 5.445,49.835C5.445,49.835 392.748,358.905 473.738,358.905C554.726,358.905 952.456,64.851 952.456,64.851C946.482,28.602 914.876,0.906 876.758,0.906L77.089,0.906Z" style="fill:white;fill-rule:nonzero;"/>
                </g>
            </g>
        </g>
    </g>
</svg>
