<?xml version="1.0" encoding="UTF-8" standalone="no"?>
<!DOCTYPE svg PUBLIC "-//W3C//DTD SVG 1.1//EN" "http://www.w3.org/Graphics/SVG/1.1/DTD/svg11.dtd">
<svg width="100%" height="100%" viewBox="0 0 1210 1230" version="1.1" xmlns="http://www.w3.org/2000/svg" xmlns:xlink="http://www.w3.org/1999/xlink" xml:space="preserve" style="fill-rule:evenodd;clip-rule:evenodd;stroke-linejoin:round;stroke-miterlimit:1.41421;">
    <g id="Mountains">
        <path id="Ellipse" d="M28.005,611.061C28.005,290.692 287.337,30.989 607.247,30.989C927.161,30.989 1186.49,290.692 1186.49,611.061C1186.49,931.429 927.161,1191.13 607.247,1191.13C287.337,1191.13 28.005,931.429 28.005,611.061Z" style="fill:rgb(182,237,247);fill-rule:nonzero;"/>
        <g id="Mountains1">
            <clipPath id="_clip1">
                <path d="M28.005,611.061C28.005,290.692 287.337,30.989 607.247,30.989C927.161,30.989 1186.49,290.692 1186.49,611.061C1186.49,931.429 927.161,1191.13 607.247,1191.13C287.337,1191.13 28.005,931.429 28.005,611.061Z"/>
            </clipPath>
            <g clip-path="url(#_clip1)">
                <g>
                    <g>
                        <path id="Ellipse3" d="M720.79,867.943C720.79,681.611 849.312,499.849 973.223,499.849C1097.13,499.849 1237.64,708.771 1237.64,895.105C1237.64,1081.44 1097.13,1174.61 973.223,1174.61C849.312,1174.61 720.79,1054.28 720.79,867.943Z" style="fill:rgb(187,126,93);fill-rule:nonzero;"/>
                        <path id="Ellipse4" d="M719.198,901.407C719.198,734.315 846.847,510.261 914.434,510.261C982.022,510.261 972.64,530.152 984.782,696.807C1011.84,1068.17 1026.51,1430.45 958.924,1430.45C891.336,1430.45 719.198,1068.5 719.198,901.407Z" style="fill:rgb(156,102,77);fill-rule:nonzero;"/>
                        <path d="M974.665,493.115C1061.92,500.413 1151.96,594.576 1183.46,674.388C1204.58,727.915 1061.47,813.618 970.919,756.907C836.089,877.894 746.177,737.082 752.079,695.944C760.788,635.234 834.707,481.408 974.665,493.115Z" style="fill:white;fill-rule:nonzero;"/>
                    </g>
                    <g>
                        <path id="Ellipse5" d="M1024.63,860.224C1024.63,858.016 1026.43,856.227 1028.65,856.227C1030.87,856.227 1032.67,858.016 1032.67,860.224C1032.67,862.43 1030.87,864.22 1028.65,864.22C1026.43,864.22 1024.63,862.43 1024.63,860.224Z" style="fill:rgb(156,103,72);fill-rule:nonzero;"/>
                        <path id="Ellipse6" d="M1121.09,858.225C1121.09,852.707 1125.59,848.233 1131.14,848.233C1136.68,848.233 1141.18,852.707 1141.18,858.225C1141.18,863.743 1136.68,868.217 1131.14,868.217C1125.59,868.217 1121.09,863.743 1121.09,858.225Z" style="fill:rgb(156,103,72);fill-rule:nonzero;"/>
                        <path id="Ellipse7" d="M1080.9,908.185C1080.9,905.978 1082.7,904.19 1084.92,904.19C1087.14,904.19 1088.94,905.978 1088.94,908.185C1088.94,910.393 1087.14,912.183 1084.92,912.183C1082.7,912.183 1080.9,910.393 1080.9,908.185Z" style="fill:rgb(156,103,72);fill-rule:nonzero;"/>
                    </g>
                    <path id="Ellipse8" d="M771.021,625.977C811.999,545.57 882.279,492.275 956.704,492.951C970.233,498.333 988.376,625.977 988.376,763.221C988.376,782.25 890.081,854.716 810.541,798.721C754.791,759.472 729.876,706.71 771.021,625.977Z" style="fill:rgb(238,238,238);fill-rule:nonzero;"/>
                </g>
                <g>
                    <g>
                        <path id="Ellipse9" d="M36.879,876.622C36.879,577.804 241.565,286.317 438.904,286.317C636.245,286.317 852.914,621.444 860.008,920.179C877.045,1637.6 636.245,1368.42 438.904,1368.42C241.565,1368.42 36.879,1175.44 36.879,876.622Z" style="fill:rgb(187,126,93);fill-rule:nonzero;"/>
                        <path id="Ellipse10" d="M45.328,813.327C45.328,545.366 237.637,303.016 345.277,303.016C452.918,303.016 429.366,437.103 448.705,704.364C491.798,1299.91 336.882,1415.47 229.243,1415.47C121.603,1415.47 45.328,1081.29 45.328,813.327Z" style="fill:rgb(156,102,77);fill-rule:nonzero;"/>
                        <path d="M455.354,277.551C594.317,289.256 723.559,438.229 773.723,566.221C807.364,652.06 565.109,789.501 420.902,698.554C206.172,892.577 77.314,666.761 86.714,600.79C100.582,503.429 232.455,258.779 455.354,277.551Z" style="fill:white;fill-rule:nonzero;"/>
                    </g>
                    <g>
                        <path id="Ellipse11" d="M520.783,864.241C520.783,860.701 523.648,857.831 527.182,857.831C530.717,857.831 533.583,860.701 533.583,864.241C533.583,867.781 530.717,870.65 527.182,870.65C523.648,870.65 520.783,867.781 520.783,864.241Z" style="fill:rgb(156,103,72);fill-rule:nonzero;"/>
                        <path id="Ellipse12" d="M674.394,861.036C674.394,852.186 681.557,845.012 690.396,845.012C699.233,845.012 706.396,852.186 706.396,861.036C706.396,869.886 699.233,877.06 690.396,877.06C681.557,877.06 674.394,869.886 674.394,861.036Z" style="fill:rgb(156,103,72);fill-rule:nonzero;"/>
                        <path id="Ellipse13" d="M610.389,941.157C610.389,937.616 613.255,934.747 616.79,934.747C620.326,934.747 623.191,937.616 623.191,941.157C623.191,944.696 620.326,947.565 616.79,947.565C613.255,947.565 610.389,944.696 610.389,941.157Z" style="fill:rgb(156,103,72);fill-rule:nonzero;"/>
                    </g>
                    <path id="Ellipse14" d="M123.211,484.835C176.162,393.245 280.866,283.697 414.026,277.204C435.573,285.835 448.705,488.586 448.705,708.68C448.705,739.196 306.494,855.409 179.819,765.61C91.028,702.668 50.588,610.452 123.211,484.835Z" style="fill:rgb(238,238,238);fill-rule:nonzero;"/>
                </g>
            </g>
        </g>
    </g>
</svg>
