<?xml version="1.0" encoding="UTF-8" standalone="no"?>
<!DOCTYPE svg PUBLIC "-//W3C//DTD SVG 1.1//EN" "http://www.w3.org/Graphics/SVG/1.1/DTD/svg11.dtd">
<svg width="100%" height="100%" viewBox="0 0 576 1052" version="1.1" xmlns="http://www.w3.org/2000/svg" xmlns:xlink="http://www.w3.org/1999/xlink" xml:space="preserve" style="fill-rule:evenodd;clip-rule:evenodd;stroke-linejoin:round;stroke-miterlimit:1.41421;">
    <g id="Popsicle" transform="matrix(1,0,0,1,-3.3093,8.90603)">
        <g transform="matrix(0.963836,0,0,0.963836,10.9204,10.0602)">
            <path d="M373.434,782.998C373.434,737.316 336.346,700.228 290.664,700.228C244.982,700.228 207.894,737.316 207.894,782.998L207.894,968.813C207.894,1014.5 244.982,1051.58 290.664,1051.58C336.346,1051.58 373.434,1014.5 373.434,968.813L373.434,782.998Z" style="fill:rgb(170,136,125);"/>
            <clipPath id="_clip1">
                <path d="M373.434,782.998C373.434,737.316 336.346,700.228 290.664,700.228C244.982,700.228 207.894,737.316 207.894,782.998L207.894,968.813C207.894,1014.5 244.982,1051.58 290.664,1051.58C336.346,1051.58 373.434,1014.5 373.434,968.813L373.434,782.998Z"/>
            </clipPath>
            <g clip-path="url(#_clip1)">
                <g transform="matrix(1.30668,0,0,1,-84.0855,0)">
                    <rect x="207.894" y="730.348" width="165.54" height="130.504" style="fill:rgb(131,105,96);"/>
                </g>
            </g>
        </g>
        <g transform="matrix(0.963836,0,0,0.963836,13.4881,10.0602)">
            <path d="M288.412,0.533C129.845,0.533 1.305,125.254 1.305,279.109L1.305,477.375L575.52,477.375L575.52,279.109C575.52,125.254 446.98,0.533 288.412,0.533Z" style="fill:rgb(120,174,204);fill-rule:nonzero;"/>
        </g>
        <g transform="matrix(0.963836,0,0,0.963836,13.4881,10.0602)">
            <rect x="0.971" y="459.358" width="574.214" height="188.12" style="fill:rgb(247,222,131);"/>
        </g>
        <g transform="matrix(0.963836,0,0,0.963836,13.4881,10.0602)">
            <rect x="0.971" y="268.618" width="574.214" height="210.758" style="fill:rgb(232,131,152);"/>
        </g>
        <g transform="matrix(0.963836,0,0,0.963836,13.4881,10.0602)">
            <path d="M1.305,645.473L1.305,701.139C1.305,768.834 57.864,823.712 127.633,823.712L449.191,823.712C518.962,823.712 575.52,768.834 575.52,701.139L575.52,645.473L1.305,645.473Z" style="fill:rgb(118,200,130);fill-rule:nonzero;"/>
        </g>
    </g>
</svg>
