<?xml version="1.0" encoding="UTF-8" standalone="no"?>
<!DOCTYPE svg PUBLIC "-//W3C//DTD SVG 1.1//EN" "http://www.w3.org/Graphics/SVG/1.1/DTD/svg11.dtd">
<svg width="100%" height="100%" viewBox="0 0 659 967" version="1.1" xmlns="http://www.w3.org/2000/svg" xmlns:xlink="http://www.w3.org/1999/xlink" xml:space="preserve" style="fill-rule:evenodd;clip-rule:evenodd;stroke-linejoin:round;stroke-miterlimit:1.41421;">
    <g id="Potion" transform="matrix(0.971743,0,0,0.98403,-5.11392,7.63209)">
        <g>
            <g transform="matrix(1.00013,0,0,1,-0.913233,0)">
                <rect x="212.886" y="164.634" width="234.969" height="209.092" style="fill:white;"/>
            </g>
            <g transform="matrix(1,0,0,1,-0.8429,0)">
                <path d="M494.821,111.072C494.821,95.761 482.233,83.331 466.729,83.331L193.957,83.331C178.452,83.331 165.865,95.761 165.865,111.072L165.865,171.752C165.865,187.062 178.452,199.493 193.957,199.493L466.729,199.493C482.233,199.493 494.821,187.062 494.821,171.752L494.821,111.072Z" style="fill:white;"/>
            </g>
            <g transform="matrix(1,0,0,1,-0.1242,0)">
                <path d="M288.817,0.809C265.361,0.809 246.343,19.648 246.343,42.887L246.343,108.068L412.905,108.068L412.905,42.887C412.905,19.648 393.888,0.809 370.431,0.809L288.817,0.809Z" style="fill:rgb(149,109,72);fill-rule:nonzero;"/>
            </g>
            <g transform="matrix(1,0,0,0.757126,-0.1242,20.2352)">
                <path d="M246.343,83.316L246.343,173.251C246.343,196.49 265.361,215.328 288.817,215.328L370.431,215.328C393.888,215.328 412.905,196.49 412.905,173.251L412.905,83.316L246.343,83.316Z" style="fill:rgb(221,221,221);fill-rule:nonzero;"/>
            </g>
            <g transform="matrix(1,0,0,1,-1.29167,-5.42188)">
                <path d="M329.645,44.321C329.645,29.419 317.394,17.322 302.305,17.322L290.361,17.322C275.272,17.322 263.021,29.419 263.021,44.321L263.021,48.079C263.021,62.98 275.272,75.078 290.361,75.078L302.305,75.078C317.394,75.078 329.645,62.98 329.645,48.079L329.645,44.321Z" style="fill:rgb(215,184,134);"/>
            </g>
        </g>
        <g transform="matrix(1,0,0,1,-0.1243,0)">
            <path id="Ellipse" d="M0.667,640.895C0.667,461.259 147.945,315.64 329.624,315.64C511.304,315.64 658.582,461.259 658.582,640.895C658.582,820.531 511.304,966.15 329.624,966.15C147.945,966.15 0.667,820.531 0.667,640.895Z" style="fill:white;fill-rule:nonzero;"/>
            <path d="M60.409,664.129C72.315,800.808 188.302,908.07 329.624,908.07C470.947,908.07 586.933,800.808 598.84,664.129L60.409,664.129Z" style="fill:rgb(118,200,130);fill-rule:nonzero;"/>
            <path id="Ellipse2" d="M61.574,666.436C61.574,637.566 184.551,614.162 333.788,614.162C483.026,614.162 597.675,637.566 597.675,666.436C597.675,695.306 483.026,718.707 333.788,718.707C184.551,718.707 61.574,695.306 61.574,666.436Z" style="fill:rgb(173,254,131);fill-rule:nonzero;"/>
            <path id="Ellipse3" d="M424.256,483.48C424.256,466.041 438.378,451.903 455.801,451.903C473.221,451.903 487.343,466.041 487.343,483.48C487.343,500.919 473.221,515.057 455.801,515.057C438.378,515.057 424.256,500.919 424.256,483.48Z" style="fill:rgb(118,200,130);fill-opacity:0.6784;fill-rule:nonzero;"/>
            <path id="Ellipse4" d="M307.094,447.393C307.094,439.917 313.329,433.858 321.022,433.858C328.715,433.858 334.95,439.917 334.95,447.393C334.95,454.867 328.715,460.924 321.022,460.924C313.329,460.924 307.094,454.867 307.094,447.393Z" style="fill:rgb(118,200,130);fill-opacity:0.6784;fill-rule:nonzero;"/>
            <path id="Ellipse5" d="M352.975,531.971C352.975,526.366 357.652,521.822 363.423,521.822C369.19,521.822 373.868,526.366 373.868,531.971C373.868,537.579 369.19,542.123 363.423,542.123C357.652,542.123 352.975,537.579 352.975,531.971Z" style="fill:rgb(118,200,130);fill-opacity:0.6784;fill-rule:nonzero;"/>
            <path id="Ellipse6" d="M280.056,781.202C280.056,763.762 294.176,749.625 311.6,749.625C329.022,749.625 343.143,763.762 343.143,781.202C343.143,798.642 329.022,812.779 311.6,812.779C294.176,812.779 280.056,798.642 280.056,781.202Z" style="fill:rgb(173,254,131);fill-opacity:0.4902;fill-rule:nonzero;"/>
            <path id="Ellipse7" d="M451.064,762.465C451.064,755.63 456.658,750.088 463.557,750.088C470.456,750.088 476.049,755.63 476.049,762.465C476.049,769.298 470.456,774.841 463.557,774.841C456.658,774.841 451.064,769.298 451.064,762.465Z" style="fill:rgb(173,254,131);fill-opacity:0.4902;fill-rule:nonzero;"/>
            <path id="Ellipse8" d="M368.47,857.078C368.47,850.243 374.062,844.702 380.963,844.702C387.86,844.702 393.454,850.243 393.454,857.078C393.454,863.915 387.86,869.455 380.963,869.455C374.062,869.455 368.47,863.915 368.47,857.078Z" style="fill:rgb(173,254,131);fill-opacity:0.4902;fill-rule:nonzero;"/>
            <path id="Ellipse9" d="M113.185,463.431C140.505,424.607 176.77,399.881 191.009,411.489C204.669,422.626 174.155,453.605 146.365,488.181C120.98,519.765 108.234,545.984 95.028,538.73C81.351,531.222 88.385,498.674 113.185,463.431Z" style="fill:rgb(216,237,255);fill-rule:nonzero;"/>
        </g>
        <g transform="matrix(0.973031,0,0,1,8.75584,0)">
            <rect x="208.877" y="198.818" width="241.513" height="33.003" style="fill:rgb(216,237,255);"/>
        </g>
    </g>
</svg>
