<?xml version="1.0" encoding="UTF-8" standalone="no"?>
<!DOCTYPE svg PUBLIC "-//W3C//DTD SVG 1.1//EN" "http://www.w3.org/Graphics/SVG/1.1/DTD/svg11.dtd">
<svg width="100%" height="100%" viewBox="0 0 981 952" version="1.1" xmlns="http://www.w3.org/2000/svg" xmlns:xlink="http://www.w3.org/1999/xlink" xml:space="preserve" style="fill-rule:evenodd;clip-rule:evenodd;stroke-linejoin:round;stroke-miterlimit:1.41421;">
    <g id="Ranking">
        <g transform="matrix(1,0,0,1.13002,0,-33.0618)">
            <g>
                <path d="M307.244,394.049C307.244,319.023 238.413,258.112 153.633,258.112C68.852,258.112 0.021,319.023 0.021,394.049L0.021,733.68C0.021,808.706 68.852,869.617 153.633,869.617C238.413,869.617 307.244,808.706 307.244,733.68L307.244,394.049Z" style="fill:white;"/>
                <clipPath id="_clip1">
                    <path d="M307.244,394.049C307.244,319.023 238.413,258.112 153.633,258.112C68.852,258.112 0.021,319.023 0.021,394.049L0.021,733.68C0.021,808.706 68.852,869.617 153.633,869.617C238.413,869.617 307.244,808.706 307.244,733.68L307.244,394.049Z"/>
                </clipPath>
                <g clip-path="url(#_clip1)">
                    <g transform="matrix(1,0,0,0.969848,0,-45.5049)">
                        <path d="M307.244,757.954C307.244,680.595 238.413,617.79 153.633,617.79C68.852,617.79 0.021,680.595 0.021,757.954L0.021,810.886C0.021,888.245 68.852,951.05 153.633,951.05C238.413,951.05 307.244,888.245 307.244,810.886L307.244,757.954Z" style="fill:rgb(182,247,255);"/>
                    </g>
                </g>
            </g>
        </g>
        <g transform="matrix(1,0,0,1.0119,-1.13687e-13,-4.00215)">
            <g>
                <path d="M980.22,614.122C980.22,530.338 911.389,462.317 826.608,462.317L826.608,462.317C741.827,462.317 672.996,530.338 672.996,614.122L672.996,790.6C672.996,874.383 741.827,942.405 826.608,942.405L826.608,942.405C911.389,942.405 980.22,874.383 980.22,790.6L980.22,614.122Z" style="fill:white;"/>
                <clipPath id="_clip2">
                    <path d="M980.22,614.122C980.22,530.338 911.389,462.317 826.608,462.317L826.608,462.317C741.827,462.317 672.996,530.338 672.996,614.122L672.996,790.6C672.996,874.383 741.827,942.405 826.608,942.405L826.608,942.405C911.389,942.405 980.22,874.383 980.22,790.6L980.22,614.122Z"/>
                </clipPath>
                <g clip-path="url(#_clip2)">
                    <g transform="matrix(1,0,0,0.444506,0,545.296)">
                        <path d="M980.22,702.361C980.22,569.877 931.84,462.317 872.25,462.317L780.967,462.317C721.376,462.317 672.996,569.877 672.996,702.361C672.996,834.845 721.376,942.405 780.967,942.405L872.25,942.405C931.84,942.405 980.22,834.845 980.22,702.361Z" style="fill:rgb(182,247,255);"/>
                    </g>
                </g>
            </g>
        </g>
        <g transform="matrix(1,0,0,1.0981,-0.01415,-0.0805721)">
            <g>
                <path d="M643.745,140.71C643.745,63.503 574.914,0.821 490.133,0.821C405.353,0.821 336.521,63.503 336.521,140.71L336.521,724.966C336.521,802.173 405.353,864.855 490.133,864.855C574.914,864.855 643.745,802.173 643.745,724.966L643.745,140.71Z" style="fill:white;"/>
                <clipPath id="_clip3">
                    <path d="M643.745,140.71C643.745,63.503 574.914,0.821 490.133,0.821C405.353,0.821 336.521,63.503 336.521,140.71L336.521,724.966C336.521,802.173 405.353,864.855 490.133,864.855C574.914,864.855 643.745,802.173 643.745,724.966L643.745,140.71Z"/>
                </clipPath>
                <g clip-path="url(#_clip3)">
                    <g transform="matrix(1,0,0,1.11434,0,-183.632)">
                        <path d="M643.747,536.022C643.747,466.737 574.916,410.487 490.135,410.487C405.355,410.487 336.524,466.737 336.524,536.022L336.524,825.576C336.524,894.861 405.355,951.111 490.135,951.111C574.916,951.111 643.747,894.861 643.747,825.576L643.747,536.022Z" style="fill:rgb(182,247,255);"/>
                    </g>
                </g>
            </g>
        </g>
    </g>
</svg>
