<?xml version="1.0" encoding="UTF-8" standalone="no"?>
<!DOCTYPE svg PUBLIC "-//W3C//DTD SVG 1.1//EN" "http://www.w3.org/Graphics/SVG/1.1/DTD/svg11.dtd">
<svg width="100%" height="100%" viewBox="0 0 944 940" version="1.1" xmlns="http://www.w3.org/2000/svg" xmlns:xlink="http://www.w3.org/1999/xlink" xml:space="preserve" style="fill-rule:evenodd;clip-rule:evenodd;stroke-linejoin:round;stroke-miterlimit:1.41421;">
    <g id="Ring">
        <path d="M242.71,470.273C242.71,344.139 345.372,241.887 472.015,241.887C598.66,241.887 701.323,344.139 701.323,470.273C701.323,596.408 598.66,698.658 472.015,698.658C345.372,698.658 242.71,596.408 242.71,470.273ZM0.424,470.273C0.424,729.683 211.56,939.97 472.015,939.97C732.471,939.97 943.606,729.683 943.606,470.273C943.606,210.862 732.471,0.576 472.015,0.576C211.56,0.576 0.424,210.862 0.424,470.273Z" style="fill:rgb(238,238,255);fill-rule:nonzero;"/>
        <clipPath id="_clip1">
            <path d="M242.71,470.273C242.71,344.139 345.372,241.887 472.015,241.887C598.66,241.887 701.323,344.139 701.323,470.273C701.323,596.408 598.66,698.658 472.015,698.658C345.372,698.658 242.71,596.408 242.71,470.273ZM0.424,470.273C0.424,729.683 211.56,939.97 472.015,939.97C732.471,939.97 943.606,729.683 943.606,470.273C943.606,210.862 732.471,0.576 472.015,0.576C211.56,0.576 0.424,210.862 0.424,470.273Z" clip-rule="nonzero"/>
        </clipPath>
        <g clip-path="url(#_clip1)">
            <g transform="matrix(1,0,0,1.01793,0,-4.80119)">
                <path d="M374.549,276.345C423.239,250.491 529.812,261.624 529.812,261.624L597.485,14.413L593.14,13.411C466.732,-15.723 332.853,-13.626 232.86,44.563L374.549,276.345Z" style="fill:rgb(255,51,102);fill-rule:nonzero;"/>
            </g>
            <g transform="matrix(1.02721,0,0,1,-17.2014,0)">
                <path d="M688.668,455.91C686.151,403.284 665.862,353.577 624.326,313.041L800.048,129.849L803.069,132.884C891.312,221.44 934.823,335.596 934.953,448.448L688.668,455.91Z" style="fill:rgb(255,51,102);fill-rule:nonzero;"/>
            </g>
            <path d="M257.658,506.905C249.665,451.632 264.466,405.215 297.584,356.473L59.041,189.224L56.719,192.711C-11.258,294.852 -33.386,415.543 -14.689,530.331L257.658,506.905Z" style="fill:rgb(255,51,102);fill-rule:nonzero;"/>
            <path d="M676.288,550.755C655.396,599.265 616.288,640.64 562.959,664.14L681.463,916.872L685.388,915.102C800.373,863.287 882.332,771.225 922.563,664.834L676.288,550.755Z" style="fill:rgb(255,51,102);fill-rule:nonzero;"/>
            <path d="M294.905,598.663C330.182,642.108 380.999,673.474 440.273,683.319L444.567,683.987L394.851,947.799L390.565,947.089C264.381,926.137 156.835,857.717 84.076,763.461L294.905,598.663Z" style="fill:rgb(255,51,102);fill-rule:nonzero;"/>
        </g>
    </g>
</svg>
