<?xml version="1.0" encoding="UTF-8" standalone="no"?>
<!DOCTYPE svg PUBLIC "-//W3C//DTD SVG 1.1//EN" "http://www.w3.org/Graphics/SVG/1.1/DTD/svg11.dtd">
<svg width="100%" height="100%" viewBox="0 0 974 957" version="1.1" xmlns="http://www.w3.org/2000/svg" xmlns:xlink="http://www.w3.org/1999/xlink" xml:space="preserve" style="fill-rule:evenodd;clip-rule:evenodd;stroke-linejoin:round;stroke-miterlimit:1.41421;">
    <g id="Settings" transform="matrix(0.962982,0,0,0.9666,17.871,13.4798)">
        <g>
            <path d="M446.921,157.102C446.921,157.102 482.313,30.711 541.41,10.538C597.811,-8.715 708.381,33.512 720.717,60.711C730.849,83.051 707.83,229.272 707.83,229.272L446.921,157.102Z" style="fill:rgb(214,214,214);fill-rule:nonzero;"/>
            <path d="M734.82,244.31C734.82,244.31 840.069,205.754 897.421,230.087C955.795,254.855 979.561,380.109 971.171,402.588C955.885,443.544 830.79,499.919 830.79,499.919L734.82,244.31Z" style="fill:rgb(214,214,214);fill-rule:nonzero;"/>
            <path d="M809.795,496.912C809.795,496.912 934.247,566.564 947.347,627.434C960.904,690.427 886.341,790.711 847.793,783.955C801.534,775.847 677.84,728.465 677.84,728.465L809.795,496.912Z" style="fill:rgb(214,214,214);fill-rule:nonzero;"/>
            <path d="M680.84,734.48C680.84,734.48 681.497,885.579 651.268,923.833C611.699,973.906 480.746,963.34 458.714,936.408C436.04,908.692 398.938,770.566 398.938,770.566L680.84,734.48Z" style="fill:rgb(214,214,214);fill-rule:nonzero;"/>
            <path d="M404.936,773.572C404.936,773.572 309.592,870.935 247.19,873.527C180.53,876.294 94.417,791.983 106.003,747.581C116.994,705.463 198.008,587.128 198.008,587.128L404.936,773.572Z" style="fill:rgb(214,214,214);fill-rule:nonzero;"/>
            <path d="M192.008,596.151C192.008,596.151 72.899,586.729 29.354,544.679C-5.114,511.395 -11.456,380.145 25.22,357.132C44.962,344.744 219,328.511 219,328.511L192.008,596.151Z" style="fill:rgb(214,214,214);fill-rule:nonzero;"/>
            <path d="M204.005,337.53C204.005,337.53 138.33,230.19 143.349,170.566C148.921,104.414 238.621,45.221 290.381,44.888C325.86,44.66 452.919,169.129 452.919,169.129L204.005,337.53Z" style="fill:rgb(214,214,214);fill-rule:nonzero;"/>
        </g>
        <g>
            <path d="M376.973,467.197C376.973,399.604 431.006,344.811 497.666,344.811C564.323,344.811 618.358,399.604 618.358,467.197C618.358,534.79 564.323,589.584 497.666,589.584C431.006,589.584 376.973,534.79 376.973,467.197ZM131.501,471.188C131.501,673.968 293.607,838.346 493.581,838.346C693.552,838.346 855.658,673.968 855.658,471.188C855.658,268.407 693.552,104.027 493.581,104.027C293.607,104.027 131.501,268.407 131.501,471.188Z" style="fill:white;fill-rule:nonzero;"/>
            <path d="M376.973,467.197C376.973,399.604 431.006,344.811 497.666,344.811C564.323,344.811 618.358,399.604 618.358,467.197C618.358,534.79 564.323,589.584 497.666,589.584C431.006,589.584 376.973,534.79 376.973,467.197ZM304.556,467.197C304.556,575.346 391.013,663.015 497.666,663.015C604.319,663.015 690.773,575.346 690.773,467.197C690.773,359.048 604.319,271.378 497.666,271.378C391.013,271.378 304.556,359.048 304.556,467.197Z" style="fill:rgb(199,199,199);fill-rule:nonzero;"/>
        </g>
    </g>
</svg>
