<?xml version="1.0" standalone="no"?><!-- Generator: Adobe Fireworks CS6, Export SVG Extension by Aaron Beall (http://fireworks.abeall.com) . Version: 0.6.1  --><!DOCTYPE svg PUBLIC "-//W3C//DTD SVG 1.1//EN" "http://www.w3.org/Graphics/SVG/1.1/DTD/svg11.dtd"><svg id="Untitled-Page%201" viewBox="0 0 918 950" style="background-color:#ffffff00" version="1.1"	xmlns="http://www.w3.org/2000/svg" xmlns:xlink="http://www.w3.org/1999/xlink" xml:space="preserve"	x="0px" y="0px" width="918px" height="950px">	<g id="Shield">		<path d="M 73.4153 80.6929 C 73.4153 80.6929 237.2143 108.8326 374.984 76.6541 C 512.7562 44.477 592.0859 0.2482 592.0859 0.2482 L 673.1274 48.5158 C 673.1274 48.5158 681.2322 193.3159 754.1686 273.7613 C 827.109 354.2059 883.8359 402.4728 883.8359 402.4728 C 883.8359 402.4728 729.8571 712.1878 527.252 820.7891 C 324.6449 929.3906 154.4588 949.5007 154.4588 949.5007 C 154.4588 949.5007 -128.1037 654.9779 73.4153 80.6929 Z" fill="#dddddd"/>		<path d="M 462.4189 193.3159 C 462.4189 193.3159 462.1836 283.4749 527.0162 347.8298 C 591.8499 412.1866 640.7124 450.7404 640.7124 450.7404 C 640.7124 450.7404 572.4713 591.3923 446.8541 679.8815 C 321.2375 768.3709 186.8748 772.5216 186.8748 772.5216 C 186.8748 772.5216 82.3531 610.8464 98.5629 441.911 C 114.7698 272.9754 138.2477 225.4944 138.2477 225.4944 C 138.2477 225.4944 239.552 265.7176 462.4189 193.3159 Z" fill="#ffdc41"/>		<path d="M 462.4189 193.3159 C 462.4189 193.3159 462.1836 283.4749 527.0162 347.8298 C 591.8499 412.1866 640.7124 450.7404 640.7124 450.7404 C 640.7124 450.7404 572.4713 591.3923 446.8541 679.8815 C 321.2375 768.3709 186.8748 772.5216 186.8748 772.5216 C 186.8748 772.5216 82.3531 610.8464 98.5629 441.911 C 114.7698 272.9754 138.2477 225.4944 138.2477 225.4944 C 138.2477 225.4944 239.552 265.7176 462.4189 193.3159 Z" fill="#f2b800"/>		<path d="M 793.7824 434.6525 C 793.7824 434.6525 673.1274 358.2284 624.5023 241.5835 C 575.8771 124.9375 592.0859 2.202 592.0859 2.202 L 687.3409 43.4492 C 687.3409 43.4492 692.8694 167.969 750.9183 245.448 C 807.688 321.219 918.0701 411.4957 918.0701 411.4957 L 793.7824 434.6525 Z" fill="#ffffff"/>		<path d="M 154.4588 949.5007 C 154.4588 949.5007 442.1574 820.7891 575.8771 708.1649 C 709.5974 595.5412 786.5876 434.6525 786.5876 434.6525 L 916.2543 411.4957 C 916.2543 411.4957 709.5974 925.3665 154.4588 949.5007 Z" fill="#eeeeee"/>		<path d="M 460.9697 192.5454 C 460.9697 192.5454 392.3186 219.2748 303.4039 227.7498 C 214.4871 236.2231 132.1643 218.728 132.1643 218.728 L 99.2231 400.0276 L 316.2566 485.8289 L 460.9697 192.5454 Z" fill="#feef47"/>		<path d="M 318.1139 487.6878 L 532.1818 606.1818 C 532.1818 606.1818 479.7288 677.5619 387.2952 720.3566 C 274.2911 772.6751 191.605 775.429 191.605 775.429 L 318.1139 487.6878 Z" fill="#feef47"/>	</g></svg>