<?xml version="1.0" encoding="UTF-8" standalone="no"?>
<!DOCTYPE svg PUBLIC "-//W3C//DTD SVG 1.1//EN" "http://www.w3.org/Graphics/SVG/1.1/DTD/svg11.dtd">
<svg width="100%" height="100%" viewBox="0 0 1032 953" version="1.1" xmlns="http://www.w3.org/2000/svg" xmlns:xlink="http://www.w3.org/1999/xlink" xml:space="preserve" style="fill-rule:evenodd;clip-rule:evenodd;stroke-linejoin:round;stroke-miterlimit:1.41421;">
    <g id="Shop" transform="matrix(1,0,0,1,1.13687e-13,-7.3779)">
        <g transform="matrix(1,0,0,1.30428,2.85195,-297.209)">
            <path d="M893.787,501.348C893.787,430.054 818.294,372.173 725.307,372.173L300.989,372.173C208.002,372.173 132.509,430.054 132.509,501.348L132.509,814.118C132.509,885.412 208.002,943.294 300.989,943.294L725.307,943.294C818.294,943.294 893.787,885.412 893.787,814.118L893.787,501.348Z" style="fill:white;"/>
            <clipPath id="_clip1">
                <path d="M893.787,501.348C893.787,430.054 818.294,372.173 725.307,372.173L300.989,372.173C208.002,372.173 132.509,430.054 132.509,501.348L132.509,814.118C132.509,885.412 208.002,943.294 300.989,943.294L725.307,943.294C818.294,943.294 893.787,885.412 893.787,814.118L893.787,501.348Z"/>
            </clipPath>
            <g clip-path="url(#_clip1)">
                <g transform="matrix(1,0,0,0.756365,-0.00255,229.82)">
                    <path d="M802.209,439.501C802.209,426.704 791.959,416.315 779.335,416.315L246.967,416.315C234.342,416.315 224.093,426.704 224.093,439.501L224.093,745.032C224.093,757.829 234.342,768.219 246.967,768.219L779.335,768.219C791.959,768.219 802.209,757.829 802.209,745.032L802.209,439.501Z" style="fill:rgb(143,200,243);"/>
                </g>
                <g transform="matrix(1,0,0,0.756365,-0.6118,229.82)">
                    <path d="M224.249,409.505L224.249,590.444L803.271,695.195L803.271,409.505L224.249,409.505Z" style="fill:white;fill-opacity:0.2196;fill-rule:nonzero;"/>
                </g>
                <g transform="matrix(1.02028,0,0,0.756365,-11.3133,229.82)">
                    <path d="M132.502,576.412C173.268,569.52 205.92,538.498 215.495,498.416C226.388,543.988 267.1,577.855 315.664,577.855C364.226,577.855 404.941,543.988 415.831,498.416C426.726,543.988 467.44,577.855 516,577.855C564.564,577.855 605.276,543.988 616.169,498.416C627.063,543.988 667.774,577.855 716.34,577.855C764.9,577.855 805.612,543.988 816.507,498.416C825.634,536.604 855.701,566.579 893.778,575.289L893.778,491.321L893.778,372.742L893.778,341.328L132.502,341.328L132.502,576.412Z" style="fill-opacity:0.1412;fill-rule:nonzero;"/>
                </g>
            </g>
        </g>
        <g transform="matrix(1,0,0,1,14.3254,13.9375)">
            <path d="M853.695,91.166C853.695,41.385 813.279,0.969 763.498,0.969L239.851,0.969C190.07,0.969 149.655,41.385 149.655,91.166L149.655,251.137C149.655,300.918 190.07,341.334 239.851,341.334L763.498,341.334C813.279,341.334 853.695,300.918 853.695,251.137L853.695,91.166Z" style="fill:white;"/>
        </g>
        <path d="M893.787,458.57C893.787,406.608 851.601,364.422 799.639,364.422L226.657,364.422C174.695,364.422 132.509,406.608 132.509,458.57L132.509,858.701C132.509,910.663 174.695,952.85 226.657,952.85L799.639,952.85C851.601,952.85 893.787,910.663 893.787,858.701L893.787,458.57Z" style="fill:none;"/>
        <g>
            <g id="Ellipse" transform="matrix(1,0,0,1.16509,0,-81.1115)">
                <path d="M0.849,387.481C101.26,333.096 46.979,283.643 103.879,283.643C160.78,283.643 206.909,330.13 206.909,387.481C206.909,444.83 160.78,491.321 103.879,491.321C46.979,491.321 0.849,444.83 0.849,387.481Z" style="fill:rgb(171,25,64);fill-rule:nonzero;"/>
            </g>
            <path id="Ellipse2" d="M206.909,387.481C206.909,330.13 253.039,283.643 309.94,283.643C366.844,283.643 412.971,330.13 412.971,387.481C412.971,444.83 366.844,491.321 309.94,491.321C253.039,491.321 206.909,444.83 206.909,387.481Z" style="fill:rgb(217,217,217);fill-rule:nonzero;"/>
            <path id="Ellipse3" d="M619.033,387.481C619.033,330.13 665.161,283.643 722.062,283.643C778.965,283.643 825.095,330.13 825.095,387.481C825.095,444.83 778.965,491.321 722.062,491.321C665.161,491.321 619.033,444.83 619.033,387.481Z" style="fill:rgb(217,217,217);fill-rule:nonzero;"/>
            <g id="Ellipse4" transform="matrix(1,0,0,1.16267,0,-79.9247)">
                <path d="M825.095,387.481C825.095,330.13 871.22,283.643 928.124,283.643C985.025,283.643 936.96,335.942 1031.15,387.481C1031.15,444.83 985.025,491.321 928.124,491.321C871.22,491.321 825.095,444.83 825.095,387.481Z" style="fill:rgb(171,25,64);fill-rule:nonzero;"/>
            </g>
            <g id="Ellipse5" transform="matrix(0.996411,0,0,1.06166,2.22151,-30.2948)">
                <path d="M412.971,387.481C412.971,330.13 459.097,283.643 516,283.643C572.905,283.643 619.033,330.13 619.033,387.481C619.033,444.83 572.905,491.321 516,491.321C459.097,491.321 412.971,444.83 412.971,387.481Z" style="fill:rgb(171,25,64);fill-rule:nonzero;"/>
            </g>
            <path d="M103.879,122.114L0.849,370.175L206.909,370.175L275.596,122.114L103.879,122.114Z" style="fill:rgb(222,69,113);fill-rule:nonzero;"/>
            <path d="M275.596,122.114L424.42,122.114L414.375,370.175L206.909,370.175L275.596,122.114Z" style="fill:white;fill-rule:nonzero;"/>
            <path d="M578.962,122.114L619.033,370.175L414.291,371.063L424.42,122.114L578.962,122.114Z" style="fill:rgb(222,69,113);fill-rule:nonzero;"/>
            <path d="M739.235,122.114L578.962,122.114L619.033,370.175L825.095,370.175L739.235,122.114Z" style="fill:white;fill-rule:nonzero;"/>
            <path d="M905.225,122.114L1031.15,370.175L825.095,370.175L739.235,122.114L905.225,122.114Z" style="fill:rgb(222,69,113);fill-rule:nonzero;"/>
        </g>
    </g>
</svg>
