<?xml version="1.0" standalone="no"?><!-- Generator: Adobe Fireworks CS6, Export SVG Extension by Aaron Beall (http://fireworks.abeall.com) . Version: 0.6.1  --><!DOCTYPE svg PUBLIC "-//W3C//DTD SVG 1.1//EN" "http://www.w3.org/Graphics/SVG/1.1/DTD/svg11.dtd"><svg id="Untitled-Page%201" viewBox="0 0 782 1107" style="background-color:#ffffff00" version="1.1"	xmlns="http://www.w3.org/2000/svg" xmlns:xlink="http://www.w3.org/1999/xlink" xml:space="preserve"	x="0px" y="0px" width="782px" height="1107px">	<g id="Strawberry">		<path id="Ellipse" d="M 482.9591 340.8601 C 1180.6421 609.599 466.9922 1174.8099 229.1555 1099.3761 C -9.8004 1023.5859 -224.8006 68.2382 482.9591 340.8601 Z" fill="#ed5c89"/>		<path opacity="0.4588" d="M 482.9591 340.8601 C -210.1791 73.8693 -18.3659 984.6333 214.3086 1093.5663 L 489.1539 343.1917 L 482.9591 340.8601 Z" fill="#fc82aa"/>		<path id="Ellipse2" d="M 156.7088 429.906 C 162.9931 410.7892 183.5968 400.3125 202.7206 406.5065 C 221.8376 412.699 232.2336 433.2041 225.9493 452.3071 C 219.6646 471.4072 199.0773 481.8826 179.9621 475.7053 C 160.8379 469.5266 150.4241 449.0228 156.7088 429.906 Z" fill="#eda3c0"/>		<path id="Ellipse3" d="M 398.2212 480.4803 C 404.5103 461.4078 425.0418 450.9504 444.0786 457.1196 C 463.1096 463.2899 473.4336 483.7397 467.1478 502.7957 C 460.8616 521.8502 440.3476 532.3088 421.3154 526.1537 C 402.2819 519.9986 391.9383 499.5487 398.2212 480.4803 Z" fill="#eda3c0"/>		<path id="Ellipse4" d="M 456.1474 684.7471 C 462.4275 665.7202 482.9219 655.2571 501.9127 661.3806 C 520.9006 667.5012 531.1956 687.8749 524.918 706.8881 C 518.6405 725.8998 498.1656 736.3613 479.1774 730.2557 C 460.1838 724.1476 449.8698 703.7711 456.1474 684.7471 Z" fill="#eda3c0"/>		<path id="Ellipse5" d="M 587.8397 805.1368 C 594.1172 786.15 614.5603 775.694 633.4939 781.7844 C 652.4255 787.8719 662.6774 808.1849 656.4015 827.1564 C 650.1251 846.1266 629.6984 856.5836 610.7686 850.509 C 591.8333 844.4339 581.5649 824.1208 587.8397 805.1368 Z" fill="#eda3c0"/>		<path id="Ellipse6" d="M 401.7179 857.5214 C 407.9872 838.5137 428.477 828.0411 447.4681 834.1286 C 466.4561 840.2135 476.7551 860.5417 470.4843 879.5323 C 464.2095 898.5236 443.7418 908.9945 424.7578 902.9251 C 405.7657 896.8516 395.4446 876.5247 401.7179 857.5214 Z" fill="#eda3c0"/>		<path id="Ellipse7" d="M 163.072 755.42 C 169.3453 736.3613 189.9107 725.8734 208.9939 731.9928 C 228.072 738.1119 238.4463 758.5107 232.1726 777.5555 C 225.9008 796.5988 205.3578 807.0881 186.2786 800.9839 C 167.1922 794.8759 156.8015 774.4758 163.072 755.42 Z" fill="#eda3c0"/>		<path id="Ellipse8" d="M 230.3835 937.2797 C 236.6471 918.261 257.1708 907.7708 276.2173 913.8483 C 295.2479 919.9234 305.5944 940.2531 299.3264 959.2579 C 293.0599 978.2584 272.5544 988.7474 253.5204 982.6864 C 234.4773 976.6241 224.1159 956.2957 230.3835 937.2797 Z" fill="#eda3c0"/>		<path id="Ellipse9" d="M 266.5819 593.6448 C 272.8594 574.5709 293.4131 564.0983 312.4816 570.2507 C 331.543 576.399 341.8976 596.8349 335.6172 615.8925 C 329.3397 634.9469 308.8038 645.4209 289.7424 639.285 C 270.671 633.1477 260.3 612.7131 266.5819 593.6448 Z" fill="#eda3c0"/>		<path id="Ellipse10" d="M 69.5842 596.4714 C 75.8589 577.3698 96.464 566.8793 115.6006 573.0413 C 134.7298 579.2008 145.1401 599.6671 138.8597 618.7535 C 132.585 637.837 111.9988 648.3261 92.8697 642.1835 C 73.7333 636.0366 63.3038 615.5701 69.5842 596.4714 Z" fill="#eda3c0"/>		<path id="Ellipse11" d="M 595.7679 583.2415 C 602.0508 564.2187 622.5214 553.7737 641.479 559.9123 C 660.4308 566.0468 670.6913 586.4303 664.4084 605.4423 C 658.1212 624.4482 637.6738 634.8931 618.7205 628.7724 C 599.7643 622.6478 589.4832 602.2643 595.7679 583.2415 Z" fill="#eda3c0"/>		<path d="M 474.4868 384.9557 C 362.1398 349.9789 251.8273 265.5227 270.5962 245.5141 C 289.3835 225.4874 389.2266 256.2892 389.2266 256.2892 C 389.2266 256.2892 281.6521 61.4138 317.7874 44.2041 C 353.9512 26.9816 468.83 212.957 468.83 212.957 C 468.83 212.957 570.4868 -17.1318 603.6031 1.2245 C 636.6855 19.5586 574.8464 247.5605 574.8464 247.5605 C 574.8464 247.5605 755.8825 194.302 765.4944 213.3015 C 784.1897 250.2531 601.7501 332.7136 601.7501 332.7136 C 601.7501 332.7136 728.4437 365.5443 723.7972 389.7169 C 716.7716 426.2579 586.6117 419.865 474.4868 384.9557 Z" fill="#71c27d"/>		<path opacity="0.4902" d="M 270.5962 245.5141 C 251.8594 265.4896 361.7878 349.7119 473.9376 384.7981 L 610.5596 11.6125 C 608.9963 6.5263 606.7208 2.9516 603.6031 1.2245 C 570.4868 -17.1318 468.83 212.957 468.83 212.957 C 468.83 212.957 353.9512 26.9816 317.7874 44.2041 C 281.6521 61.4138 389.2266 256.2892 389.2266 256.2892 C 389.2266 256.2892 289.3835 225.4874 270.5962 245.5141 Z" fill="#83e292"/>	</g></svg>