<?xml version="1.0" encoding="UTF-8" standalone="no"?>
<!DOCTYPE svg PUBLIC "-//W3C//DTD SVG 1.1//EN" "http://www.w3.org/Graphics/SVG/1.1/DTD/svg11.dtd">
<svg width="100%" height="100%" viewBox="0 0 808 742" version="1.1" xmlns="http://www.w3.org/2000/svg" xmlns:xlink="http://www.w3.org/1999/xlink" xml:space="preserve" style="fill-rule:evenodd;clip-rule:evenodd;stroke-linejoin:round;stroke-miterlimit:1.41421;">
    <g id="Suitcase">
        <g transform="matrix(1,0,0,1,0.2554,0)">
            <path d="M362.251,45.129L445.243,45.129C489,46 490.189,76.278 490.189,99.901L490.189,239.436C490.189,263.058 470.063,282.206 445.243,282.206L362.251,282.206C337.426,282.206 317.305,263.058 317.305,239.436L317.305,99.901C317.305,76.278 318,45 362.251,45.129ZM334.594,0.909C293.214,0.909 259.671,35.375 259.671,77.895L259.671,323.661C259.671,366.18 293.214,400.648 334.594,400.648L472.899,400.648C514.278,400.648 547.818,366.18 547.818,323.661L547.818,77.895C547.818,35.375 514.278,0.909 472.899,0.909L334.594,0.909Z" style="fill:rgb(118,77,51);fill-rule:nonzero;"/>
        </g>
        <g transform="matrix(1,0,0,1,0.264,0)">
            <path d="M807.139,237.508C807.139,172.301 754.2,119.362 688.993,119.362L118.479,119.362C53.272,119.362 0.333,172.301 0.333,237.508L0.333,623.035C0.333,688.241 53.272,741.18 118.479,741.18L688.993,741.18C754.2,741.18 807.139,688.241 807.139,623.035L807.139,237.508Z" style="fill:rgb(189,115,66);"/>
        </g>
        <path d="M115.031,119.353C51.689,119.353 0.344,172.247 0.344,237.498L0.344,623.025C0.344,688.275 51.689,741.17 115.031,741.17L156.5,741.219L156.5,119.358L115.031,119.353Z" style="fill:rgb(179,107,61);fill-rule:nonzero;"/>
        <path d="M692.465,119.353C755.808,119.353 807.152,172.247 807.152,237.498L807.152,623.025C807.152,688.275 755.808,741.17 692.465,741.17L650.995,741.219L650.995,119.358L692.465,119.353Z" style="fill:rgb(179,107,61);fill-rule:nonzero;"/>
        <g transform="matrix(1,0,0,1,-3.0979,0)">
            <rect x="592.834" y="119.409" width="72.836" height="621.501" style="fill:rgb(229,184,128);fill-rule:nonzero;"/>
            <rect x="148.526" y="118.883" width="72.837" height="622.5" style="fill:rgb(229,184,128);fill-rule:nonzero;"/>
        </g>
    </g>
</svg>
