<?xml version="1.0" encoding="UTF-8" standalone="no"?>
<!DOCTYPE svg PUBLIC "-//W3C//DTD SVG 1.1//EN" "http://www.w3.org/Graphics/SVG/1.1/DTD/svg11.dtd">
<svg width="100%" height="100%" viewBox="0 0 731 1147" version="1.1" xmlns="http://www.w3.org/2000/svg" xmlns:xlink="http://www.w3.org/1999/xlink" xml:space="preserve" style="fill-rule:evenodd;clip-rule:evenodd;stroke-linejoin:round;stroke-miterlimit:1.41421;">
    <g id="Sword" transform="matrix(0.866025,0.5,-0.5,0.866025,290.899,-8.79112)">
        <g transform="matrix(1,0,0,1,-13.6222,0)">
            <g transform="matrix(0.793728,-0.458259,0.458259,0.793728,-188.408,173.823)">
                <path d="M728.955,10.743L274.796,766.22L204.538,715.116L428.582,188.225L728.955,10.743Z" style="fill:rgb(234,233,231);fill-rule:nonzero;"/>
            </g>
            <g transform="matrix(0.793728,-0.458259,0.458259,0.793728,-188.408,173.823)">
                <path d="M191.344,718.487L408.393,165.761L730.397,0.59L681.931,82.04L439.078,226.983L224.727,737.578L191.344,718.487Z" style="fill:white;fill-rule:nonzero;"/>
            </g>
            <g transform="matrix(0.793728,-0.458259,0.458259,0.793728,-188.408,173.823)">
                <path d="M730.397,0.59L278.297,779.14L354.753,801.036L725.513,347.153L730.397,0.59Z" style="fill:rgb(169,170,172);fill-rule:nonzero;"/>
            </g>
            <g transform="matrix(0.793728,-0.458259,0.458259,0.793728,-188.408,173.823)">
                <path d="M254.61,743.757L530.485,231.235L604.163,216.622L274.796,766.22L254.61,743.757Z" style="fill:rgb(169,170,172);fill-rule:nonzero;"/>
            </g>
            <g transform="matrix(0.793728,-0.458259,0.458259,0.793728,-188.408,173.823)">
                <path d="M275.236,765.753L604.38,212.362L625.371,289.87L304.681,772.397L275.236,765.753Z" style="fill:rgb(234,233,231);fill-rule:nonzero;"/>
            </g>
        </g>
        <g>
            <g transform="matrix(0.82374,7.23129e-17,0,1.19392,277.892,-306.231)">
                <path d="M212.395,991.311C212.395,950.932 164.88,918.149 106.354,918.149C47.829,918.149 0.314,950.932 0.314,991.311L0.314,1073.17C0.314,1113.55 47.829,1146.33 106.354,1146.33C164.88,1146.33 212.395,1113.55 212.395,1073.17L212.395,991.311Z" style="fill:rgb(152,176,162);"/>
            </g>
            <g transform="matrix(0.567561,4.97003e-17,0,1.27304,284.823,-377.088)">
                <path d="M162.826,930.117C162.826,911.05 128.106,895.571 85.34,895.571C42.573,895.571 7.853,911.05 7.853,930.117L7.853,1060.93C7.853,1080 42.573,1095.48 85.34,1095.48C128.106,1095.48 162.826,1080 162.826,1060.93L162.826,930.117Z" style="fill:rgb(243,254,238);"/>
            </g>
            <g transform="matrix(0.605375,5.28022e-17,0,0.863692,262.04,10.3561)">
                <rect x="26.611" y="763.548" width="288.582" height="318.545" style="fill:rgb(109,76,22);"/>
                <clipPath id="_clip1">
                    <rect x="26.611" y="763.548" width="288.582" height="318.545"/>
                </clipPath>
                <g clip-path="url(#_clip1)">
                    <g transform="matrix(2.00199,-1.22393e-16,0,1.20941,-533.616,-60.0931)">
                        <rect x="287.686" y="734.739" width="72.022" height="197.586" style="fill:rgb(134,93,26);"/>
                    </g>
                    <g transform="matrix(2.01635,-5.17845e-17,0,0.416323,-124.933,476.774)">
                        <rect x="60.653" y="913.302" width="165.956" height="111.109" style="fill:rgb(80,55,15);"/>
                    </g>
                    <g transform="matrix(2.01635,-5.17845e-17,0,0.416323,-124.933,585.828)">
                        <rect x="60.653" y="913.302" width="165.956" height="111.109" style="fill:rgb(80,55,15);"/>
                    </g>
                </g>
            </g>
            <g transform="matrix(1,0,0,1,-8.53764,-10.0557)">
                <path d="M503.959,658.511C503.959,646.279 494.028,636.349 481.797,636.349L274.257,636.349C262.025,636.349 252.094,646.279 252.094,658.511L252.094,702.836C252.094,715.067 262.025,724.998 274.257,724.998L481.797,724.998C494.028,724.998 503.959,715.067 503.959,702.836L503.959,658.511Z" style="fill:rgb(130,90,25);"/>
                <clipPath id="_clip2">
                    <path d="M503.959,658.511C503.959,646.279 494.028,636.349 481.797,636.349L274.257,636.349C262.025,636.349 252.094,646.279 252.094,658.511L252.094,702.836C252.094,715.067 262.025,724.998 274.257,724.998L481.797,724.998C494.028,724.998 503.959,715.067 503.959,702.836L503.959,658.511Z"/>
                </clipPath>
                <g clip-path="url(#_clip2)">
                    <g transform="matrix(1.12862,0,0,0.725858,-261.319,197.406)">
                        <rect x="433.56" y="559.599" width="121.463" height="200.147" style="fill:rgb(167,115,32);"/>
                    </g>
                </g>
            </g>
        </g>
    </g>
</svg>
