<?xml version="1.0" encoding="UTF-8" standalone="no"?>
<!DOCTYPE svg PUBLIC "-//W3C//DTD SVG 1.1//EN" "http://www.w3.org/Graphics/SVG/1.1/DTD/svg11.dtd">
<svg width="100%" height="100%" viewBox="0 0 930 1021" version="1.1" xmlns="http://www.w3.org/2000/svg" xmlns:xlink="http://www.w3.org/1999/xlink" xml:space="preserve" style="fill-rule:evenodd;clip-rule:evenodd;stroke-linecap:round;stroke-linejoin:round;stroke-miterlimit:1.5;">
    <g id="Timer" transform="matrix(0.962734,0,0,0.962734,17.4189,18.9144)">
        <path id="Ellipse" d="M0.761,560.337C0.761,306.274 208.567,100.322 464.906,100.322C721.249,100.322 929.052,306.274 929.052,560.337C929.052,814.398 721.249,1020.35 464.906,1020.35C208.567,1020.35 0.761,814.398 0.761,560.337Z" style="fill:rgb(119,161,193);fill-rule:nonzero;"/>
        <path id="Ellipse2" d="M85.151,560.337C85.151,352.466 255.171,183.961 464.906,183.961C674.642,183.961 844.664,352.466 844.664,560.337C844.664,768.207 674.642,936.71 464.906,936.71C255.171,936.71 85.151,768.207 85.151,560.337Z" style="fill:white;fill-rule:nonzero;"/>
        <path id="Ellipse3" d="M431.15,250.872C431.15,237.014 442.484,225.781 456.472,225.781C470.451,225.781 481.789,237.014 481.789,250.872C481.789,264.731 470.451,275.964 456.472,275.964C442.484,275.964 431.15,264.731 431.15,250.872Z" style="fill:rgb(119,161,193);fill-rule:nonzero;"/>
        <path id="Ellipse4" d="M734.958,559.628C734.958,545.77 746.292,534.536 760.273,534.536C774.26,534.536 785.59,545.77 785.59,559.628C785.59,573.487 774.26,584.72 760.273,584.72C746.292,584.72 734.958,573.487 734.958,559.628Z" style="fill:rgb(119,161,193);fill-rule:nonzero;"/>
        <path id="Ellipse5" d="M448.029,853.074C448.029,839.214 459.369,827.982 473.35,827.982C487.331,827.982 498.663,839.214 498.663,853.074C498.663,866.93 487.331,878.164 473.35,878.164C459.369,878.164 448.029,866.93 448.029,853.074Z" style="fill:rgb(119,161,193);fill-rule:nonzero;"/>
        <path id="Ellipse6" d="M136.025,551.972C136.025,538.114 147.355,526.882 161.342,526.882C175.323,526.882 186.658,538.114 186.658,551.972C186.658,565.831 175.323,577.065 161.342,577.065C147.355,577.065 136.025,565.831 136.025,551.972Z" style="fill:rgb(119,161,193);fill-rule:nonzero;"/>
        <path id="Ellipse7" d="M215.964,559.751C215.964,420.22 328.89,307.11 468.188,307.11C607.486,307.11 720.407,420.22 720.407,559.751C720.407,699.283 607.486,812.394 468.188,812.394C328.89,812.394 215.964,699.283 215.964,559.751Z" style="fill:white;fill-rule:nonzero;"/>
        <path id="Ellipse8" d="M415.939,507.944C444.94,479.331 491.907,479.272 520.839,507.812C549.767,536.353 549.707,582.686 520.708,611.298C491.699,639.911 444.732,639.97 415.8,611.428C386.871,582.887 386.927,536.556 415.939,507.944Z" style="fill:rgb(241,116,130);fill-rule:nonzero;"/>
        <rect x="433.271" y="39.147" width="46.565" height="91.869" style="fill:rgb(119,161,193);"/>
        <path d="M565.18,35.328C565.18,16.314 549.743,0.877 530.729,0.877L390.093,0.877C371.079,0.877 355.642,16.314 355.642,35.328C355.642,54.342 371.079,69.779 390.093,69.779L530.729,69.779C549.743,69.779 565.18,54.342 565.18,35.328Z" style="fill:rgb(119,161,193);"/>
        <g transform="matrix(0.812809,0,0,1,93.2904,0)">
            <path d="M498.371,522.488L759.213,559.751L499.824,597.308L498.371,522.488Z" style="fill:rgb(241,116,130);fill-rule:nonzero;"/>
        </g>
        <path id="Ellipse11" d="M235.003,339.275C235.003,332.177 240.835,326.424 248.02,326.424C255.205,326.424 261.027,332.177 261.027,339.275C261.027,346.372 255.205,352.124 248.02,352.124C240.835,352.124 235.003,346.372 235.003,339.275Z" style="fill:rgb(119,161,193);fill-rule:nonzero;"/>
        <path id="Ellipse12" d="M235,766.002C235,758.271 240.827,752 248.005,752C255.184,752 261,758.271 261,766.002C261,773.732 255.184,780 248.005,780C240.827,780 235,773.732 235,766.002Z" style="fill:rgb(119,161,193);fill-rule:nonzero;"/>
        <path id="Ellipse13" d="M686.138,759.057C686.138,751.96 691.963,746.208 699.149,746.208C706.338,746.208 712.164,751.96 712.164,759.057C712.164,766.156 706.338,771.908 699.149,771.908C691.963,771.908 686.138,766.156 686.138,759.057Z" style="fill:rgb(119,161,193);fill-rule:nonzero;"/>
        <g transform="matrix(0.999963,-0.00863783,0.00863783,0.999963,-14.0297,10.9674)">
            <path d="M575.149,280.564C647.796,308.01 724.203,393.001 744.398,457.676" style="fill:none;stroke:rgb(173,227,217);stroke-width:83.1px;"/>
        </g>
    </g>
</svg>
