<?xml version="1.0" encoding="UTF-8" standalone="no"?>
<!DOCTYPE svg PUBLIC "-//W3C//DTD SVG 1.1//EN" "http://www.w3.org/Graphics/SVG/1.1/DTD/svg11.dtd">
<svg width="100%" height="100%" viewBox="0 0 819 891" version="1.1" xmlns="http://www.w3.org/2000/svg" xmlns:xlink="http://www.w3.org/1999/xlink" xml:space="preserve" style="fill-rule:evenodd;clip-rule:evenodd;stroke-linecap:round;stroke-linejoin:round;stroke-miterlimit:1.5;">
    <g id="Witch">
        <path d="M167.973,502.446C167.973,502.446 319.013,2.653 406.624,0.051C494.236,-2.553 782.947,250.176 771.26,298.191C759.573,346.205 582.074,315.341 568.192,324.266C554.311,333.193 625.367,506.792 625.367,506.792L167.973,502.446Z" style="fill:rgb(68,68,68);fill-rule:nonzero;"/>
        <path d="M167.973,502.446L419.974,504.806L419.974,1.255C415.13,0.335 410.663,-0.069 406.624,0.051C319.013,2.653 167.973,502.446 167.973,502.446Z" style="fill:rgb(85,85,85);fill-rule:nonzero;"/>
        <path id="Ellipse" d="M128.965,666.523C128.965,557.174 254.556,468.531 409.485,468.531C564.414,468.531 690.005,557.174 690.005,666.523C690.005,775.874 564.414,864.516 409.485,864.516C254.556,864.516 128.965,775.874 128.965,666.523Z" style="fill:rgb(207,99,111);fill-rule:nonzero;"/>
        <path id="Ellipse2" d="M192.776,621.763C192.776,473.517 296.947,567.527 417.321,567.527C537.695,567.527 628.685,473.517 628.685,621.763C628.685,770.008 531.105,890.182 410.73,890.182C290.357,890.182 192.776,770.008 192.776,621.763Z" style="fill:rgb(255,204,174);fill-rule:nonzero;"/>
        <g transform="matrix(1,0,0,1,1.27886,0)">
            <g transform="matrix(0.979947,0,0,1,9.37076,10.4167)">
                <path d="M262.369,749.41C290.323,722.581 314.294,718.369 344.141,747.735" style="fill:none;stroke:rgb(68,68,68);stroke-width:9.5px;"/>
            </g>
            <g transform="matrix(0.979947,0,0,1,215.185,10.4167)">
                <path d="M262.369,749.41C290.323,722.581 314.294,718.369 344.141,747.735" style="fill:none;stroke:rgb(68,68,68);stroke-width:9.5px;"/>
            </g>
        </g>
        <g transform="matrix(1,0,0,1,6.29252,0)">
            <path d="M355.549,820.899C389.47,863.002 422.029,861.926 453.327,820.899" style="fill:none;stroke:rgb(207,99,111);stroke-width:9.5px;"/>
        </g>
        <path d="M290.896,846.006C195.242,814.469 128.965,745.96 128.965,666.523C128.965,557.174 254.556,468.531 409.485,468.531C564.414,468.531 690.005,557.174 690.005,666.523C690.005,744.784 625.675,812.438 532.301,844.581C497.573,873.376 455.745,890.182 410.73,890.182C366.463,890.182 325.278,873.93 290.896,846.006Z" style="fill:rgb(207,99,111);fill-opacity:0;"/>
        <clipPath id="_clip1">
            <path d="M290.896,846.006C195.242,814.469 128.965,745.96 128.965,666.523C128.965,557.174 254.556,468.531 409.485,468.531C564.414,468.531 690.005,557.174 690.005,666.523C690.005,744.784 625.675,812.438 532.301,844.581C497.573,873.376 455.745,890.182 410.73,890.182C366.463,890.182 325.278,873.93 290.896,846.006Z"/>
        </clipPath>
        <g clip-path="url(#_clip1)">
            <g id="Ellipse3" transform="matrix(0.812624,0,0,1.13912,76.2769,-41.3875)">
                <path d="M0.394,582.678C0.394,522.443 183.547,473.614 409.485,473.614C635.423,473.614 818.576,522.443 818.576,582.678C818.576,642.913 650.084,713.184 424.147,713.184C198.209,713.184 0.394,642.913 0.394,582.678Z" style="fill:rgb(68,68,68);fill-opacity:0.266667;fill-rule:nonzero;"/>
            </g>
        </g>
        <path id="Ellipse31" d="M0.394,582.678C0.394,522.443 183.547,473.614 409.485,473.614C635.423,473.614 818.576,522.443 818.576,582.678C818.576,642.913 650.084,713.184 424.147,713.184C198.209,713.184 0.394,642.913 0.394,582.678Z" style="fill:rgb(68,68,68);fill-rule:nonzero;"/>
        <g transform="matrix(1,0,0,1.01629,0,-11.6195)">
            <path d="M0.394,582.678C0.394,642.542 195.779,712.371 419.974,713.229L419.974,473.614L409.485,473.614C183.547,473.614 0.394,522.443 0.394,582.678Z" style="fill:rgb(85,85,85);fill-rule:nonzero;"/>
        </g>
        <g transform="matrix(0.953788,0,0,1,10.8539,-19.0981)">
            <path d="M636.812,508.961C648.412,508.961 613.265,419.871 601.666,419.871L198.822,419.871C187.222,419.871 158.074,508.961 169.673,508.961L636.812,508.961Z" style="fill:rgb(241,116,130);"/>
        </g>
        <g transform="matrix(1,0,0,1,0,-19.0981)">
            <path d="M373.889,427.481L445.081,427.481C451.01,427.481 455.816,432.778 455.816,439.312L455.816,487.356C455.816,493.892 451.01,499.188 445.081,499.188L373.889,499.188C367.96,499.188 363.154,493.892 363.154,487.356L363.154,439.312C363.154,432.778 367.96,427.481 373.889,427.481ZM359.526,391.628C340.842,391.628 325.695,408.322 325.695,428.915L325.695,497.753C325.695,518.347 340.842,535.042 359.526,535.042L459.443,535.042C478.128,535.042 493.275,518.347 493.275,497.753L493.275,428.915C493.275,408.322 478.128,391.628 459.443,391.628L359.526,391.628Z" style="fill:rgb(221,221,221);fill-rule:nonzero;"/>
        </g>
        <g transform="matrix(1,0,0,1,0,-19.0981)">
            <path d="M359.526,391.628C340.842,391.628 325.695,408.322 325.695,428.915L325.695,497.753C325.695,518.347 340.842,535.042 359.526,535.042L419.974,535.017L419.974,499.135L373.889,499.188C367.96,499.188 363.154,493.892 363.154,487.356L363.154,439.312C363.154,432.778 367.96,427.481 373.889,427.481L419.974,427.479L419.974,391.597L359.526,391.628Z" style="fill:white;fill-rule:nonzero;"/>
        </g>
        <g transform="matrix(1,0,0,1,4.52404,0)">
            <g id="Ellipse4" transform="matrix(1,0,0,1,0,-8.76843)">
                <path d="M472.214,824.385C469.506,811.726 483.835,796.501 503.491,790.708C522.366,785.144 538.938,790.483 541.155,802.342C543.353,814.099 530.723,828.519 512.318,834.858C493.164,841.456 474.897,836.926 472.214,824.385Z" style="fill:rgb(255,133,150);fill-opacity:0.3608;fill-rule:nonzero;"/>
            </g>
            <g id="Ellipse5" transform="matrix(1,0,0,1,9.20609,-1.24331)">
                <path d="M262.13,795.052C264.833,782.392 283.425,777.67 302.89,784.359C321.582,790.779 333.901,805.336 331.089,817.006C328.303,828.576 311.516,833.609 292.924,828.145C273.574,822.46 259.452,807.595 262.13,795.052Z" style="fill:rgb(255,133,150);fill-opacity:0.3608;fill-rule:nonzero;"/>
            </g>
        </g>
    </g>
</svg>
